<?xml version="1.0" standalone="no"?>
<!DOCTYPE svg PUBLIC "-//W3C//DTD SVG 20010904//EN"
 "http://www.w3.org/TR/2001/REC-SVG-20010904/DTD/svg10.dtd">
<svg version="1.0" xmlns="http://www.w3.org/2000/svg"
 width="1024.000000pt" height="1024.000000pt" viewBox="0 0 1024.000000 1024.000000"
 preserveAspectRatio="xMidYMid meet">

<g transform="translate(0.000000,1024.000000) scale(0.100000,-0.100000)"
fill="#000000" stroke="none">
<path d="M5021 7979 c-14 -5 -31 -18 -38 -29 -7 -10 -39 -26 -71 -35 -31 -9
-70 -25 -87 -35 -18 -11 -49 -18 -77 -18 -76 0 -124 -49 -117 -119 2 -17 -7
-44 -23 -68 -14 -22 -28 -50 -32 -63 -4 -12 -19 -28 -34 -36 -46 -24 -65 -52
-66 -101 l-1 -45 -45 -6 c-25 -3 -51 -6 -59 -7 -14 -2 -21 8 -40 56 -6 15 -16
27 -22 27 -11 0 -9 -21 7 -77 6 -23 5 -23 -97 -23 l-104 0 -17 30 c-19 33 -40
44 -107 54 -40 6 -43 5 -38 -13 4 -16 -7 -28 -51 -57 -37 -25 -57 -33 -60 -25
-2 7 -15 24 -27 39 -18 21 -26 24 -36 15 -9 -9 -7 -18 10 -39 28 -36 27 -48
-11 -73 l-33 -21 -22 25 c-12 14 -26 33 -32 42 -7 14 -13 15 -22 6 -9 -9 -6
-20 11 -48 25 -40 19 -55 -31 -81 -34 -17 -49 -18 -49 -1 -1 19 -228 249 -235
237 -9 -14 22 -53 129 -167 47 -50 86 -94 86 -97 0 -3 -18 -6 -40 -6 -41 0
-71 -17 -195 -111 -50 -38 -50 -38 -71 -18 -23 21 -44 25 -44 8 0 -7 16 -31
35 -55 19 -23 35 -47 35 -52 0 -6 -16 -20 -35 -32 l-36 -22 -45 42 c-36 33
-48 39 -55 29 -5 -9 3 -22 27 -42 52 -43 60 -64 34 -92 -20 -22 -21 -23 -4
-59 l18 -36 -38 -35 c-39 -36 -39 -42 -3 -82 l20 -23 -47 0 c-26 0 -60 -7 -75
-15 -46 -23 -75 -107 -55 -160 4 -9 36 -32 73 -51 36 -19 83 -47 103 -61 31
-21 35 -29 27 -44 -9 -18 -12 -18 -39 -4 -16 8 -35 23 -42 33 -15 21 -43 34
-52 25 -3 -4 4 -17 16 -30 12 -12 19 -25 16 -28 -6 -6 -272 130 -313 161 -30
22 -178 97 -215 109 -13 4 -20 2 -20 -7 0 -15 167 -98 198 -98 25 0 44 -23 36
-44 -4 -11 3 -21 22 -31 16 -9 79 -43 139 -77 61 -33 112 -62 114 -64 2 -2 -2
-17 -9 -34 -14 -35 -42 -54 -56 -40 -6 6 -37 21 -69 34 -170 67 -384 156 -410
170 -36 19 -58 21 -53 4 7 -21 491 -228 532 -228 12 0 16 -9 16 -35 0 -40 12
-49 108 -86 57 -22 79 -39 49 -39 -34 0 -154 43 -196 69 -56 36 -161 65 -208
58 -26 -5 -46 2 -96 32 -163 100 -377 163 -377 113 0 -10 -2 -21 -5 -24 -6 -6
-116 17 -275 57 -52 13 -96 22 -98 21 -9 -9 47 -127 89 -191 74 -110 182 -205
303 -265 55 -27 92 -50 83 -50 -12 0 -17 -8 -17 -30 0 -34 1 -34 -37 -19 -39
14 -395 91 -400 85 -2 -2 9 -30 25 -62 105 -207 289 -346 545 -413 139 -37
194 -58 201 -77 7 -19 -2 -18 -112 16 -54 16 -126 34 -162 40 -96 16 -294 39
-298 35 -10 -10 57 -111 114 -173 35 -39 64 -72 64 -75 0 -2 -69 -7 -152 -10
-178 -5 -245 -22 -295 -72 -24 -24 -33 -42 -33 -67 0 -96 126 -171 400 -237
175 -42 363 -79 545 -109 l110 -18 3 -37 3 -37 -321 0 c-253 0 -321 -3 -318
-12 4 -10 79 -14 324 -16 l319 -2 21 -33 c13 -19 46 -46 77 -62 31 -16 53 -33
51 -37 -3 -4 -221 -8 -485 -8 -313 0 -479 -3 -479 -10 0 -7 206 -10 598 -11
328 0 615 -3 637 -7 31 -6 41 -12 43 -30 3 -20 -1 -22 -38 -22 -23 0 -57 -7
-74 -15 -33 -16 -341 -329 -362 -368 -7 -11 -63 -67 -125 -124 l-114 -103 -77
0 c-63 0 -78 -3 -78 -15 0 -12 13 -15 60 -15 60 0 72 -8 46 -29 -8 -6 -19 -25
-26 -41 l-12 -30 -139 0 c-117 0 -139 -2 -139 -15 0 -13 22 -15 135 -15 l135
0 0 -44 c0 -24 3 -51 6 -60 8 -20 -61 -63 -161 -99 -62 -22 -105 -30 -188 -34
-104 -6 -107 -7 -91 -25 30 -33 176 -120 258 -155 195 -81 238 -112 319 -227
43 -61 140 -227 173 -298 9 -20 21 -35 25 -33 4 3 32 42 62 88 100 152 143
182 253 175 67 -5 82 -10 196 -74 483 -269 840 -388 1333 -445 139 -16 485
-16 630 0 461 51 892 190 1281 414 144 83 206 108 272 108 97 1 138 -31 241
-189 30 -45 55 -81 56 -80 2 2 26 48 55 103 64 122 145 248 197 305 50 56 94
83 219 135 102 42 215 106 286 163 l37 29 -107 6 c-119 6 -213 31 -305 80 -58
30 -59 31 -53 66 3 20 6 48 6 64 l0 27 145 0 c122 0 145 2 145 15 0 13 -23 15
-149 15 l-148 0 -31 50 -31 49 66 3 c42 2 68 8 71 16 3 9 -18 12 -82 12 l-85
0 -63 58 c-71 66 -117 107 -141 125 -9 6 -23 25 -30 40 -22 42 -306 341 -348
366 -23 13 -54 21 -83 21 -42 0 -46 2 -46 24 0 20 6 24 46 30 26 3 314 6 640
6 389 0 594 3 594 10 0 7 -168 10 -485 10 -267 0 -485 4 -485 8 0 5 18 17 40
27 22 10 58 38 80 61 l40 44 317 2 c242 2 317 6 321 16 3 9 -65 12 -317 12
l-321 0 0 38 0 38 113 18 c249 39 592 114 726 158 131 43 231 123 231 185 0
13 -16 40 -35 62 -50 55 -114 72 -302 78 -84 3 -153 8 -153 10 0 3 27 35 60
71 55 59 127 168 119 177 -5 5 -227 -20 -309 -35 -36 -6 -108 -24 -162 -40
-109 -34 -108 -34 -108 -19 0 15 83 49 185 74 219 54 373 145 485 284 49 61
118 186 109 195 -6 7 -358 -66 -402 -83 -42 -16 -50 -14 -43 14 5 18 2 27 -9
31 -10 4 19 23 82 55 118 58 200 124 270 216 47 61 101 163 117 220 6 19 4 20
-26 13 -66 -16 -339 -80 -344 -80 -2 0 -4 14 -4 30 0 30 0 30 -42 24 -91 -14
-280 -94 -355 -150 -24 -18 -39 -22 -62 -18 -48 10 -146 -15 -209 -54 -53 -32
-208 -79 -220 -67 -3 3 26 19 64 35 118 52 115 51 112 84 -2 24 1 31 22 37 29
8 181 69 393 159 90 38 147 67 147 76 0 18 -4 18 -43 -3 -18 -9 -52 -24 -77
-33 -80 -29 -367 -148 -410 -170 -23 -12 -46 -18 -51 -13 -15 15 -38 67 -33
74 2 5 70 43 149 85 119 63 144 80 142 97 -2 16 8 24 43 37 69 26 200 92 200
102 0 19 -42 4 -155 -57 -216 -117 -413 -214 -419 -208 -3 4 3 17 15 29 13 14
17 24 10 28 -14 9 -51 -11 -51 -28 0 -13 -41 -36 -65 -36 -26 0 -16 27 18 52
17 14 62 42 99 63 84 48 98 75 74 140 -26 66 -59 88 -123 83 -29 -3 -53 -3
-53 -1 0 3 12 20 27 40 l27 35 -38 35 -38 35 18 39 c17 38 17 40 -3 62 -11 12
-19 27 -17 32 2 6 -16 23 -41 38 -25 16 -45 32 -45 36 0 4 16 26 36 49 23 28
34 48 30 59 -6 14 -10 13 -34 -10 l-27 -26 -74 55 c-57 43 -76 53 -83 42 -8
-10 -9 -9 -5 3 8 25 -75 80 -88 59 -4 -6 -10 -10 -16 -10 -15 0 -10 27 8 41
38 31 202 232 197 241 -3 5 -9 8 -13 6 -11 -5 -211 -228 -211 -236 0 -4 -4
-13 -9 -20 -7 -11 -19 -9 -60 12 -28 15 -51 31 -51 36 0 5 9 25 21 44 19 32
19 56 1 56 -4 0 -18 -18 -32 -40 -14 -22 -29 -40 -34 -40 -5 0 -24 9 -42 21
-35 21 -35 23 -1 72 15 22 17 31 8 40 -13 12 -29 -2 -57 -49 -11 -18 -12 -18
-45 0 -19 10 -45 27 -58 38 l-24 19 21 43 c19 41 20 56 0 56 -4 0 -18 -17 -32
-38 -15 -24 -32 -38 -47 -39 -49 -4 -69 -14 -84 -43 l-16 -30 -105 0 c-105 0
-106 0 -100 23 18 62 19 80 5 75 -8 -2 -19 -20 -25 -38 -14 -41 -21 -44 -87
-36 l-52 7 0 49 c0 37 -5 54 -24 74 -14 14 -30 26 -38 26 -7 0 -22 19 -34 43
-12 23 -28 50 -37 59 -8 10 -15 39 -16 67 -1 34 -8 57 -21 71 -31 34 -73 52
-104 45 -20 -4 -42 2 -76 19 -26 14 -63 28 -83 32 -21 3 -50 19 -67 34 -34 32
-88 44 -124 29z m90 -50 c16 -16 20 -29 15 -51 -3 -17 -6 -43 -6 -58 0 -27 -1
-28 -30 -17 -34 13 -41 37 -11 37 24 0 37 36 21 55 -13 16 -38 19 -64 9 -18
-7 -21 -36 -6 -65 8 -14 7 -25 -3 -40 -13 -17 -15 -18 -21 -4 -3 9 -6 41 -6
70 0 44 4 57 22 69 31 22 64 20 89 -5z m-141 -47 c0 -4 -29 -18 -65 -30 -36
-13 -67 -28 -71 -33 -7 -12 -34 -11 -34 1 0 6 28 24 63 40 59 29 107 38 107
22z m285 -16 c47 -21 89 -56 68 -56 -5 0 -27 9 -48 20 -22 12 -59 26 -82 32
-24 5 -43 14 -43 19 0 17 55 9 105 -15z m-483 -48 c9 -7 24 -26 34 -43 l19
-30 -38 24 c-35 22 -39 22 -62 7 -37 -24 -34 -62 5 -71 30 -7 69 -49 56 -62
-3 -4 -21 8 -39 25 -18 18 -38 32 -44 32 -14 0 -67 -83 -84 -132 -7 -21 -20
-38 -29 -39 -16 -1 -15 -1 29 -15 11 -4 10 -8 -4 -24 -10 -11 -23 -20 -30 -20
-7 0 -20 -9 -29 -19 -14 -15 -15 -24 -6 -40 6 -12 17 -21 24 -21 9 0 17 -16
21 -42 4 -24 18 -70 31 -102 13 -33 22 -61 20 -63 -9 -9 -49 62 -72 129 -13
39 -31 82 -39 94 -8 13 -15 44 -15 69 0 41 3 48 31 63 19 11 43 41 66 85 20
38 42 71 48 74 8 3 11 19 8 47 -5 38 -2 45 22 64 31 25 54 28 77 10z m665 -14
c21 -21 25 -32 20 -64 -4 -30 -1 -43 15 -57 11 -10 33 -43 48 -73 15 -30 42
-65 59 -78 37 -27 41 -64 11 -119 -11 -21 -20 -44 -20 -51 0 -45 -78 -201 -93
-186 -3 4 5 28 18 54 13 26 30 69 36 96 7 27 20 60 31 73 26 35 23 49 -19 69
-44 20 -49 43 -13 53 14 4 18 7 9 8 -9 1 -22 15 -29 31 -7 17 -28 56 -46 86
-22 37 -32 64 -28 78 3 15 -3 29 -21 46 -25 23 -25 23 -41 4 -11 -14 -17 -16
-21 -6 -4 10 -12 8 -31 -10 -28 -25 -22 -11 15 40 30 40 64 42 100 6z m-477
-4 c0 -5 -13 -10 -28 -10 -15 0 -33 -5 -40 -12 -9 -9 -12 -9 -12 0 0 14 34 30
63 31 9 1 17 -3 17 -9z m264 -3 c15 -11 15 -15 4 -23 -9 -7 -19 -4 -35 13 -20
20 -20 23 -5 23 10 0 26 -6 36 -13z m-372 -74 c10 -9 18 -20 18 -25 0 -16 -18
-8 -34 17 -19 29 -11 33 16 8z m446 -5 c-6 -18 -28 -21 -28 -4 0 9 7 16 16 16
9 0 14 -5 12 -12z m102 -26 c0 -5 -13 -21 -30 -37 -23 -22 -30 -25 -30 -12 0
9 9 26 20 37 21 21 40 26 40 12z m-213 -58 c74 -43 120 -133 107 -209 l-7 -40
-13 64 c-37 180 -221 248 -349 130 -69 -64 -92 -158 -60 -244 6 -15 3 -14 -11
5 -23 30 -30 125 -14 175 21 65 83 121 160 146 44 15 140 1 187 -27z m198 -24
c-3 -5 -12 -10 -18 -10 -7 0 -6 4 3 10 19 12 23 12 15 0z m-235 -20 c109 -55
123 -241 24 -319 -145 -114 -347 47 -280 222 39 103 157 148 256 97z m-433
-56 c-3 -3 -12 -4 -19 -1 -8 3 -5 6 6 6 11 1 17 -2 13 -5z m-67 -64 c0 -16 -4
-30 -9 -30 -10 0 -22 40 -15 52 11 18 24 6 24 -22z m850 0 c0 -10 -4 -21 -9
-25 -12 -7 -25 31 -16 45 9 15 25 2 25 -20z m-720 0 c10 0 20 -9 23 -20 4 -15
0 -20 -13 -20 -11 0 -22 5 -25 10 -4 6 -15 8 -25 5 -10 -3 -22 -1 -25 6 -9 14
15 31 33 24 8 -3 22 -5 32 -5z m630 -10 c0 -15 -7 -20 -29 -20 -17 0 -33 -5
-36 -10 -8 -13 -25 -3 -25 15 0 8 15 19 33 24 49 14 57 13 57 -9z m-1359 -30
c29 -16 23 -30 -14 -30 -40 0 -57 -15 -57 -51 0 -31 16 -47 57 -55 41 -8 70 9
78 46 8 35 25 40 25 7 0 -13 -10 -33 -22 -44 -31 -27 -96 -63 -114 -63 -8 0
-14 -5 -14 -12 0 -6 -6 -4 -13 7 -16 21 -40 11 -32 -13 4 -13 -21 -33 -102
-82 -129 -78 -123 -75 -123 -57 0 7 17 26 37 40 42 30 40 35 -3 12 -46 -24
-80 -19 -103 14 -12 16 -21 34 -21 39 0 6 35 32 77 59 42 26 127 81 188 120
115 76 124 80 156 63z m2091 -13 c73 -43 303 -191 335 -214 20 -15 34 -19 38
-12 9 13 45 -18 45 -38 0 -22 -79 -123 -96 -123 -17 0 -29 25 -20 43 4 6 17
29 30 50 21 35 24 37 29 17 3 -12 11 -20 18 -18 22 7 20 24 -5 36 -20 9 -27 7
-47 -14 -12 -13 -28 -24 -36 -24 -7 0 -13 -5 -13 -10 0 -6 -14 -4 -32 6 l-33
16 30 -25 c63 -53 11 -37 -97 28 -134 80 -126 74 -109 84 11 7 9 12 -9 21 -17
9 -24 9 -30 0 -5 -8 -25 -3 -71 20 -80 40 -99 57 -99 87 0 34 18 28 34 -11 15
-37 49 -51 98 -41 36 8 52 43 38 81 -10 24 -14 26 -50 21 -45 -6 -51 4 -18 27
28 20 26 20 70 -7z m-1629 -42 c20 -19 11 -51 -16 -60 -26 -8 -27 -8 -49 0
-14 6 -18 2 -18 -16 0 -19 -2 -21 -10 -9 -8 13 -10 12 -10 -2 0 -10 -7 -18
-15 -18 -9 0 -15 -9 -16 -22 0 -22 -38 93 -39 119 0 24 151 31 173 8z m291 1
c-9 -23 -124 -38 -124 -16 0 6 22 10 49 10 28 0 53 5 56 10 9 15 25 12 19 -4z
m930 8 c29 -4 46 -12 46 -20 0 -24 -32 -94 -40 -89 -5 3 -11 -1 -13 -7 -3 -7
-6 -2 -6 11 -1 20 -3 21 -16 11 -12 -10 -15 -10 -15 2 0 10 -14 18 -39 22 -29
4 -40 12 -44 28 -12 45 22 56 127 42z m-294 -24 c11 -7 1 -10 -35 -10 -27 0
-57 5 -65 10 -11 7 -1 10 35 10 28 0 57 -5 65 -10z m-1116 -22 c23 -33 21 -61
-4 -53 -12 4 -20 2 -20 -5 0 -8 -15 -11 -45 -8 -36 2 -46 0 -53 -17 -9 -19
-10 -19 -20 6 -6 15 -14 43 -17 63 l-7 36 75 0 c67 0 78 -3 91 -22z m1636 12
c0 -5 -5 -30 -12 -55 -12 -44 -28 -61 -28 -29 0 10 -4 12 -12 7 -7 -4 -32 -8
-55 -8 -39 0 -43 2 -43 24 0 24 0 24 -15 5 -14 -19 -14 -19 -15 1 0 11 7 31
16 43 13 19 24 22 90 22 42 0 74 -4 74 -10z m-1810 -67 c0 -10 -11 -23 -25
-30 -31 -14 -32 -7 -2 22 28 29 27 28 27 8z m630 -9 c0 -6 -65 -34 -80 -34 -5
0 -10 5 -10 10 0 6 12 10 28 10 15 0 34 5 42 10 18 11 20 12 20 4z m633 -21
c-7 -2 -19 -2 -25 0 -7 3 -2 5 12 5 14 0 19 -2 13 -5z m-540 -45 c18 -24 18
-30 7 -58 -7 -17 -17 -33 -22 -36 -5 -4 -2 8 6 25 26 49 -10 95 -54 71 -29
-16 -35 -12 -15 10 24 27 53 22 78 -12z m452 12 c20 -22 14 -26 -16 -9 -28 14
-49 -5 -49 -45 -1 -27 -2 -29 -12 -12 -8 14 -7 27 6 52 18 39 44 44 71 14z
m676 -8 c-5 -10 -18 -25 -27 -33 -11 -9 -9 -2 6 19 26 35 36 42 21 14z m-1227
-44 c11 -32 1 -73 -24 -98 -27 -27 -36 -25 -71 10 -42 42 -38 88 10 112 40 20
72 11 85 -24z m667 19 c52 -35 49 -87 -6 -123 -62 -40 -123 81 -64 128 27 23
29 23 70 -5z m-1821 -18 c0 -5 -7 -9 -15 -9 -17 0 -21 -35 -5 -45 6 -3 13 1
16 9 9 24 19 20 49 -24 26 -37 27 -42 13 -57 -20 -19 -29 -14 -78 49 -44 55
-48 69 -24 93 12 12 19 13 30 4 8 -6 14 -15 14 -20z m973 19 c6 -19 -3 -38
-19 -38 -8 0 -14 -6 -14 -12 -1 -16 -39 33 -40 50 0 7 13 12 34 12 19 0 36 -6
39 -12z m1007 4 c0 -5 -9 -26 -20 -48 -18 -36 -19 -37 -20 -13 0 15 -7 29 -15
33 -30 11 -17 36 20 36 19 0 35 -4 35 -8z m-2070 -10 c0 -5 -9 -17 -20 -27
-16 -14 -20 -15 -20 -4 0 16 19 39 32 39 4 0 8 -4 8 -8z m980 -12 c9 -17 6
-24 -16 -45 -15 -14 -30 -25 -33 -26 -38 -5 -51 -4 -51 3 0 14 -30 -19 -31
-34 0 -7 -4 -4 -9 7 -8 19 -9 18 -9 -4 l-1 -24 -18 24 c-27 37 -46 78 -39 85
13 13 102 33 149 33 38 1 50 -3 58 -19z m1278 -1 c18 -6 32 -12 32 -12 0 -1
-11 -24 -24 -51 l-23 -49 -22 22 c-11 11 -21 17 -21 11 0 -5 -4 -10 -10 -10
-5 0 -10 6 -10 13 0 7 -14 14 -32 15 -56 4 -68 11 -68 41 0 15 3 31 8 35 9 10
129 0 170 -15z m837 1 c10 -11 15 -23 12 -27 -8 -7 -47 25 -47 39 0 14 16 9
35 -12z m-2668 -7 c3 -10 28 -65 55 -122 45 -98 52 -121 30 -107 -13 8 -112
210 -112 229 0 22 19 22 27 0z m2184 -128 c-27 -58 -55 -105 -61 -105 -7 0
-10 6 -7 13 3 6 24 57 47 112 48 115 63 140 68 107 2 -12 -19 -69 -47 -127z
m-2094 109 c3 -9 0 -20 -8 -25 -23 -14 -29 -11 -29 16 0 28 27 35 37 9z m2061
-13 c3 -19 0 -22 -13 -17 -9 3 -19 6 -21 6 -2 0 -4 9 -4 21 0 29 34 21 38 -10z
m-1962 -7 c4 -14 9 -21 13 -16 3 5 30 17 60 26 40 12 58 13 68 5 30 -26 4 -89
-36 -89 -10 0 -24 -7 -32 -16 -11 -14 -15 -11 -33 23 l-20 38 -6 -30 -6 -30
-23 43 c-22 43 -22 72 -2 72 6 0 14 -12 17 -26z m1767 7 c55 -19 56 -19 62 0
7 21 20 25 30 9 7 -12 -26 -100 -37 -100 -4 0 -5 15 -2 33 l6 32 -21 -30 c-11
-16 -21 -36 -21 -44 0 -9 -6 -7 -19 7 -10 12 -29 22 -43 22 -14 0 -33 8 -42
19 -14 15 -15 23 -5 45 15 31 20 32 92 7z m-2456 -8 c4 -12 -105 -103 -124
-103 -29 0 -10 31 45 74 56 44 72 50 79 29z m1653 7 c0 -5 -22 -10 -50 -10
-27 0 -50 5 -50 10 0 6 23 10 50 10 28 0 50 -4 50 -10z m1666 -66 c28 -23 36
-36 28 -43 -7 -8 -27 0 -70 30 -32 23 -61 43 -63 45 -2 2 -1 10 3 19 5 15 8
15 35 -1 15 -9 46 -31 67 -50z m-3192 10 c35 -55 45 -42 -108 -137 -55 -34
-114 -76 -131 -93 l-31 -31 -25 20 c-41 33 -35 -3 11 -69 25 -36 36 -60 29
-63 -13 -4 -45 32 -90 99 -28 43 -29 46 -12 60 10 9 19 22 21 30 2 8 7 17 10
20 218 162 283 209 292 209 3 1 18 -20 34 -45z m3181 -92 c61 -43 110 -83 110
-90 0 -6 8 -17 19 -25 18 -13 18 -15 -3 -56 -23 -45 -87 -121 -102 -121 -17 0
-9 18 31 71 22 30 40 65 40 78 0 24 -2 23 -47 -19 -26 -25 -40 -36 -30 -24 20
24 22 34 6 34 -6 0 -34 20 -63 45 -29 24 -87 67 -129 94 -42 28 -77 55 -77 61
0 15 19 51 38 72 16 20 -2 30 207 -120z m-2661 84 c15 -26 24 -54 22 -68 -3
-13 -5 -25 -5 -28 -1 -3 -6 2 -11 10 -8 12 -10 10 -10 -9 0 -33 -11 -21 -50
54 l-32 60 29 12 c15 7 29 12 30 13 0 0 13 -20 27 -44z m1985 20 c7 -9 2 -30
-16 -69 -35 -74 -51 -74 -44 1 1 12 -1 22 -4 22 -3 0 -10 -10 -15 -22 -7 -18
-9 -19 -9 -5 -1 10 8 35 19 57 15 30 24 37 39 33 11 -3 25 -11 30 -17z m-1032
-46 c9 0 25 7 35 17 10 9 20 14 23 11 3 -2 8 -32 11 -65 5 -46 3 -61 -7 -65
-10 -4 -14 3 -14 26 0 29 -2 31 -42 34 -42 3 -43 3 -43 -30 -1 -31 -2 -32 -15
-14 -14 19 -13 42 7 96 8 22 10 23 19 8 6 -10 17 -18 26 -18z m183 9 c0 -6 -4
-7 -10 -4 -5 3 -10 11 -10 16 0 6 5 7 10 4 6 -3 10 -11 10 -16z m-340 -1 c0
-4 -4 -8 -9 -8 -6 0 -12 4 -15 8 -3 5 1 9 9 9 8 0 15 -4 15 -9z m-931 -35 c27
-55 34 -83 21 -83 -6 0 -21 22 -34 49 l-22 49 -87 -50 c-79 -46 -88 -49 -102
-34 -20 20 -29 20 -21 1 4 -12 -2 -15 -28 -15 -19 0 -41 -3 -50 -6 -33 -13
-14 12 34 45 l50 34 29 -21 28 -21 34 21 c65 40 114 67 121 68 4 0 16 -17 27
-37z m827 16 c10 -11 45 -36 79 -54 65 -37 57 -47 -13 -15 -48 22 -112 68
-112 81 0 16 27 9 46 -12z m584 12 c0 -23 -129 -106 -152 -99 -6 2 9 16 33 31
24 14 58 37 74 51 32 27 45 32 45 17z m884 -37 l78 -46 23 22 c21 20 25 21 51
6 16 -8 43 -24 59 -35 l30 -21 -47 0 c-36 0 -48 4 -48 15 0 8 -4 15 -9 15 -5
0 -14 -7 -21 -15 -7 -8 -15 -15 -19 -15 -3 0 -44 23 -90 50 -46 28 -85 49 -85
48 -23 -54 -50 -100 -53 -91 -5 13 36 113 46 113 4 0 42 -21 85 -46z m-1624
21 c0 -8 -5 -15 -11 -15 -5 0 -7 -4 -4 -10 6 -9 -8 -14 -28 -11 -4 1 -5 -11
-1 -26 6 -26 4 -26 -20 9 -31 43 -32 55 -8 61 39 11 72 7 72 -8z m555 5 c3 -5
1 -10 -4 -10 -6 0 -11 5 -11 10 0 6 2 10 4 10 3 0 8 -4 11 -10z m350 0 l26
-10 -23 -31 c-17 -23 -24 -27 -26 -15 -2 9 -9 16 -17 16 -12 0 -25 21 -25 41
0 12 32 12 65 -1z m189 -65 c31 -14 56 -28 56 -32 0 -14 -174 -2 -197 13 -21
13 -31 53 -17 67 8 7 87 -17 158 -48z m-1517 23 c-3 -8 -6 -5 -6 6 -1 11 2 17
5 13 3 -3 4 -12 1 -19z m327 6 c7 -19 -26 -52 -58 -59 -43 -9 -146 -11 -146
-3 0 14 145 76 181 77 9 1 20 -6 23 -15z m-238 -49 c-11 -8 -29 -15 -40 -14
-17 0 -15 3 9 14 39 18 55 18 31 0z m2355 -88 c67 -45 64 6 67 -933 2 -754 1
-852 -13 -858 -47 -18 -45 -51 -45 857 l0 851 -22 23 -21 23 -1566 0 -1565 0
-23 -22 -23 -21 0 -853 0 -852 -22 -6 c-13 -3 -26 -2 -30 2 -5 5 -8 390 -8
856 0 802 1 850 18 880 10 17 33 41 52 53 l33 23 1567 0 1567 0 34 -23z m-37
-80 c25 -18 18 -67 -12 -78 -17 -6 -27 -4 -42 11 -25 25 -25 35 0 60 24 24 30
24 54 7z m-3064 -17 c8 -14 8 -26 0 -40 -19 -35 -80 -20 -80 20 0 40 61 55 80
20z m3376 -56 c-4 -11 -23 -37 -43 -58 l-36 -39 -18 22 c-17 21 -16 51 1 51 5
0 16 -7 24 -16 17 -17 21 -8 7 15 -7 10 -1 23 17 43 23 23 29 26 40 14 8 -8
11 -22 8 -32z m-3697 22 c7 -8 9 -25 5 -40 -7 -28 10 -37 20 -10 7 18 21 11
37 -18 7 -13 7 -18 0 -14 -5 4 -15 -3 -21 -15 -12 -21 -12 -21 -42 7 -16 16
-39 41 -50 57 l-19 27 23 9 c32 13 34 13 47 -3z m1771 -52 c0 -1 -9 -30 -19
-65 -59 -192 -84 -385 -85 -653 l-1 -209 -45 -20 c-43 -18 -74 -19 -660 -21
l-615 -1 -3 475 c-1 261 0 480 2 486 3 9 189 12 715 10 391 0 711 -2 711 -2z
m1528 -480 l2 -482 -22 -5 c-13 -2 -283 -5 -600 -7 l-578 -2 -63 23 -64 23 1
215 c0 121 -5 260 -12 316 -12 87 -68 338 -87 387 -6 15 46 16 707 15 l713 -2
3 -481z m-1454 409 c64 -198 90 -387 89 -648 0 -171 -4 -235 -23 -345 -12 -74
-25 -150 -27 -167 -3 -18 -9 -33 -14 -33 -12 0 -12 6 12 160 44 288 34 635
-25 870 l-24 95 -1 -310 c-1 -193 -7 -383 -17 -504 -12 -139 -14 -209 -7 -247
8 -43 7 -54 -5 -59 -30 -11 -38 -3 -50 53 -60 291 -56 725 9 1002 25 110 48
180 59 180 5 0 15 -21 24 -47z m-1875 -29 c22 -18 28 -29 20 -37 -5 -7 -20
-32 -32 -57 -20 -41 -25 -45 -58 -44 -21 1 -51 11 -68 23 -24 18 -31 30 -31
57 0 79 102 114 169 58z m3848 4 c23 -26 34 -63 26 -84 -9 -24 -90 -66 -113
-59 -12 4 -31 27 -43 51 -11 24 -27 44 -35 44 -22 0 -8 23 28 48 21 14 48 22
75 22 30 0 47 -6 62 -22z m-3722 -129 c4 -5 5 -12 3 -14 -4 -4 -39 -12 -60
-14 -5 -1 -8 -8 -8 -16 0 -8 -5 -15 -11 -15 -6 0 -8 -9 -4 -21 7 -21 6 -21
-24 2 -36 26 -36 29 -15 72 29 57 32 58 74 37 21 -11 42 -25 45 -31z m3552 29
c5 -7 16 -29 25 -49 l16 -36 -34 -27 c-20 -16 -31 -20 -28 -11 4 8 1 15 -4 15
-6 0 -12 12 -14 28 -2 15 -8 26 -15 25 -7 -2 -13 2 -13 8 0 6 -9 8 -20 4 -30
-10 -24 7 13 32 37 25 61 28 74 11z m-3723 -246 c-1 -18 -5 -40 -9 -50 -6 -16
-7 -16 -16 1 -9 15 -13 16 -25 6 -27 -22 -36 -49 -23 -65 15 -19 6 -28 -20
-19 -27 8 -26 24 4 65 13 18 30 49 36 67 8 27 16 33 32 31 18 -2 22 -9 21 -36z
m3865 -27 c16 -36 35 -65 40 -65 19 0 12 -27 -8 -33 -15 -4 -20 2 -25 29 -4
18 -14 41 -23 50 -15 15 -18 15 -28 0 -10 -13 -14 -10 -23 23 -7 21 -12 41
-12 44 0 5 20 12 42 16 4 0 21 -28 37 -64z m-3751 9 c2 -11 -1 -31 -6 -44 -8
-22 -16 -25 -56 -25 -25 0 -46 2 -46 3 0 2 7 28 16 57 l15 54 37 -13 c23 -8
38 -20 40 -32z m-1134 21 c145 -28 181 -42 198 -78 9 -17 44 -63 78 -100 34
-37 61 -70 59 -72 -3 -2 -37 10 -78 26 -76 30 -141 71 -325 204 -56 40 -49 42
68 20z m299 -6 c79 -26 212 -95 252 -130 17 -15 48 -61 69 -103 21 -41 47 -83
57 -92 91 -83 -157 -3 -270 86 -50 40 -134 139 -184 218 -26 40 -26 42 -7 42
11 0 49 -9 83 -21z m4491 -15 c4 -19 9 -41 12 -49 4 -9 -7 -14 -36 -17 -40 -4
-43 -2 -61 34 l-20 39 33 14 c53 23 65 19 72 -21z m836 25 c0 -22 -90 -145
-147 -201 -71 -69 -157 -122 -242 -148 -104 -33 -106 -31 -45 62 30 45 54 89
54 99 0 27 66 76 175 129 119 59 205 83 205 59z m310 8 c0 -6 -126 -104 -189
-147 -61 -41 -206 -110 -231 -110 -6 0 15 30 48 68 33 37 67 81 76 99 13 25
27 35 73 48 92 27 223 51 223 42z m-4737 -83 c-1 -32 -5 -83 -9 -112 -6 -52
-7 -53 -33 -47 -14 3 -29 9 -33 13 -7 8 28 166 44 195 18 35 33 12 31 -49z
m3470 36 c15 -24 46 -141 47 -173 0 -10 -70 -40 -77 -33 -3 3 -8 57 -11 121
-4 95 -2 115 9 115 8 0 23 -13 32 -30z m-3680 -105 c-3 -9 -8 -14 -10 -11 -3
3 -2 9 2 15 9 16 15 13 8 -4z m-218 -33 c81 -39 123 -76 135 -120 5 -21 25
-64 45 -96 19 -32 35 -60 35 -63 0 -7 -74 9 -125 28 -28 11 -67 36 -87 56 -35
36 -138 196 -138 215 0 18 78 6 135 -20z m4435 20 c0 -14 -109 -185 -137 -214
-32 -34 -110 -67 -174 -75 -51 -6 -62 3 -33 28 18 15 66 105 71 133 7 38 55
77 142 112 55 23 131 32 131 16z m-4112 -134 c116 -48 143 -81 68 -82 -19 -1
-32 -5 -29 -10 3 -4 -5 -5 -18 -1 -21 7 -22 6 -11 -8 11 -13 10 -15 -7 -10
-12 3 -21 1 -21 -4 0 -14 46 -82 78 -115 14 -16 22 -28 17 -28 -12 0 -76 50
-102 80 -22 26 -133 205 -133 216 0 12 87 -9 158 -38z m3802 34 c0 -8 -92
-154 -131 -210 -18 -25 -89 -81 -103 -82 -6 0 2 12 16 28 30 32 78 103 78 115
0 5 -12 6 -26 3 -17 -5 -23 -3 -19 4 3 6 -3 10 -15 10 -12 0 -18 4 -15 10 4 6
3 10 -2 9 -28 -5 -52 2 -47 14 15 41 264 133 264 99z m-4424 -151 c25 -24 42
-46 40 -49 -3 -2 -22 4 -43 15 -39 20 -83 74 -83 101 0 17 10 9 86 -67z m4964
50 c0 -10 -9 -30 -21 -45 -22 -28 -77 -61 -86 -52 -6 6 88 116 100 116 4 0 7
-8 7 -19z m-4628 -164 c14 -27 3 -31 -31 -11 -31 18 -64 71 -54 87 6 10 69
-47 85 -76z m-761 52 c159 -32 209 -56 289 -141 38 -40 67 -74 65 -77 -2 -2
-48 11 -102 28 -84 28 -130 50 -242 116 -52 30 -141 88 -141 91 0 8 29 4 131
-17z m5059 10 c0 -30 -38 -73 -72 -82 -26 -7 -22 5 18 51 35 41 54 52 54 31z
m725 -55 c-55 -37 -127 -79 -160 -95 -55 -26 -234 -83 -241 -77 -1 2 30 37 70
79 82 86 120 105 279 138 162 34 166 30 52 -45z m-5371 14 c75 -31 113 -63
135 -114 12 -25 39 -68 61 -96 22 -28 38 -53 36 -55 -7 -7 -115 26 -158 48
-70 36 -238 210 -238 247 0 14 105 -5 164 -30z m5080 30 c-47 -80 -154 -194
-221 -235 -42 -26 -171 -69 -180 -60 -3 3 13 27 35 54 22 26 52 74 65 105 22
49 32 60 74 81 97 49 244 84 227 55z m-2740 -105 c13 -81 11 -86 -59 -132 -73
-48 -126 -110 -151 -179 -10 -26 -21 -51 -26 -56 -21 -25 -5 -31 77 -28 l85 3
0 -25 c0 -26 0 -26 -85 -26 -55 0 -85 -4 -85 -11 0 -6 6 -9 14 -6 11 4 19 -8
30 -46 29 -98 103 -184 192 -222 39 -16 53 -35 26 -35 -27 0 -130 55 -166 88
l-28 27 15 -31 c9 -17 35 -48 58 -68 32 -30 36 -37 18 -31 -83 25 -167 92
-220 174 -16 25 -29 38 -29 30 0 -27 42 -123 76 -175 42 -63 80 -98 163 -149
34 -21 59 -40 57 -42 -11 -11 -126 57 -177 104 -138 128 -197 318 -155 505 31
140 135 271 267 337 82 41 95 40 103 -6z m332 6 c254 -120 356 -431 227 -699
-35 -73 -150 -187 -225 -223 -82 -39 -93 -33 -18 11 95 55 180 144 225 235 33
68 38 87 42 169 3 51 1 108 -4 127 -11 41 -43 52 -43 15 0 -13 -4 -24 -10 -24
-5 0 -10 7 -10 15 0 12 -4 13 -19 6 -16 -9 -22 -2 -46 54 -31 74 -91 140 -163
181 -69 40 -74 45 -62 59 6 7 9 21 9 31 -5 46 2 74 16 74 8 0 45 -14 81 -31z
m-2348 -14 c108 -34 112 -37 144 -83 18 -26 52 -68 76 -94 l45 -48 -80 0 c-68
0 -88 4 -139 30 -81 40 -134 93 -193 193 l-23 37 30 0 c16 0 79 -16 140 -35z
m4416 13 c-22 -72 -116 -165 -208 -209 -50 -24 -74 -29 -133 -29 -40 0 -73 2
-73 5 0 3 15 18 33 34 17 16 48 54 67 85 32 50 41 58 100 80 92 35 160 54 193
55 25 1 27 -2 21 -21z m-4075 -82 c76 -39 93 -62 39 -52 -51 9 -63 -10 -43
-69 7 -22 -129 116 -147 148 -10 19 -8 20 38 13 26 -3 77 -21 113 -40z m3731
35 c0 -14 -71 -99 -128 -155 l-51 -49 20 40 c18 38 17 79 -2 67 -5 -3 -9 -1
-9 5 0 5 -15 11 -32 13 l-33 3 55 29 c87 46 180 70 180 47z m-4335 -206 c61
-56 66 -71 21 -59 -30 7 -106 79 -106 100 0 26 24 14 85 -41z m4865 46 c0 -21
-49 -76 -83 -94 -59 -30 -57 -11 5 49 53 51 78 65 78 45z m-2582 -89 c-14 -15
-34 -40 -44 -56 -10 -16 -20 -24 -22 -17 -8 24 71 121 87 106 2 -3 -7 -18 -21
-33z m242 12 c39 -33 65 -83 52 -96 -7 -7 -12 -2 -17 12 -4 13 -25 43 -47 66
-45 48 -37 59 12 18z m-2205 -29 c49 -44 50 -44 22 -45 -29 0 -97 55 -97 79 0
22 26 10 75 -34z m2160 11 c48 -37 62 -86 40 -137 -17 -37 -40 -58 -77 -72
-28 -10 -21 6 11 28 17 10 35 31 41 45 10 23 9 24 -5 6 -44 -57 -112 -71 -161
-34 l-29 22 24 -27 c26 -29 24 -48 -3 -22 -9 9 -16 13 -16 9 0 -4 -11 7 -25
26 -31 42 -32 77 -2 121 47 71 134 86 202 35z m2055 15 c0 -26 -55 -71 -87
-71 -25 0 -23 3 23 45 55 50 64 54 64 26z m-4760 -61 c102 -19 310 -87 310
-100 0 -4 11 -19 25 -34 21 -23 22 -28 9 -33 -23 -8 -162 14 -228 37 -30 10
-114 48 -187 84 l-133 66 51 0 c29 0 98 -9 153 -20z m5300 -49 c-75 -36 -159
-74 -188 -83 -57 -19 -220 -43 -229 -35 -14 14 56 79 105 97 155 58 285 88
392 88 l55 0 -135 -67z m-4816 18 c23 -6 61 -32 95 -64 31 -30 65 -61 76 -69
11 -8 17 -17 13 -21 -14 -14 -135 -17 -173 -5 -44 14 -175 138 -175 165 0 16
7 17 63 12 34 -4 79 -11 101 -18z m4436 14 c0 -15 -67 -91 -114 -129 -66 -53
-83 -58 -173 -49 l-74 7 63 62 c72 72 93 85 163 102 55 13 135 18 135 7z
m-4103 -35 c82 -25 88 -38 19 -39 -31 -1 -60 -3 -66 -4 -5 -1 -15 -3 -20 -4
-6 0 1 -18 14 -38 14 -20 24 -39 22 -41 -9 -9 -122 80 -155 122 -13 15 -13 19
0 27 18 12 108 1 186 -23z m2150 -62 c-9 -86 -22 -124 -62 -178 -37 -50 -85
-87 -147 -113 -55 -22 -51 5 4 30 83 36 164 145 182 243 l6 32 -76 0 c-72 0
-75 1 -72 23 3 20 9 22 71 25 50 2 70 7 74 19 13 33 26 -20 20 -81z m1641 80
c1 -2 0 -11 -4 -20 -7 -19 -154 -139 -161 -132 -3 2 7 21 21 42 32 47 24 53
-64 55 l-65 1 52 24 c70 33 200 51 221 30z m-1811 -132 c-13 -43 -59 -92 -104
-110 -91 -38 -209 10 -243 100 -14 39 -5 45 13 9 20 -37 64 -77 105 -93 73
-28 173 14 206 89 23 51 38 54 23 5z m-2592 -84 c600 -45 1236 -90 1273 -90
18 0 52 -77 52 -119 l0 -34 -67 6 c-38 4 -95 9 -128 13 -33 3 -132 14 -220 24
-88 11 -225 26 -305 34 -163 18 -438 48 -640 71 -309 35 -530 57 -541 53 -10
-3 151 -23 601 -74 74 -8 169 -19 210 -24 41 -5 152 -17 245 -25 197 -19 215
-22 215 -35 0 -15 -31 -13 -421 31 -200 22 -420 46 -489 54 -141 16 -476 63
-502 71 -10 3 -18 9 -18 14 0 10 72 37 115 44 43 7 479 -3 620 -14z m5529 -8
c73 -33 85 -29 -229 -72 -82 -11 -211 -27 -285 -35 -74 -8 -227 -26 -340 -39
-382 -46 -549 -61 -561 -49 -12 12 9 16 221 38 80 8 201 21 270 29 69 9 278
32 465 53 187 21 326 39 309 41 -17 2 -174 -13 -350 -32 -175 -20 -447 -50
-604 -67 -157 -17 -370 -41 -475 -54 -143 -18 -192 -21 -197 -12 -5 8 -8 8 -8
1 0 -6 -44 -16 -107 -22 -140 -15 -143 -15 -143 6 0 22 33 109 46 122 10 10
123 20 704 60 162 11 385 27 495 35 286 22 308 22 535 21 188 -2 209 -4 254
-24z m-3625 -105 c-4 -26 -6 -74 -3 -107 l5 -60 -90 0 c-103 0 -95 -7 -105
103 l-5 57 35 0 c20 0 45 -5 57 -11 15 -9 22 -9 25 -1 2 6 19 32 39 58 32 42
37 45 44 27 4 -11 3 -40 -2 -66z m1079 13 c25 -44 29 -47 47 -34 10 8 36 14
56 14 l38 0 -5 -57 c-10 -110 -2 -103 -103 -103 l-89 0 -1 120 c0 136 8 145
57 60z m-1457 -6 c70 -3 131 -9 136 -13 20 -13 33 -51 33 -100 l0 -51 -35 0
c-19 0 -35 5 -35 10 0 6 -5 10 -11 10 -5 0 -8 -3 -6 -7 3 -5 -50 -3 -116 2
l-122 10 -22 65 c-30 91 -30 93 15 86 20 -3 94 -8 163 -12z m884 -4 c18 -20
19 -55 23 -618 5 -528 7 -591 19 -547 20 74 51 294 58 420 8 123 -3 260 -41
528 -14 98 -24 181 -21 183 6 6 39 -138 64 -281 26 -145 26 -577 0 -720 -33
-183 -76 -325 -98 -325 -24 0 -91 248 -108 400 -30 257 -23 431 29 750 42 259
39 250 75 210z m1092 8 c-3 -7 -13 -43 -23 -80 l-18 -68 -71 -2 c-78 -1 -91
-2 -189 -13 l-68 -8 4 67 c2 36 10 72 16 78 11 11 145 26 330 37 15 1 22 -3
19 -11z m-1551 -85 c56 -126 159 -249 267 -321 53 -35 38 -40 -27 -8 -149 73
-229 179 -272 359 -11 45 6 30 32 -30z m960 30 c-2 -10 -8 -34 -11 -53 -21
-108 -118 -227 -237 -292 -73 -40 -81 -30 -13 16 97 68 185 181 230 299 17 44
42 68 31 30z m-1944 -62 c84 -11 185 -23 223 -27 105 -10 118 -26 15 -19 -90
6 -330 31 -392 41 -39 6 -53 24 -19 24 11 0 89 -9 173 -19z m3058 9 c0 -5 -15
-11 -32 -14 -140 -22 -479 -55 -493 -47 -14 7 42 17 170 31 61 6 153 17 205
25 119 16 150 17 150 5z m-3280 -24 c0 -43 -18 -76 -41 -76 -21 0 -21 15 -3
83 8 27 44 22 44 -7z m3358 -18 c12 -47 9 -58 -17 -58 -13 0 -21 10 -25 31
-10 53 -7 69 13 69 13 0 21 -11 29 -42z m-3655 15 c-7 -2 -21 -2 -30 0 -10 3
-4 5 12 5 17 0 24 -2 18 -5z m877 -23 c0 -5 -5 -10 -11 -10 -5 0 -7 5 -4 10 3
6 8 10 11 10 2 0 4 -4 4 -10z m187 -11 c74 -8 112 -16 110 -23 -2 -6 -8 -11
-13 -11 -152 7 -244 19 -244 31 0 17 4 17 147 3z m1951 -6 c-3 -14 -13 -18
-48 -17 -25 1 -94 -3 -153 -8 -103 -9 -129 -7 -113 9 7 8 194 29 274 32 36 1
43 -2 40 -16z m-2525 -10 c-7 -2 -19 -2 -25 0 -7 3 -2 5 12 5 14 0 19 -2 13
-5z m722 -3 c3 -5 1 -10 -4 -10 -6 0 -11 5 -11 10 0 6 2 10 4 10 3 0 8 -4 11
-10z m2228 3 c-7 -2 -19 -2 -25 0 -7 3 -2 5 12 5 14 0 19 -2 13 -5z m-2038
-23 c22 -6 9 -8 -52 -9 -66 -1 -83 2 -83 14 0 11 11 13 53 8 28 -3 66 -9 82
-13z m1265 0 c0 -6 -34 -10 -82 -9 -57 1 -75 4 -58 9 37 12 140 12 140 0z
m-2347 -72 c48 -62 44 -128 -11 -190 -28 -32 -31 -19 -7 25 50 86 23 157 -65
172 -37 6 -45 4 -67 -17 -31 -32 -39 -90 -20 -145 17 -50 5 -57 -19 -11 -27
53 -15 127 30 179 30 36 45 45 79 49 32 4 43 1 47 -10 3 -9 18 -32 33 -52z
m3408 40 c7 -13 20 -29 31 -36 49 -35 62 -122 27 -179 -28 -45 -34 -36 -14 23
19 56 13 93 -22 134 -28 34 -63 39 -118 15 -61 -25 -68 -91 -19 -167 27 -42
19 -51 -13 -15 -31 34 -43 62 -43 102 0 39 10 62 48 113 21 27 31 32 68 32 35
0 46 -4 55 -22z m-3464 -66 c7 -4 10 -26 8 -57 -5 -68 -35 -195 -46 -195 -10
0 -12 115 -3 184 5 32 11 46 23 47 10 0 12 2 4 6 -14 5 -18 23 -5 23 4 0 12
-4 19 -8z m3421 -34 c16 -63 23 -210 9 -205 -26 8 -64 191 -45 215 7 8 7 12
-1 12 -7 0 -9 5 -6 10 14 22 33 8 43 -32z m-2100 10 c10 -19 7 -33 -18 -83
-27 -55 -28 -61 -13 -77 9 -10 14 -18 11 -18 -15 0 -98 33 -98 39 0 4 15 32
33 62 52 86 61 99 68 99 3 0 11 -10 17 -22z m841 -57 c22 -38 41 -74 41 -79 0
-10 -80 -46 -86 -39 -3 2 2 10 10 16 13 11 11 21 -16 73 -26 51 -29 64 -19 85
6 13 15 22 20 19 5 -3 27 -37 50 -75z m-2332 -25 c15 -15 -10 -15 -117 -1 -63
8 -115 15 -117 15 -3 0 -2 4 1 8 5 9 222 -11 233 -22z m3983 25 c0 -8 -34 -14
-207 -37 -26 -4 -43 -2 -43 4 0 9 54 18 238 41 6 0 12 -3 12 -8z m-3518 -31
c95 -11 200 -25 233 -30 33 -5 150 -21 260 -35 262 -34 343 -47 326 -53 -20
-7 -167 10 -636 72 -60 9 -166 22 -235 32 -69 9 -129 20 -134 25 -13 12 -15
12 186 -11z m2978 11 c0 -4 -24 -11 -52 -15 -29 -3 -100 -13 -158 -21 -58 -8
-154 -22 -215 -30 -60 -7 -194 -25 -298 -39 -180 -25 -266 -32 -255 -21 5 5
311 50 648 95 91 12 188 26 215 30 71 11 115 11 115 1z m-2021 -143 c-51 -96
-240 -390 -246 -384 -3 3 14 39 37 81 42 79 50 113 11 53 -11 -18 -21 -27 -21
-20 0 15 103 217 143 280 l27 42 30 -15 c27 -14 29 -18 19 -37z m999 -15 c59
-102 135 -253 130 -259 -3 -2 -17 14 -32 36 -14 22 -29 40 -32 40 -3 0 -3 -3
-1 -7 2 -5 26 -45 52 -91 26 -46 45 -85 42 -88 -6 -7 -96 127 -192 284 l-69
114 24 19 c14 10 28 19 32 19 4 0 25 -30 46 -67z m-2073 37 c586 -75 813 -108
835 -121 12 -7 12 -8 1 -9 -16 0 -285 33 -446 55 -108 15 -163 22 -395 50
-136 16 -172 24 -164 36 7 11 -8 12 169 -11z m3195 11 c0 -15 -68 -27 -385
-66 -66 -8 -221 -28 -344 -45 -124 -16 -232 -30 -240 -30 -14 1 -14 2 0 10 14
8 320 55 654 100 88 11 187 25 220 29 85 12 95 12 95 2z m-1881 -37 c2 -2 -14
-4 -36 -4 -38 0 -46 -6 -202 -166 -159 -162 -196 -190 -91 -69 29 33 97 104
152 158 98 95 102 97 137 91 20 -4 38 -8 40 -10z m649 -127 c78 -79 142 -147
142 -151 0 -12 -13 0 -162 145 -123 121 -135 129 -173 130 -38 1 -39 2 -10 9
17 4 37 8 45 9 9 0 80 -63 158 -142z m-2057 53 c19 -10 27 -59 12 -73 -12 -13
-43 26 -43 55 0 31 3 33 31 18z m3267 -19 c3 -22 -22 -61 -40 -61 -4 0 -8 15
-8 33 0 54 41 77 48 28z m-2964 -88 c84 -78 106 -104 106 -125 0 -16 -4 -28
-10 -28 -21 0 -270 221 -270 240 0 3 16 7 35 8 31 2 45 -7 139 -95z m2734 13
c-42 -40 -105 -95 -140 -121 l-63 -47 -3 33 c-3 31 3 41 90 121 91 86 94 87
143 87 l50 0 -77 -73z m-2652 54 c20 0 24 -5 24 -30 l0 -30 -40 26 c-39 26
-55 52 -24 40 9 -3 27 -6 40 -6z m2513 -2 c-2 -2 -19 -16 -37 -32 l-32 -30 0
31 c0 28 3 32 33 35 30 3 46 1 36 -4z m-2399 -273 c0 -146 -3 -265 -6 -265 -3
0 -14 5 -25 10 -18 10 -19 24 -19 265 l0 255 25 0 25 0 0 -265z m2284 243 c2
-13 3 -128 3 -257 -2 -232 -2 -234 -24 -242 l-23 -8 0 264 c0 257 1 265 20
265 12 0 21 -8 24 -22z m-2823 -24 c20 -14 74 -57 120 -95 46 -39 139 -116
207 -171 68 -55 121 -102 118 -105 -3 -3 -38 15 -78 40 -67 42 -122 85 -343
265 -42 34 -86 62 -98 62 -39 0 -67 -27 -67 -66 0 -55 23 -87 102 -141 65 -44
116 -73 368 -205 145 -76 428 -188 476 -188 26 0 59 41 70 86 16 68 13 68 141
9 65 -29 159 -66 208 -83 91 -30 322 -82 366 -82 14 0 35 -7 47 -16 18 -13 26
-13 38 -4 8 7 55 19 105 26 184 28 343 75 532 160 78 35 119 49 122 41 2 -7 9
-30 14 -53 16 -59 50 -88 96 -80 69 13 311 118 511 220 288 149 378 211 403
278 24 63 -31 116 -94 91 -10 -3 -72 -53 -139 -110 -116 -100 -341 -261 -350
-252 -9 8 7 23 119 114 61 49 157 128 215 176 105 86 156 119 184 119 54 0
126 -71 126 -123 0 -109 -133 -206 -550 -402 -226 -106 -363 -161 -540 -214
-610 -182 -1262 -141 -1876 119 -134 57 -469 221 -563 277 -122 72 -191 148
-191 211 0 63 84 140 140 127 14 -4 41 -17 61 -31z m829 -32 c22 -18 22 -20 9
-73 l-14 -54 -6 35 c-4 21 -7 26 -8 13 0 -13 -5 -23 -10 -23 -5 0 -12 -8 -14
-17 -3 -10 -5 4 -6 30 -1 63 -21 58 -36 -9 -6 -27 -13 -43 -16 -36 -2 8 -10
-15 -17 -50 -7 -35 -17 -77 -22 -94 -6 -16 -13 -58 -16 -93 -11 -105 -24 -47
-24 109 0 164 10 211 50 252 34 34 95 39 130 10z m108 -20 c4 -39 -16 -142
-27 -142 -12 0 -21 53 -21 122 0 56 1 59 23 56 17 -2 23 -11 25 -36z m1492
-47 c0 -51 -4 -85 -10 -85 -17 0 -30 48 -30 111 0 52 2 59 20 59 18 0 20 -7
20 -85z m180 70 c36 -18 57 -75 64 -173 7 -87 -3 -262 -15 -262 -5 0 -9 36 -9
79 0 90 -10 133 -21 91 -5 -21 -7 -16 -13 25 -14 91 -37 179 -48 186 -20 13
-36 -2 -43 -39 -9 -53 -25 -76 -25 -37 0 17 -7 43 -15 59 -20 38 -19 52 7 70
28 20 80 20 118 1z m-1172 -126 c49 -12 71 -29 37 -29 -21 0 -163 49 -206 71
l-36 18 -29 -30 c-30 -31 -230 -169 -245 -169 -24 0 2 22 119 100 70 47 131
95 136 106 9 21 11 20 90 -16 45 -21 105 -44 134 -51z m677 69 c6 -12 64 -59
130 -104 65 -45 121 -87 123 -94 7 -20 -155 84 -246 157 l-33 26 -53 -22 c-49
-20 -182 -61 -198 -61 -5 0 -8 4 -8 8 0 4 28 16 62 26 34 10 94 33 132 51 39
18 73 34 76 34 3 1 10 -9 15 -21z m-1998 -104 c137 -93 296 -215 289 -222 -8
-7 -239 134 -256 156 -3 4 -41 36 -85 71 -104 84 -101 81 -87 81 7 0 69 -39
139 -86z m3194 48 c-24 -20 -69 -59 -100 -85 -49 -43 -220 -152 -291 -186 -74
-36 209 180 355 271 76 48 93 48 36 0z m-2460 -247 c-8 -58 -9 -57 -10 45 0
58 3 123 7 145 11 62 15 -115 3 -190z m497 186 c51 -17 103 -31 115 -31 32 0
47 -18 47 -57 0 -31 -2 -33 -27 -27 -105 24 -220 61 -276 90 l-31 17 28 24
c16 13 33 22 40 19 6 -3 53 -18 104 -35z m777 15 l30 -25 -59 -26 c-68 -30
-207 -72 -256 -77 -34 -3 -35 -2 -32 32 2 19 5 36 7 38 1 1 47 13 101 27 55
13 115 31 134 39 45 19 40 20 75 -8z m354 -108 c-1 -99 -3 -113 -9 -73 -12 74
-12 195 0 195 6 0 9 -47 9 -122z m-1539 43 c0 -20 -20 -61 -30 -61 -11 0 -14
53 -3 63 10 10 33 8 33 -2z m1485 -22 c8 -35 3 -44 -20 -36 -20 8 -21 67 -1
67 8 0 17 -14 21 -31z m-2849 -53 c-1 -50 18 -76 127 -167 32 -27 53 -49 46
-49 -28 0 -153 77 -185 113 -39 47 -43 82 -13 121 11 14 22 26 23 26 2 0 2
-20 2 -44z m4214 -38 c0 -57 -54 -105 -168 -151 -23 -9 -42 -15 -42 -13 0 2
31 29 70 60 82 66 104 103 96 155 l-7 36 26 -28 c15 -17 25 -40 25 -59z m-497
-35 c-27 -36 -165 -133 -187 -133 -28 2 182 169 212 170 2 0 -10 -17 -25 -37z
m-3216 -15 c73 -52 147 -118 139 -125 -6 -7 -107 51 -146 84 -35 29 -75 83
-62 83 4 0 36 -19 69 -42z m-568 -14 c23 -39 26 -48 11 -39 -7 4 -7 -3 0 -20
17 -45 11 -50 -16 -14 -27 35 -27 34 -7 -33 6 -22 5 -22 -16 2 l-21 25 6 -30
c7 -30 7 -30 -14 -11 l-21 18 9 -33 c14 -47 13 -48 -11 -14 l-21 30 6 -32 c6
-37 0 -41 -21 -15 -12 15 -13 13 -8 -18 l6 -35 -21 25 -22 25 6 -35 6 -35 -21
25 -20 25 6 -35 6 -35 -22 25 -22 25 5 -32 c2 -18 1 -33 -4 -33 -4 0 -8 5 -8
10 0 6 -4 10 -10 10 -17 0 -11 -83 9 -116 22 -37 233 -214 424 -357 443 -332
798 -512 1202 -613 55 -13 116 -29 135 -34 19 -5 100 -19 180 -32 126 -19 183
-22 440 -22 256 0 314 3 438 22 319 50 607 138 877 267 240 115 664 407 949
654 111 96 136 129 136 183 0 39 -17 59 -31 37 -6 -10 -9 -5 -9 15 0 29 0 29
-21 11 -20 -19 -20 -19 -10 8 11 29 3 35 -18 15 -11 -11 -12 -8 -7 17 l7 29
-21 -19 -21 -19 10 27 c13 33 6 35 -20 5 l-18 -23 9 33 c10 36 4 41 -17 15
-13 -16 -14 -15 -8 12 6 29 6 29 -10 10 -16 -20 -16 -20 -9 4 4 17 3 21 -6 16
-9 -5 -10 -1 -5 16 6 22 5 22 -19 -6 l-26 -30 10 28 c14 40 13 42 -11 16 -19
-22 -20 -22 -16 -4 3 11 8 29 13 40 6 16 3 15 -14 -5 -31 -36 -27 -19 9 39
l32 51 46 -39 c89 -76 210 -206 226 -243 25 -61 20 -109 -18 -164 -72 -105
-550 -476 -815 -633 -410 -242 -852 -386 -1327 -432 -176 -17 -576 -6 -736 20
-610 98 -1090 319 -1654 759 -177 138 -293 242 -326 291 -27 41 -30 52 -27
103 5 75 33 114 172 241 59 53 109 97 111 97 1 0 12 -16 24 -36z m3852 9 c-24
-44 -203 -185 -217 -171 -9 10 96 115 150 150 65 42 82 47 67 21z m-3347 -22
c46 -27 100 -76 151 -140 l20 -25 -40 24 c-22 13 -51 31 -64 39 -24 15 -24 15
-11 -9 10 -18 10 -25 1 -28 -6 -2 0 -12 14 -24 34 -26 26 -34 -14 -14 -28 15
-30 15 -24 -1 5 -12 2 -15 -10 -10 -23 8 -21 1 5 -36 l23 -32 -29 23 c-34 26
-58 29 -49 6 5 -13 2 -15 -18 -9 -24 7 -24 7 -4 -12 11 -10 34 -34 50 -52 l30
-34 -63 34 c-69 37 -192 141 -174 147 6 2 33 -9 59 -25 l48 -28 -18 29 c-22
33 -17 42 15 25 l23 -12 -22 25 c-31 33 -29 42 5 21 l27 -17 -24 27 c-28 31
-18 36 19 10 21 -15 20 -11 -9 26 l-34 43 39 -21 c49 -26 58 -26 44 0 -11 19
-10 20 9 9 29 -15 26 -7 -10 35 -38 43 -32 44 35 6z m3355 -53 c-10 -19 5 -26
16 -8 3 5 16 15 27 21 17 9 15 3 -11 -30 l-33 -42 28 7 c16 4 40 14 54 23 l25
15 -26 -30 c-14 -16 -32 -38 -40 -49 -14 -19 -14 -19 14 -2 41 26 43 15 7 -26
l-31 -35 56 30 c63 34 80 31 44 -8 -28 -30 -196 -144 -213 -144 -5 0 14 26 44
57 30 32 48 52 41 45 -20 -16 -50 -17 -33 0 26 26 10 28 -33 5 l-44 -25 26 40
c18 30 21 39 9 35 -9 -4 -16 -2 -16 3 0 5 -17 2 -37 -6 l-38 -15 35 31 c30 27
32 30 11 24 l-24 -6 23 31 c40 57 146 109 119 59z m-3537 -174 c33 -17 145
-120 160 -147 9 -18 5 -17 -38 8 -76 44 -123 80 -162 125 -33 39 -34 42 -11
35 13 -4 36 -14 51 -21z m3732 13 c-9 -26 -116 -105 -244 -182 -8 -5 10 19 40
53 51 58 110 103 170 130 34 15 40 14 34 -1z m-711 -807 c-20 -16 -153 -62
-167 -57 -8 3 -50 69 -93 146 -43 77 -81 140 -85 141 -4 0 -9 -79 -10 -177
l-3 -176 -85 -29 c-46 -15 -87 -25 -91 -20 -4 4 -54 106 -110 227 -57 121
-129 272 -160 335 -31 63 -56 116 -55 117 4 5 199 54 201 51 1 -3 49 -109 123
-278 l16 -35 7 30 c3 17 7 69 8 116 0 47 4 114 7 147 l7 61 60 21 c34 11 65
16 70 11 4 -4 39 -62 77 -127 108 -187 101 -188 98 15 l-3 175 79 32 c43 18
85 34 95 36 15 3 16 -30 19 -376 1 -209 -1 -383 -5 -386z m-3031 714 c51 -36
143 -142 114 -131 -57 22 -216 147 -216 170 0 13 65 -12 102 -39z m3788 37 c0
-23 -225 -189 -239 -175 -11 11 127 137 174 159 57 27 65 29 65 16z m-3868
-62 c41 -21 120 -95 139 -132 11 -19 10 -19 -26 3 -30 19 -39 20 -46 9 -9 -15
-3 -46 15 -69 6 -8 -4 -5 -24 7 l-35 22 0 -34 c0 -18 7 -40 14 -49 42 -50 -90
28 -149 88 -47 49 -47 55 1 30 17 -8 33 -14 35 -12 2 2 -11 21 -28 42 -29 35
-30 38 -7 26 13 -8 34 -14 46 -15 l23 -1 -25 26 c-33 35 -32 46 3 22 15 -10
35 -19 44 -19 14 0 13 5 -8 32 -39 51 -34 55 28 24z m3881 -22 c-38 -42 -38
-51 1 -28 42 26 58 21 31 -9 -10 -11 -14 -20 -9 -20 25 -1 36 -18 24 -39 -11
-22 -11 -22 19 -7 43 23 45 20 16 -19 -25 -32 -144 -118 -183 -132 -9 -3 8 20
38 52 30 32 44 51 30 41 -31 -21 -41 -20 -33 1 5 14 -1 13 -33 -7 l-39 -23 24
26 c35 39 35 62 -1 61 -15 0 -36 -8 -45 -16 -23 -19 -43 -31 -43 -24 0 9 96
115 123 137 27 20 86 40 96 32 3 -2 -5 -13 -16 -26z m-2683 -53 c155 -40 172
-47 226 -86 29 -21 53 -50 70 -85 23 -45 26 -63 22 -126 -3 -61 -9 -83 -33
-123 -37 -59 -99 -100 -178 -116 -52 -11 -68 -10 -147 10 -50 13 -94 21 -99
18 -5 -3 -12 -18 -16 -33 -25 -106 -48 -163 -64 -163 -22 0 -162 47 -174 59
-4 4 -1 26 7 47 9 21 56 170 106 329 49 160 92 296 95 303 5 14 2 15 185 -34z
m-507 -20 c75 -25 79 -28 74 -53 -9 -52 -161 -453 -174 -458 -7 -3 -37 7 -68
21 l-56 25 16 38 c31 73 126 326 123 327 -2 1 -15 7 -30 14 -26 11 -27 13 -14
44 7 18 16 41 19 51 8 22 18 22 110 -9z m-741 -143 c33 -30 64 -63 69 -74 10
-18 8 -18 -32 4 -44 24 -179 147 -179 162 0 16 84 -39 142 -92z m4043 59 c-21
-22 -35 -40 -31 -40 25 0 -98 -92 -143 -107 -22 -8 95 112 149 153 61 45 73
43 25 -6z m-4701 4 c-64 -30 -199 -53 -216 -36 -9 9 -4 12 24 12 44 0 173 26
197 40 9 5 23 9 31 9 8 0 -8 -11 -36 -25z m5272 6 c16 -6 70 -16 119 -24 65
-10 85 -16 70 -22 -22 -9 -175 20 -214 41 -31 17 -16 19 25 5z m-2718 -15 c9
-3 12 -70 12 -291 l0 -286 183 3 182 4 8 -79 c6 -51 5 -82 -2 -89 -12 -12
-411 -23 -504 -13 l-67 8 0 378 0 378 88 -5 c48 -2 93 -6 100 -8z m2142 -25
c0 -5 -5 -10 -11 -10 -5 0 -7 5 -4 10 3 6 8 10 11 10 2 0 4 -4 4 -10z m-4550
-165 c38 -19 86 -49 107 -67 21 -18 32 -25 24 -15 -8 9 -11 20 -8 23 9 9 162
-147 181 -184 20 -38 13 -56 -9 -26 -18 24 -19 17 0 -37 14 -40 14 -42 -1 -24
-16 19 -16 19 -9 -5 4 -14 14 -40 21 -59 28 -68 5 -39 -72 91 -88 148 -169
242 -258 300 -73 47 -66 48 24 3z m5000 3 c-85 -48 -175 -149 -264 -297 -79
-133 -106 -169 -82 -109 7 18 16 55 19 83 5 49 5 49 -10 22 -23 -45 -24 -26
-1 35 23 65 112 172 135 164 8 -3 12 -2 8 3 -3 5 9 20 27 32 l33 23 -20 -24
c-15 -18 -6 -14 31 13 50 36 149 87 169 87 6 0 -15 -14 -45 -32z m-4080 -13
c26 -32 -13 -81 -47 -59 -35 22 -23 74 17 74 10 0 23 -7 30 -15z m3180 0 c17
-21 -2 -65 -28 -65 -22 0 -42 19 -42 40 0 37 47 53 70 25z m523 -48 c-41 -52
-72 -87 -78 -87 -10 0 12 33 48 73 38 41 59 51 30 14z m-4220 -59 l18 -33 -26
30 c-14 17 -31 39 -37 50 -10 19 -10 19 8 3 10 -9 27 -32 37 -50z m-32 -14
c17 -25 29 -47 27 -49 -4 -5 -78 90 -78 100 0 13 21 -8 51 -51z m47 31 c-3 -3
-9 2 -12 12 -6 14 -5 15 5 6 7 -7 10 -15 7 -18z m4191 -40 c-18 -25 -34 -43
-37 -40 -5 5 19 45 43 69 29 29 27 17 -6 -29z m-4264 -25 c16 -22 26 -42 23
-45 -4 -5 -78 90 -78 101 0 12 27 -16 55 -56z m4317 33 c-6 -10 -21 -27 -33
-38 l-23 -20 19 30 c22 35 39 54 43 50 2 -2 -1 -12 -6 -22z m-4335 -76 c23
-46 8 -42 -25 5 -17 24 -37 50 -46 57 -9 8 -16 18 -16 24 0 16 69 -53 87 -86z
m4355 24 c-26 -38 -48 -68 -50 -66 -7 6 27 72 52 103 48 56 47 35 -2 -37z"/>
<path d="M5002 7530 c-47 -29 -74 -77 -68 -123 3 -31 2 -36 -9 -27 -12 10 -13
6 -5 -22 18 -64 111 -118 177 -102 39 9 90 49 108 84 23 45 18 47 -21 4 -33
-36 -34 -36 -14 -6 32 48 36 100 11 140 -26 40 -77 72 -116 72 -16 0 -45 -9
-63 -20z m97 -35 c79 -40 24 -143 -65 -121 -68 17 -43 130 29 135 4 1 21 -6
36 -14z"/>
<path d="M5221 7414 c0 -11 3 -14 6 -6 3 7 2 16 -1 19 -3 4 -6 -2 -5 -13z"/>
<path d="M6480 7094 c0 -8 5 -12 10 -9 6 3 10 10 10 16 0 5 -4 9 -10 9 -5 0
-10 -7 -10 -16z"/>
<path d="M4682 7148 c-17 -17 -15 -32 6 -51 25 -23 59 -21 72 2 13 25 13 27
-6 45 -18 19 -55 21 -72 4z"/>
<path d="M5381 7154 c-37 -26 -21 -74 24 -74 23 0 55 28 55 48 0 6 -13 18 -29
26 -25 13 -31 13 -50 0z"/>
<path d="M3405 6920 c-3 -5 -1 -10 4 -10 6 0 11 5 11 10 0 6 -2 10 -4 10 -3 0
-8 -4 -11 -10z"/>
<path d="M6690 6936 c0 -2 8 -10 18 -17 15 -13 16 -12 3 4 -13 16 -21 21 -21
13z"/>
<path d="M3086 6548 c-24 -34 -19 -42 13 -19 33 23 51 27 51 9 0 -6 2 -9 5 -6
3 3 3 13 -1 22 -9 23 -50 20 -68 -6z"/>
<path d="M6983 6569 c-17 -6 -23 -16 -22 -36 0 -16 3 -22 6 -13 3 8 11 18 17
22 16 11 54 10 59 -2 3 -6 4 -5 3 1 -4 22 -39 38 -63 28z"/>
<path d="M6800 6081 c0 -6 5 -13 10 -16 6 -3 10 1 10 9 0 9 -4 16 -10 16 -5 0
-10 -4 -10 -9z"/>
<path d="M4990 5263 c0 -48 89 -73 123 -35 24 26 21 46 -3 22 -29 -29 -74 -26
-99 6 -19 24 -21 25 -21 7z"/>
<path d="M4298 3664 l-27 -53 62 -20 c273 -86 690 -126 987 -92 198 22 530 94
530 114 0 14 -51 97 -60 97 -4 0 -45 -18 -92 -39 -105 -49 -242 -95 -367 -124
-140 -32 -394 -32 -536 1 -125 29 -286 83 -390 131 l-81 38 -26 -53z"/>
<path d="M4280 3158 c-12 -40 -23 -81 -26 -90 -6 -19 46 -38 108 -38 50 0 66
8 83 41 34 65 5 119 -77 144 -29 8 -55 15 -59 15 -5 0 -18 -33 -29 -72z"/>
<path d="M4430 7644 c-104 -22 -225 -60 -222 -70 4 -13 20 -10 181 28 80 19
147 40 149 46 5 15 -26 14 -108 -4z"/>
<path d="M5590 7650 c0 -5 10 -12 23 -14 12 -2 82 -19 156 -36 73 -17 136 -29
139 -25 13 13 -21 27 -132 55 -121 31 -186 38 -186 20z"/>
<path d="M5940 7570 c0 -10 52 -40 70 -40 20 0 9 20 -20 35 -34 17 -50 19 -50
5z"/>
<path d="M4133 7560 c-26 -11 -31 -30 -7 -30 23 0 55 20 49 31 -7 11 -13 11
-42 -1z"/>
<path d="M3217 7392 c-6 -8 115 -154 133 -160 26 -9 5 30 -52 93 -65 74 -73
81 -81 67z"/>
<path d="M6821 7309 c-51 -62 -70 -94 -63 -101 12 -12 166 167 157 183 -11 16
-19 9 -94 -82z"/>
<path d="M3090 7252 c0 -5 24 -35 53 -67 36 -40 57 -56 66 -51 9 6 -3 25 -45
67 -56 57 -74 69 -74 51z"/>
<path d="M6970 7195 c-66 -66 -59 -85 8 -24 59 53 78 79 59 79 -7 0 -37 -25
-67 -55z"/>
<path d="M3390 7215 c0 -8 7 -15 15 -15 8 0 15 7 15 15 0 8 -7 15 -15 15 -8 0
-15 -7 -15 -15z"/>
<path d="M2960 7147 c0 -19 130 -128 143 -120 6 4 -13 28 -49 60 -71 65 -94
79 -94 60z"/>
<path d="M7074 7075 c-54 -46 -100 -89 -102 -95 -9 -25 26 -4 107 64 99 84
116 102 103 110 -5 3 -54 -33 -108 -79z"/>
<path d="M2842 6998 c6 -17 258 -198 275 -198 27 0 11 21 -49 61 -35 24 -96
66 -135 96 -72 53 -98 64 -91 41z"/>
<path d="M7157 6920 c-118 -85 -146 -111 -114 -109 17 1 250 171 255 187 8 24
-17 11 -141 -78z"/>
<path d="M2740 6870 c0 -20 249 -175 262 -162 11 11 7 15 -130 101 -114 71
-132 79 -132 61z"/>
<path d="M7270 6809 c-127 -79 -147 -94 -132 -103 10 -6 240 133 262 159 27
33 -18 14 -130 -56z"/>
<path d="M7350 6670 c-117 -66 -150 -90 -118 -90 30 1 258 133 258 150 0 16
-10 12 -140 -60z"/>
<path d="M2660 6721 c0 -11 202 -129 236 -137 55 -14 16 19 -95 80 -119 66
-141 74 -141 57z"/>
<path d="M2230 4235 c0 -13 53 -15 437 -13 338 2 437 6 441 16 3 9 -89 12
-437 12 -387 0 -441 -2 -441 -15z"/>
<path d="M7010 4235 c0 -13 56 -15 440 -15 384 0 440 2 440 15 0 13 -56 15
-440 15 -384 0 -440 -2 -440 -15z"/>
<path d="M2342 4088 c4 -10 71 -14 284 -16 279 -3 324 0 324 18 0 6 -113 10
-306 10 -240 0 -305 -3 -302 -12z"/>
<path d="M7193 4088 c3 -10 70 -13 292 -13 222 0 289 3 293 13 3 9 -60 12
-293 12 -233 0 -296 -3 -292 -12z"/>
<path d="M2390 3950 c0 -6 85 -10 235 -10 150 0 235 4 235 10 0 6 -85 10 -235
10 -150 0 -235 -4 -235 -10z"/>
<path d="M7270 3950 c0 -6 83 -10 230 -10 147 0 230 4 230 10 0 6 -83 10 -230
10 -147 0 -230 -4 -230 -10z"/>
<path d="M2413 3818 c5 -18 289 -18 295 0 3 9 -31 12 -148 12 -117 0 -151 -3
-147 -12z"/>
<path d="M7413 3818 c3 -10 42 -13 152 -13 110 0 149 3 153 13 3 9 -32 12
-153 12 -121 0 -156 -3 -152 -12z"/>
</g>
</svg>
