<?xml version="1.0" standalone="no"?>
<!DOCTYPE svg PUBLIC "-//W3C//DTD SVG 20010904//EN"
 "http://www.w3.org/TR/2001/REC-SVG-20010904/DTD/svg10.dtd">
<svg version="1.0" xmlns="http://www.w3.org/2000/svg"
 width="512.000000pt" height="512.000000pt" viewBox="0 0 512.000000 512.000000"
 preserveAspectRatio="xMidYMid meet">

<g transform="translate(0.000000,512.000000) scale(0.100000,-0.100000)"
fill="#000000" stroke="none">
<path d="M2526 4582 c-9 -11 -35 -25 -59 -31 -23 -7 -51 -18 -62 -25 -11 -7
-35 -13 -54 -14 -44 -1 -81 -36 -81 -76 0 -41 -38 -112 -67 -125 -25 -11 -47
-56 -39 -77 7 -17 -1 -21 -48 -25 -35 -4 -41 -1 -46 20 -3 14 -12 27 -19 29
-13 4 -11 -9 7 -56 3 -10 -13 -12 -72 -11 -65 1 -76 4 -82 21 -6 19 -24 29
-76 42 -23 5 -28 3 -28 -13 0 -11 -15 -28 -36 -42 -30 -18 -38 -20 -45 -8 -22
36 -28 41 -39 34 -8 -5 -7 -12 6 -26 19 -21 14 -43 -15 -59 -17 -9 -23 -6 -37
15 -9 14 -23 25 -31 25 -11 0 -10 -6 6 -29 19 -27 20 -29 3 -43 -9 -9 -23 -17
-31 -20 -7 -2 -49 34 -95 83 -44 48 -84 87 -88 88 -21 3 -2 -26 67 -103 69
-78 82 -106 41 -90 -10 4 -42 -13 -88 -46 -60 -44 -75 -51 -90 -41 -38 23 -38
5 -1 -39 22 -26 24 -33 12 -41 -42 -28 -46 -28 -74 1 -15 16 -32 27 -37 24 -6
-4 4 -21 22 -39 28 -28 30 -35 19 -57 -8 -19 -8 -31 0 -47 10 -18 8 -25 -16
-45 -26 -23 -27 -24 -10 -50 l17 -26 -39 0 c-51 0 -83 -37 -79 -89 3 -31 9
-39 49 -61 70 -38 103 -66 95 -79 -8 -13 -46 3 -59 25 -4 8 -15 14 -24 14 -13
0 -13 -3 -3 -15 27 -33 -2 -24 -102 31 -253 140 -268 147 -268 126 0 -10 110
-62 131 -62 20 0 39 -19 33 -34 -2 -6 41 -36 96 -66 55 -30 100 -58 100 -61 0
-4 -8 -16 -17 -28 l-18 -21 -110 45 c-60 25 -146 61 -189 80 -73 32 -103 38
-80 16 11 -11 314 -138 350 -147 17 -4 24 -13 24 -30 0 -20 10 -29 62 -51 33
-15 56 -29 50 -31 -17 -5 -78 15 -151 51 -43 21 -81 32 -111 33 -30 0 -60 9
-91 27 -66 39 -163 77 -214 84 -38 5 -45 3 -45 -12 0 -20 -20 -18 -167 19 -65
16 -93 19 -93 11 0 -7 14 -41 32 -76 44 -88 146 -188 241 -233 39 -20 66 -36
60 -36 -7 0 -13 -9 -13 -19 0 -17 -4 -19 -32 -10 -56 16 -271 60 -274 56 -7
-7 47 -101 83 -144 41 -51 139 -122 208 -150 28 -12 87 -31 132 -43 79 -21
124 -43 113 -54 -3 -3 -40 6 -82 19 -71 23 -306 60 -316 50 -7 -7 40 -78 85
-126 l43 -47 -117 -4 c-165 -7 -223 -33 -223 -100 0 -91 190 -158 668 -239 65
-11 72 -14 72 -36 l0 -23 -219 0 c-136 0 -222 -4 -226 -10 -4 -7 71 -10 218
-10 l225 0 16 -25 c9 -14 35 -35 59 -47 l42 -23 -338 -3 c-228 -1 -337 -6
-337 -13 0 -7 108 -10 343 -9 561 2 537 3 537 -20 0 -16 -7 -20 -37 -20 -33 0
-47 -11 -151 -113 -63 -61 -122 -124 -132 -139 -9 -16 -51 -59 -94 -98 -75
-69 -77 -70 -131 -70 -30 0 -55 -4 -55 -10 0 -5 18 -10 41 -10 22 0 39 -3 37
-7 -33 -68 -22 -63 -130 -63 -59 0 -98 -4 -98 -10 0 -6 38 -10 95 -10 l95 0 0
-29 c0 -16 2 -36 5 -43 13 -34 -160 -98 -265 -98 l-55 -1 35 -30 c19 -17 78
-51 130 -75 167 -79 184 -89 231 -147 25 -31 69 -102 98 -157 29 -55 54 -100
56 -100 2 0 28 35 58 79 44 62 64 82 98 95 59 24 97 15 214 -50 415 -227 800
-327 1205 -311 385 15 696 105 1059 306 103 56 166 77 206 67 37 -9 91 -61
131 -127 36 -57 54 -73 54 -46 0 23 130 232 172 274 27 28 70 54 127 79 47 21
121 61 164 88 l79 51 -74 6 c-92 8 -150 24 -211 57 -31 17 -46 30 -42 40 3 7
5 27 5 43 l0 29 100 0 c60 0 100 4 100 10 0 6 -41 10 -103 10 -113 0 -102 -5
-135 63 -2 4 17 7 42 7 25 0 46 5 46 10 0 6 -26 10 -58 10 -58 0 -58 0 -137
71 -44 39 -82 77 -85 84 -3 7 -59 69 -126 139 -116 122 -121 126 -162 126 -35
0 -42 3 -42 20 0 20 7 20 439 20 279 0 442 4 446 10 4 6 -115 11 -337 12
l-343 3 42 23 c24 12 50 33 59 47 l16 25 224 0 c140 0 224 4 224 10 0 6 -86
11 -222 12 -215 3 -223 4 -226 23 -3 19 13 23 200 59 354 68 470 105 523 167
33 40 32 65 -4 98 -37 34 -112 51 -228 51 -46 0 -83 4 -83 8 0 5 14 21 31 38
32 29 89 111 89 126 0 16 -263 -24 -346 -52 -30 -11 -54 -15 -54 -9 0 13 52
34 136 55 113 27 227 87 293 154 55 56 122 162 110 175 -6 5 -255 -46 -290
-60 -12 -4 -18 1 -21 19 -5 23 1 28 56 54 120 57 235 182 266 292 l8 26 -117
-28 c-154 -37 -147 -36 -143 -14 7 41 -129 4 -256 -70 -29 -17 -61 -27 -97
-28 -36 -2 -69 -12 -106 -33 -54 -30 -147 -59 -157 -48 -3 3 23 17 57 32 54
23 62 30 58 50 -2 13 1 23 7 23 21 -1 386 154 386 163 0 5 -8 7 -17 4 -25 -7
-333 -135 -361 -149 -19 -10 -25 -8 -37 8 -8 10 -15 25 -15 31 0 7 44 35 99
62 66 34 100 57 104 70 3 12 13 23 24 27 44 13 147 67 136 71 -7 2 -94 -39
-195 -91 -175 -92 -216 -110 -190 -84 16 16 15 28 -3 28 -8 0 -15 -7 -15 -15
0 -15 -46 -32 -56 -22 -11 11 7 27 69 63 34 20 65 41 69 48 14 21 8 63 -13 90
-16 21 -29 26 -64 26 l-44 0 17 31 c17 29 16 31 -7 49 -20 17 -22 24 -13 49 8
23 7 32 -4 42 -8 6 -14 17 -14 24 0 7 -11 20 -25 29 -31 21 -31 27 0 64 14 17
21 33 16 36 -5 3 -14 -1 -21 -9 -17 -21 -23 -20 -75 20 -25 20 -51 33 -57 29
-7 -4 -8 -3 -4 4 10 16 -39 45 -64 37 -11 -3 -20 -3 -20 0 0 4 32 41 70 83 71
75 98 112 82 112 -11 0 -147 -151 -155 -173 -6 -17 -9 -16 -47 3 l-41 21 20
35 c24 41 3 49 -23 9 -19 -29 -24 -30 -51 -9 -19 14 -19 16 -3 44 15 26 14 40
-2 40 -4 0 -12 -11 -18 -25 -15 -31 -27 -31 -68 0 -33 25 -33 27 -17 51 12 18
13 28 5 36 -8 8 -14 4 -23 -15 -8 -17 -23 -28 -48 -34 -21 -5 -40 -17 -45 -29
-8 -19 -19 -22 -83 -23 l-74 -2 7 36 c8 43 -7 46 -23 4 -9 -23 -17 -30 -28
-25 -9 3 -28 6 -41 6 -21 0 -24 5 -24 35 0 32 -21 66 -47 76 -18 8 -62 96 -57
116 9 31 -35 75 -77 77 -19 1 -51 9 -73 19 -21 9 -44 17 -51 17 -8 0 -27 11
-43 25 -35 30 -82 33 -106 7z m82 -24 c7 -7 12 -31 12 -55 0 -42 0 -42 -25
-31 -28 13 -33 28 -9 28 10 0 14 7 12 23 -2 14 -10 22 -23 22 -15 0 -20 -7
-22 -30 0 -16 -2 -36 -2 -42 -1 -7 -5 -13 -11 -13 -11 0 -14 93 -3 103 11 11
58 8 71 -5z m-98 -27 c0 -5 -17 -15 -37 -21 -21 -7 -42 -16 -47 -21 -6 -5 -17
-9 -25 -9 -26 0 8 27 54 44 49 18 55 19 55 7z m208 -18 c32 -15 51 -33 35 -33
-17 0 -113 44 -113 53 0 9 29 2 78 -20z m-336 -40 c26 -23 22 -35 -7 -21 -19
8 -28 8 -40 -2 -22 -19 -18 -33 15 -52 17 -9 30 -23 30 -29 0 -7 -10 -3 -23 9
-13 12 -27 22 -33 22 -10 0 -54 -64 -54 -80 0 -5 -9 -19 -21 -31 -11 -11 -14
-19 -7 -18 23 4 48 -13 48 -32 0 -10 -4 -19 -10 -19 -5 0 -10 9 -10 20 0 18
-1 18 -30 2 -35 -20 -38 -37 -10 -52 11 -6 20 -21 20 -35 0 -41 38 -118 55
-111 8 3 21 9 29 12 16 6 46 -21 46 -43 0 -14 -2 -14 -19 1 -21 19 -61 14 -61
-8 0 -29 52 -50 63 -26 3 6 4 5 3 -2 -1 -6 -10 -16 -20 -22 -14 -9 -22 -6 -42
18 -14 16 -23 35 -20 42 3 8 -6 30 -19 50 -14 20 -30 55 -36 78 -6 22 -17 49
-25 60 -22 31 -17 64 12 82 14 10 36 39 50 66 13 26 28 48 32 48 5 0 7 13 4
28 -7 51 42 79 80 45z m453 -3 c11 -12 16 -29 13 -45 -3 -15 1 -30 9 -37 8 -6
23 -29 34 -49 10 -21 28 -43 39 -49 13 -7 20 -21 20 -38 -1 -51 -63 -212 -82
-212 -4 0 2 19 12 43 11 23 20 51 20 62 0 11 9 31 20 45 26 33 25 36 -10 49
-18 6 -30 6 -30 0 0 -5 -4 -9 -10 -9 -16 0 -12 27 5 34 23 8 18 37 -15 89 -16
26 -30 59 -30 73 0 32 -22 40 -60 21 -31 -16 -32 -9 -2 26 20 22 45 22 67 -3z
m-355 -5 c-14 -7 -27 -11 -30 -9 -6 7 22 24 40 23 9 0 5 -6 -10 -14z m200 5
c8 -5 12 -11 10 -14 -3 -2 -14 2 -24 10 -22 15 -10 19 14 4z m-240 -72 c0 -6
-7 -5 -15 2 -8 7 -15 17 -15 22 0 6 7 5 15 -2 8 -7 15 -17 15 -22z m300 18 c0
-3 -4 -8 -10 -11 -5 -3 -10 -1 -10 4 0 6 5 11 10 11 6 0 10 -2 10 -4z m70 -26
c0 -5 -9 -14 -20 -20 -22 -12 -27 -1 -8 18 14 14 28 16 28 2z m-140 -40 c32
-23 69 -88 70 -123 0 -27 -17 -11 -23 22 -9 44 -68 98 -116 106 -32 5 -51 2
-86 -15 -62 -30 -88 -75 -83 -144 3 -59 -7 -66 -18 -11 -14 75 24 151 91 181
44 21 125 13 165 -16z m-40 -23 c13 -7 35 -28 48 -47 48 -71 10 -172 -74 -200
-27 -9 -41 -8 -78 8 -53 24 -76 62 -76 126 0 92 98 154 180 113z m185 -86 c6
-11 -1 -16 -37 -25 -34 -8 -38 11 -5 24 29 12 35 12 42 1z m-425 -16 c0 -17
-16 -20 -25 -5 -3 5 -12 7 -20 3 -8 -3 -15 0 -15 6 0 6 14 11 30 11 20 0 30
-5 30 -15z m-513 -22 c3 -7 -8 -13 -24 -15 -54 -6 -37 -68 18 -68 22 0 32 6
39 25 11 30 20 32 20 5 0 -25 -98 -84 -115 -70 -14 11 -25 3 -19 -13 2 -7 -32
-33 -76 -59 -44 -26 -80 -42 -80 -36 0 6 8 17 18 24 15 11 12 12 -19 8 -30 -5
-38 -2 -52 19 l-16 25 132 86 c124 81 165 97 174 69z m1502 -32 c166 -107 196
-125 207 -123 20 4 39 -27 26 -40 -8 -8 -12 -9 -12 -1 0 16 -39 23 -48 9 -11
-20 -42 -27 -65 -15 -19 9 -18 7 3 -10 49 -39 13 -28 -69 21 -59 36 -79 53
-69 59 7 5 9 9 3 9 -54 5 -75 11 -107 30 -21 12 -38 26 -38 32 0 5 -4 6 -10 3
-5 -3 -10 -17 -10 -29 0 -22 -3 -23 -47 -18 -27 3 -50 9 -51 13 -2 5 -8 7 -13
3 -14 -8 -11 9 7 34 14 20 23 23 75 21 49 -2 61 -6 74 -26 28 -42 102 -23 93
24 -2 12 -14 19 -36 21 -28 3 -31 6 -21 18 17 21 26 18 108 -35z m-1185 -4
c13 -21 -5 -37 -42 -37 -12 0 -25 -7 -28 -15 -4 -8 -10 -12 -15 -9 -5 3 -9 -3
-10 -13 0 -16 -28 61 -29 79 0 7 52 16 89 14 13 -1 29 -9 35 -19z m852 13 c27
0 30 -14 13 -57 -10 -27 -11 -27 -25 -9 -10 14 -14 16 -14 5 0 -9 -3 -10 -8
-3 -4 6 -19 14 -34 18 -18 4 -28 13 -28 25 0 26 11 33 44 27 16 -3 39 -6 52
-6z m-661 -10 c-3 -5 -23 -9 -43 -9 l-37 2 40 7 c22 4 41 8 43 9 2 0 0 -3 -3
-9z m-325 -19 c11 -22 14 -48 3 -38 -3 4 -11 3 -17 -2 -6 -4 -28 -11 -48 -14
-36 -5 -38 -4 -46 26 -5 18 -7 35 -5 40 2 4 26 7 53 7 39 0 52 -4 60 -19z
m763 12 c-13 -2 -33 -2 -45 0 -13 2 -3 4 22 4 25 0 35 -2 23 -4z m-883 -56 c0
-8 -7 -14 -15 -14 -11 0 -12 4 -4 14 6 7 13 13 15 13 2 0 4 -6 4 -13z m409
-18 c-17 -11 -39 -12 -39 -1 0 4 12 8 27 9 19 1 22 -1 12 -8z m89 -21 c7 -7
12 -21 11 -32 0 -19 -1 -19 -10 3 -7 18 -15 22 -34 19 -24 -5 -32 2 -18 15 10
11 38 8 51 -5z m317 2 c3 -5 -3 -10 -15 -10 -12 0 -24 -9 -30 -22 -8 -22 -9
-22 -9 -2 -1 34 38 59 54 34z m-507 -31 c4 -24 -36 -32 -48 -9 -7 13 -6 20 3
24 21 8 42 1 45 -15z m598 -3 c28 -23 28 -24 10 -50 -22 -35 -44 -43 -63 -24
-13 14 -12 15 9 11 32 -6 56 20 38 42 -18 21 -36 19 -54 -7 -14 -19 -16 -20
-16 -5 0 27 19 57 35 57 8 0 26 -11 41 -24z m88 18 c12 -5 13 -10 4 -30 -11
-24 -11 -24 -25 -4 -8 11 -11 25 -8 30 7 12 8 12 29 4z m-1424 -13 c0 -5 -7
-14 -15 -21 -12 -10 -15 -10 -15 2 0 8 3 18 7 21 9 10 23 9 23 -2z m78 -38
c31 -47 33 -63 7 -63 -20 0 -47 42 -35 54 14 14 12 26 -5 26 -9 0 -12 -6 -8
-17 4 -11 3 -14 -5 -9 -20 12 -13 56 8 56 4 0 21 -21 38 -47z m600 21 c3 -24
-37 -50 -63 -40 -10 4 -19 -2 -25 -17 -5 -12 -9 -16 -9 -9 -1 7 -5 11 -11 7
-9 -6 -45 53 -37 61 7 8 91 22 117 21 17 -1 26 -9 28 -23z m852 16 c30 -6 55
-12 57 -14 7 -7 -27 -66 -37 -66 -6 0 -10 5 -10 11 0 5 -4 8 -9 4 -5 -3 -12
-1 -16 5 -3 5 -16 10 -28 10 -34 0 -50 15 -42 39 7 24 13 25 85 11z m630 -21
c0 -5 -9 -4 -19 3 -11 7 -17 16 -14 20 5 10 33 -10 33 -23z m-1836 -60 c20
-45 35 -84 32 -86 -6 -6 -41 54 -65 110 -24 55 -24 57 -12 57 4 0 25 -37 45
-81z m1494 -13 c-18 -42 -37 -76 -41 -76 -11 0 -1 29 35 109 17 37 32 61 35
54 2 -7 -11 -46 -29 -87z m-1463 64 c0 -7 -6 -15 -12 -17 -8 -3 -13 4 -13 17
0 13 5 20 13 18 6 -3 12 -11 12 -18z m1439 -12 c-3 -5 -12 -4 -20 3 -7 6 -11
15 -8 21 3 5 12 4 20 -3 7 -6 11 -15 8 -21z m-1843 4 c-13 -25 -90 -77 -99
-68 -11 12 71 78 106 85 1 1 -2 -7 -7 -17z m482 -21 c4 -18 6 -35 3 -38 -5 -6
-36 51 -36 67 0 24 24 2 33 -29z m92 3 c0 -22 -5 -30 -22 -32 -13 -2 -23 -8
-23 -13 0 -18 -17 -8 -28 16 -17 38 -15 43 21 54 44 13 52 9 52 -25z m1132 21
c19 -8 37 -15 39 -15 2 0 4 7 4 15 0 8 5 15 10 15 14 0 12 -31 -5 -60 -13 -22
-14 -23 -15 -5 -1 19 -2 18 -14 -3 -11 -21 -14 -22 -25 -8 -8 9 -22 16 -33 16
-10 0 -21 7 -24 15 -8 19 2 45 16 45 6 0 27 -7 47 -15z m433 -15 c0 -3 -11
-18 -24 -35 -19 -23 -27 -27 -36 -19 -9 9 -9 17 0 34 10 18 14 20 21 9 6 -9 7
-4 3 14 -6 27 -6 28 15 15 11 -7 21 -15 21 -18z m-1002 13 c-10 -2 -28 -2 -40
0 -13 2 -5 4 17 4 22 1 32 -1 23 -4z m-1041 -67 c-6 -17 -111 -86 -124 -81 -7
2 -12 1 -10 -4 1 -4 -13 -20 -31 -35 -18 -16 -29 -33 -25 -39 3 -7 -6 -1 -20
12 -34 31 -35 11 -2 -37 32 -46 32 -62 1 -33 -34 32 -64 90 -50 99 6 4 13 13
15 20 2 7 49 46 104 87 l100 75 22 -28 c13 -15 21 -31 20 -36z m2236 -57 c21
-15 37 -31 37 -35 -1 -4 5 -11 14 -16 22 -12 21 -18 -14 -70 -33 -50 -71 -77
-49 -35 7 12 20 33 30 46 35 44 22 58 -18 20 -20 -18 -31 -26 -24 -16 8 9 12
19 10 20 -2 2 -24 18 -49 38 -25 19 -64 47 -88 63 -55 37 -56 39 -37 76 l16
31 67 -48 c37 -26 84 -59 105 -74z m-42 94 c40 -29 49 -43 26 -43 -17 0 -87
48 -87 60 0 17 20 11 61 -17z m-1847 -8 c18 -27 22 -70 6 -60 -5 3 -10 -2 -10
-12 -1 -10 -12 4 -26 31 -21 39 -23 50 -12 57 20 13 24 11 42 -16z m1376 15
c19 -10 19 -12 -2 -56 -20 -40 -23 -42 -30 -23 -4 11 -5 26 -1 32 4 7 -1 6
-11 -2 -17 -14 -17 -13 0 22 20 42 18 41 44 27z m-692 -31 c16 8 21 7 26 -5 9
-24 7 -74 -3 -74 -5 0 -7 9 -4 20 5 17 0 20 -30 20 -25 0 -37 -5 -40 -17 -3
-12 -5 -8 -6 9 -2 41 9 61 25 48 9 -8 18 -8 32 -1z m-772 -34 c18 -44 18 -51
-1 -35 -8 7 -15 18 -15 26 0 26 -20 24 -71 -7 -39 -25 -55 -30 -68 -22 -12 7
-20 6 -29 -3 -14 -15 -52 -19 -52 -6 0 4 14 16 31 26 25 15 35 16 53 7 18 -10
30 -7 76 18 30 17 56 31 58 31 2 0 10 -16 18 -35z m570 24 c3 -6 27 -24 52
-40 49 -31 51 -36 6 -16 -40 17 -84 48 -84 58 0 13 17 11 26 -2z m394 -14
c-15 -18 -90 -59 -96 -53 -4 5 99 75 105 71 2 -1 -2 -10 -9 -18z m628 -6 c48
-27 58 -29 78 -19 19 11 27 9 56 -11 31 -23 32 -24 10 -27 -13 -2 -29 1 -36 7
-8 6 -21 9 -29 5 -9 -3 -40 8 -70 25 -30 17 -57 31 -60 31 -2 0 -10 -13 -17
-30 -19 -45 -31 -36 -13 10 9 22 18 40 21 40 3 0 30 -14 60 -31z m-1128 12 c0
-13 -26 -32 -34 -24 -4 4 -4 -1 -1 -12 6 -16 3 -15 -14 5 -16 19 -21 21 -21 9
0 -27 -22 -38 -86 -44 -54 -6 -57 -5 -40 9 11 9 40 23 65 32 25 9 53 20 61 24
20 12 70 12 70 1z m640 -4 c0 -7 -5 -18 -12 -25 -8 -8 -16 -6 -30 10 -24 27
-23 28 12 28 18 0 30 -5 30 -13z m109 -32 c30 -14 51 -28 48 -31 -3 -3 -35 -3
-72 1 -47 5 -68 12 -75 25 -20 38 23 40 99 5z m-979 -19 c0 -2 -9 -6 -20 -9
-11 -3 -18 -1 -14 4 5 9 34 13 34 5z m1650 -74 l28 -28 6 -225 c4 -123 6 -393
4 -599 l-3 -375 -22 -3 -23 -3 0 595 c0 527 -2 596 -16 610 -14 14 -127 16
-1101 16 -997 0 -1088 -1 -1105 -17 -17 -15 -18 -47 -18 -610 0 -586 0 -593
-20 -593 -20 0 -20 7 -20 601 l0 601 29 29 29 29 1102 0 1102 0 28 -28z
m-2172 -76 c-4 -26 -37 -28 -52 -3 -9 15 -7 21 8 32 24 18 48 2 44 -29z m2140
5 c-4 -31 -35 -36 -52 -8 -9 14 -7 21 7 32 27 19 49 8 45 -24z m212 -14 c0 -7
-13 -26 -29 -44 -21 -24 -31 -29 -39 -21 -16 16 -15 38 2 38 8 0 16 -3 19 -7
2 -5 2 -2 0 6 -2 8 4 22 13 32 17 19 34 17 34 -4z m-2569 -17 c4 -14 7 -19 8
-11 1 11 4 11 17 1 14 -12 13 -15 -1 -29 -14 -14 -18 -13 -46 16 -18 18 -28
36 -24 42 11 19 39 8 46 -19z m1208 -72 c-33 -111 -52 -265 -53 -431 l-1 -157
-45 -15 c-39 -13 -112 -15 -460 -13 l-415 3 -3 325 c-1 179 0 330 3 337 3 10
111 13 499 13 l494 0 -19 -62z m1081 -278 l0 -340 -427 0 c-383 1 -431 3 -461
18 l-33 17 -3 190 c-3 185 -15 271 -62 433 l-6 22 496 0 496 0 0 -340z m-1006
273 c53 -167 72 -465 41 -670 -17 -113 -34 -176 -35 -127 0 12 4 45 10 74 33
172 30 418 -8 600 l-17 85 -7 -265 c-12 -431 -16 -505 -31 -508 -31 -7 -63
279 -52 463 10 163 54 395 76 395 4 0 14 -21 23 -47z m-1315 -2 l23 -18 -21
-41 c-25 -49 -52 -55 -95 -21 -31 25 -32 38 -5 73 24 31 63 34 98 7z m2679 3
c33 -23 29 -65 -8 -87 -38 -23 -64 -15 -80 23 -7 17 -18 30 -24 30 -6 0 2 12
17 25 32 29 63 32 95 9z m-2598 -84 l25 -19 -32 -7 c-32 -6 -48 -27 -36 -47 3
-6 -5 -2 -19 9 -25 18 -25 20 -10 51 18 38 36 41 72 13z m2495 -11 c13 -24 14
-34 4 -45 -17 -20 -28 -17 -39 11 -6 16 -17 25 -32 25 l-23 1 24 19 c32 28 48
25 66 -11z m-2607 -148 c2 -13 -1 -28 -7 -34 -8 -8 -11 -7 -11 2 0 11 -3 11
-16 0 -9 -7 -14 -22 -11 -36 4 -21 -11 -32 -25 -17 -9 8 46 114 57 111 6 -2
12 -14 13 -26z m2700 -26 c16 -30 27 -57 24 -60 -12 -12 -21 -3 -27 26 -5 23
-11 30 -25 26 -23 -6 -39 41 -18 54 7 5 14 9 15 9 1 0 15 -25 31 -55z m-2621
23 c9 -7 9 -16 1 -34 -9 -18 -19 -24 -44 -24 -22 0 -32 4 -29 13 22 63 25 66
42 60 10 -3 23 -10 30 -15z m2552 -35 c1 -18 -5 -23 -24 -23 -22 0 -45 24 -45
49 0 5 12 14 28 19 29 10 40 -2 41 -45z m-3285 28 c38 -11 73 -26 78 -34 4 -8
29 -41 54 -72 41 -49 44 -56 23 -50 -48 15 -122 57 -201 115 -74 55 -79 60
-52 60 16 0 60 -9 98 -19z m246 -33 c60 -31 91 -52 105 -76 11 -18 35 -56 53
-84 l32 -50 -37 6 c-102 18 -228 113 -292 221 l-22 38 38 -6 c21 -3 76 -25
123 -49z m3620 46 c0 -19 -99 -140 -141 -174 -49 -39 -142 -80 -180 -80 -18 0
-18 4 11 45 17 25 35 58 41 73 11 32 76 78 164 115 57 25 105 34 105 21z m148
-50 c-70 -53 -214 -131 -224 -121 -3 3 11 22 31 43 20 22 43 51 51 66 11 21
28 31 72 43 31 9 62 18 67 20 6 2 25 4 43 4 33 1 32 0 -40 -55z m-3228 19 c0
-60 -13 -133 -24 -133 -32 1 -37 16 -22 77 7 34 17 66 21 72 12 20 25 11 25
-16z m2419 -8 c8 -16 16 -48 19 -71 4 -36 1 -44 -18 -54 -12 -6 -24 -9 -27 -7
-3 3 -7 42 -10 88 -5 67 -4 81 8 77 8 -2 20 -17 28 -33z m-2726 -80 c49 -20
94 -60 101 -91 4 -14 18 -43 32 -65 21 -35 22 -39 7 -39 -77 0 -151 58 -206
158 l-28 52 29 0 c16 0 45 -7 65 -15z m3077 -22 c-65 -116 -111 -155 -198
-169 l-42 -7 35 53 c19 28 32 56 29 61 -16 26 103 98 164 99 l33 0 -21 -37z
m-2830 -68 c27 -14 51 -29 54 -34 7 -11 -19 -22 -36 -16 -7 2 -21 -2 -32 -10
-18 -13 -17 -16 19 -66 l37 -52 -31 22 c-36 26 -66 64 -111 140 l-31 54 41 -7
c23 -4 63 -18 90 -31z m2630 29 c0 -3 -24 -43 -53 -87 -34 -51 -67 -89 -88
-101 l-34 -19 26 29 c37 40 64 94 40 80 -13 -9 -42 4 -35 15 3 5 2 9 -3 8 -4
-1 -17 -1 -28 0 -17 1 -18 3 -4 16 32 33 179 81 179 59z m-3085 -94 c30 -30
35 -40 21 -40 -19 0 -76 52 -76 69 0 20 15 12 55 -29z m3465 25 c0 -19 -47
-65 -67 -65 -9 0 -2 14 18 40 34 42 49 50 49 25z m-3242 -96 c18 -22 20 -29 8
-29 -14 0 -56 45 -56 61 0 15 24 -1 48 -32z m-495 16 c35 -8 80 -21 100 -30
38 -16 132 -108 116 -113 -27 -10 -168 54 -288 130 -41 26 -43 28 -19 28 15 0
56 -7 91 -15z m3507 5 c0 -16 -39 -50 -57 -50 -13 0 -10 7 12 30 29 31 45 38
45 20z m300 0 c0 -17 -85 -114 -128 -147 -39 -29 -139 -69 -149 -59 -3 2 11
24 30 49 19 25 37 56 40 69 8 29 54 57 132 79 73 21 75 21 75 9z m229 -16
c-82 -61 -241 -134 -293 -134 -7 0 11 25 38 55 46 49 59 56 136 79 47 14 100
25 119 25 l35 1 -35 -26z m-3742 -20 c32 -15 55 -34 59 -47 3 -12 22 -44 41
-70 19 -27 32 -51 30 -53 -6 -6 -98 26 -121 42 -32 22 -115 104 -138 137 l-22
30 50 -6 c27 -4 72 -19 101 -33z m1606 -56 c3 -31 0 -46 -11 -53 -76 -51 -100
-75 -129 -135 l-32 -65 60 -3 c50 -2 60 -6 57 -20 -2 -13 -15 -18 -50 -20
l-46 -3 10 -37 c17 -61 74 -129 131 -153 15 -6 27 -15 27 -20 0 -15 -64 11
-102 41 -48 39 -48 32 -2 -20 20 -22 33 -40 28 -40 -22 0 -112 66 -138 101
-16 21 -32 37 -35 34 -2 -3 11 -35 30 -72 32 -62 82 -114 155 -160 15 -10 13
-10 -14 -1 -46 14 -133 97 -164 155 -75 137 -54 302 54 419 36 40 125 94 154
94 7 0 14 -19 17 -42z m247 12 c56 -28 119 -96 148 -158 23 -49 27 -71 27
-152 0 -85 -3 -101 -29 -154 -16 -33 -48 -79 -72 -102 -41 -42 -111 -84 -136
-84 -7 0 2 8 21 17 56 28 138 111 166 167 41 84 47 233 10 233 -8 0 -15 -7
-16 -16 0 -10 -3 -11 -5 -4 -3 7 -11 10 -18 7 -8 -3 -19 10 -29 34 -22 54 -62
99 -118 131 -35 20 -45 31 -39 41 5 8 6 18 4 22 -3 5 -2 17 1 29 7 22 23 20
85 -11z m1419 -2 c-49 -94 -146 -158 -240 -158 l-53 0 35 38 c20 20 43 49 52
64 10 17 37 34 74 48 54 20 134 40 141 34 2 -1 -2 -13 -9 -26z m-3066 0 c55
-18 75 -30 95 -58 14 -19 39 -50 56 -67 l30 -33 -55 0 c-94 0 -165 47 -232
153 l-17 27 27 0 c14 0 58 -10 96 -22z m223 -42 c65 -30 77 -47 32 -44 -34 3
-44 -13 -25 -39 6 -8 6 -13 -1 -13 -11 0 -102 100 -102 112 0 15 46 7 96 -16z
m2604 14 c0 -5 -27 -38 -60 -72 -43 -45 -56 -55 -45 -34 16 34 7 52 -28 59
-18 3 -11 9 33 30 56 27 100 35 100 17z m-3015 -140 c26 -26 34 -40 23 -40
-19 0 -65 35 -78 61 -19 34 13 22 55 -21z m3385 29 c0 -17 -57 -69 -76 -69
-14 0 -9 10 21 40 40 41 55 49 55 29z m-1780 -36 c-1 -13 -60 -78 -60 -66 0
11 47 73 56 73 2 0 4 -3 4 -7z m174 -35 c9 -12 16 -29 16 -38 -1 -11 -4 -9
-12 5 -6 11 -22 33 -37 49 -23 26 -24 28 -4 17 12 -6 29 -21 37 -33z m-1554 2
c28 -25 31 -30 14 -30 -26 0 -64 27 -64 46 0 20 11 17 50 -16z m1489 15 c57
-29 61 -103 9 -139 -35 -25 -42 -19 -11 10 27 24 27 24 2 10 -15 -10 -44 -15
-73 -14 -44 2 -50 6 -61 32 -33 77 54 143 134 101z m1441 -5 c-11 -21 -40 -40
-61 -40 -7 0 0 14 16 30 34 35 62 42 45 10z m-3303 -36 c135 -28 231 -72 233
-106 0 -13 -74 -9 -129 8 -30 8 -99 38 -155 65 -94 45 -98 49 -63 49 21 0 72
-7 114 -16z m3678 -34 c-108 -53 -196 -80 -259 -80 l-40 0 29 30 c45 47 213
97 330 98 38 0 35 -2 -60 -48z m-3376 19 c38 -8 63 -22 101 -58 27 -26 50 -50
50 -54 0 -4 -26 -7 -58 -7 -49 0 -66 5 -99 29 -40 29 -83 77 -83 92 0 12 29
11 89 -2z m3111 -1 c0 -7 -25 -36 -56 -65 l-56 -53 -70 0 -71 0 52 52 c37 37
64 55 99 64 61 16 102 17 102 2z m-2882 -9 c28 -5 58 -17 68 -25 18 -14 17
-15 -11 -11 -16 3 -42 3 -57 0 l-28 -5 21 -29 c28 -40 11 -36 -42 8 -69 59
-75 73 -29 73 16 0 51 -5 78 -11z m1522 -76 c-13 -73 -48 -125 -105 -158 -63
-37 -78 -26 -17 12 50 31 93 90 106 146 6 27 6 27 -44 27 -43 0 -50 3 -50 20
0 17 7 20 50 20 33 0 50 4 50 13 0 6 5 4 11 -6 7 -11 7 -35 -1 -74z m1144 78
c6 -10 -90 -101 -106 -101 -10 0 -3 16 18 41 12 14 8 16 -38 18 -64 3 -70 7
-32 22 67 27 148 37 158 20z m-1258 -89 c-21 -65 -97 -103 -161 -82 -38 13
-85 62 -84 88 0 14 2 13 9 -3 38 -93 181 -97 221 -6 15 33 25 35 15 3z m-151
8 c3 -5 2 -10 -4 -10 -5 0 -13 5 -16 10 -3 6 -2 10 4 10 5 0 13 -4 16 -10z
m-1630 -70 c111 -8 258 -18 791 -56 74 -5 83 -8 93 -30 12 -28 15 -88 4 -81
-5 3 -53 7 -108 10 -99 5 -99 5 -25 -5 41 -5 84 -14 95 -19 15 -6 12 -8 -15
-4 -19 2 -91 10 -160 16 -140 13 -193 27 -120 30 l45 2 -50 7 c-53 9 -142 11
-112 3 32 -8 18 -25 -15 -19 -18 3 -78 10 -133 16 -203 21 -539 60 -677 80
-78 11 -144 20 -145 20 -2 0 -3 4 -3 10 0 9 46 25 100 34 31 5 259 -2 435 -14z
m3759 10 c38 -4 75 -15 83 -23 18 -17 -13 -22 -392 -67 -507 -59 -599 -69
-609 -62 -14 8 35 19 93 21 24 0 42 4 38 7 -3 4 -66 1 -139 -7 -103 -10 -124
-15 -93 -19 36 -6 37 -7 15 -13 -24 -6 -292 -37 -325 -37 -18 0 -21 51 -4 98
12 35 -2 33 299 52 91 6 255 18 365 26 452 34 564 38 669 24z m-2460 -117 l-4
-88 -57 3 c-32 2 -59 4 -60 5 -1 2 -5 26 -9 55 l-7 52 31 0 c17 0 34 -5 37
-10 4 -6 20 7 36 30 16 22 31 40 33 40 3 0 3 -39 0 -87z m766 15 c0 -5 9 -4
19 2 11 5 31 10 44 10 24 0 25 -3 20 -42 -7 -66 -7 -66 -72 -70 l-60 -3 -3 80
c-2 44 -2 84 0 88 4 9 52 -51 52 -65z m-988 17 c34 -3 65 -11 70 -18 4 -6 8
-31 8 -54 0 -35 -3 -43 -18 -43 -10 0 -22 4 -27 8 -6 4 -30 5 -55 1 l-45 -6
48 -1 c27 -1 47 -7 47 -13 0 -8 -16 -10 -52 -5 -29 3 -70 6 -90 6 -52 0 -48
20 5 22 l42 1 -41 4 c-38 4 -42 7 -53 45 -7 22 -15 46 -18 54 -4 11 7 13 56 9
34 -3 89 -7 123 -10z m577 2 c7 -9 13 -135 16 -388 3 -206 6 -390 6 -409 l1
-35 9 35 c5 19 16 89 25 155 19 141 15 279 -16 484 -11 74 -18 136 -16 138 5
5 31 -117 48 -217 18 -109 15 -385 -5 -495 -21 -114 -49 -207 -64 -212 -7 -3
-20 23 -33 64 -63 204 -72 452 -25 726 15 92 31 167 35 167 4 0 13 -6 19 -13z
m758 -1 c-3 -8 -11 -33 -17 -55 -10 -39 -13 -41 -53 -43 l-42 -1 43 -4 c24 -3
42 -9 42 -16 0 -9 -33 -13 -112 -14 -63 -1 -107 1 -100 6 11 6 10 10 -3 15
-14 5 -16 15 -12 47 3 23 10 46 15 51 5 5 52 13 103 17 146 12 142 13 136 -3z
m-417 -67 c-16 -60 -52 -120 -95 -158 -40 -35 -114 -75 -123 -67 -3 3 0 6 6 6
6 0 42 29 80 65 52 49 77 81 101 135 36 78 49 86 31 19z m-559 -140 c26 -26
62 -57 80 -68 40 -25 22 -28 -24 -5 -86 44 -159 138 -172 219 -6 38 -5 37 31
-29 21 -38 59 -90 85 -117z m-945 97 c-6 -37 -3 -50 19 -81 14 -21 25 -47 25
-59 0 -24 -38 -91 -47 -83 -3 3 2 16 11 29 37 53 8 118 -53 118 -52 0 -80 -67
-51 -121 13 -24 2 -25 -16 -1 -38 49 15 162 75 162 19 0 22 3 12 9 -18 12 -5
71 16 71 12 0 14 -8 9 -44z m2342 12 c7 -26 5 -34 -7 -40 -11 -4 -7 -7 13 -7
19 -1 39 -13 62 -37 28 -29 34 -43 34 -78 0 -27 -6 -48 -15 -56 -18 -15 -18
-14 -6 28 12 41 -2 85 -33 101 -29 16 -95 -9 -97 -36 -2 -35 3 -58 18 -81 21
-34 9 -38 -16 -6 -27 34 -27 79 0 124 16 26 20 44 15 77 -4 34 -2 43 9 43 8 0
18 -15 23 -32z m-1685 -35 c-7 -2 -19 -2 -25 0 -7 3 -2 5 12 5 14 0 19 -2 13
-5z m136 -9 c2 -2 -21 -4 -52 -4 -31 0 -57 4 -57 10 0 8 99 3 109 -6z m856 6
c4 -6 -15 -9 -52 -8 l-58 1 45 7 c25 4 48 8 52 8 4 1 10 -2 13 -8z m723 -190
l-3 -55 -14 30 c-15 31 -24 133 -13 149 11 19 33 -70 30 -124z m-1487 43 c-15
-31 -17 -43 -8 -53 10 -10 7 -11 -13 -5 -51 15 -52 18 -13 80 33 52 38 56 46
38 6 -15 3 -31 -12 -60z m599 21 c34 -58 32 -67 -10 -79 -20 -6 -22 -5 -13 5
9 9 7 20 -8 44 -19 31 -25 67 -12 79 10 10 9 11 43 -49z m-1500 5 c0 -41 -20
-119 -31 -119 -10 0 -12 58 -3 113 8 46 34 51 34 6z m-121 -25 c11 -10 -10
-11 -81 -1 -43 5 -78 12 -78 16 0 7 151 -7 159 -15z m2767 17 c-3 -5 -34 -12
-68 -16 -35 -3 -71 -9 -80 -11 -10 -3 -18 -1 -18 4 0 5 35 14 78 19 42 6 81
11 85 12 5 0 6 -3 3 -8z m-2401 -26 c61 -8 200 -26 310 -41 110 -14 205 -30
210 -35 7 -7 2 -9 -15 -5 -14 3 -65 10 -115 16 -191 21 -559 71 -564 75 -8 9
64 5 174 -10z m2030 9 c-5 -2 -147 -22 -315 -44 -168 -22 -318 -42 -335 -45
-19 -4 -26 -2 -20 4 12 12 557 89 630 89 28 0 46 -1 40 -4z m-2160 -79 c61 -8
162 -21 225 -29 276 -37 356 -49 365 -58 5 -5 -3 -6 -20 -3 -17 3 -88 12 -160
20 -71 8 -215 26 -320 40 -104 14 -193 25 -197 25 -5 0 -8 5 -8 10 0 6 1 10 3
10 1 0 52 -7 112 -15z m739 9 c9 -3 16 -10 16 -16 0 -18 -164 -278 -176 -278
-3 0 11 30 31 68 21 37 28 56 16 42 -11 -14 -21 -29 -21 -34 0 -5 -3 -7 -6 -3
-9 9 108 227 121 227 2 0 10 -3 19 -6z m742 -94 c32 -56 52 -103 49 -114 -2
-11 5 -36 16 -55 l21 -36 -29 32 c-48 55 -156 241 -149 258 12 33 40 7 92 -85z
m744 91 c0 -11 -24 -16 -265 -46 -110 -14 -234 -30 -275 -35 -130 -19 -146
-20 -130 -10 8 4 130 24 270 44 140 19 282 40 315 45 83 12 85 12 85 2z m-852
-115 c56 -57 102 -107 102 -112 0 -5 -46 37 -103 94 -82 82 -108 102 -132 103
-30 1 -30 1 -5 9 14 4 28 8 31 9 3 1 51 -46 107 -103z m-478 87 c-15 -3 -74
-52 -145 -121 -136 -134 -128 -115 14 31 82 83 100 97 126 96 27 -2 27 -2 5
-6z m-945 -53 c3 -6 3 -19 0 -31 -5 -16 -10 -18 -21 -8 -18 15 -18 49 0 49 8
0 18 -5 21 -10z m2265 -14 c0 -13 -7 -26 -15 -30 -11 -4 -15 1 -15 18 0 12 3
26 7 29 13 14 23 6 23 -17z m-2057 -60 c42 -41 67 -72 67 -86 0 -21 0 -21 -30
-4 -16 10 -60 49 -97 86 -66 67 -67 68 -38 68 23 -1 47 -16 98 -64z m1902 17
c-27 -25 -72 -64 -100 -86 -49 -39 -50 -39 -54 -16 -2 19 11 37 65 86 57 52
75 62 104 62 l35 0 -50 -46z m-1835 17 c0 -11 -3 -20 -6 -20 -3 0 -17 9 -31
20 l-26 20 32 0 c24 0 31 -4 31 -20z m1715 0 c-10 -11 -22 -20 -27 -20 -4 0
-8 9 -8 20 0 15 7 20 27 20 25 0 26 0 8 -20z m-1655 -175 c0 -160 -2 -184 -15
-179 -13 5 -15 35 -15 185 0 152 2 179 15 179 13 0 15 -27 15 -185z m1590 6
c0 -150 -2 -180 -15 -185 -13 -5 -15 19 -15 179 0 158 2 185 15 185 13 0 15
-27 15 -179z m-1932 122 c137 -107 271 -219 271 -226 2 -20 -137 78 -254 179
-81 70 -97 77 -123 58 -27 -18 -28 -61 -4 -90 61 -74 547 -314 637 -314 25 0
55 41 55 74 0 27 15 25 105 -15 102 -46 264 -94 351 -104 32 -4 64 -12 71 -17
7 -6 19 -6 30 0 10 5 43 12 73 16 88 11 233 53 343 101 101 43 102 43 110 22
22 -57 34 -72 59 -75 36 -4 207 66 377 154 171 89 237 133 262 171 25 38 24
59 -6 79 -30 20 -38 16 -165 -91 -97 -82 -209 -160 -217 -151 -4 3 -4 7 -2 9
2 2 65 52 139 113 74 60 148 120 164 132 77 59 176 -21 132 -107 -49 -94 -525
-328 -829 -407 -198 -51 -476 -67 -691 -39 -251 33 -436 95 -751 250 -248 122
-305 165 -305 232 0 34 6 46 31 67 17 14 41 26 53 26 13 0 51 -21 84 -47z
m546 4 c16 -12 17 -17 5 -56 -10 -35 -14 -40 -20 -25 -6 14 -8 15 -10 4 -1 -8
-5 1 -8 20 l-7 35 -16 -35 c-27 -59 -38 -101 -45 -172 -3 -37 -10 -68 -14 -68
-13 0 -11 221 2 257 16 47 75 68 113 40z m76 -26 c0 -22 -5 -52 -12 -68 -11
-27 -11 -27 -20 27 -10 61 -6 80 17 80 11 0 15 -11 15 -39z m1040 -21 c0 -33
-4 -60 -9 -60 -14 0 -21 27 -21 76 0 32 4 44 15 44 12 0 15 -13 15 -60z m129
43 c12 -10 26 -36 31 -58 12 -50 12 -203 0 -230 -6 -14 -9 -1 -9 43 -1 35 -5
61 -9 58 -5 -3 -14 26 -21 63 -7 38 -19 78 -26 88 -13 17 -14 16 -24 -10 -6
-16 -11 -36 -12 -45 0 -9 -5 -1 -11 18 -5 19 -15 38 -21 43 -17 10 29 47 58
47 13 0 33 -8 44 -17z m-251 -113 c46 -30 79 -56 73 -58 -11 -4 -121 67 -161
104 l-26 23 -59 -23 c-68 -27 -135 -43 -120 -29 6 5 30 15 55 22 25 7 65 23
90 36 l44 23 11 -22 c5 -11 47 -46 93 -76z m-685 74 c17 -9 61 -27 97 -40 54
-20 58 -23 25 -18 -22 3 -64 16 -94 30 l-54 24 -26 -23 c-36 -33 -164 -118
-170 -112 -6 6 -10 2 82 64 42 28 83 61 90 71 14 24 11 24 50 4z m1447 -8 c0
-21 -275 -216 -304 -216 -15 0 88 80 193 150 102 69 111 74 111 66z m-2195
-100 c90 -64 146 -108 141 -113 -11 -11 -191 113 -256 176 l-35 34 40 -24 c22
-13 72 -45 110 -73z m456 -66 l-8 -75 -2 91 c0 50 2 94 7 98 12 12 13 -33 3
-114z m374 88 c72 -21 80 -26 83 -50 l3 -27 -59 14 c-53 13 -161 51 -171 61
-2 2 2 11 9 20 15 17 15 17 135 -18z m511 18 c10 -8 17 -16 14 -18 -26 -22
-227 -84 -238 -74 -1 2 0 15 3 28 5 21 19 28 93 50 108 31 104 31 128 14z
m241 -98 c-2 -24 -4 -7 -4 37 0 44 2 63 4 43 2 -21 2 -57 0 -80z m-1067 53 c0
-17 -12 -41 -21 -41 -10 0 -12 33 -2 43 9 10 23 9 23 -2z m1035 -12 c8 -23 1
-34 -14 -24 -13 8 -15 45 -2 45 5 0 13 -9 16 -21z m-1983 -40 c-4 -28 2 -38
58 -90 35 -32 59 -59 54 -59 -5 0 -32 14 -61 30 -76 44 -98 83 -73 131 16 29
27 23 22 -12z m2933 -10 c10 -32 -26 -78 -83 -106 -29 -14 -55 -24 -57 -21 -3
2 16 20 41 39 53 40 78 80 68 112 -6 19 -5 20 9 9 9 -8 19 -22 22 -33z m-2532
-92 c26 -22 46 -42 43 -44 -12 -13 -146 88 -146 109 0 11 43 -17 103 -65z
m2166 30 c-20 -18 -56 -43 -80 -56 l-44 -24 30 32 c36 39 116 93 124 85 3 -3
-10 -20 -30 -37z m-2614 6 c4 -10 8 -31 10 -46 4 -26 2 -27 -12 -16 -14 12
-15 11 -9 -11 6 -21 5 -22 -4 -8 -9 14 -14 15 -24 6 -8 -7 -11 -20 -8 -28 5
-13 3 -13 -10 -2 -14 11 -16 10 -11 -10 4 -23 4 -23 -12 -3 -17 20 -17 20 -10
-5 7 -23 7 -24 -10 -10 -17 14 -17 13 -11 -10 7 -24 7 -25 -9 -5 -16 19 -16
19 -10 -10 6 -29 6 -29 -11 -10 -16 20 -16 20 -11 -3 4 -18 2 -22 -9 -18 -25
10 -16 -50 13 -84 34 -40 159 -145 293 -245 357 -265 655 -400 1026 -461 169
-29 506 -26 678 5 300 53 543 148 790 308 193 125 493 360 517 404 5 10 9 32
9 49 0 25 -3 31 -16 26 -12 -5 -15 -2 -10 10 6 15 4 15 -10 3 -15 -12 -16 -11
-9 11 7 22 6 23 -8 12 -14 -12 -17 -10 -23 12 -6 25 -7 25 -20 9 -12 -17 -13
-16 -7 5 3 13 2 22 -3 21 -21 -4 -35 2 -29 11 12 19 -6 32 -20 14 -12 -17 -13
-17 -18 2 -9 27 -2 73 12 87 9 9 34 -11 106 -84 l95 -96 0 -51 c0 -46 -4 -57
-37 -93 -57 -63 -280 -239 -433 -341 -795 -532 -1767 -510 -2560 58 -211 151
-375 296 -386 340 -10 39 2 92 28 122 36 42 156 152 167 152 5 0 12 -8 16 -17z
m2639 -41 c-28 -26 -66 -56 -84 -66 l-33 -19 28 38 c30 39 125 109 134 99 4
-3 -17 -27 -45 -52z m-2263 9 c20 -14 49 -42 65 -61 l29 -35 -38 23 c-48 28
-49 28 -37 -4 14 -35 13 -36 -11 -23 -15 8 -19 8 -15 0 4 -6 2 -11 -5 -11 -10
0 -10 -3 -1 -12 7 -7 12 -16 12 -22 0 -6 -5 -5 -12 2 -31 31 -44 -7 -15 -44
l21 -28 -43 25 c-82 46 -167 133 -91 94 38 -19 46 -19 29 2 -12 15 -12 16 5
10 17 -7 17 -6 5 10 -12 15 -12 16 5 10 17 -7 17 -6 5 10 -12 15 -12 16 5 9
20 -7 20 -7 0 15 -20 24 -22 24 34 2 15 -6 16 -5 2 12 -14 17 -14 18 10 5 24
-12 23 -11 -5 19 -24 25 -26 31 -10 25 11 -4 36 -19 56 -33z m2309 -23 c0 -9
3 -9 12 0 20 20 32 13 13 -8 -18 -19 -17 -20 1 -20 11 0 26 6 34 13 10 8 9 5
-1 -8 -9 -11 -20 -27 -24 -35 -8 -13 -7 -13 8 -1 22 18 22 3 0 -22 -18 -19
-18 -20 14 -3 79 40 56 0 -33 -59 -71 -47 -97 -55 -56 -16 32 31 43 49 20 35
-8 -5 -9 -2 -5 9 6 16 4 16 -25 1 l-32 -17 18 28 c10 15 13 24 7 21 -6 -4 -11
-2 -11 4 0 7 -7 7 -22 -1 l-23 -12 20 23 c11 13 14 20 8 16 -25 -14 -12 13 18
38 32 28 59 34 59 14z m-2468 -114 c35 -18 118 -92 118 -106 0 -15 -79 36
-122 80 -45 45 -45 51 4 26z m2602 4 c-16 -25 -94 -83 -164 -122 -8 -5 7 14
35 43 27 28 67 60 90 71 47 24 49 24 39 8z m-2591 -69 c20 -17 46 -44 58 -61
l22 -30 -42 23 c-23 13 -60 43 -82 65 -37 38 -39 41 -16 37 14 -3 41 -18 60
-34z m2107 -224 l0 -265 -37 -16 c-81 -35 -91 -30 -152 78 l-56 97 -6 -117
c-4 -64 -7 -120 -8 -124 -2 -13 -111 -42 -121 -32 -11 11 -220 450 -220 462 0
8 121 42 131 36 3 -2 25 -47 49 -101 24 -54 47 -102 52 -107 4 -6 8 19 8 56 0
36 3 92 6 126 l7 60 44 12 c24 7 45 11 47 9 2 -2 27 -46 56 -97 29 -51 55 -94
59 -96 3 -2 6 50 6 117 l0 121 55 22 c30 13 61 23 68 24 9 0 12 -59 12 -265z
m515 245 c-9 -15 -146 -110 -159 -110 -20 0 80 92 119 110 42 18 51 18 40 0z
m-2674 -43 c20 -12 49 -37 64 -54 26 -32 24 -42 -4 -24 -24 15 -42 2 -30 -21
9 -17 8 -19 -8 -14 -22 7 -28 -19 -10 -41 23 -30 -55 7 -95 45 -35 33 -36 44
-1 31 l28 -10 -25 26 -25 27 30 -7 c25 -6 28 -5 18 6 -17 17 -17 37 -1 21 7
-7 18 -12 25 -12 10 0 10 6 -3 25 -20 31 -10 32 37 2z m2684 -7 c-20 -22 -14
-26 16 -10 20 11 28 -3 9 -15 -6 -4 -8 -11 -4 -16 3 -6 12 -5 22 3 14 11 14 9
-1 -15 -18 -28 -18 -28 3 -17 12 6 24 10 26 7 7 -6 -77 -78 -117 -101 l-34
-19 40 44 c22 24 33 38 25 32 -14 -13 -39 -19 -27 -7 7 7 -30 44 -45 44 -6 0
-20 -7 -30 -17 -28 -25 -21 -2 10 32 42 46 83 75 105 75 19 0 20 -1 2 -20z
m-1874 -30 c61 -17 123 -37 139 -45 68 -35 108 -120 91 -196 -13 -57 -38 -90
-91 -116 -51 -27 -107 -29 -175 -8 -27 8 -50 13 -51 12 -1 -1 -12 -35 -23 -74
-12 -40 -23 -73 -25 -73 -6 0 -117 39 -125 45 -5 3 1 35 13 72 13 38 47 146
76 241 30 94 55 172 57 172 1 0 53 -14 114 -30z m-344 -17 c29 -9 53 -22 53
-30 0 -16 -109 -316 -118 -325 -4 -4 -26 1 -49 12 l-41 18 27 69 c15 37 37 93
49 125 21 56 21 56 1 70 -17 12 -18 16 -7 46 14 37 15 37 85 15z m-942 -43
c-9 -15 -104 -40 -149 -39 -35 1 -30 3 29 14 39 7 81 18 95 23 32 14 32 14 25
2z m373 -14 c44 -28 121 -106 105 -106 -13 0 -98 66 -132 104 -30 32 -22 33
27 2z m2861 -16 c-31 -38 -107 -96 -115 -87 -6 6 124 127 137 127 5 0 -4 -18
-22 -40z m485 4 l71 -14 -60 4 c-33 2 -76 11 -95 20 -19 9 -24 13 -11 10 14
-4 57 -13 95 -20z m-1980 10 c14 -5 16 -33 16 -206 l0 -200 128 3 127 3 3 -60
3 -61 -104 -6 c-57 -4 -148 -4 -201 0 l-96 6 0 264 0 263 54 0 c30 0 61 -3 70
-6z m1366 1 c0 -2 -10 -10 -22 -16 -21 -11 -22 -11 -9 4 13 16 31 23 31 12z
m419 -155 c-64 -48 -102 -95 -165 -201 -46 -79 -64 -97 -44 -45 5 15 10 37 10
49 0 18 -2 19 -10 7 -5 -8 -10 -12 -10 -8 0 12 23 62 42 90 20 29 108 103 93
78 -7 -12 -5 -12 11 1 25 21 107 69 118 69 4 0 -16 -18 -45 -40z m-3364 -29
c16 -2 94 -79 115 -114 24 -38 26 -59 4 -31 -16 20 -16 13 3 -33 4 -11 3 -14
-5 -9 -9 5 -9 0 -2 -20 20 -53 3 -33 -50 57 -35 59 -77 112 -120 152 l-65 61
55 -30 c30 -17 60 -32 65 -33z m550 24 c0 -13 -8 -21 -22 -23 -17 -3 -23 2
-23 16 0 10 3 22 7 26 13 13 38 1 38 -19z m2218 13 c7 -21 -4 -38 -23 -38 -23
0 -34 16 -26 35 7 18 43 20 49 3z m347 -48 c-22 -31 -49 -54 -35 -29 10 17 47
59 52 59 3 0 -5 -13 -17 -30z m-2930 -15 c14 -19 14 -19 -2 -6 -10 7 -18 18
-18 24 0 6 1 8 3 6 1 -2 9 -13 17 -24z m-20 -15 c12 -16 19 -30 16 -30 -2 0
-14 14 -26 30 -12 17 -19 30 -16 30 2 0 14 -13 26 -30z m0 -52 c0 -6 -10 2
-22 18 -38 51 -41 60 -9 26 17 -18 31 -37 31 -44z m2951 39 c-13 -12 -20 -15
-16 -7 14 26 28 41 33 35 3 -3 -5 -16 -17 -28z m27 -7 c-22 -30 -35 -41 -22
-17 9 16 36 47 41 47 2 0 -6 -13 -19 -30z m36 -7 c-40 -55 -46 -61 -38 -38 6
18 53 75 61 75 2 0 -8 -17 -23 -37z m-3034 -46 c0 -13 -34 25 -51 58 -6 11 4
5 20 -13 17 -18 31 -38 31 -45z"/>
<path d="M2545 4291 c-29 -12 -51 -41 -64 -83 -15 -45 -4 -70 42 -98 46 -28
81 -25 122 11 34 30 51 65 18 38 -15 -13 -15 -12 -5 8 19 34 14 60 -15 92 -31
33 -67 45 -98 32z m65 -41 c24 -24 24 -29 4 -58 -19 -28 -58 -28 -78 -1 -16
23 -12 47 12 67 22 17 39 15 62 -8z"/>
<path d="M1202 3608 c-19 -19 -14 -30 8 -18 11 6 25 8 30 5 6 -3 10 -2 10 3 0
6 -7 13 -16 16 -20 8 -18 8 -32 -6z"/>
<path d="M3902 3608 c-7 -7 -12 -16 -12 -22 0 -6 5 -5 12 2 7 7 20 12 31 12
10 0 15 5 12 10 -8 14 -28 13 -43 -2z"/>
<path d="M3785 3270 c3 -5 8 -10 11 -10 2 0 4 5 4 10 0 6 -5 10 -11 10 -5 0
-7 -4 -4 -10z"/>
<path d="M2520 2722 c0 -29 21 -52 48 -52 27 0 52 16 52 33 0 5 -7 1 -16 -8
-23 -22 -56 -15 -71 15 -7 14 -13 19 -13 12z"/>
<path d="M543 2533 c9 -2 23 -2 30 0 6 3 -1 5 -18 5 -16 0 -22 -2 -12 -5z"/>
<path d="M623 2523 c15 -2 37 -2 50 0 12 2 0 4 -28 4 -27 0 -38 -2 -22 -4z"/>
<path d="M745 2510 c28 -5 68 -8 90 -8 39 1 38 1 -10 8 -27 5 -68 8 -90 8 -39
-1 -38 -1 10 -8z"/>
<path d="M898 2493 c12 -2 32 -2 45 0 12 2 2 4 -23 4 -25 0 -35 -2 -22 -4z"/>
<path d="M1015 2480 c52 -9 141 -13 134 -6 -2 2 -44 6 -94 9 -66 4 -77 3 -40
-3z"/>
<path d="M1173 2463 c9 -2 25 -2 35 0 9 3 1 5 -18 5 -19 0 -27 -2 -17 -5z"/>
<path d="M1263 2453 c15 -2 37 -2 50 0 12 2 0 4 -28 4 -27 0 -38 -2 -22 -4z"/>
<path d="M1538 2423 c12 -2 30 -2 40 0 9 3 -1 5 -23 4 -22 0 -30 -2 -17 -4z"/>
<path d="M4553 2533 c9 -2 25 -2 35 0 9 3 1 5 -18 5 -19 0 -27 -2 -17 -5z"/>
<path d="M4453 2523 c15 -2 37 -2 50 0 12 2 0 4 -28 4 -27 0 -38 -2 -22 -4z"/>
<path d="M4300 2510 c-41 -6 -42 -7 -10 -8 19 0 58 3 85 8 47 7 48 7 10 7 -22
0 -60 -3 -85 -7z"/>
<path d="M4188 2493 c12 -2 30 -2 40 0 9 3 -1 5 -23 4 -22 0 -30 -2 -17 -4z"/>
<path d="M4098 2483 c12 -2 32 -2 45 0 12 2 2 4 -23 4 -25 0 -35 -2 -22 -4z"/>
<path d="M4008 2473 c12 -2 32 -2 45 0 12 2 2 4 -23 4 -25 0 -35 -2 -22 -4z"/>
<path d="M3918 2463 c12 -2 32 -2 45 0 12 2 2 4 -23 4 -25 0 -35 -2 -22 -4z"/>
<path d="M3485 2420 c-27 -5 -71 -9 -97 -9 -27 -1 -48 -5 -48 -10 0 -9 61 -5
190 14 47 7 67 12 45 12 -22 0 -62 -3 -90 -7z"/>
<path d="M3133 2383 c15 -2 39 -2 55 0 15 2 2 4 -28 4 -30 0 -43 -2 -27 -4z"/>
<path d="M3000 1974 c0 -5 7 -18 15 -28 8 -11 15 -16 15 -10 0 5 -7 18 -15 28
-8 11 -15 16 -15 10z"/>
<path d="M2045 1600 c-21 -41 -20 -45 23 -58 196 -59 501 -86 689 -62 142 19
345 60 361 75 8 7 -33 75 -42 71 -279 -124 -444 -155 -636 -122 -103 18 -285
76 -338 107 -18 10 -35 19 -37 19 -3 0 -11 -13 -20 -30z"/>
<path d="M2027 1234 c-9 -31 -14 -61 -11 -65 2 -4 25 -11 50 -15 56 -8 84 12
84 62 0 37 -24 59 -76 70 -30 6 -31 5 -47 -52z"/>
<path d="M2945 4370 c-5 -8 206 -62 214 -55 8 9 -7 16 -63 31 -86 23 -146 32
-151 24z"/>
<path d="M2135 4363 c-61 -13 -155 -45 -155 -52 0 -5 42 2 93 15 50 13 100 24
109 24 9 0 20 5 23 10 6 10 -31 12 -70 3z"/>
<path d="M3185 4311 c-3 -5 9 -14 26 -20 22 -8 29 -7 27 1 -5 15 -46 29 -53
19z"/>
<path d="M1923 4303 c-14 -5 -18 -23 -5 -23 5 0 17 7 28 15 14 11 15 14 4 14
-8 0 -21 -3 -27 -6z"/>
<path d="M1290 4182 c0 -15 88 -107 95 -100 5 4 -12 30 -36 57 -43 47 -59 59
-59 43z"/>
<path d="M3800 4130 c-29 -33 -49 -64 -45 -68 7 -7 58 47 92 96 33 48 3 30
-47 -28z"/>
<path d="M1235 4050 c21 -22 44 -40 49 -40 6 0 -8 18 -29 40 -21 22 -44 40
-49 40 -6 0 8 -18 29 -40z"/>
<path d="M3904 4056 c-21 -19 -35 -38 -31 -43 4 -4 24 10 44 30 48 47 37 59
-13 13z"/>
<path d="M1410 4060 c0 -5 5 -10 10 -10 6 0 10 5 10 10 0 6 -4 10 -10 10 -5 0
-10 -4 -10 -10z"/>
<path d="M1112 4012 c7 -18 89 -84 96 -78 4 4 -13 25 -38 47 -43 36 -66 49
-58 31z"/>
<path d="M4005 3993 c-73 -63 -106 -95 -101 -100 6 -6 139 103 144 118 7 16
-13 9 -43 -18z"/>
<path d="M1045 3895 c61 -50 164 -117 174 -114 13 5 -175 139 -192 139 -7 -1
2 -12 18 -25z"/>
<path d="M4028 3857 c-48 -34 -88 -66 -88 -70 0 -14 14 -6 105 58 76 54 100
76 78 74 -5 0 -47 -28 -95 -62z"/>
<path d="M960 3821 c0 -12 170 -115 177 -107 8 8 12 5 -84 65 -87 53 -93 56
-93 42z"/>
<path d="M4105 3778 c-92 -58 -90 -56 -82 -64 6 -6 187 103 187 112 0 13 -34
-3 -105 -48z"/>
<path d="M900 3722 c0 -12 170 -106 177 -98 8 8 11 6 -84 60 -86 48 -93 51
-93 38z"/>
<path d="M4165 3685 c-70 -39 -102 -65 -80 -65 10 0 185 100 185 106 0 11 -32
-1 -105 -41z"/>
<path d="M600 1990 c0 -6 106 -10 299 -10 189 0 302 4 306 10 4 7 -98 10 -299
10 -197 0 -306 -4 -306 -10z"/>
<path d="M3930 1990 c0 -6 108 -10 305 -10 197 0 305 4 305 10 0 6 -108 10
-305 10 -197 0 -305 -4 -305 -10z"/>
<path d="M680 1890 c0 -6 77 -10 210 -10 133 0 210 4 210 10 0 6 -77 10 -210
10 -133 0 -210 -4 -210 -10z"/>
<path d="M4060 1890 c0 -6 73 -10 200 -10 127 0 200 4 200 10 0 6 -73 10 -200
10 -127 0 -200 -4 -200 -10z"/>
<path d="M714 1793 c10 -11 297 -13 315 -3 10 6 -44 10 -153 10 -93 0 -166 -3
-162 -7z"/>
<path d="M4120 1790 c20 -13 297 -13 305 0 4 7 -51 10 -157 10 -109 0 -158 -4
-148 -10z"/>
<path d="M730 1700 c0 -6 40 -10 100 -10 60 0 100 4 100 10 0 6 -40 10 -100
10 -60 0 -100 -4 -100 -10z"/>
<path d="M4210 1700 c0 -6 42 -10 105 -10 63 0 105 4 105 10 0 6 -42 10 -105
10 -63 0 -105 -4 -105 -10z"/>
</g>
</svg>
