<?xml version="1.0" standalone="no"?>
<!DOCTYPE svg PUBLIC "-//W3C//DTD SVG 20010904//EN"
 "http://www.w3.org/TR/2001/REC-SVG-20010904/DTD/svg10.dtd">
<svg version="1.0" xmlns="http://www.w3.org/2000/svg"
 width="530.000000pt" height="530.000000pt" viewBox="0 0 530.000000 530.000000"
 preserveAspectRatio="xMidYMid meet">

<g transform="translate(0.000000,530.000000) scale(0.100000,-0.100000)"
fill="#000000" stroke="none">
<path d="M2415 5269 c-222 -21 -476 -79 -681 -154 -128 -47 -374 -168 -489
-240 -232 -145 -492 -378 -657 -585 -326 -409 -521 -899 -568 -1420 -50 -566
99 -1163 412 -1641 112 -173 210 -293 362 -444 321 -319 718 -548 1161 -670
523 -143 1098 -118 1611 70 128 47 374 168 489 240 232 145 492 378 657 585
273 343 457 747 533 1170 59 329 59 611 0 940 -76 423 -260 827 -533 1170
-165 207 -425 440 -657 585 -115 72 -361 193 -489 240 -360 132 -784 189
-1151 154z m114 -201 c1 7 6 10 11 7 6 -3 10 0 10 7 0 9 3 9 10 -2 5 -8 10
-43 10 -78 0 -40 4 -61 10 -57 6 3 10 33 10 66 0 32 5 60 10 60 47 6 45 12 50
-141 l6 -145 2 146 c2 132 4 146 20 144 34 -2 42 -16 43 -78 2 -61 4 -57 15
31 3 23 9 40 15 37 5 -4 9 2 9 12 0 15 3 14 16 -6 14 -19 16 -45 12 -152 -5
-156 7 -149 16 10 7 118 20 149 53 137 13 -5 15 -17 10 -66 -3 -33 -1 -60 4
-60 5 0 9 12 9 28 0 15 5 45 12 67 9 30 13 35 16 20 l5 -20 8 20 c7 19 8 19 8
-3 1 -14 5 -21 12 -16 8 4 9 -3 5 -22 -11 -59 -28 -225 -23 -230 2 -3 7 17 11
43 16 123 40 243 48 243 4 0 8 -8 9 -17 0 -11 3 -13 6 -5 2 6 9 9 14 6 6 -3 8
-36 5 -77 l-6 -72 18 67 c19 71 32 94 33 62 0 -18 1 -18 9 1 l9 20 1 -20 1
-20 9 20 c12 27 4 -43 -21 -174 -11 -57 -18 -105 -15 -108 2 -3 9 22 16 54 6
32 21 98 33 147 17 75 23 86 33 71 11 -15 13 -15 17 2 3 14 6 11 12 -11 4 -15
4 -31 -1 -35 -5 -3 -10 -28 -12 -55 -3 -62 4 -56 28 25 10 35 19 57 19 49 1
-13 2 -13 11 0 9 13 10 13 11 0 0 -10 3 -8 9 5 19 45 9 -43 -19 -157 -15 -65
-25 -118 -21 -118 4 0 12 24 19 53 6 28 24 91 39 140 25 77 29 85 38 65 6 -13
9 -17 7 -10 -2 7 2 10 8 6 11 -6 7 -60 -7 -113 -5 -16 -3 -22 3 -18 6 4 15 26
21 49 6 24 18 52 27 63 16 20 16 19 11 -5 -3 -14 -3 -19 0 -12 8 17 24 5 24
-20 0 -11 -14 -65 -31 -120 -43 -141 -32 -141 16 -1 21 65 43 120 47 121 4 2
6 8 2 13 -3 5 0 9 5 9 6 0 11 -8 11 -17 0 -15 2 -16 10 -3 24 39 20 -35 -6
-104 -3 -9 -1 -16 5 -16 6 0 11 8 11 18 0 9 12 40 26 67 14 28 24 40 21 28 -3
-13 -1 -23 4 -23 5 0 9 6 10 13 0 6 4 3 9 -8 12 -29 12 -37 -2 -29 -8 5 -9 2
-5 -10 4 -10 4 -23 0 -29 -4 -7 -19 -46 -34 -87 -15 -41 -30 -84 -34 -95 -5
-13 -5 -17 2 -10 5 6 27 53 48 105 45 113 75 171 75 148 0 -9 6 -18 13 -21 12
-4 8 -26 -20 -109 -3 -10 -1 -18 3 -18 5 0 22 28 38 61 27 56 31 60 43 43 20
-28 16 -46 -32 -150 -25 -54 -44 -101 -43 -106 2 -6 28 40 57 101 30 62 58
114 62 117 4 2 12 -4 18 -13 9 -16 10 -15 11 7 1 22 2 23 11 8 7 -13 5 -26 -6
-48 -46 -88 -37 -112 10 -26 19 35 32 50 37 43 4 -7 5 -21 2 -32 -4 -16 -3
-17 5 -5 6 8 8 24 5 35 -4 16 -3 17 5 5 10 -13 12 -13 21 0 26 40 4 -10 -56
-125 -69 -134 -83 -184 -19 -68 59 105 98 164 104 155 3 -5 14 -8 23 -7 14 3
15 -1 5 -23 -6 -15 -19 -40 -29 -57 -19 -32 -22 -45 -10 -45 4 0 20 23 37 50
l29 51 18 -23 c19 -26 24 -43 8 -33 -6 4 -10 3 -9 -2 4 -12 -22 -62 -68 -133
-23 -35 -40 -66 -38 -69 7 -6 28 22 64 84 17 28 39 60 51 72 11 13 20 25 20
28 0 13 15 5 22 -12 5 -12 6 -8 4 13 -3 25 -1 31 13 29 9 -2 21 -4 26 -4 7 -1
7 -4 0 -9 -17 -12 -63 -112 -55 -117 5 -3 18 11 30 30 12 19 26 35 31 35 6 0
7 5 3 12 -4 7 -3 8 4 4 7 -4 12 -2 12 4 0 6 5 8 11 4 8 -4 8 -9 1 -13 -7 -4
-8 -12 -2 -21 8 -13 10 -13 10 -1 0 8 2 12 5 9 3 -3 -28 -55 -69 -117 -79
-116 -91 -153 -19 -53 23 32 59 76 80 99 21 23 37 46 35 51 -2 6 1 13 6 16 5
3 8 -8 7 -24 -1 -17 2 -30 7 -30 4 0 8 5 8 10 0 6 5 10 11 10 6 0 -6 -23 -26
-51 -20 -28 -34 -54 -30 -57 3 -3 12 4 21 16 8 12 20 19 26 16 6 -4 8 -2 4 4
-3 6 -1 14 6 19 19 11 39 13 32 2 -3 -5 -11 -6 -17 -3 -9 5 -9 3 0 -6 10 -11
15 -11 28 0 29 24 15 -4 -32 -64 -26 -34 -50 -63 -53 -66 -3 -3 -19 -22 -34
-42 -46 -61 -16 -43 38 22 28 33 53 60 58 60 4 0 7 6 6 13 -2 6 3 11 10 9 6
-1 12 3 12 9 0 5 5 7 12 3 6 -4 8 -3 5 3 -4 6 6 21 21 34 14 13 21 16 14 7
-11 -14 -10 -18 4 -26 16 -9 14 -14 -19 -53 -54 -62 -45 -71 14 -14 48 48 51
49 64 31 13 -18 10 -24 -32 -75 -26 -31 -65 -75 -87 -98 -22 -24 -37 -45 -34
-48 3 -4 25 16 48 44 24 28 48 48 54 44 6 -3 8 -3 5 1 -4 4 9 23 29 42 33 32
36 33 52 17 18 -19 16 -38 -2 -27 -6 4 -8 2 -4 -4 3 -6 0 -14 -7 -19 -16 -9
-30 -43 -19 -43 5 0 21 13 37 30 25 26 29 28 40 13 7 -9 17 -13 23 -9 32 19 3
-15 -79 -96 -89 -88 -118 -127 -48 -65 157 139 213 183 164 127 l-20 -23 23 7
c30 10 28 3 -14 -44 -45 -49 -39 -63 8 -21 26 23 38 27 46 19 9 -9 8 -15 -1
-27 -10 -12 -9 -14 7 -7 19 7 19 6 2 -13 -10 -11 -24 -18 -30 -14 -6 3 -8 3
-4 -1 5 -6 -53 -60 -131 -123 -2 -1 -2 -5 1 -9 3 -3 32 17 64 43 130 106 154
124 148 109 -3 -9 -10 -16 -14 -16 -4 0 -11 -7 -14 -16 -4 -10 -2 -13 7 -7 6
4 21 9 32 11 14 2 7 -9 -24 -37 -55 -50 -47 -66 12 -24 35 26 44 28 55 17 7
-8 9 -14 5 -14 -4 0 -2 -4 5 -9 10 -6 5 -11 -17 -21 -17 -7 -31 -16 -31 -20 0
-5 -31 -31 -70 -60 -38 -29 -70 -54 -70 -57 0 -5 4 -3 100 60 41 27 84 56 94
65 13 11 17 12 11 3 -6 -11 -4 -13 9 -8 14 6 15 4 5 -14 -6 -12 -7 -19 -1 -15
5 3 24 -24 41 -59 18 -36 36 -65 42 -65 5 0 8 -3 7 -7 -1 -5 4 -21 10 -36 7
-16 12 -35 12 -43 0 -8 6 -14 13 -14 16 0 49 -34 45 -46 -1 -5 8 -31 20 -59
13 -27 33 -70 44 -95 51 -111 127 -375 143 -495 4 -27 9 -57 12 -65 10 -25 11
-37 18 -153 3 -61 9 -116 13 -122 10 -15 9 -28 -1 -42 -7 -9 -4 -13 9 -14 18
0 18 -1 -1 -9 -11 -5 -14 -9 -7 -9 7 -1 10 -5 7 -11 -4 -6 -57 -10 -127 -10
-67 0 -119 -2 -116 -5 5 -6 91 -12 183 -14 57 -1 60 -2 60 -26 0 -23 -4 -25
-42 -25 -23 0 -45 -4 -48 -10 -4 -6 12 -10 42 -10 35 0 44 -3 33 -10 -12 -8
-12 -10 5 -10 19 -1 19 -1 2 -14 -18 -14 -18 -14 0 -19 10 -3 -40 -3 -112 0
-146 6 -167 -3 -30 -13 115 -9 140 -16 140 -40 0 -15 -9 -20 -50 -24 l-50 -6
38 -8 c20 -5 37 -12 37 -17 0 -5 8 -6 18 -3 9 2 7 -1 -6 -8 l-23 -12 23 -13
c22 -13 21 -14 -12 -9 -19 3 -64 8 -100 10 -36 3 -77 8 -92 12 -16 3 -28 2
-28 -3 0 -5 48 -15 107 -22 60 -8 113 -16 120 -18 21 -8 5 -21 -20 -17 -20 4
-21 4 -2 -5 11 -5 16 -10 10 -11 -5 -2 4 -6 20 -11 22 -6 14 -7 -32 -5 -71 5
-85 -9 -22 -19 29 -5 38 -10 28 -16 -10 -6 -10 -9 -2 -9 7 0 10 -7 7 -15 -4
-8 -1 -15 7 -15 7 0 10 -2 8 -4 -2 -3 -54 4 -114 15 -184 32 -187 22 -5 -16
79 -17 125 -35 90 -35 -13 0 -13 -2 0 -10 11 -7 11 -10 2 -10 -7 0 -11 -4 -7
-10 3 -5 -15 -7 -47 -4 l-53 5 55 -20 c30 -10 50 -19 43 -20 -6 -1 -9 -10 -6
-21 7 -26 -5 -26 -129 5 -143 37 -143 26 0 -14 101 -27 120 -35 115 -49 -4
-10 -11 -20 -17 -24 -7 -5 -3 -8 8 -8 11 0 17 -3 14 -6 -3 -3 -29 1 -57 10
-29 8 -51 11 -51 5 0 -5 13 -12 30 -15 17 -4 27 -11 23 -17 -4 -6 0 -8 10 -4
10 3 17 2 17 -3 0 -6 -6 -10 -12 -10 -7 -1 -2 -7 12 -15 14 -8 22 -14 18 -15
-3 0 -15 -3 -25 -6 -15 -5 -16 -4 -3 6 12 9 10 11 -11 6 -15 -3 -55 4 -95 18
-97 32 -124 38 -124 26 0 -5 8 -10 18 -10 9 -1 60 -16 112 -33 77 -27 95 -37
95 -52 0 -16 -7 -20 -35 -19 -19 0 -43 4 -52 8 -11 5 -18 4 -18 -2 0 -6 9 -14
21 -17 45 -15 72 -55 36 -55 -7 0 -6 4 3 10 9 6 10 10 3 10 -20 0 -24 -18 -6
-29 32 -19 7 -11 -101 29 -58 22 -112 40 -119 40 -18 -1 38 -29 97 -50 28 -9
68 -26 89 -38 36 -19 37 -21 16 -27 -17 -6 -19 -9 -8 -17 14 -10 3 -8 -68 8
l-28 7 27 -22 c14 -11 32 -21 40 -21 7 0 20 -5 28 -11 12 -8 9 -9 -10 -4 -23
6 -24 5 -7 -8 16 -13 16 -15 1 -21 -25 -10 -41 -6 -19 5 17 8 15 8 -7 4 -15
-3 -36 -1 -45 4 -49 27 -164 73 -169 69 -2 -3 45 -29 105 -59 96 -46 125 -69
90 -69 -6 0 -7 4 -4 10 4 6 -1 7 -11 3 -13 -5 -14 -8 -5 -11 11 -4 11 -6 0
-13 -7 -4 -21 -3 -32 2 -35 19 -42 2 -7 -19 19 -12 31 -22 25 -22 -5 -1 1 -8
15 -16 16 -10 18 -13 6 -9 -11 3 -23 0 -27 -6 -5 -8 -37 4 -108 40 -56 28
-101 48 -101 44 0 -4 38 -29 83 -55 45 -26 91 -54 102 -63 20 -15 19 -15 -5
-12 -14 2 -19 2 -12 0 6 -3 12 -9 12 -15 0 -5 7 -7 16 -4 8 3 12 2 9 -4 -8
-13 -32 -8 -72 13 -48 25 -51 2 -4 -29 40 -26 48 -49 13 -37 -14 5 -14 3 3
-17 19 -22 17 -21 -30 5 -27 16 -78 47 -113 68 -101 63 -83 35 22 -35 53 -34
91 -65 85 -67 -7 -2 1 -10 17 -17 l29 -13 -30 4 c-16 3 -24 2 -17 -1 6 -3 12
-10 12 -15 0 -11 -28 -1 -63 23 -15 11 -33 18 -40 15 -6 -2 7 -17 30 -33 23
-16 42 -33 43 -39 0 -5 -5 -4 -12 3 -23 23 -31 12 -8 -13 l23 -24 -31 11 c-17
7 -28 16 -25 22 3 5 1 6 -5 2 -12 -7 -39 7 -120 68 -29 21 -55 36 -58 34 -3
-3 19 -23 48 -44 76 -55 88 -67 82 -76 -3 -4 1 -5 8 -3 8 3 27 -8 42 -24 27
-28 27 -30 6 -24 -17 5 -21 3 -15 -6 11 -19 -35 -3 -61 20 -47 44 -46 13 2
-35 28 -28 34 -39 25 -50 -6 -7 -7 -17 -3 -21 4 -5 1 -5 -6 -1 -10 6 -10 11
-1 22 14 17 -2 19 -20 1 -11 -10 -12 -9 -6 2 6 11 4 13 -8 8 -11 -4 -23 3 -37
20 -11 14 -20 22 -20 19 0 -4 -25 14 -55 40 -31 26 -58 44 -61 42 -3 -3 21
-28 53 -54 32 -27 73 -63 91 -80 30 -29 31 -33 17 -48 -15 -15 -19 -14 -49 9
-53 40 -62 29 -16 -21 23 -25 39 -49 35 -52 -4 -4 -13 2 -21 12 -9 13 -14 15
-14 6 0 -7 8 -23 18 -34 24 -29 -72 48 -136 109 -92 87 -81 62 16 -37 50 -51
92 -97 92 -102 0 -5 -9 -1 -19 9 -19 16 -20 16 -18 -4 1 -12 5 -21 9 -21 4 0
8 -5 8 -11 0 -8 -5 -8 -15 1 -8 7 -12 17 -8 23 4 6 0 8 -9 4 -10 -3 -24 4 -38
20 -27 31 -37 24 -15 -11 15 -22 15 -29 4 -44 -11 -13 -9 -13 9 2 20 17 22 18
16 3 -3 -10 -3 -17 2 -15 5 2 10 -1 11 -7 3 -14 -60 -7 -69 8 -12 21 -132 136
-136 132 -3 -2 28 -40 67 -83 39 -43 71 -82 71 -85 0 -3 -9 -11 -19 -17 -14
-7 -23 -6 -33 3 -50 47 -66 41 -23 -9 27 -31 31 -44 14 -44 -5 0 -7 -5 -3 -11
4 -8 9 -7 15 2 4 7 11 10 15 6 4 -4 -1 -14 -12 -21 -21 -16 -30 -8 -143 122
-30 34 -56 60 -58 58 -5 -5 82 -121 126 -168 13 -16 21 -28 17 -28 -5 0 -3 -6
3 -13 6 -8 8 -16 5 -20 -10 -10 -38 5 -76 41 -45 43 -51 24 -8 -25 31 -35 38
-53 19 -53 -5 0 -7 6 -3 13 6 9 5 9 -8 0 -8 -7 -19 -9 -23 -5 -5 4 -5 1 -1 -6
4 -7 12 -9 18 -6 7 5 9 2 5 -8 -3 -9 -2 -20 1 -24 9 -12 -24 25 -46 51 -9 11
-43 55 -75 98 -32 42 -61 77 -63 77 -6 0 -1 -9 49 -85 22 -33 48 -69 58 -80
13 -15 16 -28 10 -55 -5 -27 -8 -31 -14 -17 -4 10 -11 15 -17 12 -14 -9 -12 8
3 25 10 12 9 12 -4 2 -14 -10 -19 -8 -34 14 -31 48 -27 15 6 -43 22 -38 27
-53 15 -43 -18 14 -18 13 -12 -10 5 -17 4 -20 -2 -12 -5 8 -13 12 -17 10 -5
-1 -37 40 -72 92 -99 147 -115 147 -21 -1 26 -42 48 -81 48 -86 0 -6 7 -16 15
-23 17 -14 20 -30 5 -30 -5 0 -9 3 -9 8 3 18 -2 22 -15 10 -8 -7 -12 -16 -9
-20 2 -5 2 -8 0 -8 -3 0 -17 20 -31 45 -15 25 -31 45 -36 45 -15 0 -12 -11 15
-55 14 -22 25 -47 24 -55 0 -10 -3 -8 -9 5 -6 13 -9 15 -9 5 -1 -13 -2 -13
-11 0 -8 12 -10 12 -10 -5 0 -18 -2 -18 -20 5 -10 14 -41 65 -67 113 -26 48
-49 84 -51 79 -1 -5 18 -48 43 -96 54 -103 70 -140 55 -131 -7 4 -9 -2 -7 -17
2 -12 2 -18 0 -11 -2 7 -12 15 -22 18 -9 3 -25 21 -34 40 -24 50 -40 44 -20
-7 9 -24 20 -48 25 -55 7 -8 3 -11 -11 -10 -14 1 -20 6 -16 15 3 7 0 10 -6 6
-6 -3 -8 -16 -5 -28 5 -20 4 -20 -9 -2 -8 10 -12 23 -9 27 3 5 1 9 -3 9 -5 0
-29 41 -53 91 -59 120 -63 100 -5 -25 29 -61 44 -105 40 -117 -4 -11 -10 -17
-15 -14 -5 3 -7 13 -4 23 5 16 5 16 -9 0 -13 -16 -15 -15 -32 22 -10 22 -22
40 -27 40 -11 0 -11 0 7 -50 19 -55 19 -66 -1 -49 -15 12 -16 11 -9 -11 l7
-25 -20 26 c-11 14 -37 66 -57 115 -20 49 -42 94 -47 99 -8 7 -8 4 -3 -10 35
-87 71 -202 67 -214 -3 -8 0 -11 7 -7 13 8 14 4 5 -18 -6 -15 -8 -15 -20 1
-13 17 -13 17 -14 -2 0 -14 -7 -8 -20 20 -11 22 -19 45 -20 52 0 6 -4 15 -10
18 -6 4 -9 -10 -7 -34 1 -21 6 -36 11 -33 5 3 6 -3 3 -13 -4 -9 -3 -23 3 -30
8 -9 8 -15 0 -20 -6 -4 -10 -3 -9 2 3 19 -2 27 -10 14 -15 -24 -26 -5 -66 113
-21 64 -42 116 -46 116 -4 0 6 -39 21 -88 30 -95 47 -176 31 -153 -7 11 -10 9
-16 -9 l-7 -22 -13 25 c-7 14 -19 42 -26 64 -15 47 -24 28 -10 -22 11 -41 5
-69 -15 -61 -9 3 -11 -1 -7 -12 4 -13 2 -12 -9 3 -13 17 -47 130 -65 212 -3
13 -9 23 -13 23 -4 0 6 -51 21 -112 29 -114 30 -160 4 -138 -10 8 -14 7 -18
-2 -2 -7 -12 13 -21 44 -10 32 -19 58 -21 58 -2 0 -2 -30 1 -68 2 -43 0 -62
-5 -53 -7 11 -13 12 -23 3 -12 -9 -18 8 -37 106 -13 64 -28 124 -33 132 -7 11
-8 9 -4 -8 20 -95 39 -233 32 -239 -4 -4 -14 1 -22 12 -15 19 -15 18 -9 -10
l6 -30 -15 30 c-8 17 -19 46 -25 65 -10 32 -10 31 -7 -22 3 -32 0 -60 -5 -63
-5 -4 -9 0 -10 7 0 7 -4 4 -9 -7 l-9 -20 0 20 c-1 12 -4 16 -9 9 -4 -6 -24
-13 -44 -16 l-37 -4 -7 53 c-9 74 -25 66 -19 -10 3 -34 2 -56 -1 -49 -5 10 -9
10 -20 1 -11 -9 -14 -7 -15 12 l-1 24 -7 -25 c-5 -16 -11 20 -16 103 -4 70
-11 129 -15 132 -4 2 -5 -52 -2 -122 3 -87 2 -124 -6 -119 -6 3 -13 0 -15 -6
-3 -7 -6 -4 -7 7 l-1 20 -8 -20 c-6 -15 -10 -5 -17 40 l-8 60 -6 -55 c-5 -51
-7 -55 -32 -58 l-28 -3 -2 133 -2 133 -6 -115 c-7 -127 -13 -150 -41 -150 -16
0 -19 8 -19 55 0 30 -4 55 -10 55 -5 0 -10 -22 -10 -50 0 -27 -4 -50 -10 -50
-5 0 -10 -8 -11 -17 -1 -12 -4 -10 -9 7 -4 14 -8 19 -9 13 -1 -7 -6 -13 -12
-13 -7 0 -9 42 -5 132 6 154 0 151 -12 -5 -5 -59 -12 -110 -15 -113 -3 -3 -15
-3 -26 1 -18 5 -21 15 -22 58 0 38 -3 47 -9 32 -5 -11 -9 -35 -9 -52 -1 -31
-20 -49 -22 -20 0 6 -3 4 -7 -5 -4 -11 -12 -14 -20 -9 -12 7 -7 98 14 231 3
24 2 30 -4 20 -5 -8 -15 -63 -23 -122 -7 -60 -16 -108 -21 -108 -4 0 -8 -8 -9
-17 0 -10 -3 -13 -5 -6 -3 7 -12 9 -21 6 -14 -6 -15 2 -10 55 6 72 -7 84 -18
16 -10 -71 -15 -81 -32 -58 -9 12 -13 14 -13 4 0 -9 -3 -11 -10 -4 -7 7 -3 48
10 124 12 62 19 120 17 129 -2 9 -9 -16 -16 -54 -15 -89 -49 -216 -50 -191 -1
15 -4 16 -15 7 -21 -17 -29 16 -17 67 15 68 -2 58 -25 -15 -15 -46 -22 -59
-23 -41 -1 29 -16 45 -24 26 -14 -35 -4 31 19 127 30 127 26 151 -5 33 -13
-46 -27 -92 -31 -103 -8 -18 -9 -18 -9 -2 -1 10 -5 16 -10 13 -5 -3 -12 5 -15
19 -9 36 -21 31 -36 -15 -7 -21 -17 -37 -21 -34 -5 3 -9 -1 -10 -8 0 -10 -2
-10 -6 0 -2 6 -9 12 -14 12 -6 0 -7 -4 -4 -10 3 -5 1 -10 -5 -10 -12 0 -8 23
26 130 29 95 38 130 30 130 -3 0 -20 -45 -37 -101 -18 -55 -39 -107 -46 -115
-8 -8 -11 -19 -7 -25 4 -8 3 -9 -4 -5 -7 4 -12 15 -12 24 0 13 -2 14 -9 3 -17
-27 -21 8 -5 49 23 56 11 62 -17 8 -12 -23 -25 -45 -29 -48 -4 -3 -10 -12 -13
-20 -5 -11 -6 -9 -6 5 2 35 -1 40 -12 25 -9 -12 -10 -11 -4 5 3 11 13 46 22
77 9 33 20 55 26 51 6 -3 7 -1 4 4 -4 6 0 28 9 48 8 20 14 41 12 47 -2 5 -23
-37 -47 -94 -47 -113 -71 -154 -71 -125 0 9 -3 16 -7 16 -19 -3 -25 2 -15 14
6 6 14 30 18 52 6 36 6 39 -9 26 -9 -7 -22 -31 -29 -52 -12 -41 -29 -55 -21
-17 l5 23 -21 -24 c-12 -13 -21 -19 -21 -13 0 15 48 141 77 200 44 90 18 68
-30 -25 -73 -145 -72 -144 -86 -130 -9 9 -14 9 -22 -3 -7 -11 -8 -6 -3 15 4
17 11 32 15 35 11 8 22 60 12 60 -4 0 -23 -24 -41 -53 -28 -44 -32 -47 -27
-22 l6 30 -21 -25 c-11 -14 -20 -22 -20 -17 0 8 0 8 69 145 28 56 48 102 44
102 -5 0 -17 -17 -28 -37 -36 -70 -105 -173 -115 -173 -5 0 -7 7 -4 15 4 8 1
15 -5 15 -6 0 -11 -8 -12 -17 0 -11 -3 -13 -6 -5 -2 6 7 32 20 57 17 31 22 47
14 52 -6 3 -13 1 -15 -5 -2 -6 -13 -23 -24 -37 -15 -19 -24 -23 -31 -16 -15
15 -30 14 -21 -1 4 -6 3 -8 -4 -4 -6 4 14 46 54 112 36 59 62 109 59 112 -6 7
-3 12 -64 -86 -48 -75 -71 -98 -71 -72 0 6 -5 10 -12 10 -6 0 -3 -9 7 -20 16
-18 16 -20 2 -20 -10 0 -17 6 -17 13 0 8 -4 7 -10 -3 -20 -31 -11 14 10 48 36
59 20 73 -20 17 -14 -20 -31 -32 -39 -30 -7 3 -21 0 -29 -7 -10 -8 -7 2 7 27
40 67 115 180 126 187 5 4 6 11 1 15 -5 4 -11 2 -13 -4 -3 -7 -20 -29 -39 -50
-18 -21 -34 -41 -34 -44 0 -4 -15 -24 -33 -44 -23 -26 -36 -34 -41 -26 -6 9
-11 9 -23 -1 -14 -11 -14 -9 0 19 9 17 24 39 33 48 11 10 13 20 7 26 -6 6 -24
-7 -51 -36 -22 -25 -44 -40 -47 -35 -3 6 -1 10 5 10 6 0 8 10 5 23 -6 22 29
77 97 152 16 16 28 33 28 38 0 10 -18 9 -22 -2 -3 -8 -78 -95 -132 -154 -14
-15 -26 -24 -26 -20 0 5 5 14 12 21 17 17 2 27 -17 12 -28 -23 -25 -5 5 30 45
52 37 71 -10 25 -29 -28 -40 -34 -40 -22 0 20 -16 23 -23 5 -4 -10 -6 -10 -6
-1 -1 10 69 99 136 173 12 13 20 26 18 29 -3 2 -43 -34 -91 -80 -47 -46 -88
-86 -91 -89 -3 -3 -3 9 1 25 6 28 5 29 -9 11 -11 -14 -15 -16 -15 -5 0 8 14
27 30 42 33 32 41 54 13 38 -10 -5 -30 -21 -45 -35 -31 -30 -38 -32 -38 -11 0
8 -6 15 -12 15 -7 0 27 39 75 88 48 48 87 91 87 96 0 4 -43 -29 -96 -75 -75
-64 -98 -79 -105 -68 -13 21 -12 24 21 59 17 18 30 34 30 36 0 11 -25 2 -53
-20 -18 -12 -39 -27 -47 -31 -13 -8 -13 -6 -2 7 9 11 10 18 2 23 -5 3 -10 1
-10 -4 0 -6 -5 -11 -12 -11 -7 0 10 22 37 50 26 27 53 46 58 43 6 -3 7 -2 4 4
-4 6 14 24 38 42 47 33 63 51 46 51 -5 0 -41 -26 -80 -58 -39 -31 -85 -66
-103 -76 -33 -19 -33 -19 -15 1 19 22 24 44 5 25 -7 -7 -19 -12 -27 -12 -14 0
40 55 63 63 6 2 8 8 3 12 -8 9 -50 -9 -81 -35 -17 -14 -18 -14 -12 8 8 24 -3
29 -23 10 -11 -11 -11 -9 0 9 7 12 17 19 21 17 4 -3 8 0 8 6 0 6 5 8 12 4 6
-4 8 -3 5 3 -4 6 29 37 73 69 43 32 77 60 75 62 -2 2 -45 -25 -96 -59 -58 -40
-103 -64 -120 -64 -15 0 -25 4 -22 8 3 5 17 6 32 2 l26 -6 -23 16 c-18 13 -21
20 -11 31 6 8 17 14 25 14 7 0 16 5 19 11 13 20 -3 20 -37 -1 -37 -21 -62 -19
-72 7 -4 10 4 18 24 26 16 6 30 14 30 18 0 4 34 28 76 54 41 26 73 49 70 52
-3 3 -39 -16 -81 -41 -42 -26 -81 -43 -87 -40 -7 4 -8 2 -4 -4 4 -6 -6 -17
-22 -26 -28 -15 -29 -15 -24 10 4 20 1 23 -14 18 -17 -6 19 24 63 53 17 11 17
12 -3 12 -11 1 -24 -3 -30 -8 -5 -4 -22 -11 -39 -14 -16 -4 -24 -4 -17 -1 6 3
10 10 6 15 -3 5 4 9 15 9 20 0 25 9 22 37 -1 7 3 14 9 14 5 1 15 2 20 3 6 0
14 6 18 12 4 6 27 21 52 35 57 30 54 28 48 34 -3 4 -49 -17 -101 -45 -52 -28
-106 -53 -119 -55 -22 -4 -21 -3 7 22 20 18 24 24 10 19 -25 -10 -66 -19 -45
-10 8 4 17 10 20 14 3 4 21 15 40 25 19 10 30 20 23 22 -7 2 -21 -1 -33 -7
-11 -6 -26 -8 -32 -4 -6 4 -8 3 -4 -4 7 -12 -40 -9 -52 3 -4 4 4 4 18 0 22 -7
23 -6 12 8 -8 9 -21 14 -30 11 -9 -3 39 22 107 56 68 33 122 63 119 66 -3 3
-48 -14 -99 -37 -82 -37 -176 -58 -162 -36 2 4 11 7 18 7 8 0 12 6 9 14 -3 8
7 18 26 26 42 17 46 29 11 28 -17 -1 -28 -5 -25 -9 3 -5 -2 -6 -10 -3 -9 3
-14 10 -11 14 3 5 -5 6 -17 2 -14 -3 -19 -2 -14 6 4 7 14 12 22 12 8 0 13 4
10 9 -3 4 34 23 82 41 48 19 91 37 96 42 18 15 -18 8 -63 -12 -24 -11 -45 -20
-47 -20 -2 0 24 27 57 59 99 96 72 122 -127 124 -102 2 -121 4 -107 15 16 11
16 12 0 12 -37 0 -14 18 46 34 130 36 168 48 165 52 -3 2 -55 -8 -117 -22 -62
-14 -118 -23 -124 -20 -7 2 -4 5 6 5 25 1 11 21 -16 22 -20 1 -21 2 -2 6 11 3
25 9 30 13 6 4 22 10 37 14 50 12 29 24 -34 20 -35 -2 -54 -1 -44 2 11 4 26
13 34 21 13 12 11 13 -14 8 -20 -4 -25 -3 -14 3 8 5 64 20 123 32 59 13 106
25 103 27 -2 2 -54 -3 -115 -12 -61 -9 -117 -14 -124 -12 -6 3 -1 6 13 7 24 1
24 1 -5 14 -33 14 -29 17 42 31 57 11 38 28 -24 23 -32 -3 -50 -3 -41 -1 14 3
16 9 8 23 -11 20 -11 20 135 41 44 6 85 16 90 22 7 6 2 8 -15 3 -14 -3 -77 -8
-140 -10 -63 -3 -104 -2 -90 1 l25 6 -25 8 -25 7 27 1 c15 1 30 6 33 11 3 6
17 10 30 10 25 0 46 19 23 21 -7 1 -38 1 -68 1 -30 0 -44 2 -30 5 23 5 24 6 5
14 -18 7 -18 8 -2 8 10 1 16 5 12 10 -3 5 18 12 47 15 29 3 85 10 123 15 68 8
66 8 -55 10 -85 1 -120 4 -110 11 13 8 12 10 -5 11 l-20 1 20 6 20 5 -20 8
c-14 5 -7 8 28 8 26 1 47 6 47 11 0 6 -18 10 -39 10 -39 0 -53 12 -43 38 3 8
27 12 71 13 36 0 89 4 116 9 42 6 31 8 -61 9 -89 1 -114 4 -125 17 -11 14 -10
18 6 31 12 8 31 12 47 9 15 -3 30 -1 33 4 4 6 -6 10 -22 10 -15 0 -35 5 -43
10 -12 8 -12 10 -1 10 9 0 11 7 8 21 -6 22 -5 22 106 16 134 -6 97 8 -46 18
-53 4 -97 11 -97 15 0 31 14 40 62 40 30 0 47 4 43 10 -3 6 -17 10 -30 10 -13
0 -30 3 -39 6 -19 7 -21 34 -3 35 6 0 3 5 -8 10 -20 10 16 8 170 -7 99 -10 77
2 -30 17 -111 14 -134 22 -131 46 2 10 -1 21 -6 24 -5 3 14 5 44 3 38 -3 47
-2 33 5 -11 5 -33 10 -50 11 -26 1 -27 3 -10 10 11 5 15 9 8 9 -6 1 -11 10
-10 21 1 11 1 20 2 20 133 -24 230 -39 233 -36 5 6 -20 12 -123 32 -91 18
-123 37 -103 61 7 8 25 10 56 6 58 -7 48 6 -21 28 -37 12 -45 17 -27 18 18 1
21 4 12 10 -11 6 -8 10 10 14 20 5 130 -15 213 -39 13 -4 17 -3 10 3 -5 6 -56
23 -113 38 -94 25 -137 45 -97 45 9 0 13 5 9 11 -3 6 -16 8 -28 5 -20 -5 -20
-5 -2 9 11 8 27 15 35 15 11 0 12 -3 4 -8 -6 -4 10 -8 35 -9 l47 -1 -50 23
c-32 15 -43 24 -30 25 18 1 18 2 -5 15 -16 9 -20 15 -10 16 32 3 63 -3 152
-31 50 -17 94 -28 96 -25 5 5 2 6 -140 55 -91 32 -115 50 -65 50 20 0 20 0 1
16 -18 15 -18 15 9 10 15 -3 39 -9 53 -12 19 -5 25 -4 20 5 -4 6 -14 11 -22
11 -9 0 -12 5 -8 12 4 7 3 8 -5 4 -6 -4 -20 -4 -32 -1 -19 6 -20 8 -3 26 23
25 28 25 139 -17 119 -44 137 -39 23 6 -108 43 -114 48 -89 71 12 11 27 16 41
12 17 -5 21 -3 15 7 -5 9 -4 11 3 6 7 -4 24 0 40 9 25 15 30 15 77 -4 73 -31
27 3 -58 41 -51 24 -66 35 -62 47 5 12 3 13 -6 4 -8 -8 -18 -9 -35 -1 -31 14
-30 26 2 38 31 12 47 13 40 2 -2 -4 3 -8 12 -8 9 -1 26 -4 37 -8 16 -6 15 -4
-5 13 -14 11 -30 21 -37 21 -7 0 -16 6 -20 14 -4 7 -15 16 -23 20 -8 3 -1 4
15 0 24 -4 28 -3 18 7 -16 16 -17 29 -2 29 5 0 7 -4 4 -10 -3 -6 4 -10 16 -10
12 0 60 -20 107 -46 46 -25 88 -44 94 -42 5 2 -10 13 -34 25 -57 29 -156 92
-144 93 6 0 2 6 -9 14 -17 12 -17 13 8 20 18 4 36 1 52 -10 35 -23 44 -9 11
17 -68 53 34 43 122 -12 89 -56 89 -42 0 17 -112 75 -130 91 -112 98 9 3 21 3
26 -1 7 -3 8 -1 4 6 -5 7 -16 9 -29 5 -19 -6 -20 -5 -8 9 14 17 18 16 64 -16
30 -21 54 -14 24 8 -66 48 -66 48 -51 62 8 8 11 19 8 25 -4 6 2 5 15 -1 25
-14 28 -23 3 -15 -14 5 -14 4 -2 -4 8 -6 18 -8 22 -6 12 8 128 -77 121 -89 -3
-5 -1 -7 5 -3 6 3 18 -1 26 -10 9 -8 21 -14 28 -12 6 2 -30 34 -81 71 -90 66
-102 80 -78 91 6 3 1 3 -13 0 -23 -6 -23 -6 -7 10 18 19 47 15 67 -9 7 -8 20
-15 28 -15 11 0 1 16 -28 46 -35 36 -40 45 -22 39 26 -8 29 2 4 22 -15 12 -14
13 8 2 13 -7 64 -43 113 -82 48 -38 90 -67 93 -65 2 3 -33 37 -78 76 -46 39
-91 80 -101 92 -18 21 -18 22 2 15 17 -5 20 -3 14 12 -7 17 -5 17 22 -1 17
-11 36 -26 43 -33 21 -20 34 -16 22 7 -6 11 -14 20 -19 20 -14 0 -34 54 -22
58 6 2 8 8 5 14 -18 28 31 -11 149 -121 87 -81 59 -35 -37 60 -53 51 -93 95
-91 97 3 3 12 -1 21 -9 15 -12 16 -11 10 9 -4 13 -3 22 3 22 5 0 13 -9 16 -21
4 -11 9 -18 13 -15 3 3 13 -1 23 -10 37 -33 41 -7 5 31 -35 39 -52 73 -20 41
21 -22 27 -20 14 5 -25 46 4 27 91 -60 50 -51 93 -90 96 -87 3 3 -27 43 -68
88 -100 111 -106 120 -85 112 11 -4 16 -1 16 12 0 14 11 7 45 -26 55 -54 59
-36 8 34 -37 49 -37 50 -10 33 l29 -19 -7 23 c-7 20 -6 21 7 9 18 -19 95 -106
131 -149 15 -18 30 -31 34 -28 3 3 -11 25 -30 49 -71 87 -125 163 -120 168 3
3 8 -1 10 -7 8 -23 25 -14 18 10 -6 17 3 12 33 -20 56 -60 68 -54 26 13 -28
43 -31 53 -16 45 18 -9 19 -8 14 12 -5 20 -4 21 13 7 17 -14 127 -158 145
-190 5 -8 11 -12 15 -9 3 4 -28 57 -70 118 -41 62 -75 118 -75 124 0 7 7 4 14
-5 7 -10 16 -18 20 -18 3 0 6 8 6 18 0 10 13 -2 33 -30 17 -26 35 -48 40 -48
14 0 6 23 -23 67 -31 45 -34 74 -4 37 12 -15 15 -15 11 -2 -9 27 5 29 27 5 12
-13 45 -60 75 -105 64 -97 80 -103 22 -8 -61 99 -101 176 -91 176 5 0 12 -5
16 -11 5 -8 9 -8 14 1 5 8 18 -3 39 -34 18 -26 37 -44 42 -41 5 4 1 18 -10 33
-10 15 -21 38 -25 52 -7 23 -6 24 8 7 13 -17 15 -17 23 -2 8 13 16 7 45 -37
20 -30 45 -73 57 -95 11 -23 26 -45 32 -48 6 -4 -13 38 -42 94 -43 83 -50 103
-39 114 10 9 11 9 6 0 -4 -7 -2 -14 3 -14 6 -1 16 -2 22 -3 6 0 16 -9 23 -18
30 -42 34 -11 6 47 -11 22 -19 49 -19 60 1 16 2 15 9 -5 l7 -25 8 27 c6 25 12
17 69 -95 33 -67 62 -124 64 -126 1 -2 5 -2 8 2 4 3 -2 21 -13 39 -11 18 -27
53 -36 78 -8 25 -25 69 -37 99 -17 43 -18 52 -6 48 9 -4 16 1 18 10 2 8 18
-15 37 -51 41 -81 59 -78 25 4 -29 73 -30 78 -3 55 20 -19 20 -19 9 9 -9 25
-9 27 4 17 14 -12 53 -87 58 -113 2 -7 5 -15 8 -18 3 -3 17 -33 30 -68 14 -34
26 -58 28 -53 2 5 -18 63 -43 130 -44 115 -50 156 -20 131 9 -8 14 -8 17 1 2
6 15 -13 28 -43 29 -63 29 -63 35 -56 3 3 -1 23 -9 44 -8 22 -17 53 -20 69 -6
28 -5 29 9 11 15 -20 15 -20 16 0 1 18 2 18 6 0 3 -12 8 -15 12 -8 4 6 26 -45
50 -114 24 -69 45 -123 48 -121 2 2 -12 55 -32 116 -40 129 -40 127 -20 147
13 14 15 13 15 -3 0 -14 2 -15 9 -4 6 9 15 -4 29 -45 24 -69 30 -39 8 42 -14
52 -9 60 21 41 6 -4 13 -2 15 5 2 6 22 -53 43 -131 44 -162 59 -176 21 -19
-28 113 -42 196 -28 163 9 -19 9 -19 19 0 10 17 13 15 28 -20 9 -22 19 -52 22
-67 3 -15 9 -25 13 -23 5 3 4 20 -1 38 -5 17 -8 50 -8 72 1 22 3 32 6 23 3
-14 9 -16 22 -8 17 8 21 -1 41 -98 41 -199 55 -219 20 -27 -21 117 -26 177
-10 140 5 -11 9 -15 9 -10 1 6 9 11 20 12 16 1 20 -8 25 -58 9 -80 25 -76 19
5 -5 58 -4 64 13 63 31 -3 40 -27 53 -137 13 -107 19 -136 25 -129 2 2 -3 54
-10 114 -16 122 -12 174 12 171 23 -3 34 -26 34 -71 0 -22 5 -47 11 -55 8 -11
9 4 6 54 -3 38 -2 63 3 57 5 -9 9 -6 13 8 7 30 37 16 37 -18 1 -31 9 -112 21
-196 5 -42 7 -12 4 100 -2 93 0 150 5 135 4 -14 8 -19 9 -12z m-981 -292 c6
-4 12 -14 12 -23 0 -12 -3 -13 -14 -4 -8 6 -20 10 -27 9 -7 -2 -14 4 -16 13
-4 17 22 20 45 5z m2805 -402 c-4 -13 -26 -11 -30 3 -2 6 4 10 14 9 10 -2 17
-7 16 -12z m-3697 -481 c-6 -6 -36 9 -36 18 0 5 9 4 20 -3 10 -7 18 -14 16
-15z m-141 -181 c-3 -3 -11 0 -18 7 -9 10 -8 11 6 5 10 -3 15 -9 12 -12z m31
-89 l58 -26 -39 -12 c-34 -10 -46 -9 -75 5 -19 10 -42 20 -50 24 -8 3 1 4 20
1 l35 -5 -25 16 c-25 15 -25 15 -1 8 16 -4 21 -3 17 5 -10 15 -6 14 60 -16z
m-57 -59 c10 -9 -35 -3 -49 6 -11 8 -7 9 15 4 17 -4 32 -8 34 -10z m-44 -24
c16 -17 16 -20 3 -15 -9 4 -19 13 -22 21 -7 19 -2 18 19 -6z m128 -1604 c7
-17 -16 -45 -55 -70 -18 -12 -28 -14 -28 -6 0 7 -8 9 -22 4 -21 -6 -22 -5 -8
11 12 15 12 18 -5 28 -17 9 -14 12 30 28 62 22 81 23 88 5z m-138 -6 c-11 -5
-29 -8 -40 -8 -16 0 -15 2 5 8 34 11 60 11 35 0z m24 -94 c-2 -2 -15 -9 -29
-15 -24 -11 -24 -11 -6 3 16 13 49 24 35 12z m1 -126 c0 -5 -4 -10 -10 -10 -5
0 -10 5 -10 10 0 6 5 10 10 10 6 0 10 -4 10 -10z m150 -220 c-8 -5 -19 -10
-25 -10 -5 0 -3 5 5 10 8 5 20 10 25 10 6 0 3 -5 -5 -10z m3655 -635 c0 -22
-2 -23 -15 -9 -13 13 -13 16 0 24 8 5 15 10 15 10 0 0 0 -11 0 -25z m-3134
-88 c-10 -9 -11 -8 -5 6 3 10 9 15 12 12 3 -3 0 -11 -7 -18z m86 -69 c-3 -8
-6 -5 -6 6 -1 11 2 17 5 13 3 -3 4 -12 1 -19z m799 -335 c-10 -26 -18 -8 -9
23 5 21 8 24 11 11 2 -10 1 -25 -2 -34z m31 -35 c-3 -8 -6 -5 -6 6 -1 11 2 17
5 13 3 -3 4 -12 1 -19z"/>
<path d="M2391 5034 c0 -11 3 -14 6 -6 3 7 2 16 -1 19 -3 4 -6 -2 -5 -13z"/>
<path d="M2001 4974 c0 -11 3 -14 6 -6 3 7 2 16 -1 19 -3 4 -6 -2 -5 -13z"/>
<path d="M1780 4901 c0 -5 5 -13 10 -16 6 -3 10 -2 10 4 0 5 -4 13 -10 16 -5
3 -10 2 -10 -4z"/>
<path d="M3561 4864 c0 -11 3 -14 6 -6 3 7 2 16 -1 19 -3 4 -6 -2 -5 -13z"/>
<path d="M2622 4748 c-17 -17 -15 -93 2 -108 8 -6 25 -10 38 -8 21 3 23 8 23
63 0 57 -1 60 -25 63 -14 2 -31 -3 -38 -10z m56 -49 c2 -23 -2 -40 -12 -48
-24 -20 -36 -4 -36 45 0 41 2 45 23 42 17 -2 23 -10 25 -39z"/>
<path d="M1980 4626 c0 -28 4 -35 23 -38 29 -4 38 -48 10 -48 -11 0 -24 5 -31
12 -9 9 -12 8 -12 -5 0 -9 11 -19 25 -23 56 -14 79 59 25 79 -36 14 -40 37 -5
37 14 0 25 5 25 10 0 6 -13 10 -30 10 -28 0 -30 -3 -30 -34z"/>
<path d="M3267 4646 c-10 -26 0 -51 24 -56 28 -7 38 -37 15 -46 -9 -3 -23 -1
-31 6 -12 10 -15 9 -15 -4 0 -23 48 -32 67 -13 22 22 9 65 -22 73 -33 8 -33
34 0 34 14 0 25 5 25 10 0 15 -57 12 -63 -4z"/>
<path d="M2588 4513 l62 -4 0 -79 0 -79 -62 -4 -63 -3 63 -2 62 -2 0 -80 0
-79 -62 -4 -63 -3 63 -2 62 -2 0 -80 0 -79 -62 -4 -63 -3 63 -2 62 -2 0 -39
c0 -33 -4 -40 -22 -44 l-23 -4 23 -2 c18 -1 22 -7 22 -36 l0 -34 -62 -4 -63
-3 63 -2 62 -2 0 -39 c0 -33 -4 -40 -22 -44 l-23 -4 23 -2 c18 -1 22 -7 22
-36 l0 -34 -62 -4 -63 -3 63 -2 62 -2 0 -39 c0 -33 -4 -40 -22 -44 l-23 -4 23
-2 c18 -1 22 -7 22 -36 l0 -34 -62 -4 -63 -3 62 -2 62 -2 0 -80 0 -79 -62 -4
-62 -3 63 -2 62 -2 0 -80 0 -79 -62 -4 -63 -3 63 -2 62 -2 0 -39 c0 -33 -4
-40 -22 -44 l-23 -4 23 -2 c18 -1 22 -7 22 -36 l0 -34 -62 -4 -63 -3 63 -2
c53 -2 62 -5 62 -21 0 -20 -18 -31 -53 -31 -37 0 -120 -45 -159 -86 -102 -107
-108 -274 -13 -390 41 -49 141 -104 192 -104 26 0 33 -4 33 -19 0 -11 -8 -22
-17 -24 -17 -4 -17 -5 0 -6 13 -1 17 -10 17 -40 0 -22 -5 -42 -12 -44 -10 -4
-10 -6 0 -6 8 -1 12 -24 12 -80 0 -75 -1 -80 -22 -84 l-23 -4 23 -2 c19 -1 22
-7 22 -41 l0 -39 -57 -4 -58 -3 58 -2 57 -2 0 -34 c0 -28 -4 -35 -22 -39 l-23
-4 23 -2 c18 -1 22 -7 22 -36 l0 -34 -62 -4 -63 -3 63 -2 62 -2 0 -39 c0 -33
-4 -40 -22 -44 l-23 -4 23 -2 c18 -1 22 -7 22 -36 l0 -34 -57 -4 -58 -3 58 -2
57 -2 0 -39 c0 -33 -4 -40 -22 -44 l-23 -4 23 -2 c21 -1 22 -5 22 -80 0 -75
-1 -80 -22 -84 l-23 -4 23 -2 c21 -1 22 -5 22 -80 0 -75 -1 -80 -22 -84 l-23
-4 23 -2 c19 -1 22 -7 22 -41 l0 -39 -57 -4 -58 -3 58 -2 57 -2 0 -34 c0 -28
-4 -35 -22 -39 l-23 -4 23 -2 c19 -1 22 -7 22 -41 l0 -39 -62 -4 -63 -3 63 -2
62 -2 0 -34 c0 -28 -4 -35 -22 -39 l-23 -4 23 -2 c19 -1 22 -7 22 -41 l0 -39
-62 -4 c-35 -2 -7 -3 62 -3 69 0 99 1 68 3 l-58 4 0 39 c0 32 4 39 23 43 l22
4 -22 2 c-19 1 -23 7 -23 36 l0 34 58 4 57 3 -57 2 -58 2 0 39 c0 33 4 40 23
44 l22 4 -22 2 c-22 1 -23 5 -23 80 0 75 1 80 23 84 l22 4 -22 2 c-22 1 -23 5
-23 80 0 75 1 80 23 84 l22 4 -22 2 c-22 1 -23 5 -23 80 0 75 1 80 23 84 l22
4 -22 2 c-22 1 -23 5 -23 80 0 75 1 80 23 84 l22 4 -22 2 c-20 1 -23 7 -23 41
l0 39 63 4 62 3 -62 2 -63 2 0 34 c0 28 4 35 23 39 l22 4 -22 2 c-19 1 -23 7
-23 36 l0 34 58 4 57 3 -57 2 -58 2 0 39 c0 33 4 40 23 44 l22 4 -22 2 c-23 1
-23 3 -23 151 l0 150 23 0 c93 0 218 100 250 199 21 66 21 112 2 178 -31 103
-116 181 -221 203 -42 9 -54 16 -54 30 0 16 9 20 63 23 l62 3 -62 2 -63 2 0
34 c0 28 4 35 23 39 l22 4 -22 2 c-20 1 -23 7 -23 41 l0 39 63 4 62 3 -62 2
-63 2 0 80 0 79 63 4 62 3 -62 2 -63 2 0 80 0 79 63 4 62 3 -62 2 -63 2 0 34
c0 28 4 35 23 39 l22 4 -22 2 c-20 1 -23 7 -23 42 l0 41 59 -4 c33 -1 57 0 54
5 -2 4 -29 7 -59 7 l-54 0 0 34 c0 28 4 35 23 39 l22 4 -22 2 c-20 1 -23 7
-23 41 l0 39 63 4 62 3 -62 2 -63 2 0 34 c0 28 4 35 23 39 l22 4 -22 2 c-20 1
-23 7 -23 41 l0 39 63 4 62 3 -62 2 -63 2 0 80 0 79 63 4 62 3 -62 2 -63 2 0
80 0 79 63 4 62 3 -62 2 -63 2 0 80 0 79 58 4 c31 2 1 3 -68 3 -69 0 -97 -1
-62 -3z m62 -1603 c0 -5 -10 -11 -22 -11 l-23 -2 23 -4 c18 -4 22 -11 22 -39
l0 -34 -62 -2 -63 -2 63 -3 62 -4 0 -39 c0 -34 -3 -40 -22 -41 l-23 -2 23 -4
c18 -4 22 -11 22 -39 l0 -34 -97 -2 -98 -2 95 -5 95 -6 3 -37 c3 -34 0 -38
-20 -39 -22 -2 -23 -2 -1 -6 20 -4 22 -10 22 -84 0 -74 -1 -79 -22 -80 l-22
-2 23 -4 c12 -2 22 -8 22 -12 0 -5 -21 -5 -46 0 -187 35 -284 228 -199 395 17
31 47 70 67 87 55 44 178 83 178 57z m87 -5 c60 -18 135 -81 165 -138 47 -93
31 -225 -37 -305 -42 -49 -126 -92 -174 -91 -33 1 -34 2 -11 9 24 8 24 8 3 9
-22 1 -23 5 -23 81 0 76 1 80 23 81 l22 2 -22 4 c-19 4 -23 11 -23 44 l0 39
93 2 92 2 -92 3 -93 4 0 34 c0 29 4 35 23 36 l22 2 -22 4 c-19 4 -23 11 -23
44 l0 39 63 2 62 2 -62 3 -63 4 0 34 c0 29 4 35 23 36 l22 2 -22 4 c-24 5 -32
23 -10 23 7 0 36 -7 64 -15z"/>
<path d="M2563 2473 c15 -2 37 -2 50 0 12 2 0 4 -28 4 -27 0 -38 -2 -22 -4z"/>
<path d="M2738 2473 c6 -2 18 -2 25 0 6 3 1 5 -13 5 -14 0 -19 -2 -12 -5z"/>
<path d="M4204 4460 c0 -13 4 -16 10 -10 7 7 7 13 0 20 -6 6 -10 3 -10 -10z"/>
<path d="M4260 4431 c0 -6 4 -12 8 -15 5 -3 9 1 9 9 0 8 -4 15 -9 15 -4 0 -8
-4 -8 -9z"/>
<path d="M2823 4345 c0 -27 2 -38 4 -22 2 15 2 37 0 50 -2 12 -4 0 -4 -28z"/>
<path d="M2852 4348 c2 -35 7 -43 23 -43 16 0 21 8 23 43 3 39 2 42 -23 42
-25 0 -26 -3 -23 -42z m36 -9 c-1 -13 -7 -23 -13 -22 -13 3 -18 30 -11 50 10
24 29 1 24 -28z"/>
<path d="M3780 4310 c0 -40 2 -71 5 -68 7 7 9 128 1 135 -3 3 -6 -27 -6 -67z"/>
<path d="M3843 4369 c-20 -7 -23 -16 -23 -56 0 -61 10 -75 46 -71 28 3 29 5
32 60 3 63 -13 83 -55 67z m38 -36 c12 -31 -1 -78 -22 -78 -15 0 -25 64 -15
91 9 22 26 16 37 -13z"/>
<path d="M1400 4306 c0 -37 4 -66 10 -66 6 0 10 26 10 59 0 33 -4 63 -10 66
-6 4 -10 -18 -10 -59z"/>
<path d="M1450 4351 c-14 -27 -13 -84 2 -99 16 -16 57 -15 63 1 11 32 13 82 4
99 -13 24 -56 23 -69 -1z m60 -46 c0 -34 -22 -61 -40 -50 -15 9 -13 92 3 98
20 7 37 -14 37 -48z"/>
<path d="M885 4250 c-3 -5 -1 -10 4 -10 6 0 11 5 11 10 0 6 -2 10 -4 10 -3 0
-8 -4 -11 -10z"/>
<path d="M4552 4078 c2 -6 10 -13 16 -14 7 -1 8 0 2 3 -5 2 -8 9 -4 14 3 5 0
9 -6 9 -7 0 -10 -5 -8 -12z"/>
<path d="M785 3905 c-16 -13 -27 -27 -24 -30 3 -3 16 4 29 15 13 11 29 20 37
20 8 0 11 5 8 10 -9 14 -16 12 -50 -15z"/>
<path d="M950 3850 c0 -38 3 -70 8 -70 4 0 7 32 7 70 0 39 -3 70 -7 70 -5 0
-8 -31 -8 -70z"/>
<path d="M1000 3885 c0 -22 5 -35 13 -35 7 0 22 -6 32 -14 16 -12 17 -16 6
-30 -10 -12 -18 -13 -33 -5 -25 13 -34 6 -13 -11 9 -7 25 -10 40 -6 22 6 26
11 23 39 -2 24 -8 33 -25 35 -34 5 -31 42 3 42 14 0 23 4 19 10 -3 6 -19 10
-36 10 -27 0 -29 -3 -29 -35z"/>
<path d="M4240 3851 c0 -41 3 -72 6 -69 9 9 10 118 2 131 -4 7 -8 -21 -8 -62z"/>
<path d="M4290 3885 c0 -28 4 -35 19 -35 22 0 45 -25 36 -40 -8 -13 -45 -13
-45 1 0 5 -4 8 -10 4 -16 -10 1 -35 24 -35 34 0 48 15 44 46 -2 21 -9 30 -25
32 -34 5 -31 42 3 42 14 0 23 4 19 10 -3 6 -19 10 -36 10 -27 0 -29 -3 -29
-35z"/>
<path d="M4670 3801 c0 -11 26 -22 34 -14 3 3 3 10 0 14 -7 12 -34 11 -34 0z"/>
<path d="M500 3679 c0 -5 5 -7 10 -4 6 3 10 8 10 11 0 2 -4 4 -10 4 -5 0 -10
-5 -10 -11z"/>
<path d="M518 3533 c6 -2 18 -2 25 0 6 3 1 5 -13 5 -14 0 -19 -2 -12 -5z"/>
<path d="M2827 3533 c-15 -15 -7 -43 13 -43 20 0 26 -11 13 -23 -3 -4 -13 -1
-21 6 -13 10 -14 9 -10 -3 6 -21 44 -25 52 -5 3 9 -3 24 -14 35 -24 24 -25 27
-2 33 14 4 13 5 -4 6 -11 0 -24 -2 -27 -6z"/>
<path d="M430 3480 c-9 -6 -10 -10 -3 -10 6 0 15 5 18 10 8 12 4 12 -15 0z"/>
<path d="M652 3338 c-13 -13 -16 -38 -6 -38 4 0 13 8 20 18 10 13 15 14 25 5
10 -10 6 -21 -19 -52 -18 -22 -32 -45 -32 -50 0 -6 18 -11 40 -11 22 0 40 5
40 10 0 6 -14 10 -31 10 l-31 0 31 35 c35 40 35 39 21 66 -12 21 -40 25 -58 7z"/>
<path d="M751 3341 c-22 -14 -26 -94 -6 -114 41 -41 83 1 71 72 -7 46 -33 62
-65 42z m44 -61 c0 -38 -3 -45 -20 -45 -15 0 -21 8 -23 33 -4 45 4 64 25 60
14 -3 18 -13 18 -48z"/>
<path d="M560 2689 c-14 -25 -3 -41 11 -16 6 9 17 17 24 17 25 0 17 -32 -16
-66 -17 -18 -28 -37 -25 -43 9 -14 76 -15 76 -1 0 6 -14 10 -32 10 l-32 0 32
33 c34 35 39 56 20 75 -18 18 -46 14 -58 -9z"/>
<path d="M659 2695 c-1 -8 -2 -23 -3 -32 -1 -11 9 -19 24 -23 31 -7 42 -50 13
-50 -11 0 -24 5 -31 12 -9 9 -12 8 -12 -4 0 -32 54 -38 70 -8 15 29 3 59 -26
66 -32 8 -31 34 1 34 14 0 25 5 25 10 0 17 -60 12 -61 -5z"/>
<path d="M4606 2699 c3 -6 17 -9 30 -6 29 5 29 9 4 -53 -21 -53 -26 -81 -12
-64 10 11 52 113 52 125 0 5 -18 9 -41 9 -26 0 -38 -4 -33 -11z"/>
<path d="M4700 2675 c0 -31 3 -35 25 -35 29 0 44 -25 26 -43 -9 -9 -16 -9 -31
1 -28 17 -32 15 -20 -8 14 -25 42 -26 64 -1 23 25 13 59 -20 67 -29 7 -32 34
-5 34 11 0 23 5 26 10 4 6 -8 10 -29 10 -34 0 -36 -2 -36 -35z"/>
<path d="M3047 2684 c-4 -4 -7 -25 -7 -46 0 -34 3 -38 26 -38 23 0 25 3 22 42
-3 41 -22 60 -41 42z m31 -41 c-4 -39 -28 -42 -28 -4 0 21 5 31 16 31 11 0 14
-8 12 -27z"/>
<path d="M2670 2299 c0 -5 5 -7 10 -4 6 3 10 8 10 11 0 2 -4 4 -10 4 -5 0 -10
-5 -10 -11z"/>
<path d="M308 2243 c7 -3 16 -2 19 1 4 3 -2 6 -13 5 -11 0 -14 -3 -6 -6z"/>
<path d="M4513 2072 c-13 -2 -23 -7 -23 -11 0 -4 14 -6 30 -3 36 5 35 6 10
-53 -11 -26 -20 -52 -20 -58 0 -19 16 5 35 53 9 25 19 50 22 56 5 13 -22 21
-54 16z"/>
<path d="M665 2060 c-11 -17 3 -24 20 -10 12 10 16 9 21 -5 4 -10 1 -21 -7
-26 -12 -8 -11 -11 4 -20 9 -5 17 -16 17 -24 0 -24 -20 -28 -42 -8 -20 18 -20
18 -17 -2 3 -13 13 -21 30 -23 33 -4 53 20 43 50 -4 13 -8 34 -8 48 -1 19 -7
26 -28 28 -14 2 -29 -2 -33 -8z"/>
<path d="M764 2056 c-3 -7 -4 -35 -2 -62 3 -42 6 -49 26 -52 13 -2 30 2 38 8
17 15 19 91 2 108 -16 16 -57 15 -64 -2z m56 -51 c0 -48 -13 -64 -35 -45 -21
17 -19 77 2 89 26 14 33 5 33 -44z"/>
<path d="M4590 2051 c-18 -35 -12 -88 12 -105 46 -32 84 31 59 97 -13 33 -55
37 -71 8z m58 -39 c4 -37 -12 -64 -34 -55 -15 5 -20 73 -7 87 16 16 38 -1 41
-32z"/>
<path d="M2827 1833 c-15 -15 -7 -43 13 -43 12 0 20 -7 20 -16 0 -11 -6 -15
-20 -11 -24 6 -27 -8 -3 -17 9 -4 23 -1 30 7 16 16 7 47 -13 47 -8 0 -14 5
-14 10 0 6 7 10 15 10 8 0 15 5 15 10 0 11 -33 14 -43 3z"/>
<path d="M4722 1738 c2 -12 8 -23 15 -25 6 -3 10 4 8 14 -2 10 -4 21 -4 26 -1
4 -6 7 -12 7 -6 0 -9 -10 -7 -22z"/>
<path d="M790 1660 c-8 -5 -12 -11 -9 -14 2 -3 11 -1 19 4 8 5 12 11 9 14 -2
3 -11 1 -19 -4z"/>
<path d="M2718 1623 c12 -2 30 -2 40 0 9 3 -1 5 -23 4 -22 0 -30 -2 -17 -4z"/>
<path d="M517 1609 c7 -7 15 -10 18 -7 3 3 -2 9 -12 12 -14 6 -15 5 -6 -5z"/>
<path d="M4317 1513 c-4 -3 -7 -19 -7 -35 0 -21 5 -28 19 -28 22 0 45 -25 36
-40 -9 -14 -42 -13 -48 3 -2 6 -8 9 -12 5 -13 -12 15 -38 41 -38 30 0 49 32
34 60 -6 11 -20 20 -30 20 -13 0 -20 7 -20 20 0 15 7 20 26 20 14 0 23 4 19
10 -7 11 -48 14 -58 3z"/>
<path d="M4224 1484 c-20 -29 -21 -83 -2 -95 22 -15 47 -10 58 11 11 20 5 60
-8 60 -4 0 -14 5 -22 10 -13 8 -12 11 5 24 18 14 18 15 3 16 -10 0 -25 -11
-34 -26z m44 -57 c4 -20 -25 -34 -40 -19 -15 15 -1 44 19 40 10 -2 19 -11 21
-21z"/>
<path d="M967 1466 c-7 -19 4 -21 21 -4 9 9 15 9 25 -1 10 -10 8 -15 -8 -27
-19 -14 -19 -16 -2 -25 9 -6 17 -16 17 -24 0 -24 -20 -28 -42 -8 -20 18 -20
18 -17 -2 3 -13 13 -21 30 -23 39 -5 51 17 42 75 -7 42 -12 48 -34 51 -17 2
-29 -3 -32 -12z"/>
<path d="M1060 1445 c0 -30 3 -35 24 -35 32 0 43 -18 22 -38 -12 -13 -18 -13
-28 -4 -16 16 -29 15 -22 -2 8 -21 32 -28 55 -15 27 14 22 61 -8 74 -32 14
-29 43 5 48 22 3 20 4 -10 6 -37 1 -38 0 -38 -34z"/>
<path d="M640 1345 c0 -8 29 -12 39 -5 9 5 4 8 -13 8 -14 0 -26 -2 -26 -3z"/>
<path d="M2538 1273 c6 -2 18 -2 25 0 6 3 1 5 -13 5 -14 0 -19 -2 -12 -5z"/>
<path d="M835 1100 c3 -5 8 -10 11 -10 2 0 4 5 4 10 0 6 -5 10 -11 10 -5 0 -7
-4 -4 -10z"/>
<path d="M2693 1103 c15 -2 37 -2 50 0 12 2 0 4 -28 4 -27 0 -38 -2 -22 -4z"/>
<path d="M3792 1047 c-43 -45 -34 -117 13 -117 18 0 45 27 45 45 0 19 -28 45
-47 45 -13 0 -12 5 7 25 13 14 19 25 13 25 -5 0 -19 -10 -31 -23z m36 -70 c4
-20 -25 -34 -40 -19 -15 15 -1 44 19 40 10 -2 19 -11 21 -21z"/>
<path d="M3882 1061 c-20 -12 -12 -111 11 -125 28 -18 52 4 55 52 5 66 -25 99
-66 73z m46 -58 c-3 -40 -6 -48 -23 -48 -15 0 -21 8 -23 33 -5 45 3 62 28 62
19 0 21 -5 18 -47z"/>
<path d="M1411 1014 c-16 -27 -27 -52 -25 -56 3 -4 18 -8 35 -8 21 0 29 -5 29
-17 0 -13 4 -11 13 7 9 17 10 30 3 42 -9 15 -11 15 -21 1 -7 -9 -17 -13 -23
-9 -7 4 -4 18 10 42 32 54 13 52 -21 -2z"/>
<path d="M1502 1048 c-6 -6 -12 -31 -12 -54 0 -51 29 -80 62 -63 16 9 18 20
16 67 -3 52 -5 57 -28 60 -14 2 -31 -3 -38 -10z m56 -52 c-2 -34 -7 -42 -25
-44 -21 -3 -23 1 -23 41 0 45 11 59 38 49 9 -3 12 -19 10 -46z"/>
<path d="M935 980 c4 -6 11 -8 16 -5 14 9 11 15 -7 15 -8 0 -12 -5 -9 -10z"/>
<path d="M2823 935 c0 -27 2 -38 4 -22 2 15 2 37 0 50 -2 12 -4 0 -4 -28z"/>
<path d="M2852 938 c2 -35 7 -43 23 -43 16 0 21 8 23 43 3 39 2 42 -23 42 -25
0 -26 -3 -23 -42z m38 -4 c0 -15 -6 -24 -15 -24 -15 0 -21 40 -9 53 12 11 24
-3 24 -29z"/>
<path d="M4147 793 c-11 -11 -8 -21 9 -27 13 -5 14 -4 6 7 -7 8 -9 17 -5 20 3
4 4 7 1 7 -2 0 -8 -3 -11 -7z"/>
<path d="M1967 724 c-15 -26 -26 -48 -24 -50 2 -2 16 -5 30 -6 15 -1 27 -8 27
-15 0 -19 18 -16 22 5 5 23 -2 52 -13 52 -5 0 -9 -7 -9 -15 0 -8 -7 -15 -15
-15 -20 0 -19 12 6 54 12 20 17 36 12 36 -4 0 -21 -21 -36 -46z"/>
<path d="M2058 765 c-9 -9 4 -65 16 -64 26 3 36 -2 36 -20 0 -29 -19 -35 -42
-14 -20 18 -20 18 -17 -2 3 -14 13 -21 36 -23 28 -3 33 1 39 23 7 30 -10 55
-38 55 -28 0 -19 32 12 41 24 7 23 7 -6 8 -17 1 -33 -1 -36 -4z"/>
<path d="M3217 763 c-4 -3 -7 -19 -7 -33 0 -23 5 -29 31 -34 22 -4 30 -11 27
-23 -3 -14 -12 -17 -38 -15 -33 3 -34 2 -18 -14 18 -18 62 -13 71 8 8 23 -11
58 -33 58 -13 0 -20 7 -20 20 0 13 7 20 20 20 11 0 20 5 20 10 0 11 -43 14
-53 3z"/>
<path d="M3310 736 c0 -28 4 -35 23 -38 29 -4 38 -48 10 -48 -11 0 -24 5 -31
12 -9 9 -12 8 -12 -5 0 -24 47 -34 67 -14 22 22 10 65 -19 69 -34 5 -37 38 -4
38 14 0 26 5 26 10 0 6 -13 10 -30 10 -28 0 -30 -3 -30 -34z"/>
<path d="M2574 646 c-10 -27 1 -50 26 -56 29 -7 39 -37 16 -46 -9 -3 -23 0
-32 7 -14 12 -16 11 -13 -6 3 -13 14 -21 32 -23 21 -3 29 2 38 22 13 29 2 51
-32 61 -28 9 -24 35 6 35 14 0 25 5 25 10 0 16 -60 12 -66 -4z"/>
<path d="M2681 646 c-18 -22 -10 -107 12 -120 29 -19 52 4 55 58 3 51 -9 76
-38 76 -10 0 -23 -6 -29 -14z m47 -53 c-2 -36 -7 -49 -20 -51 -12 -2 -19 5
-24 22 -10 40 3 76 27 76 18 0 20 -5 17 -47z"/>
<path d="M3886 617 c3 -10 9 -15 12 -12 3 3 0 11 -7 18 -10 9 -11 8 -5 -6z"/>
<path d="M3416 373 c-6 -14 -5 -15 5 -6 7 7 10 15 7 18 -3 3 -9 -2 -12 -12z"/>
</g>
</svg>
