<?xml version="1.0" standalone="no"?>
<!DOCTYPE svg PUBLIC "-//W3C//DTD SVG 20010904//EN"
 "http://www.w3.org/TR/2001/REC-SVG-20010904/DTD/svg10.dtd">
<svg version="1.0" xmlns="http://www.w3.org/2000/svg"
 width="1079.000000pt" height="1074.000000pt" viewBox="0 0 1079.000000 1074.000000"
 preserveAspectRatio="xMidYMid meet">

<g transform="translate(0.000000,1074.000000) scale(0.100000,-0.100000)"
fill="#000000" stroke="none">
<path d="M5364 10096 c-17 -8 -43 -30 -58 -49 -18 -24 -38 -37 -62 -42 -78
-14 -164 -47 -211 -79 -35 -24 -54 -31 -64 -25 -23 15 -92 10 -134 -10 -78
-36 -121 -111 -110 -191 6 -44 4 -52 -28 -97 -20 -26 -44 -71 -55 -98 -16 -42
-27 -54 -67 -74 -72 -38 -97 -77 -103 -165 l-4 -74 -37 -5 c-20 -3 -64 -9 -98
-13 l-62 -6 -18 63 c-17 56 -22 64 -46 67 -22 3 -27 -1 -27 -20 0 -13 11 -46
24 -75 l24 -52 -29 -6 c-16 -4 -94 -5 -173 -3 l-143 3 -27 48 c-30 54 -70 77
-135 77 -22 0 -53 8 -70 18 -27 14 -33 15 -40 3 -6 -9 -5 -24 0 -39 5 -14 8
-26 7 -27 -2 -1 -41 -28 -88 -59 -79 -53 -86 -56 -98 -39 -7 10 -26 37 -43 61
-31 45 -53 51 -72 21 -8 -13 -2 -28 27 -68 22 -29 36 -58 32 -66 -5 -15 -92
-75 -107 -75 -7 0 -41 43 -92 114 -11 17 -15 17 -35 5 -12 -8 -22 -17 -22 -22
0 -4 19 -36 42 -69 l41 -61 -29 -24 c-24 -19 -126 -73 -138 -73 -2 0 -1 11 1
24 4 19 -20 48 -139 167 -79 79 -165 168 -191 197 -47 53 -69 61 -75 28 -4
-20 154 -211 281 -340 98 -99 99 -114 9 -101 -41 5 -53 3 -87 -21 -22 -14 -41
-30 -43 -35 -2 -5 -9 -9 -16 -9 -7 0 -66 -41 -132 -90 l-119 -90 -32 35 c-36
39 -45 42 -68 19 -15 -15 -14 -19 7 -45 113 -140 112 -139 92 -155 -36 -28
-103 -74 -107 -74 -3 0 -33 29 -68 65 -66 69 -78 75 -100 49 -12 -15 -6 -24
52 -78 97 -90 97 -90 60 -127 -36 -36 -39 -65 -11 -111 28 -46 25 -71 -9 -91
-38 -22 -81 -74 -81 -96 0 -10 16 -36 35 -58 19 -23 35 -43 35 -45 0 -2 -30
-2 -67 0 -87 4 -144 -23 -188 -88 -25 -37 -30 -57 -34 -118 -3 -72 -3 -73 32
-105 19 -17 74 -52 123 -76 49 -24 105 -58 126 -75 20 -17 47 -39 60 -48 l23
-16 -21 -22 c-21 -21 -23 -21 -55 -5 -19 9 -53 37 -75 61 -28 30 -50 44 -67
44 -40 0 -39 -13 5 -60 22 -25 35 -46 29 -48 -6 -2 -50 18 -98 44 -49 26 -155
82 -236 124 -81 43 -158 86 -170 98 -24 22 -361 192 -382 192 -11 0 -25 -20
-25 -35 0 -11 290 -145 313 -145 16 0 41 -7 57 -15 26 -13 27 -17 20 -50 -9
-42 -20 -33 150 -125 228 -124 310 -172 310 -183 0 -17 -49 -96 -66 -105 -11
-6 -18 -29 -21 -74 -5 -58 -3 -67 17 -86 12 -11 48 -30 79 -42 76 -29 174 -72
185 -82 23 -19 -9 -15 -132 16 -109 27 -142 40 -191 75 -75 52 -164 86 -268
102 -59 9 -88 9 -112 1 -29 -10 -37 -8 -99 32 -184 119 -506 246 -624 246 -37
0 -38 -1 -38 -38 0 -21 -2 -41 -6 -44 -3 -3 -22 -2 -42 3 -20 5 -89 20 -153
34 -64 14 -186 43 -270 64 -85 22 -156 38 -158 36 -7 -7 32 -112 71 -189 134
-273 413 -523 698 -627 l65 -24 -38 -3 -39 -3 4 -45 c3 -41 1 -45 -17 -39
-174 50 -703 166 -710 155 -2 -3 18 -51 44 -106 163 -338 496 -592 896 -684
205 -47 335 -100 335 -137 0 -18 -2 -18 -121 22 -181 61 -301 85 -719 139 -58
7 -107 12 -109 10 -8 -7 43 -106 83 -163 57 -82 135 -169 188 -212 l47 -37
-31 -4 c-18 -3 -97 -6 -177 -7 -327 -5 -535 -61 -584 -158 -40 -77 -29 -146
34 -217 79 -89 258 -170 531 -240 195 -50 737 -161 991 -202 l167 -27 0 -59 0
-58 -526 0 -525 0 3 -22 3 -23 531 -3 532 -2 12 -30 c18 -44 101 -114 178
-152 l67 -33 -795 -5 -795 -5 -3 -23 -3 -22 963 0 c530 0 1000 -3 1046 -7 l82
-6 0 -41 0 -41 -72 0 c-99 -1 -139 -23 -257 -148 -53 -56 -168 -175 -256 -264
-95 -96 -169 -180 -183 -207 -12 -25 -37 -57 -56 -73 -18 -15 -104 -92 -190
-170 l-157 -143 -124 0 c-125 0 -149 -7 -125 -35 9 -11 36 -15 106 -15 52 0
94 -3 94 -6 0 -3 -13 -22 -30 -42 -16 -20 -36 -54 -45 -74 l-15 -38 -224 0
c-187 0 -226 -2 -236 -15 -10 -12 -10 -18 0 -30 10 -12 48 -15 225 -15 l212 0
6 -73 c4 -39 9 -81 12 -93 5 -17 -3 -27 -42 -52 -84 -53 -187 -100 -279 -127
-99 -29 -303 -49 -391 -39 -65 8 -67 -2 -11 -48 136 -111 342 -226 523 -294
204 -75 314 -162 441 -349 66 -97 185 -305 255 -448 24 -48 48 -86 54 -84 5 2
55 71 110 153 155 231 220 284 364 292 113 6 191 -23 444 -166 365 -206 564
-298 912 -423 421 -152 908 -254 1385 -290 195 -15 682 -6 875 15 450 51 894
155 1300 306 294 109 492 202 798 374 308 173 326 181 457 181 89 0 111 -3
145 -22 65 -35 137 -118 239 -275 53 -82 100 -148 104 -147 4 0 32 50 62 111
122 248 272 480 375 583 87 88 147 124 323 194 193 77 358 172 500 288 59 48
54 61 -18 49 -55 -9 -259 11 -349 33 -111 28 -231 77 -302 122 -52 34 -60 43
-54 62 4 12 9 57 12 100 l6 77 228 -2 c234 -3 259 1 246 36 -6 14 -38 16 -251
16 -232 0 -245 1 -251 19 -3 10 -23 46 -45 80 l-40 61 104 0 c78 0 106 4 116
15 24 29 0 35 -132 35 -149 0 -124 -12 -281 133 -56 52 -130 118 -164 146 -41
34 -72 71 -90 107 -19 37 -78 105 -188 217 -88 89 -203 207 -255 262 -116 122
-147 140 -253 140 l-78 0 3 40 3 40 55 7 c30 3 498 7 1040 7 551 1 991 5 999
10 8 5 11 16 8 25 -6 14 -83 16 -814 16 l-808 1 84 44 c87 45 152 100 177 147
l15 28 523 0 c446 0 525 2 536 15 6 8 9 19 5 25 -4 7 -176 10 -526 10 -407 0
-520 3 -524 13 -2 6 -5 33 -8 58 l-4 46 191 32 c240 41 780 149 950 191 413
100 626 230 626 380 0 45 -40 110 -89 144 -84 58 -274 95 -506 97 -71 0 -151
4 -178 7 l-47 7 47 35 c59 44 173 184 223 275 48 87 51 101 25 98 -472 -53
-598 -75 -790 -137 -76 -25 -141 -43 -143 -41 -3 2 -2 11 2 20 10 27 125 73
276 110 326 81 534 184 714 355 103 98 185 209 247 334 51 104 59 132 35 123
-7 -3 -105 -24 -217 -47 -171 -35 -411 -91 -495 -116 -20 -5 -21 -3 -17 40 5
42 4 46 -17 46 -36 0 -18 21 37 40 323 114 619 411 728 730 14 40 24 74 22 76
-1 1 -90 -20 -197 -46 -245 -61 -412 -100 -424 -100 -4 0 -6 10 -3 22 4 12 4
33 0 47 -6 23 -8 23 -72 18 -36 -3 -104 -18 -151 -32 -107 -34 -332 -141 -413
-197 -62 -42 -62 -42 -162 -44 -137 -2 -266 -46 -365 -124 -22 -17 -58 -31
-98 -39 -34 -7 -94 -20 -132 -30 -40 -11 -73 -15 -76 -10 -5 9 100 62 186 93
25 9 60 25 78 36 33 20 34 22 27 70 -6 46 -5 50 14 50 23 0 328 122 749 300
137 58 172 77 172 92 0 10 -6 21 -13 24 -16 6 -102 -29 -111 -45 -4 -6 -16
-11 -26 -11 -10 0 -56 -16 -102 -36 -46 -20 -186 -78 -313 -129 -285 -115
-344 -141 -367 -162 -17 -15 -19 -15 -33 3 -32 41 -58 107 -49 121 5 8 113 70
239 137 229 123 230 124 227 155 -2 26 3 35 30 51 18 11 43 20 56 20 24 0 303
136 314 153 9 15 0 27 -21 27 -18 0 -292 -127 -301 -139 -8 -11 -125 -74 -360
-194 -118 -60 -219 -113 -225 -118 -13 -13 -35 -11 -35 3 0 7 14 26 31 44 32
33 32 54 0 54 -26 0 -71 -38 -71 -60 0 -25 -108 -70 -121 -49 -5 8 -9 21 -8
29 0 19 89 83 209 151 106 59 137 89 146 137 13 70 -37 183 -100 221 -36 23
-87 28 -166 16 l-55 -8 37 41 c50 56 60 76 49 104 -7 20 -47 58 -95 90 -6 4 1
30 18 68 26 57 27 63 12 85 -9 13 -24 29 -34 34 -13 7 -17 18 -15 38 4 25 -2
32 -50 61 -99 60 -99 60 -28 145 34 41 61 78 61 84 0 6 -7 16 -16 24 -13 11
-21 6 -56 -28 l-41 -41 -118 89 c-65 49 -121 89 -124 89 -4 0 -15 -10 -26 -22
-10 -13 -18 -18 -19 -11 0 6 5 15 10 18 22 14 7 42 -37 71 -64 42 -91 50 -99
30 -7 -18 -39 -22 -49 -6 -3 6 41 61 99 123 103 110 223 250 254 295 14 21 14
25 -1 40 -15 14 -19 14 -30 2 -8 -8 -55 -62 -105 -120 -51 -58 -117 -130 -148
-160 -31 -30 -67 -79 -81 -107 l-24 -53 -90 46 -90 45 24 42 c13 23 32 57 43
75 19 33 19 33 0 47 -11 8 -23 15 -27 15 -4 0 -25 -29 -48 -64 -22 -35 -45
-67 -51 -71 -11 -7 -120 62 -120 77 0 5 19 37 41 70 40 58 41 62 24 75 -31 22
-39 16 -83 -52 l-41 -65 -80 50 c-114 73 -113 69 -67 153 30 55 35 72 24 78
-28 19 -52 3 -86 -53 -32 -54 -37 -58 -71 -58 -58 0 -123 -38 -145 -85 l-19
-41 -168 -3 c-93 -1 -173 0 -178 3 -5 3 2 32 15 63 32 78 31 93 -5 93 -25 0
-30 -4 -36 -37 -4 -21 -13 -50 -22 -66 -14 -28 -17 -29 -61 -23 -26 4 -69 10
-97 13 l-50 5 0 77 c0 70 -3 81 -29 115 -16 21 -43 44 -61 51 -39 17 -50 30
-85 102 -15 32 -39 72 -53 89 -21 25 -25 37 -20 71 12 90 -22 154 -100 195
-34 17 -52 19 -103 15 -33 -3 -65 -2 -70 3 -22 21 -139 71 -201 86 -56 13 -73
22 -97 51 -16 20 -44 42 -62 49 -42 18 -120 17 -160 0z m158 -87 c28 -27 30
-34 24 -76 -3 -25 -6 -73 -7 -107 0 -58 -1 -60 -16 -38 -8 12 -25 22 -37 22
-24 1 -56 22 -56 38 0 12 43 24 63 16 11 -4 17 5 22 35 10 61 -6 81 -63 81
-70 0 -86 -16 -78 -73 4 -26 11 -47 16 -47 20 0 16 -31 -9 -61 l-28 -33 -7
101 c-10 142 8 171 102 172 36 1 49 -5 74 -30z m-232 -73 c0 -9 -27 -22 -72
-36 -40 -12 -99 -35 -130 -52 -51 -27 -78 -30 -78 -9 0 5 27 23 61 41 115 61
219 88 219 56z m440 -15 c65 -24 150 -76 150 -91 0 -17 -28 -11 -83 19 -51 28
-80 39 -164 61 -28 7 -43 16 -43 27 0 21 63 14 140 -16z m283 -85 c63 -27 94
-93 76 -162 -9 -32 -7 -37 24 -67 19 -17 55 -74 81 -125 39 -78 53 -96 81
-108 67 -28 84 -115 40 -203 -14 -28 -35 -86 -46 -128 -32 -127 -122 -293
-145 -270 -4 4 9 37 29 74 37 71 77 198 77 244 0 17 6 28 18 31 9 3 26 21 37
42 24 45 15 65 -41 84 -75 25 -100 75 -44 87 16 4 39 4 50 0 11 -4 20 -2 20 4
0 6 -18 14 -40 17 -22 4 -38 9 -36 13 6 10 -63 146 -108 214 -34 51 -37 61
-27 83 13 30 -4 71 -45 103 -34 27 -38 26 -52 -4 -15 -32 -47 -35 -39 -2 5 17
-5 11 -38 -25 -25 -26 -45 -41 -45 -34 0 20 55 101 85 124 32 26 44 27 88 8z
m-1053 -6 c22 -12 85 -99 77 -106 -3 -3 -24 8 -48 25 -24 16 -55 32 -69 36
-17 4 -21 3 -12 -3 11 -7 7 -12 -16 -20 -36 -12 -63 -49 -57 -77 2 -11 4 -22
4 -25 1 -3 6 2 11 10 8 12 10 11 7 -5 -5 -39 -33 -34 -53 9 -35 73 19 166 97
166 22 0 49 -5 59 -10z m317 -25 c8 -22 -4 -30 -21 -16 -23 19 -37 5 -26 -25
13 -32 12 -37 0 -29 -5 3 -10 15 -10 26 0 28 -44 26 -57 -3 -10 -21 -11 -22
-18 -5 -10 23 2 35 51 52 51 19 73 18 81 0z m424 -6 c45 -20 68 -44 35 -37 -7
2 -23 -8 -34 -22 -14 -16 -21 -20 -22 -11 0 8 8 23 17 34 14 15 15 18 3 16 -8
-2 -26 3 -39 10 -20 11 -25 11 -32 0 -6 -10 -9 -8 -9 9 0 28 17 28 81 1z
m-604 -131 c34 -32 41 -48 23 -48 -12 0 -70 59 -70 71 0 16 14 9 47 -23z m728
12 c6 -10 -15 -50 -28 -50 -14 0 -19 30 -7 45 14 17 26 19 35 5z m-926 -40
c27 0 60 -28 81 -71 24 -46 19 -49 -24 -11 -17 15 -41 34 -53 42 -12 8 -24 26
-27 40 -3 14 -3 19 0 13 3 -7 13 -13 23 -13z m-79 -12 c0 -7 -21 -44 -45 -82
-25 -38 -54 -95 -66 -125 -16 -46 -26 -59 -57 -73 l-37 -18 42 4 c40 4 81 -15
103 -46 8 -11 -1 -88 -10 -88 -12 0 -33 68 -26 85 3 8 1 17 -3 20 -5 3 -11 -2
-14 -10 -4 -8 -29 -26 -56 -40 -60 -30 -75 -52 -58 -85 12 -23 26 -34 60 -44
13 -4 17 -16 17 -51 0 -52 39 -178 76 -244 28 -51 24 -64 -9 -33 -29 28 -81
137 -108 229 -11 40 -34 92 -51 117 -61 93 -44 192 39 235 32 16 46 35 86 112
26 52 57 106 70 121 23 29 47 37 47 16z m1186 1 c7 -11 -34 -58 -78 -91 l-28
-19 0 23 c0 25 32 67 65 86 25 14 32 15 41 1z m-393 -83 c98 -48 197 -177 214
-279 6 -41 -13 -160 -33 -202 -12 -26 -13 -26 -9 -5 42 188 -34 364 -193 444
-83 42 -205 41 -297 -4 -138 -67 -233 -261 -194 -397 7 -27 14 -50 14 -53 0
-3 7 -16 14 -28 20 -37 6 -37 -22 0 -35 47 -47 94 -48 184 -1 167 90 296 250
352 92 32 225 27 304 -12z m387 -40 c0 -9 -71 -48 -77 -43 -3 3 10 15 28 26
33 20 49 26 49 17z m-1159 -42 c-11 -15 -21 -24 -21 -20 0 10 34 55 39 51 2
-2 -6 -16 -18 -31z m710 5 c63 -19 140 -98 169 -174 41 -110 15 -245 -65 -333
-163 -182 -470 -80 -505 167 -16 114 21 215 105 289 76 67 180 85 296 51z
m-731 -72 c0 -7 24 -20 53 -30 l52 -17 -43 4 c-24 2 -52 12 -63 22 -21 19 -25
34 -9 34 6 0 10 -6 10 -13z m158 -54 c-10 -2 -26 -2 -35 0 -10 3 -2 5 17 5 19
0 27 -2 18 -5z m1178 -109 c-8 -31 -22 -23 -31 17 -4 19 -2 36 6 46 12 13 14
12 22 -11 5 -15 6 -38 3 -52z m-146 7 c0 -31 -14 -49 -25 -31 -10 16 -34 12
-67 -11 -34 -24 -52 -16 -46 22 2 20 12 26 53 36 79 18 85 17 85 -16z m-1003
5 c2 -2 5 -16 6 -32 2 -24 -2 -28 -18 -26 -11 2 -27 10 -37 19 -9 8 -30 13
-50 11 -28 -3 -33 0 -36 21 -4 24 -3 24 64 18 37 -4 69 -8 71 -11z m-1229 -62
c40 -28 28 -44 -32 -44 -59 0 -82 -14 -92 -55 -17 -68 37 -119 126 -120 71 0
86 12 104 81 13 52 22 59 40 32 24 -39 -53 -121 -181 -190 -42 -22 -42 -22
-64 -3 l-22 20 7 -22 c8 -25 -8 -32 -18 -8 -7 19 -30 19 -45 1 -9 -11 -9 -20
-2 -35 9 -17 5 -22 -32 -44 -23 -13 -106 -63 -185 -110 -79 -48 -145 -87 -147
-87 -3 0 -5 9 -5 20 0 13 22 35 70 66 39 26 70 47 70 48 0 1 -13 1 -29 1 -16
0 -27 -3 -25 -7 6 -9 -32 -29 -40 -21 -3 3 -6 1 -6 -5 0 -7 -8 -12 -18 -12
-10 0 -23 -5 -29 -11 -7 -7 -17 -8 -25 -3 -7 5 -20 7 -29 6 -16 -3 -89 86 -89
107 0 15 65 61 235 166 88 55 210 132 270 172 116 77 150 87 193 57z m3494
-47 c51 -35 193 -125 316 -202 122 -76 222 -141 222 -144 0 -3 -17 -28 -38
-56 -31 -41 -44 -50 -66 -48 -20 1 -26 -2 -22 -12 10 -27 -10 -24 -77 11 -83
43 -88 32 -7 -19 33 -20 60 -44 60 -52 0 -23 -11 -19 -117 44 -54 33 -132 80
-173 105 -41 24 -83 48 -93 52 -22 8 -16 30 7 26 9 -2 16 4 16 13 0 8 -9 15
-20 15 -11 0 -20 5 -20 10 0 6 7 10 16 10 8 0 12 5 9 10 -4 7 -22 2 -48 -13
l-42 -25 -87 44 c-116 58 -170 106 -166 147 5 49 24 42 51 -17 22 -47 30 -56
64 -65 51 -14 77 -14 118 3 39 17 55 42 55 89 0 55 -27 80 -85 80 -28 0 -51
-5 -53 -11 -4 -14 -22 -16 -22 -3 0 5 12 23 26 40 39 47 68 42 176 -32z
m-2252 -22 c0 -18 -7 -28 -27 -36 -36 -13 -182 -17 -185 -4 -2 6 31 11 79 13
74 3 84 5 100 27 23 31 33 31 33 0z m-492 -10 c21 -17 29 -34 30 -59 1 -34 1
-35 -38 -31 -22 2 -40 -1 -40 -6 0 -6 4 -8 9 -4 5 3 12 1 15 -4 3 -5 -12 -11
-34 -13 -32 -3 -41 0 -46 15 -8 25 -16 15 -24 -30 l-7 -38 -16 35 -16 35 -1
-48 c0 -30 -4 -46 -10 -42 -5 3 -10 18 -10 33 0 21 -2 24 -10 12 -5 -8 -10
-31 -10 -50 -1 -63 -17 -65 -23 -3 -4 32 -16 87 -27 122 -11 35 -18 67 -14 70
5 5 163 27 221 30 12 0 35 -10 51 -24z m2017 5 c38 -6 73 -14 78 -19 4 -4 -2
-32 -13 -62 -12 -30 -28 -76 -35 -104 -10 -35 -14 -42 -14 -23 -1 33 -21 48
-22 16 0 -13 -6 -2 -13 25 -17 61 -26 70 -26 23 0 -22 -4 -35 -10 -31 -5 3
-10 20 -10 37 0 31 0 31 -45 25 -25 -4 -45 -3 -45 2 0 4 -12 8 -27 7 -23 -1
-26 3 -28 34 -1 19 4 45 12 58 11 19 22 22 71 22 31 0 88 -5 127 -10z m-521
-26 c98 -8 81 -24 -27 -24 -79 0 -123 12 -111 31 3 6 18 8 32 5 15 -3 62 -8
106 -12z m-1806 -39 c21 -26 38 -92 27 -104 -4 -3 -12 2 -19 12 -17 22 -36 22
-36 -2 0 -12 -7 -19 -22 -19 -13 0 -42 -3 -66 -5 -39 -5 -44 -3 -57 24 -9 16
-17 29 -18 29 -1 0 -3 -21 -3 -45 -1 -44 -8 -64 -19 -54 -4 5 -55 174 -55 184
0 3 56 5 124 5 121 0 125 -1 144 -25z m2702 14 c0 -6 -6 -37 -14 -68 -8 -31
-17 -69 -20 -84 -4 -15 -11 -25 -16 -22 -5 3 -7 12 -3 20 3 8 2 22 -1 32 -6
15 -7 15 -19 -1 -13 -18 -31 -21 -120 -18 l-57 2 5 31 c9 49 -7 57 -27 13
l-18 -39 3 46 c2 25 12 57 22 72 17 27 18 27 141 27 84 0 124 -4 124 -11z
m-2978 -119 c3 -38 -4 -51 -17 -30 -8 14 -55 -10 -55 -29 0 -8 12 -28 27 -43
15 -15 24 -28 20 -28 -15 0 -57 57 -57 77 0 13 12 30 30 43 17 12 30 28 30 36
0 32 18 11 22 -26z m918 36 c0 -3 -4 -8 -10 -11 -5 -3 -10 -1 -10 4 0 6 5 11
10 11 6 0 10 -2 10 -4z m165 -16 c-11 -18 -155 -81 -177 -78 -44 6 -28 25 25
31 30 3 76 17 103 31 57 29 57 29 49 16z m1969 -49 l29 -31 -38 -55 c-39 -58
-53 -71 -62 -61 -3 3 16 31 43 62 l48 56 -27 24 c-16 13 -35 24 -43 24 -8 0
-14 7 -14 15 0 21 25 7 64 -34z m-954 -6 c-14 -17 -48 -19 -70 -5 -11 7 -6 10
22 10 20 0 40 5 43 11 4 6 9 8 12 5 3 -3 0 -12 -7 -21z m-795 -13 c-3 -3 -11
0 -18 7 -9 10 -8 11 6 5 10 -3 15 -9 12 -12z m-140 -37 c13 -14 32 -39 40 -55
15 -28 14 -33 -20 -101 -20 -39 -38 -69 -41 -66 -3 2 10 34 28 71 l32 66 -20
27 c-31 42 -67 51 -109 28 -51 -27 -54 -11 -4 24 51 38 61 38 94 6z m756 4
c39 -28 40 -54 2 -33 -40 20 -59 17 -82 -12 -28 -35 -26 -68 5 -121 14 -25 23
-47 21 -50 -8 -7 -67 113 -67 135 0 26 57 102 76 102 9 0 29 -9 45 -21z
m-2181 -13 c0 -2 -7 -6 -15 -10 -8 -3 -15 -1 -15 4 0 6 7 10 15 10 8 0 15 -2
15 -4z m978 -38 c15 -15 16 -82 2 -73 -6 3 -20 3 -31 0 -19 -6 -21 -13 -16
-59 l5 -51 -17 50 c-9 28 -27 67 -39 87 -12 19 -22 38 -22 41 0 3 17 8 38 10
20 2 44 4 53 5 8 1 20 -3 27 -10z m286 -18 c40 -48 43 -90 11 -155 -30 -62
-56 -75 -105 -55 -66 28 -108 117 -79 169 16 29 91 71 125 71 12 0 34 -13 48
-30z m1099 14 c48 -25 87 -65 87 -91 0 -39 -25 -86 -60 -115 -39 -32 -61 -35
-101 -11 -69 41 -79 155 -18 212 27 25 49 26 92 5z m-2973 -56 c0 -6 -9 -8
-20 -5 -10 3 -27 -1 -37 -8 -15 -11 -15 -17 -5 -39 17 -37 51 -35 58 4 4 16
10 27 15 24 10 -6 109 -150 109 -159 0 -3 -6 -5 -13 -5 -8 0 -22 -9 -31 -19
-21 -24 -25 -21 -100 72 -78 97 -87 116 -70 148 23 46 45 53 72 23 12 -14 22
-30 22 -36z m3260 52 c0 -6 -10 -30 -22 -53 -12 -23 -25 -55 -29 -72 -6 -27
-7 -25 -8 17 -1 44 -15 72 -23 47 -2 -7 -12 0 -22 15 -14 22 -15 30 -5 42 13
16 109 20 109 4z m-3410 -13 c0 -7 -15 -28 -34 -46 -43 -42 -58 -24 -21 24 26
35 55 46 55 22z m1602 -14 c35 -31 15 -92 -31 -96 -11 0 -17 -5 -15 -9 3 -4 0
-8 -6 -8 -6 0 -8 -4 -5 -10 3 -5 -2 -11 -12 -11 -64 -5 -76 -4 -80 8 -7 18
-23 16 -23 -3 0 -10 -5 -14 -15 -10 -12 4 -15 -2 -13 -29 3 -50 -8 -52 -18 -3
l-8 43 -4 -42 c-2 -27 -8 -43 -16 -43 -7 0 -30 37 -52 83 -21 45 -40 85 -42
89 -5 10 123 47 199 57 77 11 116 6 141 -16z m1978 12 c61 -7 171 -33 182 -43
4 -4 -5 -32 -21 -63 -15 -30 -30 -66 -34 -79 -5 -19 -8 -21 -21 -11 -8 7 -19
10 -25 7 -5 -3 -12 7 -16 24 -8 36 -21 31 -34 -13 l-9 -32 -1 37 c-1 42 -15
55 -38 36 -12 -9 -15 -9 -9 0 5 9 -6 12 -43 12 -29 0 -51 5 -51 11 0 5 -4 7
-10 4 -5 -3 -10 -1 -10 5 0 6 -5 8 -11 4 -9 -5 -10 6 -7 39 7 63 21 78 67 72
20 -2 61 -7 91 -10z m1389 -11 c12 -15 21 -33 21 -42 0 -18 -84 -145 -122
-184 -28 -29 -37 -29 -70 0 -16 14 -16 17 2 53 11 20 24 40 29 43 5 4 26 40
46 81 41 83 60 93 94 49z m115 4 c27 -25 44 -68 27 -68 -6 0 -11 4 -11 9 0 5
-16 18 -35 30 -23 14 -33 25 -29 36 8 21 18 19 48 -7z m-4367 -75 c19 -43 62
-134 94 -202 33 -68 59 -125 59 -127 0 -2 -7 -4 -15 -4 -32 0 -218 372 -199
401 13 21 27 5 61 -68z m3673 70 c0 -23 -35 -116 -71 -192 -23 -47 -55 -114
-70 -148 -18 -41 -34 -63 -45 -63 -22 0 -14 29 35 134 21 44 51 115 66 156 31
82 53 119 73 120 6 0 12 -3 12 -7z m-4485 -61 c-8 -8 -25 10 -25 26 0 13 2 13
14 -4 8 -10 13 -21 11 -22z m936 19 l24 -19 -24 -26 c-37 -39 -51 -34 -51 19
0 51 13 57 51 26z m3397 1 c18 -14 22 -24 17 -44 -6 -24 -9 -26 -36 -16 -29
10 -47 46 -34 67 9 16 27 13 53 -7z m-3224 -54 c41 -146 27 -170 -31 -54 -31
63 -35 77 -24 90 23 28 39 17 55 -36z m2866 32 c114 -30 137 -51 106 -95 -7
-11 -22 -46 -31 -77 -20 -61 -34 -70 -28 -16 3 25 2 29 -6 18 -9 -13 -11 -12
-11 3 0 29 -22 43 -65 43 -32 -1 -42 3 -52 24 -7 14 -13 19 -13 13 0 -7 -4
-13 -10 -13 -16 0 -11 38 10 81 15 29 26 39 38 35 9 -3 37 -10 62 -16z m-2627
-19 c17 -29 24 -117 9 -107 -7 4 -67 -12 -112 -31 -8 -3 -18 -5 -22 -5 -11 3
-10 -26 1 -65 5 -18 6 -35 1 -38 -4 -3 -11 12 -15 32 -3 20 -22 67 -41 105
-19 37 -34 72 -34 77 0 14 128 58 175 60 13 1 27 -10 38 -28z m1360 9 c10 -9
-123 -21 -152 -13 -12 3 -21 11 -21 18 0 8 22 11 83 7 45 -2 86 -8 90 -12z
m1467 -4 c0 -33 -61 -159 -71 -149 -5 5 -4 24 1 43 6 19 10 45 10 57 0 39 18
73 40 73 14 0 20 -7 20 -24z m-4206 -2 c9 -22 -12 -44 -114 -120 -72 -53 -87
-61 -99 -49 -7 7 -11 20 -8 28 7 18 186 156 203 156 7 1 15 -6 18 -15z m5429
-75 c65 -47 97 -77 97 -90 0 -29 -29 -23 -95 20 -94 62 -138 103 -130 124 4 9
13 17 19 17 7 0 56 -32 109 -71z m-5219 -15 c44 -62 46 -67 31 -84 -20 -22
-285 -199 -341 -228 -47 -24 -124 -98 -124 -119 0 -10 -16 0 -45 26 -89 82
-89 32 -1 -88 66 -91 86 -131 65 -131 -30 0 -189 206 -189 245 0 26 24 50 40
40 6 -4 10 5 10 22 1 23 16 40 93 100 144 111 387 283 401 283 7 0 34 -30 60
-66z m5130 -71 c105 -76 210 -151 233 -167 66 -44 68 -49 40 -93 -29 -44 -147
-162 -147 -147 0 6 9 19 20 29 25 22 26 45 3 45 -10 0 -47 27 -82 61 -35 33
-119 97 -185 141 -194 130 -193 129 -161 162 8 8 15 17 15 21 0 12 53 85 62
85 6 0 96 -62 202 -137z m-4250 23 c32 -64 35 -116 6 -116 -13 0 -22 9 -26 27
-7 24 -8 25 -14 8 -4 -11 -4 -30 1 -42 9 -25 -5 -41 -18 -21 -19 32 -91 175
-97 195 -6 18 -1 23 36 36 42 15 43 15 65 -11 12 -14 33 -48 47 -76z m3221 83
c25 -12 45 -25 45 -29 0 -4 -16 -40 -36 -80 -19 -40 -39 -83 -44 -96 -10 -26
-30 -33 -30 -10 0 8 -3 16 -7 19 -5 2 -2 2 5 1 13 -4 16 8 5 20 -5 4 -8 23 -8
41 0 18 3 31 8 28 4 -2 7 11 7 29 l0 33 -21 -34 c-11 -19 -22 -45 -23 -58 -4
-31 -18 -34 -22 -5 -3 18 62 162 73 162 2 0 23 -9 48 -21z m-1375 -71 c0 -10
-4 -18 -10 -18 -5 0 -10 9 -10 19 0 11 -3 28 -6 38 -6 16 -5 16 9 -2 9 -11 17
-28 17 -37z m-548 7 c-5 -18 -11 -25 -16 -17 -4 6 -2 21 4 33 15 28 21 20 12
-16z m222 -17 c6 -4 26 -8 43 -8 24 0 37 7 49 25 19 29 34 32 34 8 0 -10 7
-47 17 -83 14 -57 14 -69 2 -94 -8 -16 -24 -33 -37 -37 l-23 -9 20 26 c49 62
10 110 -78 98 -28 -4 -54 -11 -58 -17 -10 -16 -5 -67 8 -83 11 -13 9 -14 -15
-3 -36 17 -41 47 -21 127 26 103 25 100 37 77 6 -11 16 -23 22 -27z m-254 18
c0 -2 3 -11 6 -20 9 -23 -13 -20 -26 4 -9 16 -8 20 5 20 8 0 15 -2 15 -4z
m-169 -32 c32 -34 142 -106 202 -132 54 -24 62 -37 15 -27 -89 20 -268 133
-268 171 0 22 24 17 51 -12z m-1336 -59 c44 -95 53 -129 34 -123 -20 6 -55 61
-75 116 -10 26 -19 49 -20 51 -2 1 -47 -24 -101 -57 -54 -32 -118 -69 -142
-81 l-43 -23 -27 26 c-27 26 -51 34 -51 17 0 -6 5 -13 10 -16 24 -15 5 -23
-71 -30 -44 -4 -82 -5 -84 -3 -5 5 140 103 166 113 11 4 30 -5 52 -24 19 -17
41 -31 48 -31 8 0 37 15 64 33 57 38 183 107 197 107 5 0 25 -34 43 -75z
m2011 33 c-12 -8 -26 9 -26 31 0 11 5 9 19 -5 12 -12 14 -21 7 -26z m304 28
c0 -37 -172 -149 -250 -162 -29 -5 -21 2 46 41 45 26 104 67 130 90 51 46 74
55 74 31z m1466 -61 c114 -69 147 -78 164 -45 6 11 20 24 31 30 17 10 34 2
112 -47 l92 -58 -40 -3 c-63 -5 -128 7 -121 23 2 7 -1 18 -8 24 -9 8 -19 4
-36 -14 -13 -14 -28 -25 -33 -25 -5 0 -72 36 -148 80 -77 44 -141 80 -143 80
-2 0 -16 -30 -31 -67 -33 -78 -42 -93 -61 -93 -16 0 -11 16 39 123 38 82 32
82 183 -8z m-2684 48 c25 -22 23 -31 -8 -27 -23 2 -25 0 -20 -22 5 -18 3 -22
-9 -18 -9 4 -15 1 -15 -7 0 -10 -3 -10 -12 -1 -22 22 -27 12 -12 -23 25 -61
15 -72 -17 -15 -16 30 -34 59 -39 64 -24 24 -10 44 38 54 68 14 73 14 94 -5z
m518 -14 c0 -11 -7 -19 -17 -19 -13 0 -14 3 -6 11 6 6 9 18 6 27 -4 10 -2 13
5 8 7 -4 12 -16 12 -27z m968 16 c46 -7 52 -20 23 -56 -10 -13 -25 -37 -34
-54 l-16 -30 -1 39 c0 33 -3 38 -20 33 -20 -5 -46 24 -33 37 3 3 1 6 -5 6 -16
0 -15 27 1 33 6 3 19 4 27 2 8 -2 34 -7 58 -10z m-1043 -5 c3 -5 1 -10 -4 -10
-6 0 -11 5 -11 10 0 6 2 10 4 10 3 0 8 -4 11 -10z m-599 -54 c7 -30 -19 -72
-57 -91 -35 -19 -303 -33 -279 -15 53 39 265 127 312 129 11 1 20 -9 24 -23z
m1830 -1 c81 -27 221 -92 230 -106 7 -11 -159 -11 -247 0 -44 6 -78 17 -98 32
-33 25 -36 34 -21 73 12 33 39 34 136 1z m-2226 -86 c-50 -23 -109 -37 -97
-23 13 14 90 42 117 42 20 1 15 -4 -20 -19z m2570 -4 c14 -8 19 -14 10 -14 -8
0 -26 6 -40 14 -14 8 -19 14 -10 14 8 0 26 -6 40 -14z m527 -11 c-3 -3 -12 -4
-19 -1 -8 3 -5 6 6 6 11 1 17 -2 13 -5z m712 -95 c73 -15 127 -59 159 -127
l27 -57 3 -1397 2 -1398 -52 0 -53 0 2 1082 c1 596 2 1225 4 1398 1 218 -2
322 -9 337 -7 11 -25 32 -42 46 l-30 26 -2568 -1 c-2773 -1 -2602 2 -2638 -53
-14 -22 -16 -154 -15 -1430 l2 -1405 -56 0 -55 0 2 1398 c3 1321 4 1399 21
1437 33 74 96 126 174 144 57 14 5059 14 5122 0z m477 -61 c-12 -61 -160 -248
-196 -248 -14 0 -13 4 12 47 12 21 28 50 35 65 8 15 19 31 25 34 7 5 8 2 4 -7
-4 -8 0 -5 9 6 26 30 55 97 55 126 0 36 8 41 37 22 20 -13 24 -22 19 -45z
m-5876 -74 c0 -8 -4 -12 -10 -9 -5 3 -10 10 -10 16 0 5 5 9 10 9 6 0 10 -7 10
-16z m346 -37 c56 -49 20 -137 -51 -123 -53 11 -81 72 -49 108 17 18 47 36 66
37 4 1 19 -10 34 -22z m5078 -8 c14 -17 26 -39 26 -50 0 -26 -44 -69 -70 -69
-75 0 -106 100 -41 135 39 21 57 18 85 -16z m501 -59 c14 -16 16 -25 8 -43
-12 -24 -121 -160 -133 -165 -4 -2 -19 17 -32 41 -24 42 -24 45 -7 65 23 29
26 28 49 -10 15 -25 20 -29 25 -16 4 9 -1 28 -10 42 -17 26 -17 26 26 66 24
21 47 39 50 40 3 0 14 -9 24 -20z m-6086 -21 c17 -23 20 -34 12 -42 -14 -14
-15 -67 -1 -67 5 0 17 14 26 32 l17 32 33 -39 c35 -42 45 -67 18 -44 -16 13
-27 5 -53 -39 -5 -10 -21 0 -58 35 -49 46 -103 113 -103 126 0 7 58 35 76 36
5 1 21 -13 33 -30z m2911 -83 c0 -6 -14 -54 -31 -106 -97 -307 -145 -709 -137
-1153 4 -230 3 -259 -11 -264 -9 -3 -49 -19 -89 -34 l-74 -29 -999 0 -999 0 0
800 0 800 1170 -2 c825 -1 1170 -5 1170 -12z m2518 -788 l2 -798 -1008 0
-1008 0 -83 35 c-46 19 -85 36 -87 37 -1 2 2 53 8 113 13 141 4 562 -16 725
-24 197 -83 472 -130 610 -14 41 -26 76 -26 78 0 1 528 1 1173 0 l1172 -3 3
-797z m-2388 667 c54 -169 102 -413 125 -625 42 -407 27 -753 -54 -1199 -12
-63 -21 -118 -21 -123 0 -4 -7 -8 -15 -8 -18 0 -19 -14 6 138 50 312 60 408
66 672 6 284 -6 466 -47 704 -23 135 -70 336 -79 336 -3 0 -6 -242 -6 -538 -1
-441 -4 -568 -19 -712 -20 -202 -34 -478 -24 -488 3 -4 9 -28 13 -53 6 -43 5
-47 -17 -52 -49 -14 -68 -8 -68 17 0 14 -7 55 -15 91 -70 300 -90 860 -45
1260 31 273 126 675 161 675 4 0 22 -43 39 -95z m3203 1 c54 -23 80 -59 85
-119 4 -51 3 -54 -34 -86 -48 -42 -113 -72 -142 -64 -12 3 -20 9 -17 13 3 4
-2 11 -11 14 -10 4 -13 2 -9 -7 4 -6 -1 -3 -9 7 -9 11 -16 26 -16 33 0 7 -4
13 -10 13 -5 0 -10 5 -10 11 0 27 -33 79 -51 79 -27 0 -24 12 15 49 33 32 119
70 159 71 10 0 32 -6 50 -14z m-6349 -6 c27 -10 106 -77 106 -90 0 -5 -8 -6
-18 -3 -14 3 -21 -4 -30 -34 -21 -67 -65 -138 -89 -141 -38 -5 -99 17 -147 53
-43 33 -46 39 -46 81 0 92 51 144 141 144 32 0 69 -4 83 -10z m216 -204 c63
-40 70 -51 35 -60 -14 -4 -25 -11 -25 -16 0 -5 -7 -7 -15 -4 -8 4 -15 12 -15
20 0 8 -6 11 -16 7 -11 -4 -12 -8 -4 -13 9 -5 9 -9 1 -14 -6 -4 -15 -4 -21 -1
-6 4 -10 -7 -10 -26 0 -27 -2 -30 -15 -19 -13 10 -15 9 -15 -11 0 -13 7 -33
15 -43 30 -40 14 -39 -27 1 -24 22 -51 44 -60 49 -15 8 -13 18 25 92 48 95 51
96 147 38z m5927 -41 l42 -80 -22 -18 c-12 -10 -39 -34 -59 -54 -26 -24 -38
-30 -38 -20 0 8 6 17 13 20 23 7 -13 38 -37 31 -19 -5 -19 -5 -5 7 20 16 35
59 21 59 -5 0 -13 10 -17 23 -4 13 -8 17 -12 10 -8 -21 -26 -15 -20 7 5 19 3
19 -30 5 -42 -18 -43 -18 -43 -5 0 15 132 100 150 97 8 -1 34 -38 57 -82z
m-152 -285 c-3 -5 -11 -10 -16 -10 -6 0 -7 5 -4 10 3 6 11 10 16 10 6 0 7 -4
4 -10z m-6021 -15 c17 -18 14 -49 -12 -130 l-16 -50 -6 35 c-5 36 -40 58 -40
26 0 -9 -4 -16 -9 -16 -31 0 -57 -79 -31 -95 17 -10 11 -35 -8 -35 -10 0 -28
7 -40 16 -21 14 -21 16 -6 47 9 18 25 41 35 52 15 17 52 91 72 148 8 21 40 22
61 2z m6346 -17 c32 -79 82 -173 100 -185 25 -17 26 -39 3 -46 -10 -2 -26 -8
-35 -12 -15 -6 -18 -2 -18 21 0 51 -20 101 -45 118 -31 20 -45 13 -45 -22 0
-15 -4 -22 -8 -16 -10 10 -46 144 -41 147 11 8 56 26 65 26 6 1 17 -14 24 -31z
m-6158 -39 c22 -12 23 -35 3 -73 -8 -15 -15 -34 -15 -40 0 -23 -22 -35 -47
-25 -46 17 -86 20 -94 7 -4 -7 -11 -9 -15 -6 -4 4 6 47 22 96 l29 88 50 -19
c27 -10 57 -23 67 -28z m-1847 5 c66 -14 155 -34 198 -45 l78 -21 43 -68 c51
-78 142 -189 200 -243 26 -24 34 -36 21 -32 -11 4 -40 13 -65 21 -66 22 -331
156 -337 171 -3 7 -11 13 -18 13 -6 0 -33 20 -59 45 -26 25 -51 43 -56 40 -6
-4 -13 0 -16 8 -3 9 -16 18 -28 21 -12 3 -48 28 -80 56 -31 27 -61 50 -67 50
-5 0 -9 5 -9 10 0 12 11 11 195 -26z m489 -9 c44 -14 129 -51 190 -82 196 -98
251 -145 312 -262 63 -123 92 -172 121 -203 14 -14 24 -31 22 -36 -5 -11 -120
11 -165 33 -18 8 -35 15 -39 15 -4 0 -39 14 -78 31 -134 59 -242 145 -362 289
-66 80 -177 245 -169 253 7 7 82 -10 168 -38z m7388 -7 c9 -29 19 -68 23 -85
l7 -33 -44 -2 c-56 -2 -61 -2 -74 -11 -14 -8 -79 122 -67 133 10 9 114 49 129
49 6 1 18 -23 26 -51z m1388 42 c0 -13 -34 -73 -88 -153 -119 -178 -295 -332
-460 -401 -70 -30 -217 -68 -244 -64 -19 3 -19 4 -1 23 44 49 138 204 166 276
18 44 77 93 188 157 119 69 231 118 335 146 105 29 104 29 104 16z m428 -68
c-212 -172 -366 -265 -561 -338 l-88 -32 74 77 c90 94 153 177 168 220 7 20
22 37 38 43 86 34 353 96 419 97 33 1 31 -1 -50 -67z m-7730 26 c20 -20 11
-215 -10 -202 -5 3 -9 -25 -9 -63 1 -37 0 -76 0 -85 0 -22 -17 -23 -69 -2 -49
20 -49 24 -14 171 33 142 32 137 55 167 23 29 30 31 47 14z m5728 -57 c27 -55
64 -207 64 -264 0 -15 -76 -57 -105 -57 -21 0 -27 38 -32 218 l-5 174 23 -4
c18 -2 31 -19 55 -67z m265 -106 c8 -16 6 -15 -10 4 -12 13 -21 28 -21 35 0
12 14 -5 31 -39z m-44 9 c-3 -3 -12 -4 -19 -1 -8 3 -5 6 6 6 11 1 17 -2 13 -5z
m-6293 -53 c-15 -23 -29 -39 -32 -36 -3 2 7 23 22 46 15 22 30 39 32 36 3 -3
-7 -24 -22 -46z m6386 -23 c0 -14 -19 1 -31 25 -12 22 -12 22 10 3 11 -11 21
-23 21 -28z m-6841 1 c57 -13 173 -71 238 -120 44 -33 55 -48 68 -91 18 -60
62 -150 113 -226 19 -29 31 -56 28 -60 -4 -3 -11 0 -15 7 -6 9 -20 12 -42 8
-32 -6 -135 14 -125 24 2 2 -7 5 -20 5 -36 3 -118 60 -163 112 -49 60 -140
201 -181 282 -42 84 -34 89 99 59z m7401 -1 c0 -25 -172 -296 -222 -349 -14
-15 -42 -38 -64 -52 -39 -26 -166 -75 -194 -75 -8 0 -39 -3 -69 -7 -61 -9 -61
-9 -6 60 36 45 105 172 105 193 0 7 9 30 20 51 29 58 168 143 289 177 61 16
141 18 141 2z m-6932 -169 c93 -23 282 -106 320 -141 30 -29 28 -42 -5 -33
-23 5 -25 4 -13 -9 11 -14 9 -16 -21 -12 -19 3 -46 9 -61 15 -16 6 -28 7 -28
1 0 -5 9 -12 20 -15 11 -3 20 -11 20 -17 0 -6 -7 -7 -17 -3 -10 4 -31 11 -48
16 l-30 8 35 -29 c39 -34 37 -36 -15 -14 -20 8 -39 13 -42 10 -11 -11 86 -155
140 -208 32 -32 56 -58 52 -58 -25 0 -151 100 -193 153 -80 100 -232 357 -212
357 6 0 51 -10 98 -21z m6432 16 c0 -7 -100 -169 -163 -265 -67 -102 -107
-146 -167 -187 -87 -58 -97 -57 -38 3 48 50 152 203 144 211 -2 2 -22 -4 -46
-12 -50 -18 -50 -18 -50 -6 0 5 9 13 20 16 11 3 20 11 20 16 0 5 -17 2 -37 -6
l-38 -15 25 20 c20 16 21 19 5 14 -11 -4 -26 -12 -33 -17 -7 -5 -15 -7 -18 -4
-3 3 18 21 48 41 29 20 49 36 45 36 -4 0 -18 -7 -30 -14 -12 -8 -40 -22 -62
-31 l-40 -16 25 22 c18 15 20 19 7 15 -71 -23 -85 -16 -44 21 34 30 87 60 168
94 106 44 259 82 259 64z m-7306 -254 c44 -44 78 -83 75 -85 -12 -12 -84 21
-125 57 -44 39 -84 101 -84 132 0 23 36 -5 134 -104z m8191 78 c-10 -45 -40
-91 -75 -118 -31 -22 -110 -55 -117 -47 -5 4 119 142 156 173 35 31 44 29 36
-8z m-7744 -152 c29 -22 129 -142 129 -155 0 -18 -67 12 -104 46 -29 27 -56
79 -56 107 0 18 9 19 31 2z m7195 -29 c-15 -60 -63 -110 -118 -123 -44 -11
-35 10 38 92 66 73 94 84 80 31z m-8335 -9 c85 -16 194 -46 258 -70 111 -41
113 -43 167 -110 29 -37 84 -93 120 -124 l67 -56 -39 7 c-163 30 -447 150
-546 232 -19 16 -27 19 -18 7 13 -17 13 -18 0 -10 -21 12 -234 156 -240 162
-7 7 56 -3 231 -38z m9613 -18 c-178 -117 -235 -151 -322 -195 -96 -48 -255
-104 -366 -129 l-69 -16 64 59 c35 32 87 87 114 123 48 62 53 66 145 100 127
47 183 61 325 87 66 12 127 23 135 24 64 14 58 3 -26 -53z m-554 31 c0 -25
-143 -204 -226 -283 -70 -65 -126 -105 -212 -148 -60 -30 -213 -76 -233 -69
-5 2 11 28 36 58 69 84 130 180 143 227 14 48 51 82 131 122 94 47 212 81 354
100 4 1 7 -2 7 -7z m-8485 -29 c76 -19 187 -67 243 -105 33 -23 51 -46 72 -94
31 -69 86 -153 145 -224 46 -55 36 -60 -66 -30 -162 48 -260 111 -395 252 -73
76 -174 205 -174 223 0 10 100 -3 175 -22z m3949 -110 c4 -16 26 -175 26 -194
0 -4 -15 -12 -32 -20 -96 -37 -235 -161 -288 -254 -15 -27 -40 -85 -55 -127
-15 -43 -32 -78 -36 -78 -11 0 -10 -93 1 -135 4 -16 8 -22 9 -12 1 12 7 17 18
15 11 -2 24 -27 38 -73 54 -174 143 -282 297 -357 48 -24 87 -49 88 -55 0 -17
-5 -16 -71 3 -56 16 -138 61 -176 96 -12 12 -27 17 -34 13 -7 -5 -10 -4 -7 1
3 5 -7 23 -23 39 -16 17 -29 25 -29 18 0 -6 5 -15 10 -18 6 -3 10 -15 10 -25
0 -22 90 -119 144 -154 53 -35 26 -32 -64 7 -88 39 -182 101 -227 150 -54 59
-103 128 -119 165 -22 53 -27 32 -9 -38 58 -223 200 -397 430 -525 115 -64 86
-67 -39 -4 -220 112 -376 298 -447 534 -30 101 -37 303 -15 416 55 269 229
480 493 595 90 39 100 40 107 17z m509 -14 c95 -35 191 -101 282 -193 79 -78
98 -105 143 -196 61 -125 80 -198 89 -342 7 -124 -7 -228 -44 -333 -76 -211
-241 -396 -434 -484 -104 -47 -133 -47 -47 1 211 117 364 279 437 466 54 137
67 375 26 467 -14 31 -19 36 -23 21 -3 -15 -6 -16 -13 -5 -6 9 -9 -1 -10 -31
l-2 -45 -7 50 c-6 44 -7 46 -9 15 -1 -19 -6 -44 -11 -55 l-9 -20 -1 20 c0 11
-9 31 -20 45 -19 24 -19 24 -13 2 4 -17 2 -21 -10 -16 -10 3 -17 -1 -19 -12
-2 -11 -15 10 -31 51 -77 191 -163 289 -329 375 -75 40 -89 55 -68 76 5 5 12
42 14 81 6 104 2 102 109 62z m-3863 -33 c47 -14 119 -38 160 -54 71 -26 77
-31 120 -94 25 -37 77 -102 115 -144 39 -42 71 -81 73 -85 7 -18 -211 -12
-273 8 -54 17 -151 71 -201 112 -68 56 -231 281 -219 301 6 10 118 -12 225
-44z m7314 -12 c-46 -84 -132 -192 -190 -237 -62 -49 -177 -109 -244 -127 -30
-8 -78 -10 -148 -5 l-103 7 45 39 c45 40 156 180 156 197 0 11 39 46 68 62 92
47 417 137 435 120 5 -4 -4 -29 -19 -56z m-6841 -59 c50 -13 209 -89 245 -118
14 -11 16 -31 2 -22 -5 3 -10 2 -10 -4 0 -6 -15 -4 -35 5 -41 17 -87 10 -78
-12 3 -8 2 -14 -3 -13 -21 4 -24 -2 -10 -17 23 -23 19 -40 -4 -19 -11 10 -20
15 -20 12 0 -9 48 -78 76 -110 14 -16 24 -30 22 -33 -11 -10 -308 315 -308
336 0 15 58 12 123 -5z m6287 6 c0 -24 -287 -348 -298 -337 -2 3 7 21 22 40
14 19 26 43 26 53 0 10 9 33 20 51 26 43 25 46 -6 25 -27 -17 -27 -17 -15 6
l12 22 -28 -18 -28 -18 19 29 c14 23 15 28 4 23 -26 -9 -108 -20 -108 -13 0
11 105 74 170 101 90 38 210 58 210 36z m-7155 -344 c87 -82 97 -94 78 -99
-44 -12 -149 65 -199 144 -29 46 -30 48 -1 48 15 0 57 -32 122 -93z m8025 81
c0 -6 -11 -30 -25 -54 -33 -56 -113 -114 -168 -121 -23 -3 -40 -4 -37 -1 3 2
49 46 103 96 90 86 127 109 127 80z m-3881 -115 c69 -50 111 -113 111 -163 0
-32 -15 -23 -30 18 -7 20 -42 67 -78 105 -66 68 -68 88 -3 40z m-3631 -48 c44
-36 83 -69 86 -74 3 -5 -6 -12 -20 -15 -51 -13 -164 77 -164 130 0 13 4 24 9
24 5 0 45 -29 89 -65z m3245 2 c-33 -35 -65 -78 -72 -95 -14 -34 -31 -43 -31
-16 0 29 69 132 103 153 60 38 60 21 0 -42z m3727 43 c0 -32 -19 -63 -58 -93
-36 -27 -107 -55 -117 -45 -10 9 146 158 165 158 5 0 10 -9 10 -20z m-3425
-20 c72 -44 115 -110 115 -175 0 -78 -72 -179 -137 -191 -37 -7 -56 2 -33 15
43 25 108 76 104 83 -3 5 -1 8 4 8 8 0 32 43 32 57 0 4 -24 -17 -52 -46 -61
-61 -81 -71 -149 -71 -60 0 -83 11 -127 59 l-33 36 15 -31 c9 -18 30 -44 48
-59 18 -16 32 -32 31 -37 -2 -4 6 -8 18 -8 11 0 18 -4 14 -9 -3 -6 -17 -6 -35
1 -17 5 -27 14 -24 19 5 8 -10 13 -29 10 -5 -1 -6 3 -3 8 3 5 -1 14 -9 21 -13
11 -15 10 -9 -6 9 -29 -45 35 -62 73 -45 103 34 232 161 264 43 11 125 0 160
-21z m-4595 -74 c188 -24 316 -53 490 -113 124 -42 171 -62 187 -82 48 -57 73
-89 73 -95 0 -11 -127 -6 -211 9 -155 27 -285 77 -525 201 -79 40 -150 74
-158 74 -8 0 -18 5 -21 10 -8 14 30 13 165 -4z m9135 4 c-3 -5 -12 -10 -20
-10 -7 0 -96 -41 -197 -91 -216 -108 -357 -161 -488 -182 -79 -14 -177 -21
-214 -18 -4 1 7 19 25 40 19 21 41 50 50 63 10 13 32 29 50 35 19 6 84 29 145
51 144 52 257 78 429 101 165 22 229 25 220 11z m-8165 -86 c77 -25 89 -33
145 -92 33 -35 81 -80 108 -100 26 -20 47 -41 47 -48 0 -17 -49 -24 -170 -24
l-108 0 -60 40 c-34 23 -83 61 -110 85 -58 52 -127 148 -119 167 8 21 165 4
267 -28z m7300 29 c0 -47 -155 -208 -260 -272 -38 -23 -124 -28 -263 -14 l-67
6 42 36 c24 20 70 65 103 99 35 37 83 76 116 92 64 33 186 60 307 68 15 1 22
-4 22 -15z m-3214 -39 c11 -61 -2 -205 -26 -274 -43 -129 -144 -240 -276 -304
-79 -39 -104 -44 -104 -21 0 8 5 15 11 15 6 0 43 19 82 41 137 79 242 217 268
354 7 33 16 64 20 70 21 22 2 26 -113 24 l-123 -1 -3 35 c-3 31 0 37 20 42 13
3 34 4 48 3 14 -1 58 -1 98 0 70 2 72 3 72 27 0 38 18 30 26 -11z m-3606 1
c69 -16 190 -63 190 -74 0 -3 -38 -4 -85 -2 -61 2 -90 -1 -102 -10 -12 -10
-15 -10 -9 -1 4 8 1 12 -9 12 -11 0 -15 -5 -11 -15 7 -19 -1 -19 -39 1 l-30
15 21 -23 c11 -13 33 -36 47 -53 15 -16 27 -34 27 -39 0 -5 7 -18 17 -28 9
-10 11 -18 6 -18 -20 0 -131 80 -202 146 -66 61 -82 89 -63 108 10 11 164 -1
242 -19z m6298 19 c12 -4 22 -11 22 -18 -1 -20 -52 -72 -159 -160 -108 -90
-146 -109 -114 -58 24 38 95 125 110 135 7 4 13 12 13 18 0 5 -10 1 -21 -10
-26 -24 -88 -48 -70 -27 11 13 5 26 -11 26 -5 0 -7 -4 -4 -9 3 -5 -11 -11 -32
-15 -20 -3 -48 -8 -62 -11 -14 -3 0 4 30 15 l55 20 -88 -6 c-103 -6 -107 4
-18 43 100 45 282 74 349 57z m-3650 -44 l82 0 0 -29 c0 -17 -4 -32 -8 -35 -4
-2 -66 -6 -137 -7 l-130 -2 -3 27 c-6 52 3 59 61 52 28 -3 89 -6 135 -6z m676
-193 c-36 -109 -160 -191 -289 -192 -105 0 -223 75 -266 169 -26 58 -24 92 3
41 38 -74 77 -113 143 -146 59 -29 71 -31 138 -27 56 4 86 12 126 33 63 35 92
67 128 145 32 69 43 54 17 -23z m-4394 -122 c212 -13 516 -36 1300 -95 146
-11 414 -29 595 -40 182 -12 336 -23 343 -25 35 -12 93 -223 66 -237 -19 -9
-278 18 -282 31 -3 8 -8 9 -17 1 -13 -11 -111 -2 -485 45 -107 13 -274 31
-370 40 -96 9 -224 22 -285 30 -115 15 -273 32 -585 65 -102 11 -225 24 -275
30 -49 5 -130 14 -180 19 -246 26 -401 43 -510 56 -115 14 -223 20 -214 11 2
-2 87 -16 189 -30 181 -25 302 -39 800 -91 135 -14 313 -34 395 -45 83 -10
202 -24 265 -30 63 -6 142 -15 175 -20 33 -5 124 -14 203 -21 78 -7 142 -16
142 -19 0 -4 -6 -13 -14 -19 -11 -9 -46 -8 -147 3 -74 9 -262 29 -419 46 -157
17 -418 46 -580 65 -162 19 -340 39 -395 45 -140 16 -798 110 -803 115 -3 3 1
11 7 19 21 25 121 58 201 66 104 12 597 3 880 -15z m9165 5 c60 -12 145 -53
145 -70 0 -5 -21 -11 -47 -15 -27 -3 -124 -17 -218 -30 -168 -25 -359 -49
-630 -79 -77 -9 -216 -25 -310 -36 -637 -76 -1195 -135 -1195 -126 0 2 -2 11
-6 19 -4 11 11 15 73 20 114 9 495 50 833 91 162 19 383 45 490 56 501 54 737
82 765 90 35 11 -119 5 -250 -10 -104 -12 -163 -18 -277 -30 -139 -14 -253
-27 -688 -76 -217 -24 -505 -55 -640 -69 -135 -14 -303 -32 -375 -41 -71 -8
-184 -22 -250 -29 -66 -8 -137 -16 -157 -19 -28 -3 -38 0 -38 10 0 8 -5 14
-11 14 -6 0 -9 -7 -6 -15 4 -10 -3 -16 -26 -20 -18 -4 -37 -5 -42 -4 -6 1 -27
-1 -48 -5 -24 -6 -42 -4 -51 3 -10 9 -15 9 -18 1 -2 -7 -58 -16 -135 -23 -72
-7 -135 -15 -138 -19 -16 -16 9 -30 44 -24 20 3 97 13 171 21 74 8 171 19 215
25 309 38 401 47 409 39 6 -6 6 -12 0 -17 -10 -10 -744 -93 -811 -92 l-43 0 0
68 c0 69 28 169 59 210 17 24 -2 22 1026 92 160 11 434 31 610 45 278 21 654
47 865 59 141 8 647 -2 705 -14z m-5899 -152 c-3 -46 -6 -138 -6 -205 l0 -123
-104 0 c-57 0 -123 3 -148 6 l-45 6 -6 107 c-3 58 -9 116 -13 129 -6 21 -4 22
58 22 52 0 71 -4 93 -22 18 -14 30 -18 32 -11 15 43 117 173 136 173 5 0 7
-36 3 -82z m1724 50 c16 -18 46 -62 66 -96 36 -61 38 -63 53 -44 19 24 40 30
111 33 49 2 55 1 53 -17 -2 -10 -7 -67 -11 -126 -5 -60 -11 -111 -14 -114 -3
-3 -69 -7 -147 -10 -130 -4 -141 -3 -141 13 0 10 -2 102 -5 206 -2 103 -2 187
0 187 3 0 19 -15 35 -32z m-5905 -52 c28 -8 43 -15 35 -15 -8 0 -37 6 -65 13
-27 8 -43 15 -35 15 8 0 38 -6 65 -13z m10122 8 c-3 -3 -12 -4 -19 -1 -8 3 -5
6 6 6 11 1 17 -2 13 -5z m-5118 -33 l35 -29 7 -248 c4 -137 8 -589 9 -1004 0
-451 4 -749 10 -740 15 26 79 358 94 490 45 388 28 725 -63 1295 -16 99 -27
182 -25 184 12 13 57 -181 98 -424 84 -503 71 -1008 -39 -1484 -49 -215 -88
-307 -118 -282 -37 30 -123 351 -157 581 -44 301 -50 676 -16 940 21 165 119
750 125 750 3 0 21 -13 40 -29z m5078 23 c-3 -3 -12 -4 -19 -1 -8 3 -5 6 6 6
11 1 17 -2 13 -5z m-6632 -24 c326 -20 335 -22 357 -50 21 -29 35 -137 24
-193 -6 -33 -10 -36 -39 -35 -53 1 -77 8 -74 20 1 7 -9 14 -23 16 -24 3 -24 3
-5 -12 19 -14 17 -14 -29 -11 -27 1 -52 8 -56 15 -5 9 -9 9 -14 1 -4 -6 -17
-9 -29 -6 -12 2 -79 9 -149 16 -123 11 -128 13 -128 34 0 19 -25 111 -57 209
-5 14 -2 17 13 13 10 -3 105 -11 209 -17z m3342 -66 c-15 -48 -32 -105 -35
-128 l-8 -41 -119 -7 c-135 -8 -346 -27 -387 -35 l-28 -5 0 88 c0 65 5 100 19
130 l18 41 194 13 c107 7 228 16 269 20 41 4 82 8 91 9 13 1 10 -13 -14 -85z
m3246 79 c-7 -2 -19 -2 -25 0 -7 3 -2 5 12 5 14 0 19 -2 13 -5z m-9956 -9 c-3
-3 -12 -4 -19 -1 -8 3 -5 6 6 6 11 1 17 -2 13 -5z m9910 0 c-3 -3 -12 -4 -19
-1 -8 3 -5 6 6 6 11 1 17 -2 13 -5z m-9850 -10 c-3 -3 -12 -4 -19 -1 -8 3 -5
6 6 6 11 1 17 -2 13 -5z m4113 -128 c84 -189 187 -327 343 -459 38 -32 92 -72
120 -90 71 -43 41 -46 -48 -4 -235 112 -380 283 -441 522 -23 89 -30 134 -18
122 4 -3 23 -44 44 -91z m1582 46 c-9 -126 -91 -302 -194 -412 -71 -76 -217
-172 -312 -206 -50 -18 -58 -11 -14 11 102 52 273 209 354 325 47 68 112 195
140 277 21 58 29 60 26 5z m-3247 -102 c99 -11 214 -25 255 -30 41 -5 120 -14
175 -20 55 -6 111 -14 125 -17 24 -5 24 -6 5 -13 -11 -4 -122 3 -245 15 -124
13 -274 28 -335 34 -173 17 -243 31 -249 48 -5 12 2 14 41 9 27 -3 129 -15
228 -26z m5191 8 c4 -6 13 -35 20 -62 6 -28 15 -58 18 -67 6 -13 -2 -19 -31
-26 l-39 -10 -13 80 c-10 66 -10 82 1 88 19 12 36 11 44 -3z m-6283 -5 c-7 -2
-21 -2 -30 0 -10 3 -4 5 12 5 17 0 24 -2 18 -5z m765 -58 c-6 -72 -19 -95 -54
-95 -31 0 -34 8 -23 65 20 100 17 95 51 95 l31 0 -5 -65z m-695 48 c-7 -2 -19
-2 -25 0 -7 3 -2 5 12 5 14 0 19 -2 13 -5z m6910 0 c-7 -2 -21 -2 -30 0 -10 3
-4 5 12 5 17 0 24 -2 18 -5z m-6698 -17 c66 -8 176 -20 245 -27 69 -7 118 -15
108 -17 -19 -4 -530 47 -537 54 -8 8 65 4 184 -10z m6505 -7 c-25 -4 -58 -7
-75 -7 -25 1 -24 2 10 8 22 4 56 7 75 7 31 0 30 0 -10 -8z m-169 -19 c-30 -5
-91 -11 -135 -13 l-81 -6 85 13 c47 7 108 13 135 13 l50 1 -54 -8z m-4891 -25
c0 -8 -9 -15 -20 -15 -20 0 -26 11 -13 23 12 13 33 7 33 -8z m306 -15 c103
-11 190 -22 192 -25 10 -10 -22 -35 -37 -30 -17 5 -52 9 -191 19 -205 16 -210
17 -210 37 0 24 9 24 246 -1z m3219 -12 c-4 -18 -9 -34 -10 -36 -6 -6 -125 -5
-131 1 -4 3 9 10 27 16 28 8 21 9 -36 5 -38 -3 -104 -9 -145 -14 -41 -5 -110
-12 -153 -16 -74 -6 -79 -5 -75 12 2 14 13 20 43 21 42 3 336 32 370 37 11 2
42 4 68 5 l49 1 -7 -32z m912 16 c-3 -3 -12 -4 -19 -1 -8 3 -5 6 6 6 11 1 17
-2 13 -5z m-5052 -25 c110 -11 146 -19 86 -19 -50 0 -315 31 -321 37 -5 6 37
3 235 -18z m4998 14 c-13 -2 -33 -2 -45 0 -13 2 -3 4 22 4 25 0 35 -2 23 -4z
m-74 -7 c-7 -7 -297 -38 -310 -34 -7 2 43 11 112 20 126 16 206 21 198 14z
m-3751 -15 c10 -6 9 -10 -7 -14 -14 -3 -21 0 -21 9 0 16 9 18 28 5z m42 -15
c0 -8 -4 -18 -10 -21 -5 -3 -10 3 -10 14 0 12 5 21 10 21 6 0 10 -6 10 -14z
m130 0 c141 -13 181 -19 186 -27 6 -11 -37 -11 -168 -2 -88 5 -98 8 -98 25 0
11 3 17 8 15 4 -3 36 -8 72 -11z m-1142 -3 c-10 -2 -28 -2 -40 0 -13 2 -5 4
17 4 22 1 32 -1 23 -4z m3362 -12 c0 -11 -4 -23 -10 -26 -5 -3 -10 -1 -10 4 0
8 -42 9 -132 5 -95 -5 -130 -3 -123 4 10 10 142 28 233 31 35 1 42 -2 42 -18z
m1003 2 c-7 -2 -19 -2 -25 0 -7 3 -2 5 12 5 14 0 19 -2 13 -5z m-4908 -24 c3
-4 -7 -4 -22 -1 l-27 5 34 -42 c99 -121 120 -173 101 -255 -14 -60 -90 -161
-107 -143 -2 2 8 20 22 40 35 52 54 111 54 169 0 43 -5 55 -33 83 -34 34 -115
65 -168 65 -17 0 -42 -12 -63 -30 -63 -56 -73 -179 -22 -280 27 -53 22 -64
-11 -27 -82 89 -76 266 11 325 20 14 36 34 39 51 5 23 13 31 44 38 42 10 138
11 148 2z m5645 -19 c11 -11 20 -28 20 -38 0 -10 12 -22 29 -29 76 -28 115
-172 72 -268 -42 -95 -83 -117 -45 -25 57 141 11 279 -101 304 -37 8 -139 -25
-172 -56 -61 -57 -47 -168 34 -276 14 -18 23 -36 20 -38 -11 -11 -77 60 -101
108 -44 87 -30 174 42 267 16 20 32 44 35 54 10 27 139 25 167 -3z m-5701
-124 c14 -8 19 -16 13 -20 -15 -9 -65 12 -57 24 8 13 15 12 44 -4z m5629 3
c-2 -7 -19 -13 -38 -15 -33 -3 -34 -3 -16 11 23 18 59 20 54 4z m-3454 -39
l26 -40 -51 -102 -52 -102 29 -23 c36 -29 27 -29 -66 2 -49 15 -74 28 -72 37
4 17 151 268 157 268 1 0 14 -18 29 -40z m1380 -85 c42 -69 79 -131 82 -139 3
-9 -19 -23 -72 -45 -84 -34 -104 -33 -60 2 l28 23 -51 101 c-52 103 -58 119
-41 108 6 -3 10 3 10 15 0 16 19 60 26 60 1 0 36 -56 78 -125z m2087 68 c10
-26 28 -226 29 -310 0 -133 -80 80 -96 251 -6 67 -5 74 12 79 37 9 45 7 55
-20z m-5628 10 c13 -26 -51 -353 -74 -377 -14 -16 -16 126 -3 302 l6 82 33 0
c19 0 36 -3 38 -7z m-478 -104 c166 -18 209 -29 192 -45 -5 -5 -296 28 -369
42 -28 6 -39 24 -15 24 6 0 93 -9 192 -21z m6755 11 c0 -5 -2 -10 -5 -10 -3 0
-69 -9 -148 -19 -223 -31 -267 -34 -267 -22 0 13 14 16 165 35 66 9 131 17
145 19 52 8 110 7 110 -3z m-5988 -30 c40 -5 116 -14 168 -20 154 -17 1028
-132 1268 -166 62 -9 115 -21 118 -25 3 -5 -3 -9 -13 -9 -37 0 -463 52 -743
90 -157 21 -364 48 -460 60 -291 35 -454 60 -464 70 -13 13 31 13 126 0z
m5098 0 c0 -5 -5 -10 -11 -10 -6 0 -57 -7 -113 -15 -150 -21 -435 -60 -656
-90 -107 -14 -274 -37 -370 -50 -364 -51 -490 -61 -468 -40 6 6 598 90 1103
155 215 28 395 52 400 55 22 8 115 4 115 -5z m-1667 -302 c112 -200 225 -428
212 -428 -2 0 -26 38 -54 84 -54 89 -90 131 -77 88 8 -25 62 -123 128 -235 23
-37 38 -71 34 -75 -4 -3 -10 -2 -14 4 -4 5 -37 53 -73 104 -70 99 -286 446
-321 513 -10 21 -17 41 -14 45 9 9 80 51 87 52 4 0 45 -69 92 -152z m-1692
122 c36 -19 38 -23 28 -43 -26 -49 -176 -297 -228 -377 -31 -47 -58 -89 -60
-95 -10 -25 -123 -186 -128 -182 -5 6 10 37 96 197 34 63 60 119 58 125 -2 5
-30 -29 -61 -78 -90 -136 -86 -120 27 103 101 199 200 370 215 370 7 0 31 -9
53 -20z m-1886 -5 c66 -8 174 -21 240 -29 66 -9 176 -22 245 -31 69 -9 235
-31 370 -50 135 -19 313 -44 395 -55 156 -21 283 -44 293 -54 8 -9 -22 -7
-158 9 -69 8 -186 22 -260 30 -74 9 -214 27 -310 40 -96 13 -339 45 -540 70
-424 54 -420 53 -420 71 0 17 -3 17 145 -1z m5405 -4 c0 -14 -102 -29 -730
-111 -168 -21 -375 -48 -460 -60 -297 -40 -449 -55 -438 -45 17 17 536 96
1158 176 135 17 268 35 295 39 72 11 175 12 175 1z m-3115 -51 c24 -6 15 -8
-39 -9 l-68 -1 -217 -218 c-119 -119 -240 -243 -270 -275 -29 -32 -55 -56 -57
-54 -10 10 153 194 331 374 l201 202 44 -6 c25 -3 59 -9 75 -13z m1046 -173
c178 -174 289 -295 289 -315 0 -5 -111 102 -247 237 l-248 245 -70 -2 c-38 -1
-65 1 -59 3 14 7 94 23 119 24 13 0 89 -67 216 -192z m-3345 53 c11 0 14 -16
14 -71 l0 -71 -34 29 c-29 23 -35 35 -35 69 -1 45 6 57 27 49 7 -3 20 -5 28
-5z m5368 -2 c15 -47 14 -79 0 -90 -9 -7 -27 -24 -40 -37 l-24 -24 0 66 c0 57
3 68 22 81 27 19 37 20 42 4z m-4943 -116 c46 -48 118 -116 159 -151 41 -35
79 -70 83 -78 8 -14 0 -93 -10 -93 -25 0 -212 156 -353 296 l-115 114 75 0 75
0 86 -88z m4683 66 c-71 -80 -232 -224 -354 -318 l-95 -72 -3 58 -3 59 63 55
c35 30 101 91 148 136 47 45 94 86 105 92 11 6 51 12 89 12 l69 0 -19 -22z
m-4478 -18 l34 0 0 -50 0 -50 -60 46 c-75 57 -83 69 -40 61 18 -4 48 -7 66 -7z
m4144 0 c0 -5 -4 -10 -9 -10 -5 0 -32 -21 -61 -46 l-51 -47 3 49 3 49 50 6
c28 3 53 7 58 7 4 1 7 -2 7 -8z m-3960 -455 c0 -239 -2 -435 -5 -435 -11 0
-61 26 -67 35 -4 5 -8 196 -8 423 l0 412 40 0 40 0 0 -435z m3768 12 l2 -417
-26 -10 c-57 -22 -54 -46 -54 413 0 233 3 427 7 431 4 4 21 6 38 4 l30 -3 3
-418z m-4722 388 c45 -18 166 -112 364 -280 85 -72 210 -175 278 -229 135
-107 162 -131 162 -146 0 -19 -345 216 -449 305 -251 217 -346 292 -385 305
-68 22 -146 -40 -146 -116 0 -18 12 -56 28 -85 49 -94 177 -177 648 -423 328
-171 689 -323 876 -370 57 -13 131 87 153 208 9 47 10 47 195 -40 299 -139
581 -225 890 -269 66 -10 133 -26 156 -38 l42 -20 27 21 c15 12 39 22 54 22
94 0 496 88 656 143 102 36 253 97 393 161 68 31 128 56 133 56 5 0 9 -13 9
-30 0 -47 40 -142 76 -177 39 -40 65 -42 165 -9 150 49 449 176 624 265 493
250 681 361 768 456 34 38 67 104 67 136 0 64 -80 128 -143 115 -26 -5 -130
-81 -192 -139 -29 -28 -243 -207 -290 -243 -22 -17 -111 -79 -197 -136 -118
-79 -158 -101 -158 -88 0 15 87 90 315 270 17 14 71 59 121 101 160 136 304
249 344 269 73 37 149 22 217 -43 100 -96 86 -215 -38 -333 -143 -135 -413
-284 -1021 -563 -365 -167 -756 -292 -1129 -361 -478 -88 -907 -100 -1359 -40
-612 83 -1099 243 -1800 595 -102 51 -196 96 -210 100 -46 14 -304 173 -372
229 -149 125 -176 244 -81 355 62 72 137 96 209 66z m1444 -100 c30 -29 37
-53 21 -70 -10 -11 -38 -96 -44 -135 -2 -14 -5 5 -6 42 0 37 -4 69 -9 72 -4 2
-6 -14 -4 -36 5 -48 -12 -45 -28 5 l-10 32 5 -35 c2 -19 -1 -57 -9 -85 l-13
-50 -1 95 c0 62 3 97 11 102 7 5 4 8 -10 8 -29 0 -40 -22 -57 -117 -15 -81
-20 -56 -7 34 4 29 4 50 -1 47 -4 -3 -8 -15 -8 -27 0 -12 -14 -75 -30 -141
-17 -65 -30 -133 -30 -151 0 -18 -3 -48 -7 -66 l-7 -34 -6 30 c-4 19 -9 -10
-14 -80 -4 -60 -8 -121 -10 -135 -2 -25 -2 -25 -16 5 -19 43 -20 478 -1 555
32 128 83 173 193 168 58 -3 71 -7 98 -33z m158 -82 c-5 -116 -20 -177 -42
-170 -14 5 -24 80 -25 195 l-1 92 36 0 36 0 -4 -117z m2472 33 c0 -102 -10
-206 -20 -206 -26 0 -66 246 -46 279 4 6 20 11 37 11 l29 0 0 -84z m291 62
c86 -48 116 -191 106 -498 -3 -96 -10 -188 -15 -205 -8 -27 -9 -24 -15 34 -4
35 -7 94 -7 130 0 87 -10 147 -21 129 -5 -7 -9 -29 -9 -47 0 -63 -18 -19 -29
74 -24 188 -50 283 -82 303 -25 16 -49 -4 -49 -41 0 -14 -7 -30 -15 -37 -9 -8
-15 -29 -15 -56 0 -23 -4 -46 -10 -49 -6 -4 -10 7 -10 25 0 46 -30 140 -46
147 -32 12 3 84 50 103 42 17 126 11 167 -12z m-811 -56 c0 -4 -6 -14 -12 -21
-19 -19 42 -69 260 -213 169 -113 200 -138 170 -138 -30 0 -350 217 -421 286
l-39 37 -36 -21 c-50 -27 -199 -79 -297 -103 -89 -21 -105 -23 -105 -11 0 5
37 19 83 32 100 29 222 77 314 124 72 37 83 41 83 28z m-1368 -55 c62 -30 133
-61 158 -69 71 -25 151 -48 166 -48 7 0 16 -5 20 -11 21 -35 -211 29 -340 92
-44 21 -82 39 -85 39 -4 0 -33 -25 -66 -56 -56 -53 -308 -227 -368 -255 -31
-14 -51 -2 -24 15 10 6 89 58 175 114 174 115 255 186 246 214 -3 10 -3 18 0
18 2 0 55 -24 118 -53z m-2052 -72 c69 -45 181 -121 249 -169 124 -87 391
-294 391 -303 0 -3 -21 8 -47 23 -115 68 -198 114 -206 114 -4 0 -5 5 -1 12 5
7 3 8 -5 3 -12 -7 -101 48 -109 67 -2 4 -10 8 -18 8 -9 0 -12 4 -9 10 3 5 0 8
-7 5 -16 -5 -50 22 -67 53 -7 12 -16 20 -22 17 -5 -4 -9 -1 -9 4 0 6 -7 11
-16 11 -8 0 -12 5 -9 10 3 6 -3 10 -13 10 -11 0 -25 7 -32 15 -7 8 -9 15 -5
15 4 0 -21 21 -55 47 -66 49 -176 150 -150 137 8 -4 71 -44 140 -89z m5455 63
c-8 -13 -42 -45 -77 -73 -34 -27 -89 -76 -122 -108 -62 -58 -227 -175 -281
-198 -16 -7 -66 -35 -109 -62 -111 -69 -170 -101 -162 -89 14 23 218 184 351
277 121 86 405 274 413 275 1 0 -4 -10 -13 -22z m-1336 -59 c1 8 3 12 6 9 3
-3 2 -13 -1 -22 -5 -14 -9 -15 -15 -4 -5 7 -8 20 -8 28 0 10 3 8 9 -5 5 -12 9
-14 9 -6z m-100 -303 c1 -93 -2 -166 -6 -162 -11 11 -22 319 -15 386 l7 55 6
-55 c4 -30 7 -131 8 -224z m-2673 72 c-5 -106 -12 -215 -16 -243 -7 -46 -7
-43 -9 35 -2 151 12 400 22 400 7 0 7 -66 3 -192z m2781 170 c-3 -8 -6 -5 -6
6 -1 11 2 17 5 13 3 -3 4 -12 1 -19z m-2017 -36 c63 -22 156 -47 207 -57 l92
-18 6 -46 c4 -25 9 -54 12 -63 2 -11 -1 -18 -9 -18 -21 0 -175 38 -268 66 -91
27 -270 102 -270 113 0 3 17 21 37 39 44 37 39 38 193 -16z m1321 16 c21 -17
39 -34 39 -38 0 -20 -231 -105 -408 -151 -156 -40 -156 -40 -148 17 3 26 6 54
6 64 0 13 16 20 73 30 83 14 239 58 312 88 69 27 80 27 126 -10z m-2294 -70
c-2 -13 -4 -3 -4 22 0 25 2 35 4 23 2 -13 2 -33 0 -45z m333 -55 c0 -42 -18
-84 -37 -91 -17 -5 -18 99 -1 116 23 23 38 13 38 -25z m2454 21 c10 -27 7
-102 -6 -110 -6 -4 -17 1 -24 10 -15 22 -28 91 -19 106 10 16 42 12 49 -6z
m-4688 -89 c-13 -36 -14 -55 -6 -84 10 -36 61 -105 110 -147 14 -12 39 -34 55
-48 17 -15 55 -45 85 -68 75 -57 79 -62 50 -53 -84 25 -235 113 -291 169 -101
99 -106 166 -21 258 14 15 27 26 29 24 3 -2 -3 -25 -11 -51z m6934 -49 c38
-102 -39 -198 -226 -280 -57 -25 -111 -46 -120 -46 -9 0 13 19 49 43 88 59
169 131 206 182 33 46 40 84 27 154 l-8 44 30 -35 c17 -19 36 -47 42 -62z
m-6696 25 c-5 -21 0 -34 17 -50 12 -11 18 -21 11 -21 -26 0 -55 74 -35 93 11
12 13 8 7 -22z m6308 -6 c2 -19 3 -35 1 -35 -9 0 -22 41 -17 54 9 23 11 20 16
-19z m88 -33 c0 -5 -12 -14 -27 -21 l-28 -12 25 21 c29 22 30 23 30 12z m-500
-82 c-50 -60 -99 -101 -200 -167 -153 -101 -180 -103 -75 -4 94 87 277 218
308 220 5 1 -10 -22 -33 -49z m-5341 -20 c80 -54 255 -198 273 -224 17 -25 -8
-14 -119 52 -74 44 -137 90 -168 124 -123 130 -120 138 14 48z m3921 36 c0
-11 -19 -15 -25 -6 -3 5 1 10 9 10 9 0 16 -2 16 -4z m-4847 -43 c7 -16 28 -53
46 -83 l32 -55 -30 35 c-36 41 -39 30 -11 -41 12 -28 19 -54 16 -56 -2 -2 -23
22 -46 54 -40 55 -42 56 -36 25 3 -19 13 -49 22 -67 24 -52 12 -63 -19 -16
-38 57 -51 51 -27 -11 11 -29 20 -55 20 -58 0 -3 -18 15 -40 40 -39 44 -40 44
-34 15 4 -16 13 -45 20 -64 22 -53 8 -48 -28 10 -38 63 -49 48 -23 -32 9 -28
15 -52 13 -54 -2 -3 -22 22 -43 55 -21 33 -40 58 -41 57 -2 -2 5 -36 16 -76
10 -41 15 -70 11 -65 -4 5 -20 26 -35 47 -15 21 -30 37 -32 35 -2 -2 3 -30 10
-61 7 -31 10 -57 7 -57 -4 0 -17 20 -31 45 -14 25 -28 45 -32 45 -11 0 -10 -9
8 -69 8 -29 13 -55 10 -58 -2 -3 -17 14 -32 36 -14 23 -30 41 -34 41 -4 0 -3
-23 2 -51 5 -28 7 -53 5 -55 -3 -3 -14 10 -25 27 l-20 32 -11 -54 c-19 -89 4
-145 93 -233 246 -241 919 -741 1331 -989 621 -374 1258 -587 2015 -674 242
-28 839 -25 1088 5 418 51 816 148 1203 292 282 105 485 203 742 358 206 125
219 134 504 336 518 368 877 668 924 771 21 46 25 140 7 152 -22 13 -39 12
-45 -3 -11 -28 -20 -3 -13 36 9 50 -2 51 -35 3 -29 -43 -31 -37 -10 30 8 26
12 47 9 47 -3 0 -19 -14 -35 -31 -36 -39 -44 -34 -24 14 25 59 17 65 -25 19
-22 -24 -40 -41 -40 -39 0 2 9 22 20 45 11 22 20 46 20 52 0 22 -21 8 -45 -30
-14 -22 -27 -40 -29 -40 -1 0 3 25 11 56 8 31 11 59 7 62 -4 4 -9 2 -11 -5 -7
-19 -45 -64 -50 -59 -2 2 5 22 16 45 24 46 25 51 11 51 -5 0 -19 -17 -30 -37
-21 -37 -21 -37 -16 -8 2 17 8 39 12 49 14 36 -17 6 -33 -31 -8 -19 -17 -32
-20 -29 -3 3 2 23 11 45 10 21 16 47 14 57 -2 14 -11 6 -32 -31 -35 -60 -46
-43 -17 25 29 68 26 85 -6 28 -46 -83 -69 -60 -26 25 22 45 10 53 -17 11 -14
-20 -36 -44 -50 -53 -17 -11 -8 5 29 54 30 38 58 82 63 98 6 15 16 27 23 25
18 -4 184 -157 308 -283 65 -66 106 -117 124 -154 31 -66 41 -161 23 -217 -11
-35 -60 -105 -101 -144 -229 -219 -454 -401 -784 -637 -276 -197 -363 -254
-525 -348 -662 -383 -1342 -606 -2110 -692 -225 -25 -811 -25 -1040 0 -430 48
-893 154 -1235 285 -27 11 -86 33 -130 50 -214 81 -459 196 -608 284 -26 15
-50 28 -52 28 -8 0 -322 194 -425 263 -319 214 -811 603 -976 773 -83 85 -109
139 -109 229 0 104 33 164 159 290 85 85 304 285 312 285 1 0 9 -12 17 -27z
m6374 -17 c-27 -40 -118 -129 -177 -172 -74 -54 -190 -126 -190 -118 0 16 135
165 182 202 61 47 190 124 196 117 3 -2 -3 -15 -11 -29z m-5556 -21 c101 -58
154 -101 244 -201 47 -52 85 -96 85 -98 0 -3 -26 12 -57 33 -32 21 -84 55
-115 75 -76 50 -256 226 -231 226 6 0 39 -16 74 -35z m19 -103 c62 -45 101
-86 116 -121 19 -45 18 -46 -15 -22 -49 35 -42 24 33 -50 39 -39 55 -60 36
-46 -19 14 -61 39 -93 55 l-57 30 31 -35 c16 -19 28 -37 26 -40 -5 -4 -79 31
-107 51 -9 6 3 -7 26 -29 23 -22 57 -60 75 -85 l34 -45 -48 35 c-27 19 -51 38
-53 42 -3 5 -10 8 -15 8 -6 0 -8 -4 -5 -9 4 -5 -4 -7 -16 -4 -23 6 -23 6 2
-22 l25 -28 -30 7 c-41 10 -117 68 -148 114 -15 21 -27 41 -27 45 0 9 47 -12
85 -37 23 -16 18 -6 -22 39 -29 32 -51 61 -48 63 2 2 34 -14 70 -37 36 -23 65
-39 65 -37 0 5 -128 107 -155 123 -11 7 -15 12 -10 13 6 0 43 -18 84 -41 40
-22 75 -38 77 -37 1 2 -24 32 -57 67 -33 35 -58 65 -56 68 3 2 26 -12 52 -32
26 -20 44 -32 40 -26 -8 14 -2 14 30 -1 40 -18 42 -1 4 38 -29 32 -31 35 -9
24 14 -7 41 -25 60 -38z m5643 19 c-13 -8 -123 -139 -123 -146 0 -3 17 6 37
20 21 14 46 25 57 25 10 0 34 12 53 26 49 37 52 23 7 -24 -22 -22 -55 -60 -74
-84 -37 -48 -66 -69 -172 -130 -80 -45 -90 -47 -56 -10 13 15 40 49 59 77 19
27 45 60 59 73 l25 23 -32 -22 c-18 -13 -33 -25 -33 -29 0 -6 -54 -40 -64 -40
-4 0 2 10 14 22 35 38 22 38 -46 2 -37 -19 -68 -33 -71 -30 -2 2 15 19 39 37
44 34 125 120 98 104 -24 -14 -94 -69 -102 -80 -5 -6 -8 -6 -8 1 0 31 87 124
158 169 48 29 66 27 37 -5 -10 -11 -13 -20 -8 -20 6 0 18 11 27 25 30 45 38
26 10 -22 l-28 -48 65 52 c35 28 68 49 73 46 4 -3 4 -8 -1 -12z m28 -190 c-59
-74 -155 -148 -182 -139 -11 4 52 73 106 118 83 69 122 80 76 21z m-5903 -33
c74 -41 120 -76 199 -152 57 -54 103 -102 103 -107 0 -9 -119 57 -199 110 -59
39 -211 177 -211 192 0 14 5 12 108 -43z m5972 -30 c-41 -39 -100 -87 -130
-106 -30 -19 -90 -57 -133 -85 -43 -27 -81 -47 -84 -43 -8 8 120 130 203 196
55 43 179 109 204 109 8 0 -19 -32 -60 -71z m-470 -8 c0 -5 -5 -10 -11 -10 -5
0 -7 5 -4 10 3 6 8 10 11 10 2 0 4 -4 4 -10z m-5512 -77 c30 -21 72 -54 91
-73 73 -71 164 -171 160 -175 -5 -5 -182 100 -235 139 -44 33 -174 166 -174
178 0 14 100 -29 158 -69z m6122 68 c0 -15 -133 -135 -195 -175 -33 -21 -80
-52 -105 -69 -25 -17 -64 -44 -88 -60 -24 -16 -45 -27 -47 -25 -8 8 152 173
210 218 50 38 194 118 218 119 4 1 7 -3 7 -8z m-6321 -111 c21 -11 23 -10 18
4 -6 15 -4 15 26 0 56 -29 154 -103 188 -142 17 -20 50 -57 73 -82 22 -25 48
-54 56 -65 15 -19 14 -19 -10 -4 -14 9 -61 37 -105 64 -44 26 -93 59 -110 73
-66 54 -175 163 -175 175 0 8 3 9 8 1 4 -6 18 -17 31 -24z m5150 -592 c1 -343
-3 -629 -7 -635 -7 -11 -262 -114 -280 -113 -9 1 -46 61 -175 290 -60 107
-113 199 -117 203 -8 9 -20 -216 -21 -398 0 -66 -3 -138 -7 -159 l-7 -39 -90
-28 c-50 -16 -112 -36 -138 -44 l-48 -14 -83 172 c-46 95 -108 226 -139 292
-60 132 -131 280 -244 514 -40 84 -73 154 -71 155 17 9 320 78 324 74 4 -5
172 -374 221 -488 11 -26 17 -30 23 -20 4 8 13 141 20 295 7 154 14 282 15
283 2 2 50 19 108 37 l104 32 73 -126 c40 -69 85 -146 100 -171 15 -25 46 -78
69 -117 49 -86 66 -93 58 -25 -7 52 -12 531 -6 536 6 4 303 115 310 116 4 0 7
-280 8 -622z m1241 603 c0 -20 -155 -152 -247 -210 -54 -34 -115 -73 -135 -87
-21 -13 -38 -20 -38 -15 0 5 51 60 113 123 102 104 119 117 192 148 44 18 84
37 90 42 12 11 25 10 25 -1z m687 -23 c-3 -8 -6 -5 -6 6 -1 11 2 17 5 13 3 -3
4 -12 1 -19z m-7099 -77 c82 -42 150 -95 207 -164 68 -82 73 -91 44 -82 -13 4
-29 14 -37 22 -8 7 -32 23 -54 34 -39 20 -39 20 -29 0 16 -28 14 -34 -9 -28
-28 7 -25 -2 13 -41 29 -31 29 -33 7 -22 -22 11 -20 8 9 -24 39 -40 28 -49
-16 -13 -15 13 -50 36 -78 51 -45 25 -47 26 -23 4 25 -22 53 -66 46 -73 -2 -2
-30 12 -63 31 -54 31 -221 192 -210 203 3 2 24 -12 47 -30 24 -19 57 -43 73
-53 24 -14 22 -11 -10 18 l-40 36 43 -15 c23 -8 42 -11 42 -7 0 4 -22 30 -50
57 -27 27 -48 51 -45 53 2 3 28 -13 57 -35 71 -54 79 -58 71 -37 -5 14 -2 16
23 10 l29 -7 -41 43 c-41 43 -79 98 -69 98 3 0 31 -13 63 -29z m6462 1 c0 -5
-11 -19 -25 -32 -34 -32 -124 -150 -93 -122 32 29 171 112 177 106 3 -2 -22
-32 -55 -65 l-59 -61 42 21 c55 27 62 26 33 -4 -31 -33 -11 -32 24 0 16 14 40
33 54 42 21 13 19 8 -10 -21 -21 -21 -38 -44 -38 -51 0 -24 -183 -165 -196
-152 -3 3 2 17 11 31 23 35 13 33 -61 -14 -35 -22 -66 -40 -70 -40 -4 0 22 27
57 60 35 34 53 56 39 49 -13 -7 -33 -21 -43 -33 -10 -12 0 7 23 42 l41 62 -33
-20 c-18 -11 -44 -20 -57 -20 -21 0 -22 2 -10 18 7 9 1 6 -14 -8 -49 -46 -105
-86 -112 -78 -2 2 38 52 90 110 72 81 110 116 160 143 36 20 72 34 80 31 8 -3
17 -1 20 4 8 12 25 13 25 2z m-4500 -125 c118 -31 233 -62 256 -70 194 -70
301 -196 312 -372 11 -191 -71 -337 -234 -416 -60 -29 -81 -34 -165 -37 -81
-4 -114 0 -205 23 -60 15 -117 32 -128 37 -23 13 -29 4 -56 -87 -57 -187 -71
-231 -79 -244 -7 -11 -36 -5 -152 34 -79 26 -148 52 -154 56 -6 6 0 37 17 87
15 42 73 223 128 402 56 179 117 372 135 430 18 58 41 131 50 164 14 51 19 58
38 53 12 -3 119 -30 237 -60z m-802 -44 c75 -25 139 -47 141 -49 3 -3 -251
-715 -279 -782 -12 -27 -17 -26 -125 20 -98 43 -97 41 -73 96 28 62 199 511
205 538 4 18 -2 23 -41 34 -25 7 -46 16 -46 20 0 4 11 39 25 76 14 38 28 75
30 82 6 18 13 16 163 -35z m-1302 -56 c101 -52 224 -133 224 -148 0 -11 -13
-5 -45 20 -11 8 5 -11 35 -43 l55 -58 -90 47 c-50 25 -113 68 -142 93 -48 44
-130 132 -122 132 2 0 41 -19 85 -43z m6735 15 c-17 -31 -137 -139 -188 -169
-27 -15 -68 -41 -93 -58 -96 -67 -91 -52 22 59 75 73 139 127 180 149 74 41
93 45 79 19z m-7631 -37 c0 -3 -27 -18 -60 -35 -108 -55 -303 -95 -385 -80
-36 6 -37 7 -15 13 14 3 59 8 101 12 79 6 218 40 304 74 58 23 55 22 55 16z
m855 -57 c84 -58 292 -254 282 -265 -13 -12 -205 123 -262 184 -28 30 -54 51
-58 48 -4 -3 -5 -2 -2 2 3 4 -14 26 -37 50 -61 62 -27 54 77 -19z m6792 -4
c-38 -36 -66 -68 -63 -71 3 -3 12 2 21 11 10 9 31 24 48 32 28 14 27 11 -13
-25 -31 -28 -51 -39 -65 -35 -14 4 -16 3 -7 -4 11 -7 5 -16 -24 -41 -21 -17
-43 -31 -48 -31 -5 0 -23 -11 -40 -23 -17 -13 -53 -36 -81 -52 l-50 -28 55 59
c153 163 280 272 320 273 8 1 -16 -29 -53 -65z m917 25 c90 -32 234 -59 313
-59 33 0 53 -4 53 -11 0 -21 -194 -4 -289 25 -90 28 -191 71 -191 82 0 3 8 3
18 -1 9 -5 53 -21 96 -36z m-4447 -28 c2 -1 4 -216 5 -478 l3 -478 85 -3 c47
-2 181 2 299 8 118 6 216 8 219 5 10 -10 26 -265 16 -274 -20 -20 -479 -35
-712 -24 -123 6 -227 14 -231 19 -5 5 -6 286 -3 624 l5 615 156 -7 c86 -3 157
-6 158 -7z m-4135 -245 c139 -52 282 -134 359 -207 40 -37 49 -44 49 -35 0 5
-2 8 -60 70 l-35 39 55 -39 c30 -22 100 -84 156 -139 78 -77 108 -115 132
-166 41 -85 41 -104 0 -48 -17 24 -33 39 -35 33 -2 -6 8 -41 22 -78 26 -68 28
-99 4 -55 -11 22 -39 55 -39 47 0 -7 41 -123 50 -143 15 -30 40 -105 35 -105
-2 0 -10 12 -18 28 -7 15 -51 92 -97 172 -208 362 -320 483 -550 597 -116 57
-123 65 -28 29z m8470 -31 c-114 -55 -184 -107 -288 -217 -91 -97 -132 -157
-270 -395 -54 -94 -100 -168 -102 -164 -1 5 6 30 16 57 11 27 25 83 32 124 6
41 14 83 16 93 12 40 -13 12 -39 -44 -16 -33 -31 -59 -33 -56 -8 8 74 208 99
244 34 48 112 128 154 160 21 15 40 30 43 33 12 14 80 62 80 57 0 -9 -78 -87
-87 -88 -13 -1 -87 -89 -75 -89 6 0 21 12 34 28 83 97 268 218 423 278 98 38
97 27 -3 -21z m-6800 -52 c27 -24 23 -68 -8 -92 -34 -27 -50 -26 -79 4 -30 29
-31 45 -4 79 24 30 63 34 91 9z m5238 -3 c28 -28 25 -64 -6 -89 -34 -27 -47
-26 -80 2 -21 19 -26 29 -20 50 14 56 68 75 106 37z m-6160 -35 c13 -14 21
-25 18 -25 -2 0 -15 11 -28 25 -13 14 -21 25 -18 25 2 0 15 -11 28 -25z m7060
-12 c0 -5 -15 -24 -33 -44 -17 -20 -54 -62 -81 -93 -26 -32 -51 -55 -54 -52
-8 9 41 76 101 139 53 55 67 65 67 50z m-7026 -75 c52 -63 100 -141 78 -127
-10 6 -29 28 -42 48 -14 20 -40 55 -58 79 -19 23 -30 42 -24 42 6 0 27 -19 46
-42z m55 -3 c13 -20 22 -38 19 -40 -2 -3 -18 15 -36 40 -17 24 -25 42 -19 39
7 -2 23 -20 36 -39z m-96 -42 c58 -77 92 -134 75 -127 -12 5 -128 155 -136
175 -2 5 1 9 7 9 5 0 29 -26 54 -57z m7070 24 c-14 -23 -125 -167 -129 -167
-15 0 44 96 89 143 34 36 56 49 40 24z m-7067 -143 c15 -25 24 -47 21 -50 -6
-6 -147 180 -147 193 1 14 99 -97 126 -143z m7112 104 c-41 -60 -112 -147
-116 -143 -7 6 41 79 87 134 48 57 66 62 29 9z m-7208 -78 c42 -53 70 -103 70
-124 0 -16 -2 -16 -16 -5 -8 7 -24 29 -34 48 -10 20 -40 61 -67 91 -77 88 -82
97 -29 60 26 -19 61 -51 76 -70z m7304 78 c-4 -7 -22 -31 -39 -53 -18 -22 -53
-73 -78 -112 -26 -40 -49 -73 -52 -73 -5 0 -1 11 38 100 17 38 113 150 128
150 6 0 7 -6 3 -12z"/>
<path d="M5365 9366 c-63 -29 -122 -93 -131 -141 -4 -21 -4 -61 -1 -91 3 -30
3 -54 1 -54 -3 0 -14 19 -24 43 l-20 42 6 -50 c8 -61 24 -95 67 -137 72 -72
195 -100 281 -64 42 17 109 77 136 121 29 48 43 138 26 178 -12 30 -12 28 -8
-30 5 -68 -3 -88 -62 -150 -42 -46 -54 -41 -17 6 40 50 57 122 42 177 -17 65
-65 122 -124 150 -65 30 -108 30 -172 0z m138 -67 c32 -14 59 -63 59 -106 0
-94 -140 -138 -207 -65 -41 44 -27 128 27 166 26 18 86 21 121 5z m72 -319
c-3 -5 -12 -10 -18 -10 -7 0 -6 4 3 10 19 12 23 12 15 0z"/>
<path d="M7275 8930 c11 -5 29 -9 40 -9 17 -1 17 1 5 9 -8 5 -26 9 -40 9 -23
0 -23 -1 -5 -9z"/>
<path d="M7622 8704 c10 -10 20 -16 22 -13 3 3 -5 11 -17 18 -21 13 -21 12 -5
-5z"/>
<path d="M4835 8742 c-57 -32 -59 -52 -9 -98 44 -42 84 -45 108 -9 29 44 17
88 -31 113 -28 15 -32 15 -68 -6z"/>
<path d="M5957 8730 c-31 -36 -33 -50 -12 -90 13 -26 21 -30 56 -30 33 0 47 6
69 30 42 45 44 66 5 90 -18 11 -46 23 -62 26 -25 5 -34 1 -56 -26z"/>
<path d="M3069 8654 c-12 -14 -11 -16 5 -13 11 2 21 10 24 17 5 17 -13 15 -29
-4z"/>
<path d="M3095 8620 c3 -5 16 -15 28 -21 22 -12 22 -12 3 10 -19 21 -43 30
-31 11z"/>
<path d="M4260 8591 c0 -6 4 -13 10 -16 6 -3 7 1 4 9 -7 18 -14 21 -14 7z"/>
<path d="M7815 8730 c-11 -18 6 -50 25 -50 11 0 24 9 30 20 8 15 6 21 -9 30
-25 13 -38 13 -46 0z"/>
<path d="M7786 8655 c-14 -15 -12 -45 3 -45 7 0 31 44 31 55 0 10 -19 4 -34
-10z"/>
<path d="M2710 8355 c-7 -9 -11 -18 -8 -20 9 -10 38 7 38 21 0 18 -14 18 -30
-1z"/>
<path d="M8011 8440 c19 -16 38 -30 44 -30 12 0 -57 59 -69 60 -5 0 7 -13 25
-30z"/>
<path d="M8143 8355 c37 -33 57 -32 27 0 -13 14 -31 25 -39 25 -11 -1 -8 -8
12 -25z"/>
<path d="M3880 8475 c0 -8 5 -15 10 -15 6 0 10 7 10 15 0 8 -4 15 -10 15 -5 0
-10 -7 -10 -15z"/>
<path d="M8613 7780 c-38 -15 -54 -50 -42 -93 5 -20 13 -37 16 -37 3 0 3 9 0
21 -7 25 2 51 14 43 5 -3 9 -1 9 4 0 5 12 14 26 20 33 16 61 1 80 -41 l15 -32
-6 35 c-9 59 -65 98 -112 80z"/>
<path d="M2201 7764 c-26 -19 -52 -72 -50 -106 1 -22 1 -22 11 3 6 14 22 33
37 42 14 9 34 22 44 29 22 17 51 0 55 -32 3 -17 6 -19 12 -10 4 7 3 26 -2 42
-17 48 -64 62 -107 32z"/>
<path d="M2475 7560 c4 -6 11 -8 16 -5 14 9 11 15 -7 15 -8 0 -12 -5 -9 -10z"/>
<path d="M8321 7014 c0 -11 3 -14 6 -6 3 7 2 16 -1 19 -3 4 -6 -2 -5 -13z"/>
<path d="M8295 6944 c0 -60 9 -59 19 2 4 29 2 43 -7 47 -9 3 -12 -10 -12 -49z"/>
<path d="M8326 6968 c-3 -13 -5 -30 -5 -38 1 -8 4 -4 8 10 5 20 8 22 13 9 4
-9 1 -27 -6 -41 -7 -13 -10 -30 -8 -38 8 -22 28 60 24 93 -5 33 -17 35 -26 5z"/>
<path d="M5510 5741 c0 -5 5 -13 10 -16 6 -3 10 -2 10 4 0 5 -4 13 -10 16 -5
3 -10 2 -10 -4z"/>
<path d="M5346 5721 c-40 -44 -34 -127 12 -174 24 -23 96 -33 134 -18 53 20
88 124 58 171 -6 10 -8 3 -3 -22 12 -80 -76 -141 -153 -105 -60 29 -76 102
-33 153 17 21 5 17 -15 -5z"/>
<path d="M5427 5663 c-11 -10 -8 -43 3 -43 15 0 24 30 13 41 -5 5 -12 6 -16 2z"/>
<path d="M3295 4961 c-6 -11 9 -23 19 -14 9 9 7 23 -3 23 -6 0 -12 -4 -16 -9z"/>
<path d="M7636 4971 c-4 -7 -5 -15 -2 -18 9 -9 19 4 14 18 -4 11 -6 11 -12 0z"/>
<path d="M4215 3063 c-3 -10 -23 -52 -44 -94 l-38 -76 96 -32 c209 -69 658
-146 1006 -172 353 -26 866 28 1274 133 86 22 175 45 199 51 23 6 42 14 42 18
0 4 -18 38 -40 77 -22 38 -40 74 -40 80 0 25 -23 21 -101 -19 -45 -22 -144
-65 -219 -94 -447 -174 -840 -229 -1200 -170 -268 44 -610 153 -820 261 -52
27 -98 50 -102 52 -5 2 -10 -5 -13 -15z"/>
<path d="M4070 3810 c-1 -3 -3 -16 -6 -30 -3 -21 -2 -22 7 -7 6 10 8 23 5 30
-2 7 -5 10 -6 7z"/>
<path d="M8519 2513 c-13 -16 -12 -17 4 -4 9 7 17 15 17 17 0 8 -8 3 -21 -13z"/>
<path d="M4180 2248 c-6 -13 -26 -79 -46 -147 -25 -90 -32 -126 -23 -131 28
-18 163 -42 210 -38 86 9 137 80 126 176 -7 61 -51 102 -138 130 -109 35 -118
35 -129 10z"/>
<path d="M4480 9564 c-267 -61 -447 -112 -454 -129 -2 -7 -1 -18 4 -25 6 -10
31 -6 121 18 122 34 377 92 402 92 21 0 38 25 31 44 -7 19 -18 19 -104 0z"/>
<path d="M6314 9566 c-4 -10 -3 -21 2 -26 5 -5 59 -19 119 -30 61 -12 162 -35
225 -52 132 -36 183 -41 188 -17 3 18 -133 63 -315 103 -171 38 -211 42 -219
22z"/>
<path d="M6886 9424 c-8 -21 -11 -18 58 -49 45 -20 61 -23 72 -14 24 19 16 29
-41 55 -65 28 -81 30 -89 8z"/>
<path d="M3902 9403 c-46 -16 -55 -45 -17 -51 35 -5 95 26 95 48 0 24 -18 25
-78 3z"/>
<path d="M2393 9124 c-3 -9 6 -28 24 -47 17 -18 45 -50 64 -72 115 -135 159
-167 159 -119 0 20 -209 254 -227 254 -7 0 -16 -7 -20 -16z"/>
<path d="M8415 9078 c-27 -35 -83 -100 -123 -146 -73 -81 -85 -112 -45 -112
19 0 54 38 185 199 59 73 75 98 66 108 -18 23 -32 15 -83 -49z"/>
<path d="M2190 8892 c0 -26 174 -196 194 -189 29 11 17 30 -71 119 -85 85
-123 107 -123 70z"/>
<path d="M8585 8810 c-85 -86 -89 -91 -72 -107 17 -17 22 -13 112 77 52 52 95
101 95 108 0 6 -10 12 -23 12 -15 0 -52 -29 -112 -90z"/>
<path d="M2680 8840 c-13 -25 6 -36 45 -26 22 6 24 9 15 26 -14 26 -46 26 -60
0z"/>
<path d="M1970 8721 c0 -11 23 -38 53 -62 28 -24 54 -46 57 -49 3 -3 31 -27
63 -54 40 -34 61 -46 68 -39 20 20 5 39 -101 131 -104 91 -140 110 -140 73z"/>
<path d="M8828 8667 c-46 -40 -118 -101 -160 -136 -83 -68 -94 -83 -73 -101
12 -10 36 6 129 84 169 141 230 201 222 214 -14 23 -36 11 -118 -61z"/>
<path d="M1783 8503 c-26 -9 -12 -33 45 -76 157 -121 388 -278 406 -275 37 6
27 27 -31 68 -32 23 -132 94 -223 158 -193 138 -182 131 -197 125z"/>
<path d="M8959 8398 c-85 -60 -182 -129 -216 -153 -62 -44 -77 -70 -49 -81 9
-3 87 45 188 117 206 146 258 187 258 204 0 33 -37 15 -181 -87z"/>
<path d="M1617 8283 c-25 -24 -7 -38 278 -215 123 -76 142 -85 155 -72 13 12
12 16 -5 33 -22 21 -403 261 -415 261 -3 0 -10 -3 -13 -7z"/>
<path d="M9121 8194 c-85 -52 -180 -112 -210 -132 -56 -37 -71 -64 -40 -70 14
-2 175 94 422 252 9 6 17 19 17 28 0 32 -33 19 -189 -78z"/>
<path d="M9395 8039 c-22 -12 -85 -46 -140 -77 -55 -31 -134 -74 -175 -96 -73
-40 -97 -70 -67 -82 13 -5 213 99 371 192 55 33 76 58 60 74 -6 6 -23 3 -49
-11z"/>
<path d="M1480 8031 c-9 -18 -3 -24 47 -54 144 -84 350 -197 360 -197 6 0 16
6 22 14 14 16 -4 31 -114 91 -38 21 -120 67 -181 101 -62 35 -114 64 -118 64
-3 0 -10 -9 -16 -19z"/>
<path d="M1162 7478 c3 -25 82 -70 111 -64 9 2 17 -1 17 -7 0 -12 95 -55 340
-154 74 -30 195 -79 268 -109 73 -31 141 -54 150 -52 9 2 17 12 17 22 0 21 24
10 -455 206 -151 62 -306 128 -344 146 -83 40 -109 43 -104 12z"/>
<path d="M767 3943 c-4 -3 -7 -15 -7 -25 0 -17 28 -18 714 -18 393 0 721 3
730 6 9 3 16 15 16 25 0 18 -20 19 -723 19 -398 0 -727 -3 -730 -7z"/>
<path d="M8643 3934 c-3 -8 -1 -20 4 -25 5 -5 291 -8 734 -7 716 3 724 3 724
23 0 20 -8 20 -728 23 -654 2 -728 1 -734 -14z"/>
<path d="M954 3688 c-4 -6 1 -17 11 -25 15 -10 108 -13 476 -13 251 0 471 3
488 6 21 5 31 12 31 25 0 18 -18 19 -499 19 -366 0 -502 -3 -507 -12z"/>
<path d="M8950 3681 c0 -13 10 -20 31 -25 40 -8 902 -8 923 0 9 3 16 15 16 25
0 18 -16 19 -485 19 -468 0 -485 -1 -485 -19z"/>
<path d="M1037 3467 c-14 -36 2 -37 389 -35 l379 3 3 23 3 22 -384 0 c-313 0
-386 -3 -390 -13z"/>
<path d="M9075 3470 c-4 -6 -1 -17 5 -26 11 -12 67 -14 384 -12 l371 3 3 23 3
22 -380 0 c-253 0 -382 -3 -386 -10z"/>
<path d="M1069 3244 c-10 -13 -10 -17 2 -25 18 -12 486 -12 493 0 4 5 3 16 0
25 -5 14 -36 16 -244 16 -204 0 -239 -2 -251 -16z"/>
<path d="M9317 3254 c-4 -4 -7 -16 -7 -26 0 -17 13 -18 253 -16 244 3 252 4
252 23 0 19 -8 20 -246 23 -135 1 -248 -1 -252 -4z"/>
</g>
</svg>
