<?xml version="1.0" standalone="no"?>
<!DOCTYPE svg PUBLIC "-//W3C//DTD SVG 20010904//EN"
 "http://www.w3.org/TR/2001/REC-SVG-20010904/DTD/svg10.dtd">
<svg version="1.0" xmlns="http://www.w3.org/2000/svg"
 width="1079.000000pt" height="1074.000000pt" viewBox="0 0 1079.000000 1074.000000"
 preserveAspectRatio="xMidYMid meet">

<g transform="translate(0.000000,1074.000000) scale(0.100000,-0.100000)"
fill="#000000" stroke="none">
<path d="M5364 10091 c-23 -11 -50 -33 -60 -50 -10 -17 -26 -31 -36 -31 -37 0
-173 -50 -229 -85 -50 -31 -62 -34 -80 -24 -26 14 -97 6 -139 -16 -65 -33
-106 -121 -90 -192 8 -31 5 -41 -16 -66 -14 -16 -41 -65 -61 -107 -30 -63 -43
-80 -68 -89 -75 -27 -122 -110 -112 -198 l4 -42 -46 -6 c-25 -4 -68 -10 -96
-15 -59 -10 -70 -3 -80 46 -10 55 -26 84 -47 84 -30 0 -31 -23 -4 -90 14 -35
26 -65 26 -67 0 -2 -78 -3 -173 -2 l-172 2 -27 43 c-34 55 -81 84 -134 84 -23
0 -54 7 -70 14 -36 19 -47 11 -40 -28 6 -31 3 -34 -72 -84 -43 -28 -85 -54
-93 -57 -9 -3 -27 16 -52 55 -21 33 -42 60 -46 60 -4 0 -16 -6 -27 -14 -18
-14 -18 -16 24 -75 23 -33 42 -62 42 -64 0 -8 -110 -77 -122 -77 -7 0 -31 27
-53 60 -40 60 -63 72 -84 46 -9 -11 -3 -27 31 -76 l42 -62 -29 -25 c-25 -20
-125 -73 -139 -73 -2 0 -2 8 0 18 6 22 -31 69 -116 147 -36 33 -107 106 -159
163 -52 56 -100 102 -107 102 -22 0 -26 -20 -11 -43 29 -43 171 -203 266 -300
l96 -99 -26 -14 c-21 -10 -33 -11 -57 -2 -26 10 -36 9 -67 -8 -20 -10 -46 -29
-57 -41 -12 -13 -27 -23 -34 -23 -6 0 -52 -30 -100 -67 -149 -114 -138 -110
-178 -66 -29 32 -36 35 -50 24 -9 -7 -16 -18 -16 -23 0 -6 27 -44 60 -85 34
-41 59 -80 57 -87 -2 -6 -31 -30 -64 -54 l-61 -42 -52 60 c-64 74 -86 88 -108
67 -13 -14 -9 -21 42 -67 31 -29 66 -66 77 -82 l21 -30 -31 -32 c-38 -39 -38
-48 -5 -120 14 -32 24 -58 23 -60 -92 -58 -124 -94 -114 -127 4 -11 22 -36 41
-56 19 -19 34 -36 34 -37 0 -1 -37 -2 -83 -1 -74 0 -88 -3 -124 -27 -56 -37
-93 -113 -93 -189 0 -75 17 -94 145 -160 55 -28 116 -66 136 -84 20 -18 46
-36 58 -40 24 -7 27 -23 8 -50 -13 -17 -15 -17 -62 0 -33 13 -54 29 -68 53
-19 32 -51 52 -83 52 -25 0 -15 -27 24 -66 54 -55 24 -54 -78 2 -47 26 -150
81 -230 122 -80 42 -165 90 -190 108 -25 18 -117 67 -205 109 -134 64 -161 73
-172 62 -12 -12 -12 -16 -1 -25 32 -26 281 -142 306 -142 15 0 38 -6 52 -13
21 -11 25 -19 22 -53 l-3 -40 118 -64 c167 -90 326 -180 337 -190 12 -12 -12
-67 -47 -107 -21 -24 -30 -46 -34 -88 -7 -70 4 -83 101 -124 139 -58 199 -88
188 -95 -5 -3 -67 8 -137 25 -108 26 -138 38 -202 80 -91 59 -210 99 -302 101
-36 1 -75 -1 -86 -5 -14 -5 -40 6 -90 39 -149 96 -412 207 -557 234 -84 15
-98 11 -98 -34 0 -19 -3 -37 -7 -39 -9 -5 -173 30 -441 95 -95 22 -175 39
-177 36 -3 -3 5 -34 18 -69 114 -303 392 -591 688 -715 46 -19 88 -34 94 -34
6 0 20 -7 31 -15 17 -13 15 -14 -30 -8 l-49 6 5 -47 c5 -43 -3 -68 -16 -47 -8
12 -479 123 -670 157 -37 6 -38 6 -31 -17 36 -121 154 -296 282 -419 118 -113
202 -172 343 -239 126 -59 166 -73 335 -116 178 -45 299 -94 303 -123 4 -28
-11 -28 -90 1 -165 62 -302 91 -627 132 -254 32 -235 33 -217 -10 40 -94 180
-274 261 -335 25 -18 42 -37 39 -42 -3 -4 -69 -8 -147 -8 -232 0 -422 -24
-522 -66 -58 -24 -95 -55 -118 -99 -73 -142 50 -279 343 -383 219 -77 701
-180 1347 -287 33 -6 33 -6 33 -65 l0 -60 -522 -2 c-515 -3 -523 -3 -523 -23
0 -20 8 -20 530 -23 l531 -2 19 -36 c28 -52 88 -102 174 -143 l76 -36 -800 -5
c-792 -5 -800 -5 -800 -25 0 -20 7 -20 939 -21 517 -1 986 -5 1043 -9 l103 -7
0 -42 0 -42 -72 0 c-55 0 -83 -6 -113 -22 -51 -27 -541 -528 -577 -591 -26
-45 -125 -141 -316 -309 l-93 -82 -123 0 c-67 0 -126 -3 -129 -6 -3 -4 -2 -15
4 -25 8 -17 22 -19 104 -19 52 0 95 -3 95 -6 0 -3 -12 -23 -28 -43 -15 -20
-35 -53 -45 -74 l-17 -37 -177 0 c-227 0 -283 -6 -283 -31 0 -18 12 -19 220
-19 l220 0 0 -45 c0 -24 5 -67 11 -96 11 -50 11 -52 -17 -75 -46 -38 -222
-121 -304 -144 -68 -18 -227 -36 -384 -43 l-60 -2 75 -55 c174 -130 265 -181
478 -267 180 -72 253 -116 337 -205 108 -114 254 -347 379 -605 22 -46 43 -83
47 -83 4 0 51 66 105 147 166 248 221 293 370 301 112 6 181 -17 373 -124 332
-185 435 -239 588 -306 729 -321 1481 -473 2247 -455 138 4 313 13 390 22 757
83 1449 303 2080 660 313 177 381 205 502 205 150 0 217 -54 379 -300 53 -83
100 -150 103 -149 3 0 32 54 65 120 113 231 259 460 360 567 86 91 144 126
341 207 203 84 340 162 498 287 52 41 52 41 -38 38 -78 -2 -253 17 -330 36
-91 23 -192 61 -265 100 -105 56 -104 54 -91 114 6 28 11 73 11 100 l0 50 235
0 c203 0 236 2 242 15 3 9 3 18 0 22 -3 3 -115 6 -247 8 l-242 3 -30 53 c-17
30 -40 64 -51 76 -11 13 -17 26 -13 30 4 4 52 7 107 8 76 0 102 3 109 15 5 8
6 18 4 22 -3 4 -65 8 -139 8 l-134 0 -107 98 c-58 53 -142 128 -186 166 -52
45 -87 85 -104 118 -35 69 -531 579 -588 605 -28 12 -64 18 -113 17 l-73 0 0
41 0 42 68 6 c37 4 504 7 1038 7 822 0 973 2 990 14 10 8 15 18 11 23 -5 4
-372 10 -815 13 l-807 5 65 31 c86 42 143 85 181 137 l30 42 527 5 527 5 3 23
3 22 -524 0 -525 0 -7 56 c-4 31 -5 57 -3 59 2 2 84 17 183 34 237 42 758 145
915 182 379 89 593 195 654 323 21 45 20 79 -4 125 -42 84 -139 135 -300 161
-36 6 -153 13 -260 16 -107 3 -205 7 -217 10 -19 3 -10 16 71 97 51 50 109
118 129 149 47 71 90 158 84 165 -9 8 -379 -36 -526 -63 -74 -14 -196 -45
-271 -69 -75 -25 -140 -45 -143 -45 -4 0 -7 8 -7 19 0 30 115 78 294 122 466
117 732 302 929 650 44 77 69 149 53 149 -27 0 -543 -111 -628 -135 -48 -14
-91 -25 -96 -25 -5 0 -7 20 -4 45 4 43 4 45 -22 45 -44 0 -29 16 37 40 271 98
498 291 650 555 56 95 113 245 94 245 -6 0 -93 -20 -192 -44 -99 -25 -227 -56
-285 -70 -58 -13 -113 -28 -122 -31 -16 -6 -18 -1 -18 45 l0 53 -65 -6 c-132
-12 -433 -137 -593 -245 -48 -33 -61 -38 -82 -30 -52 20 -226 -14 -320 -62
-25 -13 -64 -37 -87 -55 -34 -26 -66 -37 -168 -59 -70 -15 -134 -30 -141 -33
-8 -3 -14 0 -14 6 0 13 88 58 189 96 74 28 111 54 111 78 0 6 -4 26 -9 43 -9
30 -7 32 23 37 69 11 905 363 913 384 11 29 -13 34 -65 12 -29 -12 -52 -26
-52 -30 0 -5 -11 -9 -24 -9 -13 0 -70 -21 -127 -46 -57 -25 -205 -86 -329
-135 -124 -50 -254 -106 -289 -124 -72 -39 -71 -39 -111 37 -36 68 -41 64 218
201 233 123 237 126 234 155 -2 24 3 34 27 51 16 12 41 21 55 21 27 0 277 120
308 147 20 17 15 33 -9 33 -22 0 -246 -109 -357 -174 -107 -62 -542 -286 -556
-286 -20 0 -9 32 20 59 26 23 29 30 17 40 -23 18 -66 -4 -82 -42 -11 -26 -24
-36 -66 -51 -51 -19 -52 -19 -66 -1 -7 11 -13 22 -13 25 0 11 151 115 225 155
85 47 113 70 131 112 29 68 -19 189 -95 240 -37 25 -109 31 -170 13 -47 -13
-50 -6 -14 33 68 72 69 101 3 160 -27 25 -50 50 -50 56 0 7 9 29 20 51 29 56
26 84 -11 111 -24 17 -29 27 -25 45 6 21 -3 30 -64 70 -38 26 -70 52 -70 57 0
6 27 43 60 84 33 40 60 77 60 82 0 6 -8 14 -17 20 -15 8 -26 2 -59 -31 l-42
-40 -55 43 c-30 24 -83 66 -117 93 l-62 48 -30 -28 -30 -29 17 33 c16 32 16
35 -2 54 -10 11 -39 31 -65 44 -42 22 -48 22 -62 8 -18 -17 -51 -15 -51 3 0 6
27 40 60 75 139 145 300 339 300 361 0 6 -9 13 -20 14 -14 2 -34 -15 -65 -54
-25 -31 -98 -111 -162 -178 -87 -91 -120 -133 -129 -164 -7 -22 -17 -41 -23
-41 -26 1 -171 88 -170 102 1 9 18 41 39 72 39 59 40 80 6 89 -17 4 -26 -5
-51 -46 -37 -64 -55 -87 -66 -87 -5 0 -35 17 -66 38 l-57 38 41 63 c32 49 39
67 31 80 -20 32 -41 24 -67 -26 -49 -93 -45 -92 -129 -39 -41 26 -82 55 -92
66 -18 20 -18 22 15 91 29 59 32 72 20 79 -27 18 -38 10 -74 -49 -35 -57 -38
-59 -88 -65 -74 -10 -107 -31 -129 -80 l-18 -42 -181 -3 c-108 -1 -180 2 -180
7 0 5 12 35 26 66 28 62 26 89 -7 84 -17 -2 -26 -17 -41 -67 l-20 -64 -75 7
c-137 13 -132 10 -126 72 10 94 -38 175 -115 199 -17 5 -32 25 -49 63 -14 32
-40 77 -58 102 -30 41 -32 50 -28 105 4 53 1 65 -25 106 -41 64 -104 94 -178
85 -48 -5 -60 -3 -107 24 -68 38 -161 70 -204 70 -26 0 -36 5 -42 23 -28 73
-149 108 -237 68z m158 -82 c29 -28 30 -34 24 -82 -3 -29 -6 -79 -7 -112 0
-51 -2 -57 -11 -37 -6 12 -23 25 -37 28 -14 3 -34 9 -43 15 -30 16 -46 10 -65
-21 -9 -16 -20 -30 -24 -30 -10 0 -23 184 -15 214 8 33 50 55 104 56 35 0 49
-6 74 -31z m-224 -71 c-6 -16 -22 -24 -93 -44 -33 -10 -83 -30 -111 -46 -56
-31 -84 -36 -84 -14 0 19 55 52 144 87 74 29 151 39 144 17z m440 -17 c73 -29
142 -74 142 -92 0 -17 -29 -10 -93 23 -34 17 -91 39 -127 48 -44 11 -66 22
-68 33 -5 27 61 21 146 -12z m-766 -98 c23 -20 72 -92 66 -98 -2 -3 -28 7 -56
21 l-52 26 -30 -22 c-19 -14 -29 -28 -26 -37 3 -8 1 -11 -4 -8 -16 10 -11 -22
6 -40 9 -8 29 -22 44 -30 31 -16 63 -56 75 -94 6 -20 -4 -15 -61 31 -69 55
-111 75 -111 54 0 -6 -23 -47 -51 -90 -28 -43 -57 -99 -64 -124 -10 -36 -20
-48 -45 -59 -44 -18 -41 -25 7 -17 35 6 43 3 71 -25 27 -28 31 -37 26 -68 -4
-19 -9 -38 -12 -41 -12 -12 -27 18 -28 57 -1 22 -5 41 -9 41 -5 0 -8 -5 -8
-10 0 -6 -26 -23 -57 -38 -41 -19 -59 -33 -61 -49 -4 -29 24 -71 51 -75 19 -3
23 -12 29 -68 8 -71 25 -123 70 -214 16 -32 27 -60 24 -63 -24 -24 -84 73
-125 204 -16 50 -45 121 -65 156 -27 48 -36 76 -36 111 0 69 19 98 85 131 23
11 41 37 74 105 23 50 58 107 77 127 27 28 31 39 24 53 -17 32 -11 85 13 121
37 55 115 70 159 32z m1075 -8 c46 -39 60 -86 44 -141 -8 -29 -6 -35 25 -65
18 -18 54 -74 79 -125 36 -72 52 -94 76 -104 73 -31 92 -123 44 -217 -14 -26
-36 -88 -50 -138 -27 -94 -73 -195 -111 -242 -19 -24 -23 -25 -29 -12 -4 10 8
46 29 87 34 68 76 197 76 235 0 10 13 29 29 43 32 27 47 69 32 88 -6 7 -29 18
-50 25 -42 12 -88 58 -73 73 5 5 28 12 53 17 32 6 37 10 19 11 -14 2 -33 2
-43 2 -14 -2 -17 3 -12 18 8 24 -73 182 -122 239 -29 34 -30 39 -16 54 20 19
12 52 -22 91 l-25 29 -28 -26 c-33 -31 -47 -34 -60 -10 -8 14 -15 9 -43 -32
-63 -89 -65 -91 -83 -76 -15 13 -15 15 1 33 9 10 22 17 29 14 7 -3 16 5 20 17
11 36 68 115 94 131 40 25 73 19 117 -19z m-769 -22 c3 -23 -12 -31 -23 -13
-15 24 -21 6 -15 -40 7 -56 -1 -55 -19 1 -10 30 -16 36 -33 32 -17 -5 -19 -11
-15 -42 l6 -36 -24 30 c-14 17 -25 33 -25 36 0 11 35 36 65 47 47 17 79 11 83
-15z m430 7 c23 -10 42 -26 42 -34 0 -9 -6 -13 -14 -10 -13 5 -45 -31 -59 -66
-3 -8 -3 4 0 27 6 43 -7 73 -31 73 -7 0 -18 -27 -24 -60 -7 -33 -17 -60 -23
-60 -6 0 -6 7 1 19 5 11 10 42 10 69 0 27 3 52 7 55 11 12 47 7 91 -13z m-611
-132 c35 -34 41 -48 20 -48 -17 0 -79 64 -71 73 11 11 16 9 51 -25z m913 -43
c0 -13 -91 -106 -112 -114 -15 -5 1 60 21 83 22 26 73 56 83 50 4 -3 8 -11 8
-19z m-253 -17 c-3 -8 -6 -5 -6 6 -1 11 2 17 5 13 3 -3 4 -12 1 -19z m-144
-62 c121 -59 208 -181 215 -304 6 -93 -37 -242 -73 -256 -7 -2 -1 23 12 56 35
85 37 115 18 202 -31 138 -129 248 -248 277 -68 16 -184 6 -237 -21 -55 -28
-137 -105 -160 -150 -10 -20 -26 -62 -35 -93 -14 -49 -15 -69 -6 -123 7 -36
23 -90 38 -120 21 -46 37 -62 100 -104 41 -28 86 -53 99 -56 13 -3 24 -10 24
-16 0 -29 -126 44 -201 117 -85 83 -103 125 -104 245 0 82 4 103 27 152 14 31
46 78 70 104 87 94 165 125 308 121 81 -2 104 -7 153 -31z m-683 -26 c12 -8
10 -10 -8 -10 -32 0 -55 -23 -39 -40 10 -10 8 -12 -7 -6 -25 9 -46 -11 -46
-44 0 -33 27 -47 125 -65 l70 -13 -56 -1 c-31 -1 -82 4 -113 11 l-58 11 5 38
c6 49 63 129 91 129 12 0 28 -5 36 -10z m1091 -17 c9 -11 10 -14 2 -9 -7 4
-32 -4 -56 -18 -51 -30 -65 -33 -46 -9 14 16 69 53 80 53 4 0 13 -8 20 -17z
m-448 -42 c60 -29 101 -70 134 -133 25 -47 28 -63 28 -148 -1 -108 -19 -158
-81 -224 -138 -147 -390 -104 -481 81 -23 47 -27 69 -27 137 1 114 28 175 117
255 68 62 217 77 310 32z m497 -12 c0 -5 -5 -9 -12 -9 -6 0 -20 -7 -30 -17
-26 -23 -34 -9 -9 16 12 12 21 26 21 32 0 8 5 8 15 -1 8 -7 15 -16 15 -21z
m-1154 -14 c15 -11 16 -14 3 -15 -8 0 -24 7 -35 15 -15 11 -16 14 -3 15 8 0
24 -7 35 -15z m1167 -66 c-11 -11 -131 -41 -144 -37 -6 2 22 12 61 23 59 16
72 23 78 45 l6 25 4 -24 c2 -13 0 -27 -5 -32z m77 -106 c0 -27 -10 -53 -21
-53 -15 0 -22 69 -9 86 16 18 30 3 30 -33z m-148 2 c2 -3 3 -18 0 -34 -4 -27
-7 -29 -37 -24 -22 4 -43 -1 -64 -13 -28 -16 -33 -17 -41 -4 -20 32 -11 49 33
60 23 6 47 13 52 15 15 5 51 6 57 0z m-1014 -11 c16 -5 22 -14 22 -35 0 -39
-25 -48 -54 -20 -24 23 -51 27 -61 11 -10 -16 -35 8 -35 31 0 16 8 19 53 19
28 0 62 -3 75 -6z m-1220 -71 c39 -33 32 -46 -23 -45 -70 1 -95 -17 -95 -71 0
-23 7 -52 15 -64 30 -42 162 -48 191 -8 7 9 15 36 19 60 9 62 45 58 45 -4 0
-28 -63 -93 -126 -130 -33 -19 -80 -50 -106 -68 -47 -32 -48 -32 -48 -10 0 12
-4 29 -10 37 -7 12 -12 12 -29 -4 -16 -15 -18 -22 -9 -33 6 -8 7 -17 2 -23
-11 -10 -343 -210 -361 -217 -24 -9 -15 45 9 58 13 7 18 14 11 16 -6 2 -23 -3
-37 -12 -24 -16 -26 -16 -32 -1 -3 9 -15 16 -25 16 -21 0 -88 85 -89 111 0 16
49 50 285 197 72 45 173 110 225 146 103 70 149 82 188 49z m3415 6 c12 -7 72
-44 132 -84 149 -97 198 -129 353 -224 72 -45 132 -85 132 -89 0 -24 -78 -112
-98 -112 -8 0 -20 -7 -27 -16 -10 -15 -16 -14 -64 11 -60 30 -61 17 -1 -16 37
-21 56 -59 30 -59 -11 0 -107 55 -270 155 -47 29 -93 55 -102 58 -11 4 -18 19
-20 46 -2 30 -6 38 -16 32 -7 -4 -14 -18 -15 -29 -2 -27 -11 -27 -45 -4 -15
11 -60 36 -101 57 -86 45 -141 93 -141 124 0 48 -20 16 -35 -56 -9 -43 -18
-84 -20 -90 -8 -23 -25 -13 -26 15 l-2 27 -4 -29 c-3 -20 -7 -25 -13 -16 -5 8
-34 13 -81 15 -41 2 -77 3 -81 4 -4 0 -8 22 -10 49 l-3 47 -14 -45 c-12 -40
-14 -43 -22 -23 -9 25 2 74 26 109 15 23 19 24 150 24 83 0 135 4 135 10 0 6
8 10 18 10 13 0 23 -13 32 -40 17 -51 39 -71 92 -81 79 -15 148 24 148 83 0
31 -16 68 -34 80 -21 14 -89 8 -109 -9 -20 -18 -20 -17 -13 12 13 56 68 81
119 54z m-2181 -101 c-15 -15 -82 -28 -149 -28 -49 0 -63 3 -63 15 0 12 16 15
81 15 77 0 83 2 108 29 l26 29 3 -25 c2 -14 -1 -30 -6 -35z m963 5 c81 -4 125
-12 125 -23 0 -12 -190 -13 -208 -2 -7 5 -10 19 -8 33 3 13 5 29 5 34 1 6 7
-1 14 -15 11 -22 20 -25 72 -27z m-1445 15 c28 -20 30 -27 30 -84 0 -61 0 -62
-31 -68 -68 -13 -94 -8 -106 22 -10 27 -10 27 -18 -15 -8 -48 -12 -51 -31 -25
-12 15 -13 12 -14 -22 0 -43 -15 -40 -23 4 -3 20 -5 18 -6 -10 -1 -19 -8 -46
-15 -59 -12 -22 -13 -19 -19 40 -4 35 -16 93 -27 127 -11 35 -20 70 -20 77 0
8 29 15 93 22 144 15 155 15 187 -9z m1984 7 c60 -8 111 -16 113 -19 3 -3 -6
-40 -20 -83 -14 -43 -29 -94 -33 -113 l-7 -35 -14 35 c-7 19 -11 25 -9 13 2
-13 1 -23 -4 -23 -9 0 -20 36 -20 67 0 12 -5 25 -10 28 -6 4 -10 3 -9 -2 1 -4
1 -26 0 -48 -1 -30 -4 -36 -11 -25 -5 8 -10 28 -10 43 0 17 -4 26 -11 22 -6
-4 -8 -14 -5 -22 5 -12 1 -14 -16 -9 -13 3 -35 6 -50 6 -21 0 -26 4 -22 18 5
15 5 15 -5 0 -7 -9 -19 -14 -30 -11 -17 4 -19 12 -14 61 6 70 19 100 47 105
12 2 23 5 26 5 3 1 54 -5 114 -13z m666 -5 c0 -5 -4 -10 -9 -10 -5 0 -16 -3
-25 -6 -11 -4 -16 -1 -16 10 0 10 9 16 25 16 14 0 25 -4 25 -10z m-3460 -10
c0 -5 -4 -10 -10 -10 -5 0 -10 5 -10 10 0 6 5 10 10 10 6 0 10 -4 10 -10z
m376 -30 c108 0 114 -1 129 -23 8 -13 18 -45 21 -72 7 -44 6 -47 -12 -37 -13
7 -21 7 -29 -3 -5 -8 -43 -18 -85 -23 l-75 -8 45 -11 c30 -7 37 -11 20 -12
-14 0 -37 6 -52 13 -24 13 -28 13 -28 1 0 -14 -18 -30 -25 -23 -7 7 -55 177
-55 194 0 11 5 14 16 10 9 -3 67 -6 130 -6z m-153 -123 c4 -43 3 -47 -14 -42
-24 8 -59 -3 -59 -17 0 -6 21 -35 46 -64 25 -30 41 -54 36 -54 -15 0 -102 98
-102 114 0 8 16 28 35 43 26 21 35 36 35 58 0 45 17 17 23 -38z m937 34 c0 -5
-10 -15 -22 -23 -15 -10 -19 -20 -15 -32 10 -24 60 -15 140 25 32 17 57 25 55
18 -5 -16 -143 -86 -184 -95 -28 -5 -32 -2 -47 29 -18 38 -23 61 -7 37 7 -11
11 -9 19 12 9 23 22 32 54 37 4 0 7 -3 7 -8z m1226 -6 c7 -17 -14 -76 -30 -88
-26 -18 -162 22 -181 54 -4 6 6 4 21 -4 55 -27 83 -29 120 -7 18 12 38 19 44
15 5 -3 10 1 10 9 0 9 -12 18 -27 22 -48 10 -49 12 -5 13 29 1 44 -4 48 -14z
m-412 -62 c-46 -41 -94 -68 -94 -53 0 5 4 10 8 10 5 0 33 22 63 49 30 27 56
45 58 39 2 -6 -14 -26 -35 -45z m1290 14 c47 -40 45 -60 -13 -127 -53 -61 -62
-44 -12 23 23 29 41 57 41 62 0 12 -33 34 -52 35 -11 0 -18 8 -18 20 0 27 9
25 54 -13z m-216 -44 c-15 -2 -42 -2 -60 0 -18 2 -6 4 27 4 33 0 48 -2 33 -4z
m-1666 -22 c13 -11 32 -38 42 -60 l18 -39 -41 -74 c-46 -83 -57 -67 -11 18 29
55 29 57 12 86 -25 44 -56 53 -104 29 -51 -25 -57 -10 -11 28 44 36 61 38 95
12z m768 -10 c44 -36 36 -46 -19 -24 -41 16 -43 16 -64 -5 -31 -31 -29 -87 6
-137 28 -41 33 -55 18 -55 -12 0 -71 114 -71 140 0 41 50 110 80 110 8 0 31
-13 50 -29z m-1204 -46 c12 -30 9 -80 -4 -77 -7 1 -21 -2 -31 -8 -15 -8 -18
-19 -15 -57 l4 -48 -18 51 c-10 28 -28 68 -40 88 -29 49 -28 54 11 59 69 8 88
7 93 -8z m265 2 c23 -18 49 -72 49 -103 0 -37 -37 -112 -62 -125 -45 -24 -126
19 -149 79 -16 42 -10 87 14 109 52 48 115 65 148 40z m1106 2 c45 -17 93 -69
93 -101 0 -64 -67 -138 -124 -138 -86 0 -128 144 -65 224 22 28 50 33 96 15z
m292 -5 c2 -2 -8 -31 -23 -64 -14 -34 -26 -70 -26 -81 0 -11 -4 -17 -10 -14
-5 3 -10 27 -10 53 0 42 -1 44 -15 26 -14 -19 -14 -19 -15 2 0 11 -5 25 -11
31 -15 15 -2 51 19 56 17 4 84 -3 91 -9z m-3282 -16 c13 -12 23 -27 23 -33 0
-7 9 -20 20 -30 11 -10 20 -22 20 -27 0 -5 19 -36 41 -70 l41 -60 -28 -24
c-16 -13 -32 -23 -35 -24 -14 0 -129 141 -153 188 -18 34 -16 43 17 80 25 27
25 27 54 0z m-122 2 c9 -15 -65 -84 -77 -72 -15 15 28 82 52 82 10 0 22 -4 25
-10z m1595 -10 c11 -11 20 -30 21 -42 0 -13 2 -34 3 -48 4 -36 -4 -52 -25 -47
-11 3 -21 1 -24 -4 -3 -4 -12 -6 -20 -2 -8 3 -15 0 -15 -6 0 -15 -47 -14 -53
2 -4 7 -9 2 -13 -12 l-7 -25 -9 23 c-7 19 -11 21 -23 11 -8 -6 -19 -9 -25 -5
-8 5 -9 -4 -5 -28 10 -52 -12 -56 -23 -5 -9 39 -10 40 -11 12 -1 -17 -4 -46
-7 -63 -6 -30 -9 -27 -43 57 -20 49 -44 100 -53 115 l-18 26 68 20 c144 43
252 51 282 21z m1960 10 c95 -12 188 -34 202 -48 5 -5 1 -23 -10 -43 -11 -19
-27 -57 -36 -85 -16 -50 -18 -51 -42 -40 -15 6 -27 22 -31 39 -8 38 -18 34
-32 -15 -10 -30 -15 -38 -22 -27 -5 8 -9 26 -9 42 0 24 -4 27 -34 27 -19 0
-43 3 -53 6 -16 6 -16 5 2 -9 17 -14 18 -16 3 -17 -9 0 -20 5 -23 10 -3 6 -19
10 -35 10 -29 0 -29 0 -25 53 5 64 22 107 44 107 9 0 55 -5 101 -10z m1414
-15 c25 -38 20 -59 -35 -139 -72 -105 -92 -122 -124 -108 -40 18 -40 38 -2 96
19 29 49 81 66 114 25 50 36 62 55 62 14 0 30 -10 40 -25z m113 3 c31 -35 47
-68 31 -68 -22 1 -91 66 -84 79 11 17 31 13 53 -11z m-4371 -65 c20 -43 63
-135 97 -205 33 -70 58 -131 54 -134 -14 -15 -37 9 -79 83 -43 74 -138 281
-138 300 0 9 20 33 27 33 2 0 20 -35 39 -77z m3674 52 c0 -38 -156 -385 -180
-400 -6 -3 -14 -4 -19 0 -11 6 3 50 47 145 17 36 44 100 61 143 17 43 38 89
47 102 18 28 44 33 44 10z m-4490 -34 c13 -25 13 -34 0 -26 -16 10 -32 45 -21
45 6 0 15 -9 21 -19z m942 2 c10 -9 18 -22 18 -29 0 -14 -38 -44 -56 -44 -12
0 -25 68 -17 83 7 12 36 8 55 -10z m3401 3 c19 -15 22 -43 7 -66 -8 -13 -13
-13 -37 0 -28 16 -39 40 -29 66 7 17 35 18 59 0z m-3217 -101 c13 -49 24 -91
24 -92 0 -2 -7 -3 -15 -3 -15 0 -85 126 -85 153 0 18 22 38 39 35 8 -2 23 -39
37 -93z m2894 61 c36 -13 72 -26 82 -30 12 -6 18 -1 23 22 6 30 28 47 46 36
15 -9 10 -58 -11 -99 -11 -21 -25 -54 -31 -73 -16 -50 -31 -21 -24 48 l6 55
-20 -38 c-11 -21 -27 -61 -36 -90 -9 -29 -19 -58 -21 -66 -6 -19 -35 6 -33 28
3 38 -2 71 -11 71 -5 0 -10 -6 -10 -14 0 -19 -30 -42 -38 -29 -4 5 -14 13 -22
16 -8 3 0 6 18 6 42 1 41 17 -4 31 -20 7 -39 22 -44 34 -5 11 -9 15 -9 9 -1
-7 -5 -13 -11 -13 -15 0 -12 45 6 90 16 38 19 41 48 35 17 -4 60 -17 96 -29z
m-2667 -3 c8 -16 17 -47 21 -69 l6 -41 -53 -12 c-28 -7 -58 -12 -66 -13 -10
-1 -12 -14 -9 -49 4 -37 1 -52 -12 -64 -16 -15 -18 -12 -29 32 -7 26 -26 79
-43 116 -19 40 -28 71 -22 76 13 13 135 50 166 50 20 1 31 -6 41 -26z m1357
11 c33 -11 -17 -24 -92 -24 -73 0 -96 8 -83 29 5 9 144 5 175 -5z m-2734 -8
c3 -8 2 -21 -3 -29 -9 -17 -83 -76 -157 -127 -47 -31 -50 -32 -62 -15 -18 24
-6 38 106 121 88 66 107 74 116 50z m5410 -62 c44 -31 89 -66 102 -78 22 -21
22 -24 7 -39 -15 -15 -19 -14 -59 11 -139 88 -178 125 -161 152 12 19 33 10
111 -46z m-5201 -28 c25 -35 45 -68 45 -73 0 -14 -127 -103 -320 -223 -90 -55
-160 -116 -160 -137 0 -16 5 -16 29 -3 15 8 17 6 13 -15 -2 -14 -6 -25 -9 -25
-3 0 -32 25 -66 55 -33 30 -64 55 -69 55 -21 0 -4 -45 40 -102 49 -63 102
-143 102 -153 0 -3 -8 -5 -19 -5 -28 0 -141 134 -185 218 -17 32 -17 35 0 53
9 10 23 19 31 19 9 0 12 6 9 18 -5 14 13 34 76 83 206 162 418 310 430 302 4
-2 28 -32 53 -67z m543 62 c-3 -7 -9 -13 -14 -14 -11 0 -61 -29 -127 -72 -49
-32 -63 -37 -49 -16 9 13 102 70 129 78 12 4 27 13 33 21 15 18 33 20 28 3z
m1647 -63 c-10 -42 -11 -63 -3 -72 22 -27 37 -12 52 50 12 48 15 53 12 22 -1
-22 2 -50 7 -63 8 -17 7 -26 -5 -38 -21 -21 -68 -6 -121 37 -45 37 -47 50 -5
47 28 -3 34 2 52 39 11 23 21 41 22 40 2 -1 -4 -29 -11 -62z m2195 14 c0 -6
-13 -1 -30 11 -16 12 -30 26 -30 31 0 6 14 1 30 -11 17 -12 30 -26 30 -31z
m712 -61 c85 -62 191 -138 236 -168 45 -30 84 -61 87 -68 8 -21 -14 -55 -89
-137 -48 -52 -72 -73 -79 -66 -8 8 -3 19 14 37 23 25 24 26 4 36 -11 7 -33 26
-50 43 -33 35 -151 124 -294 223 -50 34 -91 69 -91 77 0 21 79 135 94 135 8 0
83 -51 168 -112z m-4245 54 c11 -20 30 -54 41 -75 12 -21 22 -44 22 -52 0 -9
6 -12 15 -9 32 13 3 -22 -45 -53 l-49 -31 -56 110 c-31 60 -54 115 -52 123 6
13 74 34 93 28 6 -2 20 -21 31 -41z m3266 21 c15 -7 27 -18 27 -23 0 -21 -104
-224 -107 -209 -2 8 -20 22 -39 29 -58 23 -60 31 -18 112 68 131 64 128 137
91z m-1404 -27 c40 -63 20 -105 -50 -106 -37 0 -37 0 -41 45 -2 25 0 45 4 45
5 0 8 -6 8 -12 0 -24 17 -39 49 -43 27 -4 30 -2 22 13 -10 20 -24 92 -17 92 2
0 14 -15 25 -34z m1771 -26 c0 -4 9 -10 20 -13 19 -5 29 -27 12 -27 -9 0 -60
47 -82 75 -13 16 -10 16 18 -4 17 -12 32 -26 32 -31z m-2086 -22 c28 -20 96 2
96 31 0 6 6 11 13 11 12 0 47 -124 47 -166 0 -32 -36 -71 -70 -76 -38 -6 -38
-2 -1 17 49 25 53 82 8 102 -12 5 -44 7 -72 4 -45 -5 -50 -9 -53 -33 -4 -34
13 -66 41 -79 19 -8 17 -9 -8 -4 -77 16 -90 50 -59 156 25 88 24 87 36 64 6
-11 16 -23 22 -27z m-1772 -40 c15 -29 36 -77 47 -105 21 -53 21 -53 1 -53
-24 0 -53 43 -76 113 -8 26 -21 47 -28 47 -7 0 -51 -23 -97 -52 -103 -64 -168
-98 -185 -98 -7 0 -18 8 -23 19 -11 19 -40 35 -49 26 -3 -3 3 -14 12 -24 17
-19 16 -20 -41 -25 -32 -4 -73 -8 -90 -11 -18 -2 -33 0 -33 4 0 11 144 109
171 116 19 5 31 -1 54 -25 16 -16 33 -30 39 -30 6 0 51 24 101 54 143 85 160
94 165 95 3 1 18 -23 32 -51z m1339 35 c27 -32 123 -96 198 -132 64 -30 72
-36 50 -39 -32 -4 -138 39 -188 76 -56 41 -101 85 -101 99 0 18 25 16 41 -4z
m2457 -67 c60 -37 115 -66 124 -66 8 0 27 14 44 31 16 17 36 28 45 26 9 -2 54
-29 100 -58 l84 -54 -60 -3 c-78 -4 -105 3 -105 28 0 26 -18 25 -47 -2 l-24
-22 -82 44 c-45 24 -111 61 -146 82 -35 22 -64 38 -66 36 -4 -5 -55 -127 -55
-133 0 -3 6 -5 13 -5 7 0 22 -7 33 -15 17 -13 15 -13 -19 -4 -28 8 -42 7 -53
-2 -29 -24 -27 3 5 74 18 39 38 84 44 99 13 33 19 31 165 -56z m-1468 60 c0
-42 -209 -172 -262 -164 -19 3 -14 8 32 32 60 31 170 107 190 131 16 19 40 19
40 1z m-1206 -21 c16 -24 16 -25 -5 -25 -18 0 -19 -3 -9 -15 10 -12 7 -17 -14
-26 -14 -7 -26 -19 -26 -28 0 -12 -6 -9 -21 9 l-20 25 16 -39 c18 -45 19 -56
4 -56 -5 0 -17 17 -25 37 -9 20 -27 52 -41 70 -30 39 -25 48 32 62 69 16 91
13 109 -14z m1489 9 c32 -7 34 -22 8 -55 -10 -13 -25 -37 -34 -54 l-16 -30 -1
33 c0 17 -4 32 -10 32 -5 0 -10 -8 -10 -17 0 -14 -6 -11 -25 12 -13 17 -22 35
-20 42 2 6 -1 14 -8 16 -9 3 -8 8 2 21 15 18 25 18 114 0z m141 -49 c110 -32
289 -116 261 -123 -11 -2 -81 -2 -155 0 -140 5 -204 21 -216 53 -6 15 12 95
20 95 2 0 43 -11 90 -25z m-1799 4 c4 -6 9 -28 11 -50 3 -32 0 -39 -14 -40
-15 0 -14 -1 2 -8 35 -14 2 -20 -149 -26 -83 -3 -161 -8 -173 -11 -41 -8 -20
18 44 53 57 32 222 92 256 93 9 0 20 -5 23 -11z m-351 -76 c9 -9 -101 -53
-132 -53 -35 0 -23 8 50 36 72 26 72 26 82 17z m2530 -28 c23 -10 26 -14 11
-14 -11 0 -38 8 -60 19 -34 17 -36 19 -11 15 16 -4 43 -12 60 -20z m-3169 -15
c4 -6 -7 -10 -27 -10 -25 0 -29 3 -18 10 19 13 37 13 45 0z m4460 -107 c54
-29 91 -69 112 -123 17 -42 18 -127 21 -1442 l2 -1398 -24 -6 c-13 -3 -37 -4
-52 -2 l-29 3 -1 1413 c-1 1369 -2 1413 -20 1433 -10 11 -27 25 -36 30 -11 6
-1018 10 -2593 10 l-2576 0 -29 -21 c-17 -12 -32 -31 -35 -43 -3 -12 -7 -652
-8 -1422 l-2 -1400 -50 0 -50 0 -3 1375 c-2 990 0 1390 8 1427 15 72 91 157
158 177 40 13 406 14 2607 13 l2560 -2 40 -22z m409 -4 c25 -19 25 -22 11 -55
-45 -109 -205 -283 -205 -223 0 18 72 129 80 124 4 -3 7 1 6 8 0 6 3 13 8 14
17 3 46 59 46 90 0 36 9 63 20 63 4 0 19 -9 34 -21z m-5510 -155 c32 -32 33
-70 4 -101 -29 -31 -72 -30 -103 2 -50 49 -17 122 56 124 9 1 28 -11 43 -25z
m5069 -2 c15 -15 27 -39 27 -52 0 -35 -38 -70 -74 -70 -37 0 -49 7 -65 37 -17
34 -13 62 14 88 32 33 65 32 98 -3z m507 -62 c13 -13 18 -26 13 -35 -16 -28
-136 -175 -143 -175 -4 0 -19 18 -34 41 -26 38 -26 42 -11 65 20 31 29 30 56
-3 l22 -28 -6 25 c-3 14 -9 35 -12 48 -6 16 -3 22 8 22 9 0 26 13 39 29 28 36
41 38 68 11z m-6087 -22 c16 -21 18 -30 8 -41 -12 -15 -11 -51 2 -64 4 -3 13
8 19 25 7 18 16 32 19 32 9 0 79 -83 74 -88 -2 -2 -12 1 -22 7 -16 8 -22 5
-37 -20 -9 -16 -20 -29 -24 -29 -17 0 -152 152 -152 171 0 11 60 38 79 36 8
-1 23 -14 34 -29z m2882 -176 c-104 -342 -150 -716 -144 -1171 l4 -254 -85
-36 -85 -35 -1005 0 -1005 -1 -3 780 c-1 429 0 790 3 803 l5 22 1174 0 1174 0
-33 -108z m2540 -697 l0 -800 -989 -3 c-598 -1 -1001 1 -1020 7 -17 5 -62 23
-101 39 l-70 29 5 109 c10 214 3 567 -14 714 -25 215 -101 565 -151 693 -7 16
51 17 1166 15 l1174 -3 0 -800z m-2391 693 c49 -139 106 -409 133 -637 20
-172 23 -666 5 -824 -11 -95 -62 -414 -78 -489 -5 -26 -34 -41 -34 -18 0 5 13
94 29 197 52 333 55 366 56 678 0 234 -4 331 -18 440 -20 151 -56 338 -87 450
l-19 70 6 -305 c5 -328 -8 -725 -33 -990 -11 -111 -15 -226 -12 -352 l4 -186
-38 -10 c-29 -8 -40 -7 -43 1 -2 7 -12 59 -24 117 -87 446 -91 1024 -11 1479
26 144 94 403 117 444 11 19 23 2 47 -65z m-3130 -30 c25 -13 96 -79 96 -90 0
-4 -7 -5 -15 -2 -10 4 -18 -3 -25 -22 -22 -59 -54 -120 -74 -142 -24 -27 -54
-23 -126 13 -73 38 -90 59 -90 114 0 93 72 157 164 146 27 -3 59 -11 70 -17z
m6381 -18 c37 -36 57 -96 46 -138 -9 -33 -85 -89 -145 -107 -58 -18 -73 -7
-120 90 -27 54 -43 75 -57 75 -30 0 -23 15 27 55 88 73 189 83 249 25z m-6194
-171 c32 -17 65 -40 75 -50 18 -20 21 -17 -32 -34 -9 -3 -14 -11 -11 -19 3 -8
-2 -16 -14 -19 -11 -3 -16 -1 -13 5 4 6 -3 5 -15 -2 -22 -11 -21 -20 6 -51 12
-15 11 -17 -16 -21 -22 -3 -32 0 -35 11 -2 9 -2 -2 1 -23 l6 -39 -40 39 c-22
21 -50 46 -63 54 l-22 16 41 82 c26 51 47 82 57 82 9 0 42 -14 75 -31z m5917
4 c10 -16 32 -54 48 -87 l29 -58 -25 -17 c-14 -9 -41 -31 -61 -48 -42 -38 -53
-41 -44 -14 6 21 -25 38 -47 25 -7 -4 -2 5 12 21 17 19 21 29 13 32 -7 3 -13
12 -13 20 0 10 -6 14 -20 10 -15 -4 -20 0 -20 14 0 15 -7 19 -31 19 -28 0 -30
2 -18 17 18 21 130 93 146 93 6 0 20 -12 31 -27z m-5883 -153 c3 -5 1 -10 -4
-10 -6 0 -11 5 -11 10 0 6 2 10 4 10 3 0 8 -4 11 -10z m-257 -203 c17 -13 8
-81 -18 -146 -18 -44 -19 -44 -19 -15 -1 51 -19 57 -57 21 -38 -35 -42 -56
-17 -98 9 -15 14 -31 10 -35 -9 -9 -87 26 -87 40 0 5 20 39 43 75 24 37 52 86
61 111 28 71 42 79 84 47z m267 13 c3 -5 -1 -10 -9 -10 -9 0 -16 5 -16 10 0 6
4 10 9 10 6 0 13 -4 16 -10z m5755 0 c0 -5 -7 -10 -15 -10 -8 0 -15 5 -15 10
0 6 7 10 15 10 8 0 15 -4 15 -10z m352 -97 c28 -60 59 -114 69 -121 28 -19 23
-37 -14 -50 -45 -16 -49 -15 -42 8 10 32 -22 115 -49 128 -29 13 -36 7 -36
-32 0 -17 -4 -26 -9 -20 -8 9 -41 132 -41 154 0 7 41 31 68 39 1 1 26 -47 54
-106z m-6224 45 c36 -15 52 -26 52 -39 0 -18 -22 -83 -42 -126 -12 -25 -40
-41 -31 -17 4 10 -1 13 -18 12 -13 -2 -27 -7 -31 -13 -5 -6 -12 -4 -18 5 -9
13 -12 13 -21 -3 -7 -12 -18 -17 -32 -14 -18 5 -28 -4 -51 -41 -16 -26 -31
-42 -33 -36 -5 16 56 106 68 98 5 -3 8 -2 7 3 -1 4 12 45 30 90 18 45 32 90
32 99 0 11 5 14 18 9 9 -4 41 -16 70 -27z m-1811 -13 c250 -52 269 -59 301
-108 44 -70 123 -168 191 -239 35 -38 59 -68 53 -68 -21 0 -206 77 -287 120
-112 59 -274 169 -404 275 -9 8 -27 23 -41 34 -25 20 -25 20 -3 21 12 0 97
-16 190 -35z m460 -1 c157 -47 359 -153 442 -232 29 -28 66 -80 91 -127 23
-44 64 -113 91 -154 27 -41 49 -78 49 -82 0 -25 -200 36 -325 99 -154 77 -319
241 -443 439 -29 46 -52 85 -52 89 0 8 49 -3 147 -32z m7416 -11 c9 -27 20
-68 23 -93 l6 -45 -69 0 -69 -1 -22 56 c-34 81 -34 82 33 107 33 12 65 22 71
22 5 1 18 -20 27 -46z m1376 5 c-98 -192 -283 -388 -459 -486 -111 -61 -340
-125 -340 -94 0 6 4 12 8 14 16 6 129 183 160 249 37 81 89 128 227 203 119
65 234 113 330 137 100 25 99 25 74 -23z m526 32 c3 -5 2 -10 -3 -10 -5 0 -47
-31 -93 -68 -186 -152 -334 -243 -518 -317 -62 -25 -117 -45 -122 -45 -4 0 20
28 55 63 81 80 151 168 182 229 23 46 26 48 109 73 65 20 331 79 377 84 4 1
10 -3 13 -9z m-7811 -135 c-1 -119 -14 -274 -24 -280 -11 -7 -97 24 -109 39
-10 12 39 248 61 291 18 34 41 56 57 53 13 -3 16 -20 15 -103z m5723 35 c29
-59 63 -199 63 -260 0 -21 -9 -28 -57 -47 -32 -13 -61 -19 -65 -15 -12 12 -31
277 -23 337 6 50 9 56 28 53 16 -2 31 -22 54 -68z m291 -134 c18 -25 28 -47
23 -51 -6 -3 -22 15 -36 39 l-27 45 -45 -6 c-34 -4 -44 -3 -39 5 4 7 21 12 37
12 29 0 30 2 25 33 l-6 32 17 -33 c10 -17 33 -52 51 -76z m-6838 -31 c82 -17
213 -84 272 -138 34 -31 50 -56 63 -97 16 -53 89 -190 126 -239 11 -13 19 -27
19 -31 0 -9 -111 7 -170 24 -70 21 -127 53 -177 99 -72 67 -251 352 -239 383
7 17 23 17 106 -1z m7395 -63 c-69 -124 -186 -291 -230 -327 -58 -48 -182 -95
-272 -104 -40 -4 -73 -3 -73 1 0 4 21 36 46 70 49 66 104 171 104 197 0 50 98
135 215 186 64 29 176 53 217 47 l29 -4 -36 -66z m-6893 -116 c135 -34 328
-134 328 -169 0 -5 -9 -7 -20 -4 -22 6 -26 -3 -8 -21 9 -9 5 -11 -18 -8 -16 2
-42 9 -57 15 -43 17 -44 13 -7 -14 38 -28 27 -32 -27 -10 -41 17 -43 18 -43 8
0 -5 14 -16 31 -26 41 -23 31 -34 -10 -12 -18 9 -37 12 -45 8 -21 -12 41 -113
117 -192 66 -68 58 -73 -28 -15 -67 44 -135 122 -207 239 -64 104 -128 214
-128 221 0 8 29 4 122 -20z m6418 16 c0 -16 -187 -308 -238 -371 -35 -43 -158
-131 -184 -131 -7 0 8 18 34 41 64 54 172 219 144 219 -2 0 -23 -7 -46 -15
-61 -22 -69 -19 -29 11 19 15 25 23 14 19 -28 -11 -85 -13 -85 -3 0 4 3 8 8 8
4 0 18 9 32 20 25 20 25 20 -20 1 -49 -22 -67 -18 -35 6 11 9 13 13 5 11 -50
-17 -60 -18 -60 -10 0 16 67 70 120 97 131 66 340 126 340 97z m-7325 -229
c52 -54 95 -101 95 -105 0 -26 -96 19 -143 67 -36 37 -79 114 -70 128 10 16
27 3 118 -90z m8215 67 c0 -28 -33 -90 -62 -117 -40 -37 -145 -79 -136 -54 7
21 172 191 184 191 8 0 14 -9 14 -20z m-7711 -195 c54 -51 107 -122 98 -132
-8 -8 -64 15 -100 41 -46 34 -89 136 -57 136 6 0 33 -20 59 -45z m7161 20 c0
-54 -47 -112 -112 -140 -45 -18 -48 -18 -48 -2 0 14 137 167 151 167 5 0 9
-11 9 -25z m-8387 -14 c130 -25 382 -98 414 -120 5 -3 34 -37 65 -76 31 -38
84 -92 117 -120 33 -27 57 -51 52 -53 -15 -5 -172 38 -271 75 -130 48 -326
153 -439 235 -51 37 -100 68 -107 68 -7 0 -16 5 -19 10 -10 15 20 12 188 -19z
m9746 25 c-16 -16 -299 -196 -364 -231 -104 -57 -236 -107 -368 -139 -57 -14
-109 -26 -113 -26 -5 0 9 15 31 33 54 43 120 113 158 165 46 64 195 122 427
166 74 14 144 27 155 30 28 5 79 7 74 2z m-639 -23 c0 -34 -146 -212 -251
-308 -108 -98 -261 -175 -401 -200 -21 -4 -38 -3 -38 1 0 5 30 43 66 84 43 49
81 107 110 167 24 50 57 102 74 116 59 50 209 108 340 132 92 16 100 17 100 8z
m-8465 -33 c87 -25 200 -78 243 -115 19 -15 44 -52 57 -80 29 -66 78 -144 138
-217 26 -32 47 -60 47 -63 0 -6 -37 0 -108 16 -57 13 -159 59 -219 100 -107
74 -353 339 -353 381 0 15 109 3 195 -22z m3942 -175 c19 -133 22 -125 -55
-165 -44 -23 -95 -62 -148 -115 -66 -65 -89 -96 -122 -165 -22 -47 -43 -99
-47 -117 -3 -17 -13 -37 -21 -44 -9 -7 -14 -29 -13 -58 1 -43 16 -112 18 -83
1 6 9 12 20 12 15 0 22 -14 36 -67 39 -159 140 -283 291 -360 84 -43 117 -73
81 -73 -32 0 -117 32 -170 64 -32 19 -64 33 -72 29 -8 -3 -15 -1 -15 4 0 4 -9
14 -21 21 -18 12 -19 11 -11 -5 17 -30 129 -132 158 -143 15 -6 25 -13 22 -15
-8 -9 -127 33 -191 67 -77 41 -213 173 -256 248 -42 74 -42 37 1 -73 70 -184
185 -317 369 -429 127 -77 130 -80 99 -73 -47 11 -185 85 -254 137 -125 94
-232 246 -289 413 -30 87 -31 96 -32 265 0 157 2 183 23 250 83 261 262 449
522 546 59 22 64 17 77 -71z m500 53 c147 -61 296 -180 376 -300 147 -222 181
-547 82 -790 -94 -231 -297 -426 -518 -498 -60 -19 -55 -4 10 26 245 115 426
321 495 561 29 100 32 316 6 373 l-16 35 -2 -30 -1 -30 -14 25 c-14 24 -14 24
-16 -25 l-2 -50 -7 50 -7 50 -1 -42 c-2 -40 -22 -73 -22 -36 0 10 -5 25 -10
33 -7 11 -8 5 -6 -20 2 -19 1 -27 -1 -17 -6 24 -21 21 -25 -5 -3 -19 -7 -16
-25 22 -11 25 -30 72 -42 105 -12 33 -34 80 -48 105 -58 99 -195 216 -300 256
-45 18 -49 24 -34 70 5 16 13 59 16 97 5 50 10 67 21 67 9 0 49 -14 91 -32z
m-4015 8 c82 -16 315 -89 369 -116 19 -10 41 -31 47 -45 18 -39 91 -131 160
-201 l61 -62 -37 -6 c-65 -10 -166 -6 -227 9 -67 18 -167 69 -227 118 -82 65
-259 317 -224 317 2 0 37 -6 78 -14z m7488 3 c0 -24 -66 -133 -119 -197 -71
-84 -135 -133 -236 -183 -117 -57 -223 -73 -312 -46 l-42 12 50 49 c53 52 123
140 154 193 10 17 34 40 54 51 49 27 273 100 357 116 88 18 94 18 94 5z
m-6748 -161 c59 -28 117 -62 129 -74 l22 -23 -26 -6 c-17 -5 -34 -1 -49 9 -33
23 -44 20 -17 -5 24 -20 18 -21 -26 -3 -9 4 -15 3 -14 -2 1 -5 1 -15 0 -23 -1
-11 -4 -11 -18 0 -15 13 -15 12 -4 -9 6 -12 11 -28 9 -36 -2 -7 16 -38 39 -69
23 -32 39 -57 34 -57 -16 0 -205 195 -280 290 -57 73 -55 78 27 68 49 -6 95
-21 174 -60z m6168 54 c0 -29 -247 -311 -303 -347 l-32 -20 32 41 c35 44 84
156 60 136 -19 -16 -28 -3 -15 22 10 20 10 20 -8 5 -40 -33 -47 -31 -18 7 16
21 22 34 14 28 -18 -13 -110 -19 -110 -7 0 22 158 102 250 127 60 16 130 21
130 8z m-300 -151 c0 -5 -11 -11 -25 -13 -14 -3 -25 -3 -25 -1 0 3 34 19 48
22 1 1 2 -3 2 -8z m-6949 -109 c38 -25 199 -174 199 -184 0 -4 -12 -8 -27 -8
-30 0 -93 32 -136 70 -29 25 -87 112 -87 130 0 15 22 12 51 -8z m8121 -11
c-26 -72 -126 -161 -195 -177 -62 -13 -50 5 75 118 86 76 136 101 120 59z
m-3863 -119 c43 -32 91 -108 91 -144 0 -42 -14 -34 -40 23 -14 29 -47 72 -77
99 -82 75 -64 90 26 22z m-349 28 c0 -6 -19 -27 -41 -47 -23 -21 -55 -61 -71
-90 -30 -53 -48 -67 -48 -38 0 39 60 127 110 161 38 26 50 29 50 14z m-3311
-54 c38 -30 76 -63 86 -72 17 -17 17 -18 -4 -28 -42 -19 -146 51 -170 115 -10
27 -6 39 11 39 5 0 40 -24 77 -54z m6981 25 c0 -15 -9 -39 -19 -53 -27 -34
-116 -80 -148 -76 -27 3 -27 4 27 55 121 113 140 123 140 74z m-3469 9 c47
-13 108 -61 136 -108 61 -100 -2 -243 -130 -297 -74 -31 -144 -15 -217 51 -82
74 -99 151 -55 240 47 95 160 143 266 114z m-4537 -95 c195 -26 345 -61 489
-114 76 -28 141 -51 147 -51 5 0 28 -25 50 -55 22 -30 45 -55 50 -55 6 0 10
-5 10 -11 0 -19 -212 -4 -305 20 -134 36 -332 121 -525 226 -36 19 -70 35 -77
35 -6 0 -15 5 -18 10 -9 14 41 13 179 -5z m8955 -76 c-213 -105 -224 -110
-344 -154 -140 -51 -415 -90 -415 -59 0 8 4 14 10 14 5 0 27 24 49 53 38 53
42 54 168 99 70 26 151 53 178 62 94 29 379 73 484 75 l55 1 -185 -91z m-8059
15 c91 -21 163 -56 193 -95 14 -19 64 -66 111 -104 78 -64 83 -71 63 -78 -39
-14 -219 -20 -263 -8 -106 29 -314 223 -314 293 0 18 6 19 73 13 39 -4 101
-13 137 -21z m7360 7 c0 -31 -85 -134 -157 -193 -137 -110 -109 -100 -278 -97
-82 1 -153 4 -157 6 -4 2 14 23 40 46 26 23 78 71 115 107 38 36 78 70 90 77
58 32 218 69 310 72 30 1 37 -3 37 -18z m-3214 -23 c12 -37 6 -175 -11 -241
-27 -107 -60 -164 -137 -241 -96 -96 -258 -179 -258 -133 0 7 26 25 58 41 31
15 78 44 104 63 49 36 133 135 162 190 13 25 56 186 56 209 0 3 -53 4 -117 3
l-118 -1 0 38 0 39 115 5 c110 5 115 6 118 28 2 12 7 22 12 22 5 0 12 -10 16
-22z m-3631 -7 c101 -21 206 -60 213 -78 3 -10 -15 -12 -75 -8 -76 5 -77 5
-38 -9 l40 -13 -60 3 c-43 3 -54 2 -40 -5 26 -12 10 -13 -37 -2 -21 5 -38 7
-38 4 0 -3 23 -34 51 -70 78 -97 54 -95 -81 7 -129 98 -179 158 -153 183 12
13 129 7 218 -12z m6334 10 c12 -8 13 -15 3 -35 -17 -38 -255 -236 -284 -236
-10 0 13 39 57 95 49 62 50 67 20 55 -35 -13 -54 -13 -35 1 15 11 -1 10 -100
-6 -28 -4 -25 -2 15 12 60 21 41 27 -41 14 -32 -5 -63 -5 -68 -1 -9 9 50 42
118 67 99 36 281 55 315 34z m-3591 -36 c6 -3 12 -20 12 -40 l0 -35 -79 0
c-43 0 -106 -3 -140 -6 l-61 -7 0 36 c0 63 -2 62 133 59 67 -2 128 -5 135 -7z
m606 -204 c-37 -97 -137 -171 -253 -187 -137 -18 -293 91 -326 229 -11 42 8
32 27 -16 22 -52 88 -121 142 -149 64 -33 153 -35 228 -7 78 29 127 78 164
165 25 57 29 62 32 39 2 -16 -4 -48 -14 -74z m-4294 -120 c173 -11 365 -25
425 -30 61 -6 270 -22 465 -36 195 -13 375 -27 400 -30 42 -5 812 -55 844 -55
25 0 68 -108 74 -184 l5 -69 -54 6 c-30 3 -90 9 -134 12 -44 4 -87 9 -95 12
-8 2 -35 6 -60 8 -78 5 -361 35 -475 50 -60 8 -209 24 -330 35 -121 11 -249
25 -285 30 -72 10 -363 43 -800 90 -371 39 -633 68 -797 86 -73 7 -140 14
-149 14 -115 0 407 -71 771 -104 88 -8 279 -29 425 -46 583 -67 878 -99 918
-100 24 0 31 -27 8 -36 -7 -3 -121 6 -252 21 -132 14 -324 35 -429 46 -104 11
-262 28 -350 39 -88 11 -263 31 -390 45 -126 14 -387 48 -578 76 -192 27 -350
49 -353 49 -2 0 -4 4 -4 10 0 25 132 72 240 84 80 9 667 -5 960 -23z m9004 19
c139 -16 266 -81 183 -94 -165 -26 -731 -97 -997 -127 -52 -5 -185 -21 -295
-34 -190 -23 -495 -57 -800 -90 -77 -8 -174 -16 -215 -17 -64 -3 -75 -1 -78
15 -3 14 4 17 37 17 22 0 73 4 113 10 40 5 174 21 298 34 124 14 362 40 530
60 168 19 411 47 540 61 481 51 606 66 630 75 44 16 -33 8 -1010 -96 -129 -13
-329 -36 -445 -49 -115 -14 -253 -30 -305 -35 -52 -6 -131 -15 -175 -20 -44
-5 -118 -12 -165 -15 -47 -3 -132 -13 -190 -21 -233 -32 -365 -44 -369 -33 -2
8 -6 7 -11 -1 -11 -18 -173 -37 -178 -20 -4 10 -6 10 -13 -1 -5 -9 -51 -17
-138 -24 -125 -11 -152 -17 -138 -31 12 -13 55 -9 587 55 153 19 249 26 254
20 25 -24 17 -25 -514 -84 -118 -13 -244 -25 -280 -26 l-65 -3 4 75 c3 76 41
198 67 220 8 7 226 26 571 50 307 21 740 52 963 69 504 37 831 59 935 63 214
8 590 6 669 -3z m-5831 -107 c3 -16 1 -68 -5 -118 -6 -49 -8 -129 -5 -177 l6
-88 -153 0 -153 0 -7 108 c-3 59 -9 121 -12 137 l-6 31 78 -7 c55 -4 81 -11
89 -23 11 -14 16 -11 40 26 50 78 99 138 111 138 6 0 14 -12 17 -27z m1710 5
c11 -13 42 -56 69 -97 41 -63 50 -72 54 -53 5 16 16 22 53 27 25 3 63 8 85 11
l38 5 -7 -38 c-4 -21 -10 -83 -14 -138 l-6 -100 -150 0 -150 0 0 160 c0 88 -4
165 -8 171 -7 12 2 74 11 74 2 0 14 -10 25 -22z m-5998 -38 c13 -5 14 -9 5 -9
-8 0 -24 4 -35 9 -13 5 -14 9 -5 9 8 0 24 -4 35 -9z m10240 -11 c-112 -35
-579 -118 -592 -105 -3 3 17 7 44 11 173 24 472 80 548 104 17 5 37 9 45 9 8
0 -12 -8 -45 -19z m-10058 -28 c76 -16 166 -35 201 -41 34 -7 60 -15 58 -17
-6 -6 -369 65 -400 77 -38 16 2 10 141 -19z m4922 -5 l39 -25 6 -213 c4 -117
8 -565 9 -995 1 -430 5 -775 10 -768 12 22 64 280 82 405 25 182 37 500 25
690 -12 197 -49 488 -96 753 -17 99 -18 115 -4 101 22 -22 97 -398 126 -634
36 -289 29 -704 -17 -1005 -41 -277 -122 -565 -157 -565 -27 0 -70 109 -116
299 -64 259 -96 530 -96 805 0 283 14 407 105 950 19 116 35 213 35 218 0 12
7 10 49 -16z m-1459 -11 c269 -17 260 -14 280 -85 10 -36 14 -183 5 -191 -2
-3 -40 -2 -82 3 -269 28 -373 39 -414 44 l-47 6 -7 46 c-4 25 -19 81 -35 124
l-27 79 41 -6 c22 -3 151 -12 286 -20z m3275 8 c-19 -46 -65 -199 -65 -219 0
-20 -6 -21 -127 -29 -148 -9 -172 -11 -273 -24 -41 -5 -90 -10 -107 -10 l-33
-1 0 90 c0 86 14 149 37 163 5 3 117 13 249 22 131 9 246 17 254 19 8 2 28 4
44 5 23 1 27 -2 21 -16z m-2579 -100 c56 -127 68 -150 113 -218 63 -96 73
-108 176 -210 50 -50 126 -113 168 -140 42 -28 77 -54 77 -58 0 -13 -39 2
-137 53 -220 115 -346 267 -408 495 -39 139 -33 177 11 78z m1604 36 c0 -41
-33 -166 -60 -225 -31 -70 -87 -160 -127 -205 -47 -52 -184 -150 -267 -191
-94 -45 -146 -53 -76 -11 134 79 288 222 365 339 39 58 114 213 134 277 14 40
31 50 31 16z m-5432 4 c-10 -2 -26 -2 -35 0 -10 3 -2 5 17 5 19 0 27 -2 18 -5z
m9099 -19 c-3 -3 -12 -4 -19 -1 -8 3 -5 6 6 6 11 1 17 -2 13 -5z m-84 -11 c-7
-2 -19 -2 -25 0 -7 3 -2 5 12 5 14 0 19 -2 13 -5z m-7013 -83 c47 -5 168 -18
270 -30 102 -12 223 -25 270 -30 47 -5 116 -14 154 -19 46 -7 76 -7 88 0 14 7
20 6 24 -5 9 -24 -4 -38 -26 -26 -10 5 -25 7 -33 4 -16 -6 -206 11 -567 51
-238 27 -253 30 -285 51 -19 14 -19 14 0 14 11 0 58 -5 105 -10z m-795 -25
c341 -37 515 -55 526 -55 8 0 9 -3 3 -9 -13 -13 -607 51 -739 79 -36 8 -35 8
15 5 30 -3 118 -12 195 -20z m652 11 c4 -3 -16 -132 -23 -150 -4 -11 -1 -16
10 -16 9 0 16 -5 16 -11 0 -6 -7 -8 -16 -5 -9 3 -20 6 -25 6 -6 0 -7 5 -4 10
4 6 -7 10 -25 10 -29 0 -31 2 -26 28 3 15 8 45 12 67 10 63 21 76 52 69 15 -4
28 -7 29 -8z m5510 2 c13 -21 42 -143 35 -149 -4 -4 -21 -9 -38 -12 l-30 -6
-13 74 c-8 41 -11 81 -8 90 8 18 43 20 54 3z m838 1 c-53 -9 -597 -73 -704
-83 -35 -3 -61 -3 -57 1 8 9 709 91 771 91 39 0 39 -1 -10 -9z m-5110 -94 c88
-9 175 -19 194 -21 33 -5 34 -6 15 -24 -16 -15 -27 -17 -69 -10 -39 6 -54 5
-67 -8 -16 -14 -18 -14 -18 1 0 20 -49 24 -68 5 -9 -9 -12 -8 -12 5 0 24 -36
22 -53 -3 -12 -18 -21 -19 -75 -14 -60 7 -85 23 -39 25 l22 2 -23 4 c-46 9
-42 62 5 57 15 -2 100 -10 188 -19z m3243 -22 l-3 -38 -72 -3 c-62 -2 -73 0
-73 13 0 14 -9 16 -52 12 -290 -28 -320 -29 -329 -16 -13 22 0 29 54 30 29 0
120 9 202 19 83 10 178 18 213 19 l63 1 -3 -37z m-4081 -9 c139 -16 251 -30
249 -32 -11 -11 -544 43 -579 59 -26 11 -21 11 330 -27z m4998 28 c-12 -10
-351 -50 -475 -57 -116 -5 -83 1 180 34 238 31 310 36 295 23z m-3857 -32 c6
0 12 -9 12 -20 0 -11 -4 -20 -10 -20 -5 0 -10 7 -10 16 0 13 -7 15 -30 11 -16
-4 -30 -3 -30 2 0 15 15 22 35 17 11 -3 26 -6 33 -6z m326 -41 c8 -8 -19 -10
-97 -7 -78 2 -106 0 -103 -9 3 -6 -4 -13 -15 -16 -12 -3 -22 0 -26 9 -3 8 -9
11 -14 8 -5 -3 -10 0 -10 5 -1 6 -2 17 -3 24 -1 6 -1 15 0 18 5 9 257 -20 268
-32z m2036 1 c0 -16 -4 -30 -10 -30 -5 0 -10 6 -10 13 0 11 -28 13 -137 10
-96 -3 -133 -1 -122 6 18 11 143 28 227 30 51 1 52 1 52 -29z m-2640 16 c0 -3
-4 -8 -10 -11 -5 -3 -10 -1 -10 4 0 6 5 11 10 11 6 0 10 -2 10 -4z m-1310 -31
c17 -9 30 -20 30 -25 0 -6 15 -27 34 -47 90 -101 97 -201 22 -310 -21 -31 -41
-49 -57 -51 l-24 -4 22 24 c35 37 73 129 73 176 0 84 -46 130 -153 152 -51 10
-61 9 -89 -7 -51 -30 -72 -76 -73 -158 0 -56 6 -82 27 -127 37 -80 6 -75 -43
7 -49 82 -21 256 46 287 14 6 29 26 35 44 9 25 20 36 43 43 48 14 75 13 107
-4z m5692 -12 c10 -9 18 -24 18 -34 0 -10 12 -24 27 -31 15 -7 41 -32 57 -56
25 -35 31 -55 34 -112 5 -83 -16 -134 -78 -195 l-40 -39 37 69 c28 53 37 83
40 134 6 88 -12 131 -81 189 -38 31 -180 -1 -222 -50 -19 -24 -24 -41 -24 -84
0 -62 16 -106 61 -169 39 -54 31 -70 -12 -29 -108 102 -118 234 -26 348 19 23
36 49 40 59 9 24 142 25 169 0z m-1685 -49 c-3 -3 -12 -4 -19 -1 -8 3 -5 6 6
6 11 1 17 -2 13 -5z m-2350 -10 c-3 -3 -12 -4 -19 -1 -8 3 -5 6 6 6 11 1 17
-2 13 -5z m-1672 -66 c31 -14 33 -33 3 -24 -13 3 -29 6 -35 6 -7 0 -13 7 -13
15 0 18 11 19 45 3z m5633 0 c-2 -6 -19 -14 -38 -16 -30 -3 -32 -2 -21 12 16
19 65 22 59 4z m-3460 -20 c7 -13 17 -30 23 -39 11 -14 -15 -80 -83 -212 -7
-13 -3 -20 17 -29 29 -13 36 -45 8 -33 -10 4 -45 16 -78 27 -33 12 -64 24 -68
28 -9 8 149 280 162 280 4 0 13 -10 19 -22z m1374 -76 c32 -53 69 -115 82
-138 l25 -40 -81 -32 c-84 -33 -122 -33 -69 0 l30 20 -55 109 -54 110 27 34
c16 19 30 35 33 35 3 0 31 -44 62 -98z m-3526 44 c10 -29 -55 -348 -76 -370
-18 -18 -23 74 -12 221 6 84 13 157 16 161 7 12 67 2 72 -12z m5633 -26 c16
-76 26 -326 13 -334 -22 -13 -76 165 -87 288 -8 84 -3 96 42 96 18 0 23 -9 32
-50z m-6100 -70 c151 -17 195 -29 178 -46 -6 -6 -108 4 -277 27 -106 15 -120
18 -120 29 0 14 33 13 219 -10z m6741 10 c0 -10 -5 -11 -211 -40 -174 -24
-229 -26 -211 -7 14 13 283 54 370 56 28 0 52 -3 52 -9z m-5885 -40 c260 -31
1169 -150 1348 -176 59 -9 107 -20 107 -25 0 -13 -21 -12 -265 16 -217 25
-337 40 -690 89 -99 14 -241 32 -315 41 -74 9 -197 25 -273 36 -76 10 -140 19
-142 19 -3 0 -5 7 -5 15 0 12 8 15 33 10 17 -3 109 -14 202 -25z m4998 9 c-5
-5 -89 -20 -188 -34 -99 -13 -292 -40 -430 -59 -540 -76 -931 -126 -985 -126
-24 0 -31 3 -23 11 10 10 347 61 823 123 146 19 351 47 455 61 267 37 307 41
333 36 13 -2 20 -7 15 -12z m-3343 -240 c-48 -93 -301 -502 -366 -591 -48 -64
-55 -49 -13 28 101 187 131 248 116 235 -10 -7 -38 -47 -64 -89 -26 -41 -49
-70 -51 -64 -4 12 172 360 234 465 21 34 44 72 51 85 l14 22 49 -25 50 -25
-20 -41z m1670 -51 c106 -188 223 -425 217 -440 -3 -9 -8 -6 -13 7 -13 32 -91
152 -105 161 -20 12 -5 -18 77 -163 42 -73 74 -138 72 -145 -2 -6 -37 34 -76
90 -98 137 -342 537 -345 564 -1 16 9 28 38 45 22 12 43 23 47 23 4 0 43 -64
88 -142z m-3874 105 c-10 -10 -19 5 -10 18 6 11 8 11 12 0 2 -7 1 -15 -2 -18z
m475 -18 c151 -19 328 -42 394 -50 66 -8 181 -23 255 -34 74 -11 209 -29 300
-41 280 -35 501 -79 405 -80 -37 0 -524 57 -845 100 -36 5 -227 30 -424 55
-402 51 -406 52 -406 71 0 19 10 19 321 -21z m5234 25 c3 -6 -4 -14 -17 -19
-22 -8 -504 -77 -748 -106 -63 -8 -216 -28 -340 -45 -264 -36 -473 -60 -515
-59 -126 2 266 65 1095 175 151 20 316 42 365 49 115 16 152 17 160 5z m-3117
-60 c21 -6 11 -8 -39 -9 l-66 -1 -174 -173 c-96 -95 -220 -222 -277 -281 -57
-59 -106 -106 -108 -103 -11 10 158 201 345 390 l196 198 48 -6 c27 -4 60 -11
75 -15z m1047 -172 c167 -164 274 -284 310 -348 4 -8 -111 103 -256 248 l-263
263 -63 -2 c-72 -3 -93 7 -37 16 22 4 44 8 49 10 47 16 63 5 260 -187z m-3333
38 c9 -13 9 -72 -1 -104 l-6 -23 -38 33 c-36 31 -38 35 -31 76 7 42 7 43 38
36 17 -3 34 -12 38 -18z m5361 -17 c7 -51 4 -57 -39 -92 l-34 -29 0 71 c0 65
2 72 23 81 38 15 44 11 50 -31z m-4928 -108 c61 -59 136 -129 168 -155 55 -47
57 -50 57 -97 0 -33 -4 -49 -13 -49 -29 0 -151 96 -277 216 -139 133 -165 159
-183 180 l-17 21 77 -5 78 -4 110 -107z m4574 -4 c-109 -103 -286 -249 -338
-280 l-31 -18 0 59 0 59 83 74 c45 41 84 76 87 79 3 3 36 34 73 70 l68 65 77
5 c45 3 79 1 81 -5 2 -5 -43 -54 -100 -108z m-4394 75 c37 -7 40 -10 41 -42 1
-64 -7 -65 -77 -10 -35 29 -66 54 -68 56 -7 6 60 4 104 -4z m4150 -1 c-6 -5
-35 -29 -67 -54 -61 -49 -70 -46 -60 21 4 29 7 31 51 35 25 2 55 4 66 5 11 1
15 -2 10 -7z m-3989 -21 l24 0 0 -436 c0 -394 -2 -436 -16 -430 -9 3 -19 6
-24 6 -5 0 -16 7 -24 16 -14 14 -16 67 -16 436 0 379 2 420 16 414 9 -3 27 -6
40 -6z m3794 -421 l0 -420 -32 -14 c-18 -7 -36 -11 -40 -9 -5 3 -8 198 -8 434
l0 429 33 3 c17 2 35 2 40 0 4 -2 7 -192 7 -423z m-4717 385 c47 -24 164 -114
322 -248 76 -65 215 -179 307 -253 92 -73 168 -141 168 -149 0 -13 -7 -11 -37
7 -195 120 -392 266 -558 415 -44 39 -114 97 -155 128 -61 45 -82 56 -113 56
-81 0 -130 -73 -108 -157 15 -56 86 -132 185 -197 93 -63 370 -213 656 -356
290 -145 689 -297 736 -279 36 13 80 77 99 142 9 34 21 72 26 84 l8 23 78 -37
c393 -183 597 -249 969 -313 93 -16 172 -35 187 -45 25 -16 28 -16 53 4 15 12
38 21 53 21 53 0 330 51 461 85 193 51 424 137 650 244 36 17 70 31 76 31 6 0
14 -20 17 -45 4 -25 19 -71 33 -101 32 -67 73 -97 124 -91 57 7 381 133 565
220 209 98 584 297 725 385 127 79 224 173 240 234 22 78 -31 153 -108 153
-45 -1 -87 -29 -235 -158 -59 -53 -124 -108 -144 -124 -20 -15 -61 -49 -92
-74 -69 -56 -391 -272 -397 -266 -16 16 41 68 336 302 21 17 78 64 126 105 49
42 109 91 134 110 25 19 47 37 50 40 11 12 126 98 147 108 29 16 106 15 146
-2 63 -26 136 -124 137 -183 0 -38 -31 -115 -62 -154 -101 -125 -339 -267
-873 -518 -494 -233 -846 -356 -1240 -436 -356 -71 -538 -89 -895 -89 -412 0
-718 39 -1129 145 -377 97 -663 208 -1159 450 -122 60 -228 109 -235 109 -20
1 -203 107 -332 193 -169 113 -246 244 -205 351 14 37 88 115 124 131 43 19
101 18 139 -1z m1595 -70 c24 -7 5 -227 -24 -272 -28 -42 -37 -11 -42 143 l-5
146 29 -6 c16 -4 35 -8 42 -11z m2773 -19 c79 -52 104 -180 96 -485 -5 -187
-16 -272 -30 -225 -3 11 -7 64 -8 117 -2 56 -8 107 -15 120 -12 21 -13 19 -14
-26 0 -76 -9 -50 -25 77 -30 227 -63 341 -102 354 -7 3 -9 -30 -7 -106 3 -68
1 -112 -6 -116 -5 -3 -10 1 -10 10 0 9 -4 13 -10 10 -6 -3 -10 5 -10 19 0 14
-4 28 -10 31 -6 4 -10 -15 -10 -49 0 -31 -4 -56 -10 -56 -5 0 -10 21 -10 48 0
62 -23 158 -44 181 -9 10 -16 27 -16 37 0 23 43 68 80 83 37 16 120 3 161 -24z
m-2944 6 c45 -28 48 -51 19 -134 -13 -40 -28 -98 -31 -130 -7 -63 -25 -68 -25
-6 0 21 -4 39 -10 39 -5 0 -10 -12 -10 -26 0 -14 -5 -35 -12 -47 -12 -22 -12
-21 -19 8 -3 17 -4 74 -1 129 4 82 3 98 -9 94 -19 -6 -36 -71 -54 -203 l-14
-110 3 100 c4 100 4 100 -10 50 -14 -52 -38 -188 -50 -290 -7 -55 -8 -57 -14
-25 -4 25 -8 5 -13 -70 -5 -57 -10 -107 -13 -109 -23 -23 -37 127 -32 349 4
174 8 215 26 271 23 68 37 87 87 113 43 23 142 21 182 -3z m2644 -71 c-2 -111
-12 -200 -21 -200 -22 0 -42 78 -47 181 l-6 110 38 -3 38 -3 -2 -85z m-521 11
c0 -6 -5 -13 -10 -16 -6 -4 -7 -12 -3 -20 14 -24 120 -103 244 -184 190 -123
225 -151 187 -151 -32 0 -327 197 -412 274 l-49 45 -39 -20 c-101 -52 -345
-124 -392 -116 -20 3 -20 4 4 14 14 6 77 27 140 47 63 21 160 59 215 86 107
52 115 55 115 41z m-1350 -60 c70 -33 169 -72 221 -86 114 -33 138 -50 58 -41
-65 7 -236 64 -321 107 l-59 30 -65 -59 c-61 -56 -280 -210 -352 -246 -18 -10
-41 -16 -50 -14 -10 2 53 50 163 123 202 134 278 198 269 227 -3 10 -2 18 2
18 4 0 65 -27 134 -59z m-2068 -64 c140 -93 190 -127 333 -230 63 -45 203
-154 215 -167 3 -4 27 -21 53 -40 71 -50 40 -48 -45 3 -40 24 -102 58 -138 76
-36 17 -91 51 -124 74 -142 102 -231 170 -234 178 -2 4 -31 30 -65 58 -80 63
-177 156 -155 148 9 -3 81 -48 160 -100z m5488 86 c0 -8 -80 -83 -128 -119
-20 -16 -51 -42 -67 -59 -65 -66 -297 -229 -368 -258 -19 -9 -60 -31 -90 -51
-69 -43 -138 -79 -143 -73 -13 13 380 304 626 464 63 42 124 81 135 89 22 15
35 17 35 7z m-1302 -158 l0 -40 -8 40 c-4 22 -10 63 -13 90 l-6 50 14 -50 c7
-27 13 -68 13 -90z m-170 -230 c0 -248 -15 -221 -24 46 -7 191 1 291 17 199 4
-25 7 -135 7 -245z m-2672 66 c-4 -108 -11 -218 -16 -246 -6 -44 -7 -39 -9 45
-2 166 11 410 22 403 7 -4 7 -74 3 -202z m741 150 c93 -33 156 -49 300 -77 21
-4 24 -9 38 -96 7 -47 6 -47 -130 -14 -173 42 -430 138 -423 157 4 12 81 68
94 69 6 0 60 -17 121 -39z m1342 12 c22 -16 40 -33 41 -39 0 -23 -220 -109
-398 -155 -134 -34 -176 -37 -168 -11 3 9 8 38 11 64 7 45 8 47 49 53 68 11
257 62 326 88 85 32 92 32 139 0z m-1957 -105 c3 -7 0 -34 -5 -61 -17 -84 -63
-72 -51 13 3 25 8 48 11 53 7 11 41 8 45 -5z m2456 -47 c4 -66 -11 -86 -39
-52 -19 23 -26 90 -12 105 4 4 16 6 28 4 17 -3 20 -11 23 -57z m-4683 -21
c-21 -40 -19 -103 5 -150 21 -42 181 -190 255 -237 45 -28 56 -43 32 -43 -25
0 -214 100 -265 140 -130 104 -146 192 -54 293 34 36 46 35 27 -3z m6902 -34
c54 -79 41 -155 -41 -229 -51 -47 -296 -162 -296 -139 0 4 21 20 47 37 97 61
211 166 241 222 14 26 13 113 -3 147 -16 36 18 11 52 -38z m-6665 -10 c-3 -36
0 -46 16 -55 30 -16 65 16 65 58 0 24 3 29 9 17 12 -21 4 -46 -23 -74 -38 -42
-89 -18 -89 42 0 24 14 56 25 56 0 0 -1 -20 -3 -44z m6310 -43 c27 -33 82 6
70 49 -3 14 -1 19 6 14 30 -18 -2 -96 -39 -96 -27 0 -69 44 -69 73 0 38 15 42
18 5 2 -18 8 -39 14 -45z m-5770 -95 c83 -53 303 -241 289 -246 -18 -6 -234
124 -279 168 -48 47 -112 124 -112 134 0 8 13 1 102 -56z m5313 -26 c-61 -58
-126 -109 -200 -154 -60 -37 -112 -65 -114 -62 -7 7 75 89 154 154 78 64 212
149 235 150 8 0 -26 -40 -75 -88z m-1391 47 c-3 -5 -10 -7 -15 -3 -5 3 -7 10
-3 15 3 5 10 7 15 3 5 -3 7 -10 3 -15z m-2524 1 c0 -5 -5 -10 -11 -10 -5 0 -7
5 -4 10 3 6 8 10 11 10 2 0 4 -4 4 -10z m-2314 -42 c9 -18 29 -51 44 -73 15
-22 31 -51 35 -65 5 -17 -2 -11 -22 18 -34 53 -41 34 -14 -37 12 -28 17 -51
13 -51 -5 0 -26 25 -47 55 -21 31 -40 54 -42 51 -2 -2 8 -34 22 -71 15 -36 24
-69 21 -72 -3 -4 -7 -4 -9 -2 -2 2 -16 24 -32 49 -35 54 -43 41 -16 -29 23
-62 13 -66 -25 -8 -35 53 -43 31 -15 -42 12 -28 17 -51 12 -51 -5 0 -25 26
-45 58 -38 61 -46 54 -20 -21 24 -70 12 -77 -26 -16 -41 63 -51 48 -21 -32 11
-29 19 -55 16 -57 -2 -2 -19 17 -37 42 -37 54 -45 47 -28 -25 7 -27 10 -52 8
-55 -3 -2 -17 19 -32 47 -16 28 -31 48 -34 45 -3 -3 1 -31 8 -61 7 -30 11 -57
8 -60 -3 -3 -20 16 -37 42 l-33 48 7 -49 c4 -27 9 -55 12 -62 11 -28 -17 -13
-34 19 l-17 32 -7 -25 c-13 -46 -9 -115 10 -155 49 -108 637 -582 1133 -913
595 -398 1116 -621 1783 -766 524 -113 1111 -136 1673 -65 650 82 1323 312
1857 634 392 237 888 599 1234 901 139 122 172 156 200 209 22 42 29 129 11
140 -5 3 -10 0 -10 -7 -1 -9 -5 -7 -14 5 -20 26 -28 20 -21 -15 l6 -33 -14 27
c-10 17 -13 41 -10 67 3 23 3 41 0 41 -4 0 -18 -20 -33 -45 -14 -25 -28 -44
-30 -42 -2 2 3 26 11 53 21 70 19 72 -25 29 -44 -43 -51 -35 -19 26 20 41 18
68 -4 38 -62 -81 -80 -90 -46 -21 30 61 18 73 -20 19 -17 -26 -34 -47 -36 -47
-3 0 1 17 9 38 15 40 28 102 21 102 -2 0 -18 -21 -35 -46 -18 -25 -34 -43 -37
-41 -2 3 6 28 18 56 25 59 19 82 -7 27 -17 -35 -42 -52 -30 -20 3 9 9 28 12
42 3 20 -2 15 -20 -18 -17 -30 -25 -38 -25 -25 0 11 6 31 14 45 8 14 14 36 14
50 0 23 -2 21 -24 -15 -13 -22 -28 -47 -33 -55 -22 -35 -20 2 3 63 14 37 23
67 21 67 -2 0 -16 -20 -30 -44 -14 -24 -32 -46 -41 -49 -12 -5 -11 3 6 46 11
29 23 61 25 72 5 20 5 20 -8 1 -24 -36 -81 -97 -86 -92 -2 3 17 33 43 68 26
34 56 80 66 101 l20 38 82 -73 c45 -40 136 -127 204 -193 145 -143 175 -195
181 -312 8 -140 -45 -201 -496 -575 -58 -48 -138 -111 -177 -139 -38 -28 -142
-103 -230 -166 -517 -374 -955 -605 -1481 -782 -561 -188 -1066 -271 -1659
-271 -569 0 -1031 71 -1580 242 -264 82 -719 280 -945 409 -422 243 -908 591
-1291 926 -209 182 -244 233 -244 358 0 111 23 153 155 286 120 121 301 288
312 289 4 0 15 -15 24 -32z m6383 1 c-25 -48 -170 -179 -264 -240 -128 -84
-144 -90 -114 -46 50 70 196 204 279 255 94 58 118 65 99 31z m-5459 -103 c36
-27 81 -67 100 -90 19 -22 57 -65 84 -93 27 -29 46 -53 43 -53 -6 0 -161 97
-209 131 -16 11 -28 15 -28 10 0 -6 6 -14 14 -18 14 -8 49 -93 38 -93 -3 0
-15 8 -27 18 -12 9 11 -13 49 -50 78 -73 87 -98 16 -42 -39 31 -114 74 -129
74 -2 0 6 -11 19 -25 29 -30 20 -43 -18 -25 -41 21 -49 23 -32 8 8 -7 28 -30
43 -51 16 -20 40 -48 55 -62 44 -41 20 -36 -35 6 -56 44 -111 61 -90 28 18
-29 2 -32 -45 -9 -39 20 -34 13 62 -84 57 -58 100 -106 95 -105 -6 0 -30 13
-55 29 -25 16 -79 49 -122 74 -42 25 -117 84 -167 132 -85 81 -104 104 -82
104 8 0 173 -93 201 -113 8 -6 1 4 -16 23 -45 51 -88 110 -78 110 4 0 32 -14
62 -31 l56 -31 -52 58 c-28 32 -50 59 -48 61 2 2 30 -12 62 -32 l59 -36 -45
41 c-50 46 -94 72 -104 63 -3 -4 -6 -1 -6 5 0 20 30 13 96 -23 58 -32 94 -46
69 -27 -5 4 -32 31 -59 60 -55 57 -56 80 -3 39 19 -14 37 -24 40 -21 3 3 19
-2 36 -11 40 -20 42 -2 4 37 -42 44 -13 33 62 -23 l68 -51 -86 94 c-48 51 -87
96 -87 101 0 13 122 -55 190 -107z m5470 -9 c0 -7 -7 -23 -16 -35 -26 -37 -11
-34 40 8 44 36 66 48 66 35 0 -9 -104 -135 -112 -135 -4 0 -8 -5 -8 -10 0 -6
17 0 37 14 20 14 40 23 44 20 5 -3 26 7 48 21 60 37 72 30 24 -14 -24 -21 -43
-43 -43 -48 0 -4 -15 -26 -32 -48 l-33 -40 45 36 c102 81 105 50 6 -60 l-31
-35 35 23 c62 39 172 92 178 86 8 -8 -90 -105 -156 -154 -84 -62 -259 -171
-274 -171 -7 1 37 48 97 106 102 98 106 104 61 80 -27 -15 -51 -24 -54 -22 -6
7 35 62 65 86 14 11 23 20 19 20 -6 0 -33 -17 -171 -105 -79 -51 -82 -51 -40
-3 54 62 96 120 91 126 -3 2 -19 -6 -36 -18 -36 -26 -50 -22 -20 5 52 47 -9
25 -127 -45 -33 -19 -33 -19 -21 0 7 11 16 20 20 20 13 0 130 102 124 108 -3
3 -24 -9 -45 -26 -22 -18 -42 -32 -45 -32 -11 0 55 87 96 126 63 59 150 106
133 72 -3 -7 0 -5 7 5 15 20 28 22 28 4z m-5790 -350 c45 -30 262 -248 255
-255 -5 -6 -80 38 -195 114 -101 66 -247 205 -236 223 8 12 100 -31 176 -82z
m6110 75 c0 -4 -28 -35 -62 -69 -70 -68 -378 -281 -378 -261 0 7 51 63 113
124 107 106 176 156 272 196 46 19 55 21 55 10z m-6306 -108 c-7 19 -3 20 28
4 65 -34 161 -115 239 -199 90 -99 112 -128 88 -114 -153 88 -240 150 -347
251 -70 65 -90 105 -31 64 22 -16 27 -18 23 -6z m5136 -604 l0 -630 -52 -23
c-29 -13 -95 -38 -146 -56 -90 -32 -94 -33 -107 -15 -15 21 -183 313 -236 412
-18 34 -36 62 -40 62 -6 0 -19 -302 -19 -456 0 -137 3 -133 -138 -177 -66 -20
-127 -39 -136 -43 -17 -6 -66 89 -274 531 -133 284 -182 386 -233 488 -27 54
-49 102 -49 106 0 4 34 15 77 25 42 10 114 29 161 42 47 14 86 23 87 22 1 -2
41 -91 89 -198 169 -375 150 -338 157 -302 3 17 9 102 13 189 3 87 9 206 12
265 l7 107 105 35 c58 20 109 33 113 28 4 -4 23 -34 42 -67 179 -316 247 -427
247 -410 1 10 -3 408 -4 519 l-1 59 150 58 c83 32 156 58 163 59 9 0 12 -132
12 -630z m1135 600 c-10 -11 -23 -20 -29 -20 -6 0 0 9 14 20 32 25 38 25 15 0z
m113 11 c-7 -19 -173 -163 -217 -188 -25 -14 -80 -50 -121 -78 -96 -66 -100
-68 -100 -56 0 18 203 222 249 249 53 31 160 80 179 81 8 1 12 -3 10 -8z
m-6421 -97 c110 -59 138 -81 220 -177 109 -127 112 -133 51 -92 -132 89 -132
88 -122 49 6 -25 6 -26 -17 -13 -23 12 -23 11 -10 -7 8 -10 29 -34 45 -53 l31
-35 -30 19 -30 18 23 -25 c12 -13 22 -28 22 -32 0 -9 -38 14 -70 42 -18 15
-50 25 -50 16 0 -3 7 -16 16 -29 21 -32 6 -32 -49 0 -23 14 -32 18 -19 8 13
-10 38 -31 55 -46 30 -27 31 -28 7 -21 -19 5 -13 -4 28 -41 29 -26 50 -50 48
-53 -3 -2 -31 12 -63 31 -32 19 -78 45 -103 57 -25 13 -82 59 -127 103 -90 87
-109 123 -45 84 50 -31 93 -49 100 -42 5 5 -29 46 -85 102 -42 41 -24 46 24 7
31 -25 44 -32 40 -20 -5 12 -3 17 5 13 62 -23 64 -22 30 20 -17 22 -38 46 -47
53 -8 7 -15 17 -15 22 0 5 21 -6 48 -24 26 -19 56 -35 67 -34 11 0 31 -4 44
-8 l25 -9 -26 24 c-26 25 -98 115 -98 124 0 9 6 6 77 -31z m6473 9 c0 -3 -22
-32 -48 -62 -71 -82 -70 -84 15 -36 43 25 82 45 88 45 5 0 -17 -27 -50 -60
-59 -59 -63 -73 -15 -45 31 18 48 19 32 3 -7 -7 -12 -16 -12 -21 0 -5 19 8 42
27 23 20 45 36 50 36 17 0 7 -17 -22 -38 -16 -13 -30 -28 -30 -34 0 -7 -17
-29 -37 -51 l-38 -38 78 41 c43 23 81 39 84 36 9 -8 -74 -95 -137 -144 -73
-56 -251 -174 -256 -170 -4 5 201 211 215 216 6 2 11 8 11 12 0 5 -29 -11 -64
-35 -35 -25 -67 -45 -70 -45 -4 0 1 14 9 31 9 17 15 33 12 35 -2 2 -39 -21
-83 -51 -90 -63 -116 -71 -61 -19 20 19 37 39 37 44 0 5 6 15 13 22 14 15 58
88 53 88 -2 0 -17 -7 -32 -15 -16 -8 -37 -15 -48 -15 -10 0 -45 -18 -78 -41
-33 -22 -61 -39 -63 -37 -4 4 95 121 164 194 51 54 138 109 185 118 16 3 31 8
34 11 8 7 22 6 22 -2z m-4498 -138 c278 -72 350 -102 435 -178 77 -71 115
-154 121 -264 3 -49 -1 -110 -8 -142 -33 -153 -154 -267 -327 -307 -96 -22
-151 -15 -376 48 -22 6 -42 7 -47 2 -4 -5 -26 -70 -48 -144 -51 -170 -59 -190
-74 -190 -27 0 -291 96 -295 107 -3 7 25 106 62 220 37 115 73 228 80 253 8
25 29 95 48 155 19 61 56 178 82 260 74 238 76 245 86 245 5 0 122 -29 261
-65z m-810 -41 c76 -25 138 -50 138 -55 0 -5 -34 -102 -76 -216 -76 -208 -191
-532 -201 -565 -3 -10 -12 -18 -20 -18 -23 0 -203 82 -203 92 0 5 7 22 15 39
9 16 36 82 60 147 24 64 69 182 100 262 30 79 55 147 55 151 0 3 -21 12 -46
19 -52 15 -51 9 -12 123 15 43 28 67 38 67 8 0 77 -21 152 -46z m6330 -104
c95 -34 217 -60 313 -67 102 -6 122 -18 52 -28 -91 -14 -338 51 -455 120 -74
43 -82 55 -12 20 27 -14 73 -34 102 -45z m-8492 45 c-22 -27 -171 -91 -260
-113 -125 -30 -165 -35 -221 -27 -66 9 -46 25 31 25 80 0 229 34 339 76 53 20
100 41 106 45 15 15 18 10 5 -6z m803 -67 c92 -62 327 -280 309 -286 -31 -10
-396 258 -377 276 3 4 10 0 15 -8 6 -8 10 -10 10 -4 0 6 -16 23 -35 38 -19 16
-32 32 -29 37 8 14 8 13 107 -53z m6867 50 c0 -6 -21 -31 -47 -55 -26 -23 -41
-43 -33 -43 7 0 27 12 42 27 31 29 39 18 11 -15 -60 -67 -363 -271 -363 -243
0 15 256 257 317 300 62 43 73 47 73 29z m-3602 -63 c9 -3 12 -108 12 -479 l0
-474 28 -6 c15 -4 151 -2 302 3 151 6 278 7 282 3 3 -4 10 -68 14 -143 l7
-137 -129 -8 c-154 -11 -719 -10 -787 0 l-48 7 2 617 c1 339 3 619 4 622 4 6
294 1 313 -5z m-4171 -229 c175 -64 312 -139 403 -220 l35 -31 -30 35 c-68 78
-67 81 10 23 129 -98 246 -225 289 -314 44 -94 46 -116 4 -58 -38 52 -46 40
-18 -25 11 -26 20 -57 20 -69 0 -18 -4 -16 -26 14 -15 19 -23 25 -19 14 38
-102 75 -211 73 -217 -2 -4 -36 52 -77 125 -195 347 -286 470 -432 578 -57 42
-138 83 -349 177 -62 27 10 8 117 -32z m8693 25 c-111 -45 -268 -125 -325
-166 -124 -88 -246 -238 -360 -440 -120 -214 -160 -279 -163 -264 -1 9 6 36
17 62 19 44 52 190 51 226 -1 9 -13 -8 -28 -38 -46 -92 -53 -68 -11 40 58 148
131 242 268 344 79 58 110 72 71 30 -28 -29 -13 -34 17 -5 64 59 198 129 358
186 119 43 191 60 105 25z m-6986 -122 c47 -37 22 -119 -36 -119 -24 0 -68 36
-68 56 0 25 22 62 44 72 29 15 30 15 60 -9z m5248 -6 c10 -9 18 -30 18 -49 0
-57 -69 -85 -110 -44 -60 60 29 150 92 93z m-6134 -58 c55 -51 101 -119 88
-132 -3 -3 -19 17 -35 43 -17 27 -55 70 -83 96 -29 26 -48 48 -41 48 6 0 39
-25 71 -55z m6952 -22 c-24 -27 -47 -52 -52 -57 -5 -6 -8 -6 -8 1 0 14 91 115
98 109 3 -3 -14 -27 -38 -53z m48 -15 c-29 -35 -71 -84 -92 -110 -44 -56 -60
-61 -44 -16 12 34 174 206 184 195 4 -3 -18 -34 -48 -69z m-7088 31 c0 -6 -4
-7 -10 -4 -5 3 -10 11 -10 16 0 6 5 7 10 4 6 -3 10 -11 10 -16z m66 -27 c23
-18 94 -113 113 -149 13 -25 -1 -32 -19 -10 -18 22 -116 152 -123 165 -11 17
4 15 29 -6z m-39 -44 c67 -72 141 -197 103 -173 -11 7 -150 192 -150 200 0 13
19 2 47 -27z m7072 -50 c-25 -29 -57 -70 -73 -91 -35 -48 -44 -42 -16 13 24
46 116 147 126 137 4 -4 -13 -30 -37 -59z m79 11 c-12 -23 -37 -57 -54 -78
-17 -20 -43 -54 -58 -75 -26 -39 -33 -37 -17 6 12 33 130 188 142 188 6 0 0
-18 -13 -41z m-7249 -53 c40 -37 97 -122 107 -160 11 -47 -19 -29 -54 32 -18
31 -62 90 -97 130 -36 40 -65 75 -65 78 0 7 67 -43 109 -80z m66 22 c59 -65
99 -131 92 -151 -2 -7 -19 10 -38 37 -19 27 -55 76 -81 109 -27 33 -48 61 -48
63 0 16 27 -5 75 -58z m7305 58 c0 -3 -6 -11 -13 -18 -29 -30 -107 -137 -142
-195 -51 -84 -69 -98 -46 -36 30 82 50 116 94 163 50 52 107 98 107 86z"/>
<path d="M5399 9973 c-21 -5 -29 -33 -20 -75 5 -26 12 -33 29 -32 12 0 40 1
62 2 l40 2 0 43 c0 24 -5 48 -12 55 -12 12 -65 14 -99 5z"/>
<path d="M5381 9373 c-49 -18 -117 -82 -137 -130 -16 -38 -18 -95 -4 -142 14
-48 5 -50 -19 -4 -19 36 -20 37 -21 11 0 -40 15 -72 57 -119 78 -87 197 -113
298 -65 59 28 94 63 129 129 37 69 32 78 -11 21 -47 -62 -79 -91 -122 -110
-42 -18 -53 -11 -14 9 36 19 100 88 113 122 14 38 12 120 -4 158 -16 38 -68
93 -108 113 -43 22 -108 25 -157 7z m137 -80 c32 -20 55 -78 48 -118 -9 -47
-47 -77 -104 -83 -54 -5 -104 15 -122 47 -5 11 -10 36 -10 56 0 98 104 152
188 98z"/>
<path d="M3290 8700 c-8 -5 -12 -12 -9 -15 4 -3 12 1 19 10 14 17 11 19 -10 5z"/>
<path d="M7278 8933 c7 -3 16 -2 19 1 4 3 -2 6 -13 5 -11 0 -14 -3 -6 -6z"/>
<path d="M7272 8859 c2 -7 10 -15 17 -17 8 -3 12 1 9 9 -2 7 -10 15 -17 17 -8
3 -12 -1 -9 -9z"/>
<path d="M6415 8970 c-18 -8 -17 -9 8 -9 16 -1 26 3 22 9 -3 6 -7 10 -8 9 -1
0 -11 -4 -22 -9z"/>
<path d="M4832 8735 c-13 -7 -28 -17 -34 -23 -15 -15 18 -65 58 -87 31 -17 35
-17 58 -1 80 52 1 158 -82 111z"/>
<path d="M5952 8719 c-30 -47 -11 -91 45 -103 26 -6 36 -2 61 21 47 44 49 67
9 92 -51 31 -91 28 -115 -10z"/>
<path d="M3023 8743 c-24 -9 -12 -73 13 -73 13 0 34 30 34 49 0 14 -32 29 -47
24z"/>
<path d="M3070 8655 c-8 -9 -8 -15 -2 -15 12 0 26 19 19 26 -2 2 -10 -2 -17
-11z"/>
<path d="M6511 8594 c0 -11 3 -14 6 -6 3 7 2 16 -1 19 -3 4 -6 -2 -5 -13z"/>
<path d="M7816 8732 c-3 -5 -2 -18 1 -30 7 -27 39 -29 53 -2 8 15 6 21 -9 30
-24 12 -38 13 -45 2z"/>
<path d="M7780 8640 c0 -24 15 -27 24 -4 9 22 8 24 -9 24 -8 0 -15 -9 -15 -20z"/>
<path d="M2710 8355 c-10 -12 -10 -15 3 -15 19 0 31 16 18 24 -5 3 -14 -1 -21
-9z"/>
<path d="M8130 8371 c0 -6 9 -15 20 -21 13 -7 20 -7 20 -1 0 6 -9 15 -20 21
-13 7 -20 7 -20 1z"/>
<path d="M2203 7762 c-21 -16 -60 -92 -48 -92 3 0 22 15 41 33 51 46 70 51 94
25 22 -24 26 -18 9 15 -22 41 -59 49 -96 19z"/>
<path d="M8587 7762 c-10 -11 -16 -33 -16 -53 2 -29 3 -30 6 -7 7 45 87 64
123 28 26 -26 26 -10 -1 24 -25 32 -86 37 -112 8z"/>
<path d="M5321 5647 c-2 -73 51 -127 123 -127 63 0 117 59 115 126 l-1 39 -8
-35 c-12 -50 -60 -90 -110 -90 -50 0 -98 40 -110 90 l-8 35 -1 -38z"/>
<path d="M5425 5658 c-9 -22 4 -43 17 -30 7 7 7 16 0 29 -10 17 -11 17 -17 1z"/>
<path d="M5558 5535 c-71 -66 -174 -70 -242 -7 l-30 27 16 -25 c33 -53 112
-78 183 -59 37 11 89 50 106 80 13 26 10 24 -33 -16z"/>
<path d="M4115 4880 c3 -5 8 -10 11 -10 2 0 4 5 4 10 0 6 -5 10 -11 10 -5 0
-7 -4 -4 -10z"/>
<path d="M3768 4813 c7 -3 16 -2 19 1 4 3 -2 6 -13 5 -11 0 -14 -3 -6 -6z"/>
<path d="M4204 3031 c-9 -25 -27 -64 -40 -87 -13 -22 -24 -44 -24 -47 0 -18
342 -103 610 -151 119 -22 316 -43 516 -57 267 -17 607 8 954 71 167 31 508
115 524 130 5 5 0 21 -11 37 -11 15 -33 53 -48 83 -15 30 -28 56 -29 57 -2 2
-44 -17 -94 -42 -441 -216 -932 -318 -1317 -275 -279 32 -653 143 -907 269
l-116 59 -18 -47z"/>
<path d="M8205 3110 c-3 -5 -1 -10 4 -10 6 0 11 5 11 10 0 6 -2 10 -4 10 -3 0
-8 -4 -11 -10z"/>
<path d="M8189 2963 c-13 -16 -12 -17 4 -4 9 7 17 15 17 17 0 8 -8 3 -21 -13z"/>
<path d="M8499 2378 c-12 -23 -12 -23 10 -4 23 21 26 26 11 26 -5 0 -15 -10
-21 -22z"/>
<path d="M4142 2118 c-22 -79 -39 -144 -38 -145 8 -9 165 -43 195 -43 56 0
103 29 129 80 27 54 28 105 2 147 -26 43 -58 62 -138 84 -112 32 -103 39 -150
-123z"/>
<path d="M4450 9554 c-116 -24 -342 -83 -392 -103 -18 -7 -28 -18 -28 -31 0
-25 2 -25 86 1 54 17 443 109 460 109 7 0 4 39 -3 43 -5 2 -60 -6 -123 -19z"/>
<path d="M6313 9564 c-3 -8 -2 -19 3 -23 5 -4 70 -20 144 -35 74 -15 182 -41
240 -57 124 -34 140 -35 140 -10 0 20 -23 29 -170 70 -78 22 -313 71 -337 71
-7 0 -16 -7 -20 -16z"/>
<path d="M6890 9425 c-16 -19 -16 -19 44 -44 56 -24 82 -26 89 -7 4 9 -13 22
-52 40 -69 31 -65 30 -81 11z"/>
<path d="M3916 9405 c-45 -16 -61 -29 -52 -44 10 -15 29 -14 76 5 27 11 40 22
40 35 0 22 -11 23 -64 4z"/>
<path d="M2401 9126 c-10 -11 10 -39 100 -140 62 -70 117 -125 123 -123 29 9
9 44 -90 156 -59 66 -110 121 -114 121 -4 0 -13 -6 -19 -14z"/>
<path d="M8433 9098 c-17 -24 -72 -90 -122 -147 -70 -81 -88 -107 -80 -118 6
-7 17 -13 23 -12 10 0 125 131 215 245 30 39 37 54 29 62 -20 20 -33 14 -65
-30z"/>
<path d="M2195 8900 c-9 -14 22 -53 102 -133 50 -49 74 -66 86 -61 9 3 17 10
17 16 0 11 -179 188 -191 188 -4 0 -11 -5 -14 -10z"/>
<path d="M8586 8810 c-82 -83 -96 -110 -59 -110 18 0 194 180 187 192 -14 22
-48 0 -128 -82z"/>
<path d="M2686 8844 c-10 -26 -7 -34 12 -34 27 0 43 15 36 33 -8 21 -40 22
-48 1z"/>
<path d="M1973 8725 c-3 -11 9 -29 38 -53 24 -20 75 -65 114 -99 52 -45 73
-59 83 -51 21 18 13 31 -44 78 -31 25 -63 52 -72 60 -97 86 -108 92 -119 65z"/>
<path d="M8757 8604 c-87 -75 -161 -142 -164 -151 -3 -8 -1 -19 4 -24 7 -7 44
18 109 72 184 153 243 210 237 225 -3 8 -10 14 -17 14 -6 0 -82 -62 -169 -136z"/>
<path d="M8988 8416 c-69 -50 -167 -120 -217 -155 -89 -62 -106 -83 -77 -94
23 -9 446 293 446 317 0 33 -33 18 -152 -68z"/>
<path d="M1774 8488 c-8 -13 11 -30 156 -134 297 -213 320 -226 320 -186 0 11
-49 51 -136 112 -74 52 -174 123 -221 158 -87 63 -106 71 -119 50z"/>
<path d="M1613 8274 c-8 -20 0 -26 180 -138 78 -49 161 -101 184 -117 23 -16
48 -29 57 -29 27 0 30 23 6 42 -29 23 -406 258 -414 258 -4 0 -9 -7 -13 -16z"/>
<path d="M9144 8207 c-73 -45 -157 -98 -189 -117 -86 -53 -107 -72 -95 -90 12
-18 20 -14 262 137 173 108 194 125 183 143 -11 18 -27 10 -161 -73z"/>
<path d="M1486 8043 c-19 -20 1 -42 82 -87 323 -182 342 -191 342 -152 0 8
-79 58 -187 119 -234 130 -229 128 -237 120z"/>
<path d="M9310 7991 c-58 -32 -150 -83 -205 -114 -95 -52 -123 -81 -93 -92 13
-5 232 109 373 194 60 36 84 71 48 71 -10 -1 -65 -27 -123 -59z"/>
<path d="M1167 7493 c-18 -17 -2 -36 49 -60 53 -24 56 -24 70 -7 13 18 14 17
9 -6 -5 -24 1 -28 137 -84 304 -126 604 -246 614 -246 7 0 14 6 17 14 10 25
27 17 -373 181 -85 35 -209 86 -275 113 -67 27 -144 61 -173 76 -54 27 -65 30
-75 19z"/>
<path d="M764 3935 c-3 -8 -3 -19 1 -25 8 -13 1423 -14 1444 -1 8 5 11 16 8
25 -6 14 -75 16 -727 16 -621 0 -721 -2 -726 -15z"/>
<path d="M8653 3934 c-3 -8 -1 -20 4 -25 5 -5 290 -8 729 -7 711 3 719 3 719
23 0 20 -8 20 -723 23 -650 2 -723 1 -729 -14z"/>
<path d="M960 3680 c0 -20 4 -20 498 -18 434 3 497 5 497 18 0 13 -63 15 -497
18 -494 2 -498 2 -498 -18z"/>
<path d="M8950 3680 c0 -20 7 -20 485 -20 478 0 485 0 485 20 0 20 -7 20 -485
20 -478 0 -485 0 -485 -20z"/>
<path d="M1042 3458 l3 -23 370 -2 c204 -2 376 1 384 6 8 5 11 16 8 25 -6 14
-47 16 -387 16 l-381 0 3 -22z"/>
<path d="M9083 3464 c-3 -9 0 -20 8 -25 16 -10 708 -13 733 -3 9 3 16 15 16
25 0 18 -14 19 -375 19 -335 0 -376 -2 -382 -16z"/>
<path d="M1087 3252 c-11 -2 -17 -11 -15 -20 3 -15 29 -17 246 -20 l243 -2 -3
22 -3 23 -225 0 c-124 1 -233 -1 -243 -3z"/>
<path d="M9537 3252 c-210 -2 -228 -4 -225 -20 3 -15 24 -17 233 -20 127 -1
240 0 253 3 24 6 31 35 8 35 -8 0 -20 1 -28 3 -7 1 -116 1 -241 -1z"/>
</g>
</svg>
